<?xml version="1.0" encoding="utf-8"?>
<svg xmlns="http://www.w3.org/2000/svg" viewBox="0 0 800 450" width="100%" height="100%">
<rect width="800" height="450" fill="#1a1a1a" rx="8"/>
<line x1="0" y1="365" x2="800" y2="365" stroke="#333" stroke-width="2"/>
<!-- ara -->
<g>
<animateTransform attributeName="transform" type="translate" values="460.0;340.0;310.0;310.0;310.0;460.0" keyTimes="0.000;0.167;0.250;0.417;0.667;0.833" dur="12s" repeatCount="indefinite"/>
<animateTransform attributeName="transform" type="translate" values="365.0;365.0;365.0;365.0;365.0;365.0" keyTimes="0.000;0.167;0.250;0.417;0.667;0.833" dur="12s" repeatCount="indefinite" additive="sum"/>
<g>
<animate attributeName="opacity" values="0;0;1;1;0;0" keyTimes="0;0.000;0.010;0.157;0.167;1" dur="12s" repeatCount="indefinite"/>
<circle cx="0" cy="-107" r="10" fill="none" stroke="#3c964a" stroke-width="3"/>
<line x1="0" y1="-97" x2="0" y2="-50" stroke="#3c964a" stroke-width="3"/>
<line x1="0" y1="-92" x2="-16" y2="-75" stroke="#3c964a" stroke-width="2.5"/>
<line x1="0" y1="-92" x2="16" y2="-75" stroke="#3c964a" stroke-width="2.5"/>
<line x1="0" y1="-50" x2="-8" y2="0" stroke="#3c964a" stroke-width="2.5"/>
<line x1="0" y1="-50" x2="8" y2="0" stroke="#3c964a" stroke-width="2.5"/>
<circle cx="-6" cy="-85" r="3.5" fill="none" stroke="#3c964a" stroke-width="2"/>
<circle cx="-6" cy="-85" r="1.2" fill="#3c964a"/>
<circle cx="6" cy="-85" r="3.5" fill="none" stroke="#3c964a" stroke-width="2"/>
<circle cx="6" cy="-85" r="1.2" fill="#3c964a"/>
<text x="0" y="25" text-anchor="middle" font-size="11" fill="#777" font-family="sans-serif">Ara</text>
</g>
<g>
<animate attributeName="opacity" values="0;0;1;1;0;0" keyTimes="0;0.167;0.177;0.240;0.250;1" dur="12s" repeatCount="indefinite"/>
<circle cx="0" cy="-107" r="10" fill="none" stroke="#3c964a" stroke-width="3"/>
<line x1="0" y1="-97" x2="0" y2="-50" stroke="#3c964a" stroke-width="3"/>
<line x1="0" y1="-92" x2="-24" y2="-85" stroke="#3c964a" stroke-width="2.5"/>
<line x1="0" y1="-92" x2="24" y2="-85" stroke="#3c964a" stroke-width="2.5"/>
<line x1="0" y1="-50" x2="-8" y2="0" stroke="#3c964a" stroke-width="2.5"/>
<line x1="0" y1="-50" x2="8" y2="0" stroke="#3c964a" stroke-width="2.5"/>
<circle cx="-6" cy="-85" r="3.5" fill="none" stroke="#3c964a" stroke-width="2"/>
<circle cx="-6" cy="-85" r="1.2" fill="#3c964a"/>
<circle cx="6" cy="-85" r="3.5" fill="none" stroke="#3c964a" stroke-width="2"/>
<circle cx="6" cy="-85" r="1.2" fill="#3c964a"/>
<text x="0" y="25" text-anchor="middle" font-size="11" fill="#777" font-family="sans-serif">Ara</text>
</g>
<g>
<animate attributeName="opacity" values="0;0;1;1;0;0" keyTimes="0;0.250;0.260;0.407;0.417;1" dur="12s" repeatCount="indefinite"/>
<circle cx="0" cy="-107" r="10" fill="none" stroke="#3c964a" stroke-width="3"/>
<line x1="0" y1="-97" x2="0" y2="-50" stroke="#3c964a" stroke-width="3"/>
<line x1="0" y1="-92" x2="-24" y2="-85" stroke="#3c964a" stroke-width="2.5"/>
<line x1="0" y1="-92" x2="24" y2="-85" stroke="#3c964a" stroke-width="2.5"/>
<line x1="0" y1="-50" x2="-8" y2="0" stroke="#3c964a" stroke-width="2.5"/>
<line x1="0" y1="-50" x2="8" y2="0" stroke="#3c964a" stroke-width="2.5"/>
<circle cx="-6" cy="-85" r="3.5" fill="none" stroke="#3c964a" stroke-width="2"/>
<circle cx="-6" cy="-85" r="1.2" fill="#3c964a"/>
<circle cx="6" cy="-85" r="3.5" fill="none" stroke="#3c964a" stroke-width="2"/>
<circle cx="6" cy="-85" r="1.2" fill="#3c964a"/>
<text x="0" y="25" text-anchor="middle" font-size="11" fill="#777" font-family="sans-serif">Ara</text>
</g>
<g>
<animate attributeName="opacity" values="0;0;1;1;0;0" keyTimes="0;0.417;0.427;0.657;0.667;1" dur="12s" repeatCount="indefinite"/>
<circle cx="0" cy="-103" r="10" fill="none" stroke="#3c964a" stroke-width="3"/>
<line x1="0" y1="-93" x2="0" y2="-47" stroke="#3c964a" stroke-width="3"/>
<line x1="0" y1="-88" x2="-15" y2="-65" stroke="#3c964a" stroke-width="2.5"/>
<line x1="0" y1="-88" x2="-25" y2="-83" stroke="#3c964a" stroke-width="2.5"/>
<line x1="0" y1="-47" x2="-6" y2="0" stroke="#3c964a" stroke-width="2.5"/>
<line x1="0" y1="-47" x2="6" y2="0" stroke="#3c964a" stroke-width="2.5"/>
<circle cx="-6" cy="-81" r="3.5" fill="none" stroke="#3c964a" stroke-width="2"/>
<circle cx="-6" cy="-81" r="1.2" fill="#3c964a"/>
<circle cx="6" cy="-81" r="3.5" fill="none" stroke="#3c964a" stroke-width="2"/>
<circle cx="6" cy="-81" r="1.2" fill="#3c964a"/>
<text x="0" y="25" text-anchor="middle" font-size="11" fill="#777" font-family="sans-serif">Ara</text>
</g>
<g>
<animate attributeName="opacity" values="0;0;1;1;0;0" keyTimes="0;0.667;0.677;0.823;0.833;1" dur="12s" repeatCount="indefinite"/>
<circle cx="0" cy="-103" r="10" fill="none" stroke="#3c964a" stroke-width="3"/>
<line x1="0" y1="-93" x2="0" y2="-47" stroke="#3c964a" stroke-width="3"/>
<line x1="0" y1="-88" x2="-15" y2="-65" stroke="#3c964a" stroke-width="2.5"/>
<line x1="0" y1="-88" x2="-25" y2="-83" stroke="#3c964a" stroke-width="2.5"/>
<line x1="0" y1="-47" x2="-6" y2="0" stroke="#3c964a" stroke-width="2.5"/>
<line x1="0" y1="-47" x2="6" y2="0" stroke="#3c964a" stroke-width="2.5"/>
<circle cx="-6" cy="-81" r="3.5" fill="none" stroke="#3c964a" stroke-width="2"/>
<circle cx="-6" cy="-81" r="1.2" fill="#3c964a"/>
<circle cx="6" cy="-81" r="3.5" fill="none" stroke="#3c964a" stroke-width="2"/>
<circle cx="6" cy="-81" r="1.2" fill="#3c964a"/>
<text x="0" y="25" text-anchor="middle" font-size="11" fill="#777" font-family="sans-serif">Ara</text>
</g>
<g>
<animate attributeName="opacity" values="0;0;1;1;0;0" keyTimes="0;0.833;0.843;0.990;1.000;1" dur="12s" repeatCount="indefinite"/>
<circle cx="0" cy="-107" r="10" fill="none" stroke="#3c964a" stroke-width="3"/>
<line x1="0" y1="-97" x2="0" y2="-50" stroke="#3c964a" stroke-width="3"/>
<line x1="0" y1="-92" x2="-16" y2="-75" stroke="#3c964a" stroke-width="2.5"/>
<line x1="0" y1="-92" x2="16" y2="-75" stroke="#3c964a" stroke-width="2.5"/>
<line x1="0" y1="-50" x2="-8" y2="0" stroke="#3c964a" stroke-width="2.5"/>
<line x1="0" y1="-50" x2="8" y2="0" stroke="#3c964a" stroke-width="2.5"/>
<circle cx="-6" cy="-85" r="3.5" fill="none" stroke="#3c964a" stroke-width="2"/>
<circle cx="-6" cy="-85" r="1.2" fill="#3c964a"/>
<circle cx="6" cy="-85" r="3.5" fill="none" stroke="#3c964a" stroke-width="2"/>
<circle cx="6" cy="-85" r="1.2" fill="#3c964a"/>
<text x="0" y="25" text-anchor="middle" font-size="11" fill="#777" font-family="sans-serif">Ara</text>
</g>
</g>
<!-- gerrit -->
<g>
<animateTransform attributeName="transform" type="translate" values="280.0;280.0;280.0;280.0;280.0;280.0" keyTimes="0.000;0.167;0.250;0.417;0.667;0.833" dur="12s" repeatCount="indefinite"/>
<animateTransform attributeName="transform" type="translate" values="365.0;365.0;365.0;365.0;365.0;365.0" keyTimes="0.000;0.167;0.250;0.417;0.667;0.833" dur="12s" repeatCount="indefinite" additive="sum"/>
<g>
<animate attributeName="opacity" values="0;0;1;1;0;0" keyTimes="0;0.000;0.010;0.157;0.167;1" dur="12s" repeatCount="indefinite"/>
<circle cx="0" cy="-107" r="10" fill="none" stroke="#8270a0" stroke-width="3"/>
<line x1="0" y1="-97" x2="0" y2="-50" stroke="#8270a0" stroke-width="3"/>
<line x1="0" y1="-92" x2="-16" y2="-75" stroke="#8270a0" stroke-width="2.5"/>
<line x1="0" y1="-92" x2="16" y2="-75" stroke="#8270a0" stroke-width="2.5"/>
<line x1="0" y1="-50" x2="-8" y2="0" stroke="#8270a0" stroke-width="2.5"/>
<line x1="0" y1="-50" x2="8" y2="0" stroke="#8270a0" stroke-width="2.5"/>
<text x="0" y="25" text-anchor="middle" font-size="11" fill="#777" font-family="sans-serif">Gerrit</text>
</g>
<g>
<animate attributeName="opacity" values="0;0;1;1;0;0" keyTimes="0;0.167;0.177;0.240;0.250;1" dur="12s" repeatCount="indefinite"/>
<circle cx="0" cy="-107" r="10" fill="none" stroke="#8270a0" stroke-width="3"/>
<line x1="0" y1="-97" x2="0" y2="-50" stroke="#8270a0" stroke-width="3"/>
<line x1="0" y1="-92" x2="-16" y2="-75" stroke="#8270a0" stroke-width="2.5"/>
<line x1="0" y1="-92" x2="16" y2="-75" stroke="#8270a0" stroke-width="2.5"/>
<line x1="0" y1="-50" x2="-8" y2="0" stroke="#8270a0" stroke-width="2.5"/>
<line x1="0" y1="-50" x2="8" y2="0" stroke="#8270a0" stroke-width="2.5"/>
<text x="0" y="25" text-anchor="middle" font-size="11" fill="#777" font-family="sans-serif">Gerrit</text>
</g>
<g>
<animate attributeName="opacity" values="0;0;1;1;0;0" keyTimes="0;0.250;0.260;0.407;0.417;1" dur="12s" repeatCount="indefinite"/>
<circle cx="0" cy="-107" r="10" fill="none" stroke="#8270a0" stroke-width="3"/>
<line x1="0" y1="-97" x2="0" y2="-50" stroke="#8270a0" stroke-width="3"/>
<line x1="0" y1="-92" x2="-24" y2="-85" stroke="#8270a0" stroke-width="2.5"/>
<line x1="0" y1="-92" x2="24" y2="-85" stroke="#8270a0" stroke-width="2.5"/>
<line x1="0" y1="-50" x2="-8" y2="0" stroke="#8270a0" stroke-width="2.5"/>
<line x1="0" y1="-50" x2="8" y2="0" stroke="#8270a0" stroke-width="2.5"/>
<text x="0" y="25" text-anchor="middle" font-size="11" fill="#777" font-family="sans-serif">Gerrit</text>
</g>
<g>
<animate attributeName="opacity" values="0;0;1;1;0;0" keyTimes="0;0.417;0.427;0.657;0.667;1" dur="12s" repeatCount="indefinite"/>
<circle cx="0" cy="-107" r="10" fill="none" stroke="#8270a0" stroke-width="3"/>
<line x1="0" y1="-97" x2="0" y2="-50" stroke="#8270a0" stroke-width="3"/>
<line x1="0" y1="-92" x2="22" y2="-70" stroke="#8270a0" stroke-width="2.5"/>
<line x1="0" y1="-92" x2="30" y2="-83" stroke="#8270a0" stroke-width="2.5"/>
<line x1="0" y1="-50" x2="-8" y2="0" stroke="#8270a0" stroke-width="2.5"/>
<line x1="0" y1="-50" x2="8" y2="0" stroke="#8270a0" stroke-width="2.5"/>
<text x="0" y="25" text-anchor="middle" font-size="11" fill="#777" font-family="sans-serif">Gerrit</text>
</g>
<g>
<animate attributeName="opacity" values="0;0;1;1;0;0" keyTimes="0;0.667;0.677;0.823;0.833;1" dur="12s" repeatCount="indefinite"/>
<circle cx="0" cy="-107" r="10" fill="none" stroke="#8270a0" stroke-width="3"/>
<line x1="0" y1="-97" x2="0" y2="-50" stroke="#8270a0" stroke-width="3"/>
<line x1="0" y1="-92" x2="22" y2="-70" stroke="#8270a0" stroke-width="2.5"/>
<line x1="0" y1="-92" x2="30" y2="-83" stroke="#8270a0" stroke-width="2.5"/>
<line x1="0" y1="-50" x2="-8" y2="0" stroke="#8270a0" stroke-width="2.5"/>
<line x1="0" y1="-50" x2="8" y2="0" stroke="#8270a0" stroke-width="2.5"/>
<text x="0" y="25" text-anchor="middle" font-size="11" fill="#777" font-family="sans-serif">Gerrit</text>
</g>
<g>
<animate attributeName="opacity" values="0;0;1;1;0;0" keyTimes="0;0.833;0.843;0.990;1.000;1" dur="12s" repeatCount="indefinite"/>
<circle cx="0" cy="-107" r="10" fill="none" stroke="#8270a0" stroke-width="3"/>
<line x1="0" y1="-97" x2="0" y2="-50" stroke="#8270a0" stroke-width="3"/>
<line x1="0" y1="-92" x2="-16" y2="-75" stroke="#8270a0" stroke-width="2.5"/>
<line x1="0" y1="-92" x2="16" y2="-75" stroke="#8270a0" stroke-width="2.5"/>
<line x1="0" y1="-50" x2="-8" y2="0" stroke="#8270a0" stroke-width="2.5"/>
<line x1="0" y1="-50" x2="8" y2="0" stroke="#8270a0" stroke-width="2.5"/>
<text x="0" y="25" text-anchor="middle" font-size="11" fill="#777" font-family="sans-serif">Gerrit</text>
</g>
</g>
<g transform="translate(200,410)">
<rect x="0" y="0" width="400" height="4" rx="2" fill="#333"/>
<rect x="0" y="0" width="0" height="4" rx="2" fill="#666"><animate attributeName="width" values="0;400;0" dur="12s" repeatCount="indefinite"/></rect>
</g>
<text x="400" y="435" text-anchor="middle" font-size="9" fill="#555" font-family="sans-serif">12s loop</text>
</svg>