999
dxfrw 0.6.3
  0
SECTION
  2
HEADER
  9
$ACADVER
  1
AC1021
  9
$DWGCODEPAGE
  3
ANSI_1252
  9
$INSBASE
 10
0
 20
0
 30
0
  9
$EXTMIN
 10
59.5
 20
45
 30
0
  9
$EXTMAX
 10
379
 20
440
 30
0
  9
$LIMMIN
 10
0
 20
0
  9
$LIMMAX
 10
420
 20
297
  9
$ORTHOMODE
 70
    0
  9
$REGENMODE
 70
    1
  9
$FILLMODE
 70
    1
  9
$QTEXTMODE
 70
    0
  9
$MIRRTEXT
 70
    1
  9
$LTSCALE
 40
1
  9
$ATTMODE
 70
    1
  9
$TEXTSIZE
 40
2.5
  9
$TRACEWID
 40
1
  9
$TEXTSTYLE
  7
Standard
  9
$CLAYER
  8
0
  9
$CELTYPE
  6
ByLayer
  9
$CECOLOR
 62
  256
  9
$CELTSCALE
 40
1
  9
$DISPSILH
 70
    0
  9
$DIMSCALE
 40
1
  9
$DIMASZ
 40
2.5
  9
$DIMEXO
 40
0.625
  9
$DIMDLI
 40
3.75
  9
$DIMRND
 40
0
  9
$DIMDLE
 40
0
  9
$DIMEXE
 40
1.25
  9
$DIMTP
 40
0
  9
$DIMTM
 40
0
  9
$DIMTXT
 40
2.5
  9
$DIMCEN
 40
2.5
  9
$DIMTSZ
 40
0
  9
$DIMTOL
 70
    0
  9
$DIMLIM
 70
    0
  9
$DIMTIH
 70
    0
  9
$DIMTOH
 70
    0
  9
$DIMSE1
 70
    0
  9
$DIMSE2
 70
    0
  9
$DIMTAD
 70
    1
  9
$DIMZIN
 70
    8
  9
$DIMBLK
  1

  9
$DIMASO
 70
    1
  9
$DIMSHO
 70
    1
  9
$DIMPOST
  1

  9
$DIMAPOST
  1

  9
$DIMALT
 70
    0
  9
$DIMALTD
 70
    3
  9
$DIMALTF
 40
0.03937007874
  9
$DIMLFAC
 40
1
  9
$DIMTOFL
 70
    1
  9
$DIMTVP
 40
0
  9
$DIMTIX
 70
    0
  9
$DIMSOXD
 70
    0
  9
$DIMSAH
 70
    0
  9
$DIMBLK1
  1

  9
$DIMBLK2
  1

  9
$DIMSTYLE
  2
ISO-25
  9
$DIMCLRD
 70
    0
  9
$DIMCLRE
 70
    0
  9
$DIMCLRT
 70
    0
  9
$DIMTFAC
 40
1
  9
$DIMGAP
 40
0.625
  9
$DIMJUST
 70
    0
  9
$DIMSD1
 70
    0
  9
$DIMSD2
 70
    0
  9
$DIMTOLJ
 70
    0
  9
$DIMTZIN
 70
    8
  9
$DIMALTZ
 70
    0
  9
$DIMALTTZ
 70
    0
  9
$DIMUPT
 70
    0
  9
$DIMDEC
 70
    2
  9
$DIMTDEC
 70
    2
  9
$DIMALTU
 70
    2
  9
$DIMALTTD
 70
    3
  9
$DIMTXSTY
  7
Standard
  9
$DIMAUNIT
 70
    0
  9
$DIMADEC
 70
    0
  9
$DIMALTRND
 40
0
  9
$DIMAZIN
 70
    0
  9
$DIMDSEP
 70
   44
  9
$DIMATFIT
 70
    3
  9
$DIMFRAC
 70
    0
  9
$DIMLDRBLK
  1

  9
$DIMLUNIT
 70
    2
  9
$DIMLWD
 70
   -2
  9
$DIMLWE
 70
   -2
  9
$DIMTMOVE
 70
    0
  9
$DIMFXL
 40
1
  9
$DIMFXLON
 70
    0
  9
$DIMJOGANG
 40
0.785398163397
  9
$DIMTFILL
 70
    0
  9
$DIMTFILLCLR
 70
    0
  9
$DIMARCSYM
 70
    0
  9
$DIMLTYPE
  6

  9
$DIMLTEX1
  6

  9
$DIMLTEX2
  6

  9
$LUNITS
 70
    2
  9
$LUPREC
 70
    4
  9
$SKETCHINC
 40
1
  9
$FILLETRAD
 40
10
  9
$AUNITS
 70
    0
  9
$AUPREC
 70
    2
  9
$MENU
  1
.
  9
$ELEVATION
 40
0
  9
$PELEVATION
 40
0
  9
$THICKNESS
 40
0
  9
$LIMCHECK
 70
    0
  9
$CHAMFERA
 40
0
  9
$CHAMFERB
 40
0
  9
$CHAMFERC
 40
0
  9
$CHAMFERD
 40
0
  9
$SKPOLY
 70
    0
  9
$USRTIMER
 70
    1
  9
$ANGBASE
 50
0
  9
$ANGDIR
 70
    0
  9
$PDMODE
 70
    0
  9
$PDSIZE
 40
0
  9
$PLINEWID
 40
0
  9
$SPLFRAME
 70
    0
  9
$SPLINETYPE
 70
    6
  9
$SPLINESEGS
 70
    8
  9
$HANDSEED
  5
20000
  9
$SURFTAB1
 70
    6
  9
$SURFTAB2
 70
    6
  9
$SURFTYPE
 70
    6
  9
$SURFU
 70
    6
  9
$SURFV
 70
    6
  9
$UCSBASE
  2

  9
$UCSNAME
  2

  9
$UCSORG
 10
0
 20
0
 30
0
  9
$UCSXDIR
 10
1
 20
0
 30
0
  9
$UCSYDIR
 10
0
 20
1
 30
0
  9
$UCSORTHOREF
  2

  9
$UCSORTHOVIEW
 70
    0
  9
$UCSORGTOP
 10
0
 20
0
 30
0
  9
$UCSORGBOTTOM
 10
0
 20
0
 30
0
  9
$UCSORGLEFT
 10
0
 20
0
 30
0
  9
$UCSORGRIGHT
 10
0
 20
0
 30
0
  9
$UCSORGFRONT
 10
0
 20
0
 30
0
  9
$UCSORGBACK
 10
0
 20
0
 30
0
  9
$PUCSBASE
  2

  9
$PUCSNAME
  2

  9
$PUCSORG
 10
0
 20
0
 30
0
  9
$PUCSXDIR
 10
1
 20
0
 30
0
  9
$PUCSYDIR
 10
0
 20
1
 30
0
  9
$PUCSORTHOREF
  2

  9
$PUCSORTHOVIEW
 70
    0
  9
$PUCSORGTOP
 10
0
 20
0
 30
0
  9
$PUCSORGBOTTOM
 10
0
 20
0
 30
0
  9
$PUCSORGLEFT
 10
0
 20
0
 30
0
  9
$PUCSORGRIGHT
 10
0
 20
0
 30
0
  9
$PUCSORGFRONT
 10
0
 20
0
 30
0
  9
$PUCSORGBACK
 10
0
 20
0
 30
0
  9
$USERI1
 70
    0
  9
$USERI2
 70
    0
  9
$USERI3
 70
    0
  9
$USERI4
 70
    0
  9
$USERI5
 70
    0
  9
$USERR1
 40
0
  9
$USERR2
 40
0
  9
$USERR3
 40
0
  9
$USERR4
 40
0
  9
$USERR5
 40
0
  9
$WORLDVIEW
 70
    1
  9
$SHADEDGE
 70
    3
  9
$SHADEDIF
 70
   70
  9
$TILEMODE
 70
    1
  9
$MAXACTVP
 70
   64
  9
$PINSBASE
 10
0
 20
0
 30
0
  9
$PLIMCHECK
 70
    0
  9
$PEXTMIN
 10
1e+20
 20
1e+20
 30
1e+20
  9
$PEXTMAX
 10
-1e+20
 20
-1e+20
 30
-1e+20
  9
$GRIDMODE
 70
    0
  9
$SNAPSTYLE
 70
    0
  9
$PLIMMIN
 10
0
 20
0
  9
$PLIMMAX
 10
420
 20
297
  9
$UNITMODE
 70
    0
  9
$VISRETAIN
 70
    1
  9
$PLINEGEN
 70
    0
  9
$PSLTSCALE
 70
    1
  9
$TREEDEPTH
 70
 3020
  9
$CMLSTYLE
  2
Standard
  9
$CMLJUST
 70
    0
  9
$CMLSCALE
 40
20
  9
$PROXYGRAPHICS
 70
    1
  9
$MEASUREMENT
 70
    1
  9
$CELWEIGHT
370
   -1
  9
$ENDCAPS
280
    0
  9
$JOINSTYLE
280
    0
  9
$LWDISPLAY
290
    0
  9
$INSUNITS
 70
    4
  9
$HYPERLINKBASE
  1

  9
$STYLESHEET
  1

  9
$XEDIT
290
    1
  9
$CEPSNTYPE
380
    0
  9
$PSTYLEMODE
290
    1
  9
$EXTNAMES
290
    1
  9
$PSVPSCALE
 40
0
  9
$OLESTARTUP
290
    0
  9
$SORTENTS
280
  127
  9
$INDEXCTL
280
    0
  9
$HIDETEXT
280
    1
  9
$XCLIPFRAME
290
    1
  9
$HALOGAP
280
    0
  9
$OBSCOLOR
 70
  257
  9
$OBSLTYPE
280
    0
  9
$INTERSECTIONDISPLAY
280
    0
  9
$INTERSECTIONCOLOR
 70
  257
  9
$DIMASSOC
280
    2
  9
$PROJECTNAME
  1

  9
$CAMERADISPLAY
290
    0
  9
$LENSLENGTH
 40
50
  9
$CAMERAHEIGHT
 40
0
  9
$STEPSPERSEC
 40
24
  9
$STEPSIZE
 40
100
  9
$3DDWFPREC
 40
2
  9
$PSOLWIDTH
 40
0.005
  9
$PSOLHEIGHT
 40
0.08
  9
$LOFTANG1
 40
1.570796326795
  9
$LOFTANG2
 40
1.570796326795
  9
$LOFTMAG1
 40
0
  9
$LOFTMAG2
 40
0
  9
$LOFTPARAM
 70
    7
  9
$LOFTNORMALS
280
    1
  9
$LATITUDE
 40
37.795
  9
$LONGITUDE
 40
-122.394
  9
$NORTHDIRECTION
 40
0
  9
$TIMEZONE
 70
-8000
  9
$LIGHTGLYPHDISPLAY
280
    1
  9
$TILEMODELIGHTSYNCH
280
    1
  9
$SOLIDHIST
280
    0
  9
$SHOWHIST
280
    1
  9
$DWFFRAME
280
    2
  9
$DGNFRAME
280
    2
  9
$REALWORLDSCALE
290
    1
  9
$INTERFERECOLOR
 62
  256
  9
$CSHADOW
280
    0
  9
$SHADOWPLANELOCATION
 40
0
  0
ENDSEC
  0
SECTION
  2
CLASSES
  0
ENDSEC
  0
SECTION
  2
TABLES
  0
TABLE
  2
VPORT
  5
8
330
0
100
AcDbSymbolTable
 70
    1
  0
VPORT
  5
31
330
2
100
AcDbSymbolTableRecord
100
AcDbViewportTableRecord
  2
*ACTIVE
 70
    0
 10
0
 20
0
 11
1
 21
1
 12
299.858214641356
 22
241.3060188829847
 13
0
 23
0
 14
10
 24
10
 15
10
 25
10
 16
0
 26
0
 36
1
 17
0
 27
0
 37
0
 40
407.0771705105813
 41
1.831880448318804
 42
50
 43
0
 44
0
 50
0
 51
0
 71
    0
 72
  100
 73
    1
 74
    3
 75
    0
 76
    0
 77
    0
 78
    0
281
    0
 65
    1
110
0
120
0
130
0
111
1
121
0
131
0
112
0
122
1
132
0
 79
    0
146
0
348
10020
 60
    7
 61
    5
292
1
282
    1
141
0
142
0
 63
  250
421
3358443
  0
ENDTAB
  0
TABLE
  2
LTYPE
  5
5
330
0
100
AcDbSymbolTable
 70
    4
  0
LTYPE
  5
14
330
5
100
AcDbSymbolTableRecord
100
AcDbLinetypeTableRecord
  2
ByBlock
 70
    0
  3

 72
   65
 73
    0
 40
0
  0
LTYPE
  5
15
330
5
100
AcDbSymbolTableRecord
100
AcDbLinetypeTableRecord
  2
ByLayer
 70
    0
  3

 72
   65
 73
    0
 40
0
  0
LTYPE
  5
16
330
5
100
AcDbSymbolTableRecord
100
AcDbLinetypeTableRecord
  2
Continuous
 70
    0
  3
Solid line
 72
   65
 73
    0
 40
0
  0
LTYPE
  5
32
330
5
100
AcDbSymbolTableRecord
100
AcDbLinetypeTableRecord
  2
DOT
 70
    0
  3
Dot . . . . . . . . . . . . . . . . . . . . . .
 72
   65
 73
    2
 40
6.35
 49
0
 74
    0
 49
-6.35
 74
    0
  0
LTYPE
  5
33
330
5
100
AcDbSymbolTableRecord
100
AcDbLinetypeTableRecord
  2
DOTTINY
 70
    0
  3
Dot (.15x) .....................................
 72
   65
 73
    2
 40
0.9525
 49
0
 74
    0
 49
-0.9525
 74
    0
  0
LTYPE
  5
34
330
5
100
AcDbSymbolTableRecord
100
AcDbLinetypeTableRecord
  2
DOT2
 70
    0
  3
Dot (.5x) .....................................
 72
   65
 73
    2
 40
3.175
 49
0
 74
    0
 49
-3.175
 74
    0
  0
LTYPE
  5
35
330
5
100
AcDbSymbolTableRecord
100
AcDbLinetypeTableRecord
  2
DOTX2
 70
    0
  3
Dot (2x) .  .  .  .  .  .  .  .  .  .  .  .  .
 72
   65
 73
    2
 40
12.7
 49
0
 74
    0
 49
-12.7
 74
    0
  0
LTYPE
  5
36
330
5
100
AcDbSymbolTableRecord
100
AcDbLinetypeTableRecord
  2
DASHED
 70
    0
  3
Dashed _ _ _ _ _ _ _ _ _ _ _ _ _ _ _ _ _
 72
   65
 73
    2
 40
19.05
 49
12.7
 74
    0
 49
-6.35
 74
    0
  0
LTYPE
  5
37
330
5
100
AcDbSymbolTableRecord
100
AcDbLinetypeTableRecord
  2
DASHEDTINY
 70
    0
  3
Dashed (.15x) _ _ _ _ _ _ _ _ _ _ _ _ _ _ _ _ _
 72
   65
 73
    2
 40
2.8575
 49
1.905
 74
    0
 49
-0.9525
 74
    0
  0
LTYPE
  5
38
330
5
100
AcDbSymbolTableRecord
100
AcDbLinetypeTableRecord
  2
DASHED2
 70
    0
  3
Dashed (.5x) _ _ _ _ _ _ _ _ _ _ _ _ _ _ _ _ _
 72
   65
 73
    2
 40
9.524999999999999
 49
6.35
 74
    0
 49
-3.175
 74
    0
  0
LTYPE
  5
39
330
5
100
AcDbSymbolTableRecord
100
AcDbLinetypeTableRecord
  2
DASHEDX2
 70
    0
  3
Dashed (2x) ____  ____  ____  ____  ____  ___
 72
   65
 73
    2
 40
38.09999999999999
 49
25.4
 74
    0
 49
-12.7
 74
    0
  0
LTYPE
  5
3A
330
5
100
AcDbSymbolTableRecord
100
AcDbLinetypeTableRecord
  2
DASHDOT
 70
    0
  3
Dash dot __ . __ . __ . __ . __ . __ . __ . __
 72
   65
 73
    4
 40
25.4
 49
12.7
 74
    0
 49
-6.35
 74
    0
 49
0
 74
    0
 49
-6.35
 74
    0
  0
LTYPE
  5
3B
330
5
100
AcDbSymbolTableRecord
100
AcDbLinetypeTableRecord
  2
DASHDOTTINY
 70
    0
  3
Dash dot (.15x) _._._._._._._._._._._._._._._.
 72
   65
 73
    4
 40
3.81
 49
1.905
 74
    0
 49
-0.9525
 74
    0
 49
0
 74
    0
 49
-0.9525
 74
    0
  0
LTYPE
  5
3C
330
5
100
AcDbSymbolTableRecord
100
AcDbLinetypeTableRecord
  2
DASHDOT2
 70
    0
  3
Dash dot (.5x) _._._._._._._._._._._._._._._.
 72
   65
 73
    4
 40
12.7
 49
6.35
 74
    0
 49
-3.175
 74
    0
 49
0
 74
    0
 49
-3.175
 74
    0
  0
LTYPE
  5
3D
330
5
100
AcDbSymbolTableRecord
100
AcDbLinetypeTableRecord
  2
DASHDOTX2
 70
    0
  3
Dash dot (2x) ____  .  ____  .  ____  .  ___
 72
   65
 73
    4
 40
50.8
 49
25.4
 74
    0
 49
-12.7
 74
    0
 49
0
 74
    0
 49
-12.7
 74
    0
  0
LTYPE
  5
3E
330
5
100
AcDbSymbolTableRecord
100
AcDbLinetypeTableRecord
  2
DIVIDE
 70
    0
  3
Divide ____ . . ____ . . ____ . . ____ . . ____
 72
   65
 73
    6
 40
31.75
 49
12.7
 74
    0
 49
-6.35
 74
    0
 49
0
 74
    0
 49
-6.35
 74
    0
 49
0
 74
    0
 49
-6.35
 74
    0
  0
LTYPE
  5
3F
330
5
100
AcDbSymbolTableRecord
100
AcDbLinetypeTableRecord
  2
DIVIDETINY
 70
    0
  3
Divide (.15x) __..__..__..__..__..__..__..__.._
 72
   65
 73
    6
 40
4.7625
 49
1.905
 74
    0
 49
-0.9525
 74
    0
 49
0
 74
    0
 49
-0.9525
 74
    0
 49
0
 74
    0
 49
-0.9525
 74
    0
  0
LTYPE
  5
40
330
5
100
AcDbSymbolTableRecord
100
AcDbLinetypeTableRecord
  2
DIVIDE2
 70
    0
  3
Divide (.5x) __..__..__..__..__..__..__..__.._
 72
   65
 73
    6
 40
15.875
 49
6.35
 74
    0
 49
-3.175
 74
    0
 49
0
 74
    0
 49
-3.175
 74
    0
 49
0
 74
    0
 49
-3.175
 74
    0
  0
LTYPE
  5
41
330
5
100
AcDbSymbolTableRecord
100
AcDbLinetypeTableRecord
  2
DIVIDEX2
 70
    0
  3
Divide (2x) ________  .  .  ________  .  .  _
 72
   65
 73
    6
 40
63.5
 49
25.4
 74
    0
 49
-12.7
 74
    0
 49
0
 74
    0
 49
-12.7
 74
    0
 49
0
 74
    0
 49
-12.7
 74
    0
  0
LTYPE
  5
42
330
5
100
AcDbSymbolTableRecord
100
AcDbLinetypeTableRecord
  2
BORDER
 70
    0
  3
Border __ __ . __ __ . __ __ . __ __ . __ __ .
 72
   65
 73
    6
 40
44.45
 49
12.7
 74
    0
 49
-6.35
 74
    0
 49
12.7
 74
    0
 49
-6.35
 74
    0
 49
0
 74
    0
 49
-6.35
 74
    0
  0
LTYPE
  5
43
330
5
100
AcDbSymbolTableRecord
100
AcDbLinetypeTableRecord
  2
BORDERTINY
 70
    0
  3
Border (.15x) __.__.__.__.__.__.__.__.__.__.__.
 72
   65
 73
    6
 40
6.6675
 49
1.905
 74
    0
 49
-0.9525
 74
    0
 49
1.905
 74
    0
 49
-0.9525
 74
    0
 49
0
 74
    0
 49
-0.9525
 74
    0
  0
LTYPE
  5
44
330
5
100
AcDbSymbolTableRecord
100
AcDbLinetypeTableRecord
  2
BORDER2
 70
    0
  3
Border (.5x) __.__.__.__.__.__.__.__.__.__.__.
 72
   65
 73
    6
 40
22.225
 49
6.35
 74
    0
 49
-3.175
 74
    0
 49
6.35
 74
    0
 49
-3.175
 74
    0
 49
0
 74
    0
 49
-3.175
 74
    0
  0
LTYPE
  5
45
330
5
100
AcDbSymbolTableRecord
100
AcDbLinetypeTableRecord
  2
BORDERX2
 70
    0
  3
Border (2x) ____  ____  .  ____  ____  .  ___
 72
   65
 73
    6
 40
88.89999999999999
 49
25.4
 74
    0
 49
-12.7
 74
    0
 49
25.4
 74
    0
 49
-12.7
 74
    0
 49
0
 74
    0
 49
-12.7
 74
    0
  0
LTYPE
  5
46
330
5
100
AcDbSymbolTableRecord
100
AcDbLinetypeTableRecord
  2
CENTER
 70
    0
  3
Center ____ _ ____ _ ____ _ ____ _ ____ _ ____
 72
   65
 73
    4
 40
50.8
 49
31.75
 74
    0
 49
-6.35
 74
    0
 49
6.35
 74
    0
 49
-6.35
 74
    0
  0
LTYPE
  5
47
330
5
100
AcDbSymbolTableRecord
100
AcDbLinetypeTableRecord
  2
CENTERTINY
 70
    0
  3
Center (.15x) ___ _ ___ _ ___ _ ___ _ ___ _ ___
 72
   65
 73
    4
 40
7.619999999999999
 49
4.7625
 74
    0
 49
-0.9525
 74
    0
 49
0.9525
 74
    0
 49
-0.9525
 74
    0
  0
LTYPE
  5
48
330
5
100
AcDbSymbolTableRecord
100
AcDbLinetypeTableRecord
  2
CENTER2
 70
    0
  3
Center (.5x) ___ _ ___ _ ___ _ ___ _ ___ _ ___
 72
   65
 73
    4
 40
28.575
 49
19.05
 74
    0
 49
-3.175
 74
    0
 49
3.175
 74
    0
 49
-3.175
 74
    0
  0
LTYPE
  5
49
330
5
100
AcDbSymbolTableRecord
100
AcDbLinetypeTableRecord
  2
CENTERX2
 70
    0
  3
Center (2x) ________  __  ________  __  _____
 72
   65
 73
    4
 40
101.6
 49
63.5
 74
    0
 49
-12.7
 74
    0
 49
12.7
 74
    0
 49
-12.7
 74
    0
  0
ENDTAB
  0
TABLE
  2
LAYER
  5
2
330
0
100
AcDbSymbolTable
 70
    1
  0
LAYER
  5
10
330
2
100
AcDbSymbolTableRecord
100
AcDbLayerTableRecord
  2
0
 70
    0
 62
    7
  6
CONTINUOUS
370
   -3
390
F
  0
LAYER
  5
4A
330
2
100
AcDbSymbolTableRecord
100
AcDbLayerTableRecord
  2
01_CUT_OUTLINE
 70
    0
 62
    7
  6
CONTINUOUS
370
   35
390
F
  0
LAYER
  5
4B
330
2
100
AcDbSymbolTableRecord
100
AcDbLayerTableRecord
  2
02_CUT_INNER
 70
    0
 62
    7
  6
CONTINUOUS
370
   35
390
F
  0
LAYER
  5
4C
330
2
100
AcDbSymbolTableRecord
100
AcDbLayerTableRecord
  2
03_DRILL_BORES
 70
    1
 62
    4
  6
CONTINUOUS
370
   25
390
F
  0
LAYER
  5
4D
330
2
100
AcDbSymbolTableRecord
100
AcDbLayerTableRecord
  2
04_MILL_SLOTS
 70
    0
 62
    3
  6
CONTINUOUS
370
   25
390
F
  0
LAYER
  5
4E
330
2
100
AcDbSymbolTableRecord
100
AcDbLayerTableRecord
  2
90_CENTER_MARKS
 70
    0
 62
    1
  6
CONTINUOUS
370
   13
390
F
  0
LAYER
  5
4F
330
2
100
AcDbSymbolTableRecord
100
AcDbLayerTableRecord
  2
95_DIMENSIONS
 70
    0
 62
    2
  6
CONTINUOUS
370
   18
390
F
  0
LAYER
  5
50
330
2
100
AcDbSymbolTableRecord
100
AcDbLayerTableRecord
  2
98_TEXT
 70
    0
 62
    2
  6
CONTINUOUS
370
   18
390
F
  0
LAYER
  5
51
330
2
100
AcDbSymbolTableRecord
100
AcDbLayerTableRecord
  2
99_REFERENCE
 70
    0
 62
    8
  6
DASHED
370
   13
390
F
  0
LAYER
  5
52
330
2
100
AcDbSymbolTableRecord
100
AcDbLayerTableRecord
  2
Defpoints
 70
    0
 62
    7
  6
CONTINUOUS
290
0
370
   -3
390
F
  0
ENDTAB
  0
TABLE
  2
STYLE
  5
3
330
0
100
AcDbSymbolTable
 70
    3
  0
STYLE
  5
53
330
2
100
AcDbSymbolTableRecord
100
AcDbTextStyleTableRecord
  2
Standard
 70
    0
 40
0
 41
1
 50
0
 71
    0
 42
1
  3
txt
  4

  0
ENDTAB
  0
TABLE
  2
VIEW
  5
6
330
0
100
AcDbSymbolTable
 70
    0
  0
ENDTAB
  0
TABLE
  2
UCS
  5
7
330
0
100
AcDbSymbolTable
 70
    0
  0
ENDTAB
  0
TABLE
  2
APPID
  5
9
330
0
100
AcDbSymbolTable
 70
    1
  0
APPID
  5
12
330
9
100
AcDbSymbolTableRecord
100
AcDbRegAppTableRecord
  2
ACAD
 70
    0
  0
APPID
  5
54
330
9
100
AcDbSymbolTableRecord
100
AcDbRegAppTableRecord
  2
LibreCad
 70
    0
  0
ENDTAB
  0
TABLE
  2
DIMSTYLE
  5
A
330
0
100
AcDbSymbolTable
 70
    1
100
AcDbDimStyleTable
 71
    1
  0
DIMSTYLE
105
55
330
A
100
AcDbSymbolTableRecord
100
AcDbDimStyleTableRecord
  2
Standard
 70
    0
 40
1
 41
2.5
 42
0.625
 43
0.38
 44
1.25
 45
0
 46
0
 47
0
 48
0
 49
1
140
2.5
141
0.09
142
0
143
25.4
144
1
145
0
146
1
147
0.625
148
0
 71
    0
 72
    0
 73
    0
 74
    1
 75
    0
 76
    0
 77
    0
 78
    8
 79
    0
170
    0
171
    2
172
    0
173
    0
174
    0
175
    0
176
    0
177
    0
178
    0
179
    0
271
    2
272
    4
273
    2
274
    2
275
    0
276
    0
277
    2
278
   44
279
    0
280
    0
281
    0
282
    0
283
    1
284
    0
285
    0
286
    0
288
    0
289
    3
340
53
  0
ENDTAB
  0
TABLE
  2
BLOCK_RECORD
  5
1
330
0
100
AcDbSymbolTable
 70
    2
  0
BLOCK_RECORD
  5
1F
330
1
100
AcDbSymbolTableRecord
100
AcDbBlockTableRecord
  2
*Model_Space
 70
    0
280
    1
281
    0
  0
BLOCK_RECORD
  5
1E
330
1
100
AcDbSymbolTableRecord
100
AcDbBlockTableRecord
  2
*Paper_Space
 70
    0
280
    1
281
    0
  0
ENDTAB
  0
ENDSEC
  0
SECTION
  2
BLOCKS
  0
BLOCK
  5
20
330
1F
100
AcDbEntity
  8
0
100
AcDbBlockBegin
  2
*Model_Space
 70
    0
 10
0
 20
0
 30
0
  3
*Model_Space
  1

  0
ENDBLK
  5
21
330
1F
100
AcDbEntity
  8
0
100
AcDbBlockEnd
  0
BLOCK
  5
1C
330
1B
100
AcDbEntity
  8
0
100
AcDbBlockBegin
  2
*Paper_Space
 70
    0
 10
0
 20
0
 30
0
  3
*Paper_Space
  1

  0
ENDBLK
  5
1D
330
1F
100
AcDbEntity
  8
0
100
AcDbBlockEnd
  0
ENDSEC
  0
SECTION
  2
ENTITIES
  0
LINE
  5
56
100
AcDbEntity
  8
01_CUT_OUTLINE
  6
ByLayer
 62
  256
370
   -1
100
AcDbLine
 10
199.2939
 20
175.0169
 11
200.4169
 21
88.9924
  0
LINE
  5
57
100
AcDbEntity
  8
01_CUT_OUTLINE
  6
ByLayer
 62
  256
370
   -1
100
AcDbLine
 10
178.5936
 20
175.0367
 11
179.5452
 21
55.9964
  0
LINE
  5
58
100
AcDbEntity
  8
01_CUT_OUTLINE
  6
ByLayer
 62
  256
370
   -1
100
AcDbLine
 10
122.9595
 20
417.0075
 11
122.5246
 21
299.0018
  0
LINE
  5
59
100
AcDbEntity
  8
01_CUT_OUTLINE
  6
ByLayer
 62
  256
370
   -1
100
AcDbLine
 10
100
 20
194.5
 11
379
 21
194.5
  0
LINE
  5
5A
100
AcDbEntity
  8
01_CUT_OUTLINE
  6
ByLayer
 62
  256
370
   -1
100
AcDbLine
 10
159.002
 20
440
 11
158.998
 21
275
  0
LINE
  5
5B
100
AcDbEntity
  8
01_CUT_OUTLINE
  6
ByLayer
 62
  256
370
   -1
100
AcDbLine
 10
256.0868
 20
208.9114
 11
112.957
 21
222.5486
  0
LINE
  5
5C
100
AcDbEntity
  8
01_CUT_OUTLINE
  6
ByLayer
 62
  256
370
   -1
100
AcDbLine
 10
227.6951
 20
232.9442
 11
172.9431
 21
238.4069
  0
LINE
  5
5D
100
AcDbEntity
  8
01_CUT_OUTLINE
  6
ByLayer
 62
  256
370
   -1
100
AcDbLine
 10
175.7267
 20
282.9885
 11
178.6253
 21
213.9004
  0
LINE
  5
5E
100
AcDbEntity
  8
01_CUT_OUTLINE
  6
ByLayer
 62
  256
370
   -1
100
AcDbLine
 10
194.2926
 20
417.0172
 11
195.8538
 21
299.998
  0
LINE
  5
5F
100
AcDbEntity
  8
01_CUT_OUTLINE
  6
ByLayer
 62
  256
370
   -1
100
AcDbLine
 10
216.1172
 20
141.7368
 11
143.9956
 21
135.0477
  0
LINE
  5
60
100
AcDbEntity
  8
01_CUT_OUTLINE
  6
ByLayer
 62
  256
370
   -1
100
AcDbLine
 10
256.0916
 20
179.3656
 11
132.918
 21
172.4643
  0
LINE
  5
61
100
AcDbEntity
  8
01_CUT_OUTLINE
  6
ByLayer
 62
  256
370
   -1
100
AcDbLine
 10
204
 20
173
 11
224
 21
182
  0
LINE
  5
62
100
AcDbEntity
  8
01_CUT_OUTLINE
  6
ByLayer
 62
  256
370
   -1
100
AcDbLine
 10
223.0108
 20
165.0163
 11
173.9838
 21
164.4782
  0
LINE
  5
63
100
AcDbEntity
  8
01_CUT_OUTLINE
  6
ByLayer
 62
  256
370
   -1
100
AcDbLine
 10
106
 20
248
 11
141
 21
202
  0
LINE
  5
64
100
AcDbEntity
  8
01_CUT_OUTLINE
  6
ByLayer
 62
  256
370
   -1
100
AcDbLine
 10
109.9863
 20
220
 11
110.0155
 21
166.9995
  0
LINE
  5
65
100
AcDbEntity
  8
01_CUT_OUTLINE
  6
ByLayer
 62
  256
370
   -1
100
AcDbLine
 10
122
 20
301
 11
173
 21
301
  0
LINE
  5
66
100
AcDbEntity
  8
01_CUT_OUTLINE
  6
ByLayer
 62
  256
370
   -1
100
AcDbLine
 10
170
 20
136
 11
193
 21
175
  0
LINE
  5
67
100
AcDbEntity
  8
01_CUT_OUTLINE
  6
ByLayer
 62
  256
370
   -1
100
AcDbLine
 10
119
 20
207
 11
135
 21
186
  0
LINE
  5
68
100
AcDbEntity
  8
01_CUT_OUTLINE
  6
ByLayer
 62
  256
370
   -1
100
AcDbLine
 10
126
 20
166
 11
156
 21
136
  0
LINE
  5
69
100
AcDbEntity
  8
01_CUT_OUTLINE
  6
ByLayer
 62
  256
370
   -1
100
AcDbLine
 10
171
 20
136
 11
196
 21
142
  0
LINE
  5
6A
100
AcDbEntity
  8
01_CUT_OUTLINE
  6
ByLayer
 62
  256
370
   -1
100
AcDbLine
 10
228
 20
82
 11
249
 21
89
  0
LINE
  5
6B
100
AcDbEntity
  8
01_CUT_OUTLINE
  6
ByLayer
 62
  256
370
   -1
100
AcDbLine
 10
195.0169
 20
417.7524
 11
126.004
 21
418.4178
  0
LINE
  5
6C
100
AcDbEntity
  8
01_CUT_OUTLINE
  6
ByLayer
 62
  256
370
   -1
100
AcDbLine
 10
252.1547
 20
83.1942
 11
200.8499
 21
89.84180000000001
  0
LINE
  5
6D
100
AcDbEntity
  8
01_CUT_OUTLINE
  6
ByLayer
 62
  256
370
   -1
100
AcDbLine
 10
205.1647
 20
164.6951
 11
173.6387
 21
147.669
  0
LINE
  5
6E
100
AcDbEntity
  8
01_CUT_OUTLINE
  6
ByLayer
 62
  256
370
   -1
100
AcDbLine
 10
251.0032
 20
383.6932
 11
173.012
 21
382.8678
  0
LINE
  5
6F
100
AcDbEntity
  8
01_CUT_OUTLINE
  6
ByLayer
 62
  256
370
   -1
100
AcDbLine
 10
150.5709
 20
174.2876
 11
111.5115
 21
115.9974
  0
LINE
  5
70
100
AcDbEntity
  8
01_CUT_OUTLINE
  6
ByLayer
 62
  256
370
   -1
100
AcDbLine
 10
117
 20
165
 11
148
 21
175
  0
LINE
  5
71
100
AcDbEntity
  8
01_CUT_OUTLINE
  6
ByLayer
 62
  256
370
   -1
100
AcDbLine
 10
233.298
 20
62.9495
 11
181.0925
 21
55.3635
  0
LINE
  5
72
100
AcDbEntity
  8
01_CUT_OUTLINE
  6
ByLayer
 62
  256
370
   -1
100
AcDbLine
 10
254
 20
210
 11
256
 21
183
  0
LINE
  5
73
100
AcDbEntity
  8
01_CUT_OUTLINE
  6
ByLayer
 62
  256
370
   -1
100
AcDbLine
 10
202
 20
89
 11
232
 21
95
  0
LINE
  5
74
100
AcDbEntity
  8
01_CUT_OUTLINE
  6
ByLayer
 62
  256
370
   -1
100
AcDbLine
 10
107
 20
109
 11
144
 21
162
  0
LINE
  5
75
100
AcDbEntity
  8
01_CUT_OUTLINE
  6
ByLayer
 62
  256
370
   -1
100
AcDbLine
 10
112
 20
167
 11
144
 21
167
  0
LINE
  5
76
100
AcDbEntity
  8
01_CUT_OUTLINE
  6
ByLayer
 62
  256
370
   -1
100
AcDbLine
 10
161
 20
300
 11
194
 21
301
  0
LINE
  5
77
100
AcDbEntity
  8
01_CUT_OUTLINE
  6
ByLayer
 62
  256
370
   -1
100
AcDbLine
 10
200
 20
65
 11
241
 21
55
  0
LINE
  5
78
100
AcDbEntity
  8
01_CUT_OUTLINE
  6
ByLayer
 62
  256
370
   -1
100
AcDbLine
 10
174
 20
221
 11
223
 21
228
  0
CIRCLE
  5
79
100
AcDbEntity
  8
03_DRILL_BORES
  6
ByLayer
 62
  256
370
   -1
100
AcDbCircle
 10
211.8
 20
339
 40
92.23999786376953
  0
CIRCLE
  5
7A
100
AcDbEntity
  8
03_DRILL_BORES
  6
ByLayer
 62
  256
370
   -1
100
AcDbCircle
 10
207
 20
281.4
 40
104.2399978637695
  0
CIRCLE
  5
7B
100
AcDbEntity
  8
03_DRILL_BORES
  6
ByLayer
 62
  256
370
   -1
100
AcDbCircle
 10
126.6
 20
102.6
 40
94.8800048828125
  0
CIRCLE
  5
7C
100
AcDbEntity
  8
03_DRILL_BORES
  6
ByLayer
 62
  256
370
   -1
100
AcDbCircle
 10
168.6
 20
102.6
 40
95
  0
CIRCLE
  5
7D
100
AcDbEntity
  8
03_DRILL_BORES
  6
ByLayer
 62
  256
370
   -1
100
AcDbCircle
 10
179.4
 20
347.4
 40
124.0400009155273
  0
CIRCLE
  5
7E
100
AcDbEntity
  8
03_DRILL_BORES
  6
ByLayer
 62
  256
370
   -1
100
AcDbCircle
 10
168.6
 20
197.4
 40
61.8800048828125
  0
CIRCLE
  5
7F
100
AcDbEntity
  8
03_DRILL_BORES
  6
ByLayer
 62
  256
370
   -1
100
AcDbCircle
 10
255
 20
257.4
 40
80.36000061035156
  0
CIRCLE
  5
80
100
AcDbEntity
  8
03_DRILL_BORES
  6
ByLayer
 62
  256
370
   -1
100
AcDbCircle
 10
191.4
 20
313.8
 40
71.24000549316406
  0
CIRCLE
  5
81
100
AcDbEntity
  8
03_DRILL_BORES
  6
ByLayer
 62
  256
370
   -1
100
AcDbCircle
 10
243
 20
304.2
 40
122.7200012207031
  0
CIRCLE
  5
82
100
AcDbEntity
  8
03_DRILL_BORES
  6
ByLayer
 62
  256
370
   -1
100
AcDbCircle
 10
249
 20
121.8
 40
72.44000244140625
  0
CIRCLE
  5
83
100
AcDbEntity
  8
03_DRILL_BORES
  6
ByLayer
 62
  256
370
   -1
100
AcDbCircle
 10
214.2
 20
113.4
 40
105.5600051879883
  0
CIRCLE
  5
84
100
AcDbEntity
  8
03_DRILL_BORES
  6
ByLayer
 62
  256
370
   -1
100
AcDbCircle
 10
257.4
 20
168.6
 40
84.31999969482422
  0
CIRCLE
  5
85
100
AcDbEntity
  8
03_DRILL_BORES
  6
ByLayer
 62
  256
370
   -1
100
AcDbCircle
 10
156.6
 20
75
 40
64.63999938964844
  0
CIRCLE
  5
86
100
AcDbEntity
  8
03_DRILL_BORES
  6
ByLayer
 62
  256
370
   -1
100
AcDbCircle
 10
123
 20
367.8
 40
73.52000427246094
  0
CIRCLE
  5
87
100
AcDbEntity
  8
03_DRILL_BORES
  6
ByLayer
 62
  256
370
   -1
100
AcDbCircle
 10
226.2
 20
144.6
 40
54.08000564575195
  0
CIRCLE
  5
88
100
AcDbEntity
  8
03_DRILL_BORES
  6
ByLayer
 62
  256
370
   -1
100
AcDbCircle
 10
162.6
 20
231
 40
57.92000198364258
  0
CIRCLE
  5
89
100
AcDbEntity
  8
03_DRILL_BORES
  6
ByLayer
 62
  256
370
   -1
100
AcDbCircle
 10
154.2
 20
273
 40
55.40000152587891
  0
CIRCLE
  5
8A
100
AcDbEntity
  8
03_DRILL_BORES
  6
ByLayer
 62
  256
370
   -1
100
AcDbCircle
 10
126.6
 20
333
 40
69.91999816894531
  0
CIRCLE
  5
8B
100
AcDbEntity
  8
03_DRILL_BORES
  6
ByLayer
 62
  256
370
   -1
100
AcDbCircle
 10
229.8
 20
373.8
 40
74
  0
CIRCLE
  5
8C
100
AcDbEntity
  8
03_DRILL_BORES
  6
ByLayer
 62
  256
370
   -1
100
AcDbCircle
 10
251.4
 20
84.59999999999999
 40
73.8800048828125
  0
CIRCLE
  5
8D
100
AcDbEntity
  8
03_DRILL_BORES
  6
ByLayer
 62
  256
370
   -1
100
AcDbCircle
 10
247.8
 20
346.2
 40
55.28000259399414
  0
CIRCLE
  5
8E
100
AcDbEntity
  8
03_DRILL_BORES
  6
ByLayer
 62
  256
370
   -1
100
AcDbCircle
 10
154.2
 20
130.2
 40
43.28000259399414
  0
CIRCLE
  5
8F
100
AcDbEntity
  8
03_DRILL_BORES
  6
ByLayer
 62
  256
370
   -1
100
AcDbCircle
 10
119.4
 20
64.2
 40
105.2000045776367
  0
CIRCLE
  5
90
100
AcDbEntity
  8
03_DRILL_BORES
  6
ByLayer
 62
  256
370
   -1
100
AcDbCircle
 10
120.6
 20
249
 40
55.40000152587891
  0
CIRCLE
  5
91
100
AcDbEntity
  8
03_DRILL_BORES
  6
ByLayer
 62
  256
370
   -1
100
AcDbCircle
 10
120.6
 20
401.4
 40
75.56000518798828
  0
CIRCLE
  5
92
100
AcDbEntity
  8
03_DRILL_BORES
  6
ByLayer
 62
  256
370
   -1
100
AcDbCircle
 10
156.6
 20
323.4
 40
39.92000198364258
  0
CIRCLE
  5
93
100
AcDbEntity
  8
03_DRILL_BORES
  6
ByLayer
 62
  256
370
   -1
100
AcDbCircle
 10
145.8
 20
177
 40
38.2400016784668
  0
CIRCLE
  5
94
100
AcDbEntity
  8
03_DRILL_BORES
  6
ByLayer
 62
  256
370
   -1
100
AcDbCircle
 10
201
 20
183
 40
31.40000152587891
  0
CIRCLE
  5
95
100
AcDbEntity
  8
03_DRILL_BORES
  6
ByLayer
 62
  256
370
   -1
100
AcDbCircle
 10
232.2
 20
217.8
 40
39.20000076293945
  0
CIRCLE
  5
96
100
AcDbEntity
  8
03_DRILL_BORES
  6
ByLayer
 62
  256
370
   -1
100
AcDbCircle
 10
156.6
 20
381
 40
36.92000198364258
  0
CIRCLE
  5
97
100
AcDbEntity
  8
03_DRILL_BORES
  6
ByLayer
 62
  256
370
   -1
100
AcDbCircle
 10
204.6
 20
84.59999999999999
 40
28.04000091552734
  0
CIRCLE
  5
98
100
AcDbEntity
  8
03_DRILL_BORES
  6
ByLayer
 62
  256
370
   -1
100
AcDbCircle
 10
249
 20
401.4
 40
53.2400016784668
  0
CIRCLE
  5
99
100
AcDbEntity
  8
03_DRILL_BORES
  6
ByLayer
 62
  256
370
   -1
100
AcDbCircle
 10
123
 20
203.4
 40
19.52000045776367
  0
CIRCLE
  5
9A
100
AcDbEntity
  8
03_DRILL_BORES
  6
ByLayer
 62
  256
370
   -1
100
AcDbCircle
 10
196.2
 20
216.6
 40
23.60000038146973
  0
CIRCLE
  5
9B
100
AcDbEntity
  8
03_DRILL_BORES
  6
ByLayer
 62
  256
370
   -1
100
AcDbCircle
 10
183
 20
263.4
 40
39.44000244140625
  0
CIRCLE
  5
9C
100
AcDbEntity
  8
03_DRILL_BORES
  6
ByLayer
 62
  256
370
   -1
100
AcDbCircle
 10
168.6
 20
156.6
 40
20.96000099182129
  0
CIRCLE
  5
9D
100
AcDbEntity
  8
03_DRILL_BORES
  6
ByLayer
 62
  256
370
   -1
100
AcDbCircle
 10
180.6
 20
401.4
 40
20
  0
CIRCLE
  5
9E
100
AcDbEntity
  8
03_DRILL_BORES
  6
ByLayer
 62
  256
370
   -1
100
AcDbCircle
 10
213
 20
251.4
 40
19.52000045776367
  0
CIRCLE
  5
9F
100
AcDbEntity
  8
03_DRILL_BORES
  6
ByLayer
 62
  256
370
   -1
100
AcDbCircle
 10
192.6
 20
138.6
 40
15.68000030517578
  0
CIRCLE
  5
A0
100
AcDbEntity
  8
03_DRILL_BORES
  6
ByLayer
 62
  256
370
   -1
100
AcDbCircle
 10
213
 20
401.4
 40
20.1200008392334
  0
LINE
  5
A1
100
AcDbEntity
  8
01_CUT_OUTLINE
  6
ByLayer
 62
  256
370
   -1
100
AcDbLine
 10
137
 20
420
 11
136
 21
419
  0
LINE
  5
A2
100
AcDbEntity
  8
01_CUT_OUTLINE
  6
ByLayer
 62
  256
370
   -1
100
AcDbLine
 10
136
 20
419
 11
135
 21
419
  0
LINE
  5
A3
100
AcDbEntity
  8
01_CUT_OUTLINE
  6
ByLayer
 62
  256
370
   -1
100
AcDbLine
 10
135
 20
419
 11
134
 21
419
  0
LINE
  5
A4
100
AcDbEntity
  8
01_CUT_OUTLINE
  6
ByLayer
 62
  256
370
   -1
100
AcDbLine
 10
134
 20
419
 11
133
 21
419
  0
LINE
  5
A5
100
AcDbEntity
  8
01_CUT_OUTLINE
  6
ByLayer
 62
  256
370
   -1
100
AcDbLine
 10
133
 20
419
 11
132
 21
419
  0
LINE
  5
A6
100
AcDbEntity
  8
01_CUT_OUTLINE
  6
ByLayer
 62
  256
370
   -1
100
AcDbLine
 10
132
 20
419
 11
131
 21
419
  0
LINE
  5
A7
100
AcDbEntity
  8
01_CUT_OUTLINE
  6
ByLayer
 62
  256
370
   -1
100
AcDbLine
 10
131
 20
419
 11
130
 21
419
  0
LINE
  5
A8
100
AcDbEntity
  8
01_CUT_OUTLINE
  6
ByLayer
 62
  256
370
   -1
100
AcDbLine
 10
130
 20
419
 11
129
 21
418
  0
LINE
  5
A9
100
AcDbEntity
  8
01_CUT_OUTLINE
  6
ByLayer
 62
  256
370
   -1
100
AcDbLine
 10
129
 20
418
 11
128
 21
418
  0
LINE
  5
AA
100
AcDbEntity
  8
01_CUT_OUTLINE
  6
ByLayer
 62
  256
370
   -1
100
AcDbLine
 10
128
 20
418
 11
127
 21
418
  0
LINE
  5
AB
100
AcDbEntity
  8
01_CUT_OUTLINE
  6
ByLayer
 62
  256
370
   -1
100
AcDbLine
 10
127
 20
418
 11
126
 21
418
  0
LINE
  5
AC
100
AcDbEntity
  8
01_CUT_OUTLINE
  6
ByLayer
 62
  256
370
   -1
100
AcDbLine
 10
126
 20
418
 11
125
 21
417
  0
ARC
  5
AD
100
AcDbEntity
  8
01_CUT_OUTLINE
  6
ByLayer
 62
  256
370
   -1
100
AcDbCircle
 10
133.7379
 20
406.698
 40
13.25583076865919
100
AcDbArc
 50
31.20230678579405
 51
19.60494829336222
  0
LINE
  5
AE
100
AcDbEntity
  8
01_CUT_OUTLINE
  6
ByLayer
 62
  256
370
   -1
100
AcDbLine
 10
121
 20
387
 11
121
 21
386
  0
LINE
  5
AF
100
AcDbEntity
  8
01_CUT_OUTLINE
  6
ByLayer
 62
  256
370
   -1
100
AcDbLine
 10
121
 20
386
 11
121
 21
385
  0
LINE
  5
B0
100
AcDbEntity
  8
01_CUT_OUTLINE
  6
ByLayer
 62
  256
370
   -1
100
AcDbLine
 10
121
 20
385
 11
121
 21
384
  0
LINE
  5
B1
100
AcDbEntity
  8
01_CUT_OUTLINE
  6
ByLayer
 62
  256
370
   -1
100
AcDbLine
 10
121
 20
384
 11
121
 21
383
  0
LINE
  5
B2
100
AcDbEntity
  8
01_CUT_OUTLINE
  6
ByLayer
 62
  256
370
   -1
100
AcDbLine
 10
121
 20
383
 11
121
 21
382
  0
LINE
  5
B3
100
AcDbEntity
  8
01_CUT_OUTLINE
  6
ByLayer
 62
  256
370
   -1
100
AcDbLine
 10
121
 20
382
 11
121
 21
381
  0
LINE
  5
B4
100
AcDbEntity
  8
01_CUT_OUTLINE
  6
ByLayer
 62
  256
370
   -1
100
AcDbLine
 10
121
 20
381
 11
121
 21
380
  0
LINE
  5
B5
100
AcDbEntity
  8
01_CUT_OUTLINE
  6
ByLayer
 62
  256
370
   -1
100
AcDbLine
 10
121
 20
380
 11
121
 21
379
  0
LINE
  5
B6
100
AcDbEntity
  8
01_CUT_OUTLINE
  6
ByLayer
 62
  256
370
   -1
100
AcDbLine
 10
121
 20
379
 11
121
 21
378
  0
LINE
  5
B7
100
AcDbEntity
  8
01_CUT_OUTLINE
  6
ByLayer
 62
  256
370
   -1
100
AcDbLine
 10
121
 20
378
 11
121
 21
377
  0
LINE
  5
B8
100
AcDbEntity
  8
01_CUT_OUTLINE
  6
ByLayer
 62
  256
370
   -1
100
AcDbLine
 10
121
 20
377
 11
121
 21
376
  0
LINE
  5
B9
100
AcDbEntity
  8
01_CUT_OUTLINE
  6
ByLayer
 62
  256
370
   -1
100
AcDbLine
 10
121
 20
376
 11
121
 21
375
  0
LINE
  5
BA
100
AcDbEntity
  8
01_CUT_OUTLINE
  6
ByLayer
 62
  256
370
   -1
100
AcDbLine
 10
121
 20
375
 11
121
 21
374
  0
LINE
  5
BB
100
AcDbEntity
  8
01_CUT_OUTLINE
  6
ByLayer
 62
  256
370
   -1
100
AcDbLine
 10
121
 20
374
 11
121
 21
373
  0
LINE
  5
BC
100
AcDbEntity
  8
01_CUT_OUTLINE
  6
ByLayer
 62
  256
370
   -1
100
AcDbLine
 10
121
 20
373
 11
121
 21
372
  0
LINE
  5
BD
100
AcDbEntity
  8
01_CUT_OUTLINE
  6
ByLayer
 62
  256
370
   -1
100
AcDbLine
 10
121
 20
372
 11
121
 21
371
  0
LINE
  5
BE
100
AcDbEntity
  8
01_CUT_OUTLINE
  6
ByLayer
 62
  256
370
   -1
100
AcDbLine
 10
121
 20
371
 11
121
 21
370
  0
LINE
  5
BF
100
AcDbEntity
  8
01_CUT_OUTLINE
  6
ByLayer
 62
  256
370
   -1
100
AcDbLine
 10
121
 20
370
 11
121
 21
369
  0
LINE
  5
C0
100
AcDbEntity
  8
01_CUT_OUTLINE
  6
ByLayer
 62
  256
370
   -1
100
AcDbLine
 10
121
 20
369
 11
121
 21
368
  0
LINE
  5
C1
100
AcDbEntity
  8
01_CUT_OUTLINE
  6
ByLayer
 62
  256
370
   -1
100
AcDbLine
 10
121
 20
368
 11
121
 21
367
  0
LINE
  5
C2
100
AcDbEntity
  8
01_CUT_OUTLINE
  6
ByLayer
 62
  256
370
   -1
100
AcDbLine
 10
121
 20
367
 11
121
 21
366
  0
LINE
  5
C3
100
AcDbEntity
  8
01_CUT_OUTLINE
  6
ByLayer
 62
  256
370
   -1
100
AcDbLine
 10
121
 20
366
 11
121
 21
365
  0
LINE
  5
C4
100
AcDbEntity
  8
01_CUT_OUTLINE
  6
ByLayer
 62
  256
370
   -1
100
AcDbLine
 10
121
 20
365
 11
121
 21
364
  0
LINE
  5
C5
100
AcDbEntity
  8
01_CUT_OUTLINE
  6
ByLayer
 62
  256
370
   -1
100
AcDbLine
 10
121
 20
364
 11
121
 21
363
  0
LINE
  5
C6
100
AcDbEntity
  8
01_CUT_OUTLINE
  6
ByLayer
 62
  256
370
   -1
100
AcDbLine
 10
121
 20
363
 11
121
 21
362
  0
LINE
  5
C7
100
AcDbEntity
  8
01_CUT_OUTLINE
  6
ByLayer
 62
  256
370
   -1
100
AcDbLine
 10
121
 20
362
 11
121
 21
361
  0
LINE
  5
C8
100
AcDbEntity
  8
01_CUT_OUTLINE
  6
ByLayer
 62
  256
370
   -1
100
AcDbLine
 10
121
 20
361
 11
121
 21
360
  0
LINE
  5
C9
100
AcDbEntity
  8
01_CUT_OUTLINE
  6
ByLayer
 62
  256
370
   -1
100
AcDbLine
 10
121
 20
360
 11
121
 21
359
  0
LINE
  5
CA
100
AcDbEntity
  8
01_CUT_OUTLINE
  6
ByLayer
 62
  256
370
   -1
100
AcDbLine
 10
121
 20
359
 11
121
 21
358
  0
LINE
  5
CB
100
AcDbEntity
  8
01_CUT_OUTLINE
  6
ByLayer
 62
  256
370
   -1
100
AcDbLine
 10
121
 20
358
 11
121
 21
357
  0
LINE
  5
CC
100
AcDbEntity
  8
01_CUT_OUTLINE
  6
ByLayer
 62
  256
370
   -1
100
AcDbLine
 10
121
 20
357
 11
121
 21
356
  0
LINE
  5
CD
100
AcDbEntity
  8
01_CUT_OUTLINE
  6
ByLayer
 62
  256
370
   -1
100
AcDbLine
 10
121
 20
356
 11
121
 21
355
  0
LINE
  5
CE
100
AcDbEntity
  8
01_CUT_OUTLINE
  6
ByLayer
 62
  256
370
   -1
100
AcDbLine
 10
121
 20
355
 11
121
 21
354
  0
LINE
  5
CF
100
AcDbEntity
  8
01_CUT_OUTLINE
  6
ByLayer
 62
  256
370
   -1
100
AcDbLine
 10
121
 20
354
 11
121
 21
353
  0
LINE
  5
D0
100
AcDbEntity
  8
01_CUT_OUTLINE
  6
ByLayer
 62
  256
370
   -1
100
AcDbLine
 10
121
 20
353
 11
121
 21
352
  0
LINE
  5
D1
100
AcDbEntity
  8
01_CUT_OUTLINE
  6
ByLayer
 62
  256
370
   -1
100
AcDbLine
 10
121
 20
352
 11
121
 21
351
  0
LINE
  5
D2
100
AcDbEntity
  8
01_CUT_OUTLINE
  6
ByLayer
 62
  256
370
   -1
100
AcDbLine
 10
121
 20
351
 11
121
 21
350
  0
LINE
  5
D3
100
AcDbEntity
  8
01_CUT_OUTLINE
  6
ByLayer
 62
  256
370
   -1
100
AcDbLine
 10
121
 20
350
 11
121
 21
349
  0
LINE
  5
D4
100
AcDbEntity
  8
01_CUT_OUTLINE
  6
ByLayer
 62
  256
370
   -1
100
AcDbLine
 10
121
 20
349
 11
121
 21
348
  0
LINE
  5
D5
100
AcDbEntity
  8
01_CUT_OUTLINE
  6
ByLayer
 62
  256
370
   -1
100
AcDbLine
 10
121
 20
348
 11
121
 21
347
  0
LINE
  5
D6
100
AcDbEntity
  8
01_CUT_OUTLINE
  6
ByLayer
 62
  256
370
   -1
100
AcDbLine
 10
121
 20
347
 11
121
 21
346
  0
LINE
  5
D7
100
AcDbEntity
  8
01_CUT_OUTLINE
  6
ByLayer
 62
  256
370
   -1
100
AcDbLine
 10
121
 20
346
 11
121
 21
345
  0
LINE
  5
D8
100
AcDbEntity
  8
01_CUT_OUTLINE
  6
ByLayer
 62
  256
370
   -1
100
AcDbLine
 10
121
 20
345
 11
121
 21
344
  0
LINE
  5
D9
100
AcDbEntity
  8
01_CUT_OUTLINE
  6
ByLayer
 62
  256
370
   -1
100
AcDbLine
 10
121
 20
344
 11
121
 21
343
  0
LINE
  5
DA
100
AcDbEntity
  8
01_CUT_OUTLINE
  6
ByLayer
 62
  256
370
   -1
100
AcDbLine
 10
121
 20
343
 11
121
 21
342
  0
LINE
  5
DB
100
AcDbEntity
  8
01_CUT_OUTLINE
  6
ByLayer
 62
  256
370
   -1
100
AcDbLine
 10
121
 20
342
 11
121
 21
341
  0
LINE
  5
DC
100
AcDbEntity
  8
01_CUT_OUTLINE
  6
ByLayer
 62
  256
370
   -1
100
AcDbLine
 10
121
 20
341
 11
121
 21
340
  0
LINE
  5
DD
100
AcDbEntity
  8
01_CUT_OUTLINE
  6
ByLayer
 62
  256
370
   -1
100
AcDbLine
 10
121
 20
340
 11
121
 21
339
  0
LINE
  5
DE
100
AcDbEntity
  8
01_CUT_OUTLINE
  6
ByLayer
 62
  256
370
   -1
100
AcDbLine
 10
121
 20
339
 11
121
 21
338
  0
LINE
  5
DF
100
AcDbEntity
  8
01_CUT_OUTLINE
  6
ByLayer
 62
  256
370
   -1
100
AcDbLine
 10
121
 20
338
 11
121
 21
337
  0
LINE
  5
E0
100
AcDbEntity
  8
01_CUT_OUTLINE
  6
ByLayer
 62
  256
370
   -1
100
AcDbLine
 10
121
 20
337
 11
121
 21
336
  0
LINE
  5
E1
100
AcDbEntity
  8
01_CUT_OUTLINE
  6
ByLayer
 62
  256
370
   -1
100
AcDbLine
 10
121
 20
336
 11
121
 21
335
  0
LINE
  5
E2
100
AcDbEntity
  8
01_CUT_OUTLINE
  6
ByLayer
 62
  256
370
   -1
100
AcDbLine
 10
121
 20
335
 11
121
 21
334
  0
LINE
  5
E3
100
AcDbEntity
  8
01_CUT_OUTLINE
  6
ByLayer
 62
  256
370
   -1
100
AcDbLine
 10
121
 20
334
 11
121
 21
333
  0
LINE
  5
E4
100
AcDbEntity
  8
01_CUT_OUTLINE
  6
ByLayer
 62
  256
370
   -1
100
AcDbLine
 10
121
 20
333
 11
121
 21
332
  0
LINE
  5
E5
100
AcDbEntity
  8
01_CUT_OUTLINE
  6
ByLayer
 62
  256
370
   -1
100
AcDbLine
 10
121
 20
332
 11
121
 21
331
  0
LINE
  5
E6
100
AcDbEntity
  8
01_CUT_OUTLINE
  6
ByLayer
 62
  256
370
   -1
100
AcDbLine
 10
121
 20
331
 11
121
 21
330
  0
LINE
  5
E7
100
AcDbEntity
  8
01_CUT_OUTLINE
  6
ByLayer
 62
  256
370
   -1
100
AcDbLine
 10
121
 20
330
 11
121
 21
329
  0
LINE
  5
E8
100
AcDbEntity
  8
01_CUT_OUTLINE
  6
ByLayer
 62
  256
370
   -1
100
AcDbLine
 10
121
 20
329
 11
121
 21
328
  0
LINE
  5
E9
100
AcDbEntity
  8
01_CUT_OUTLINE
  6
ByLayer
 62
  256
370
   -1
100
AcDbLine
 10
121
 20
328
 11
121
 21
327
  0
LINE
  5
EA
100
AcDbEntity
  8
01_CUT_OUTLINE
  6
ByLayer
 62
  256
370
   -1
100
AcDbLine
 10
121
 20
327
 11
121
 21
326
  0
LINE
  5
EB
100
AcDbEntity
  8
01_CUT_OUTLINE
  6
ByLayer
 62
  256
370
   -1
100
AcDbLine
 10
121
 20
326
 11
121
 21
325
  0
LINE
  5
EC
100
AcDbEntity
  8
01_CUT_OUTLINE
  6
ByLayer
 62
  256
370
   -1
100
AcDbLine
 10
121
 20
325
 11
121
 21
324
  0
LINE
  5
ED
100
AcDbEntity
  8
01_CUT_OUTLINE
  6
ByLayer
 62
  256
370
   -1
100
AcDbLine
 10
121
 20
324
 11
121
 21
323
  0
LINE
  5
EE
100
AcDbEntity
  8
01_CUT_OUTLINE
  6
ByLayer
 62
  256
370
   -1
100
AcDbLine
 10
121
 20
323
 11
121
 21
322
  0
LINE
  5
EF
100
AcDbEntity
  8
01_CUT_OUTLINE
  6
ByLayer
 62
  256
370
   -1
100
AcDbLine
 10
121
 20
322
 11
121
 21
321
  0
LINE
  5
F0
100
AcDbEntity
  8
01_CUT_OUTLINE
  6
ByLayer
 62
  256
370
   -1
100
AcDbLine
 10
121
 20
321
 11
121
 21
320
  0
LINE
  5
F1
100
AcDbEntity
  8
01_CUT_OUTLINE
  6
ByLayer
 62
  256
370
   -1
100
AcDbLine
 10
121
 20
320
 11
121
 21
319
  0
LINE
  5
F2
100
AcDbEntity
  8
01_CUT_OUTLINE
  6
ByLayer
 62
  256
370
   -1
100
AcDbLine
 10
121
 20
319
 11
121
 21
318
  0
LINE
  5
F3
100
AcDbEntity
  8
01_CUT_OUTLINE
  6
ByLayer
 62
  256
370
   -1
100
AcDbLine
 10
121
 20
318
 11
121
 21
317
  0
LINE
  5
F4
100
AcDbEntity
  8
01_CUT_OUTLINE
  6
ByLayer
 62
  256
370
   -1
100
AcDbLine
 10
121
 20
317
 11
121
 21
316
  0
LINE
  5
F5
100
AcDbEntity
  8
01_CUT_OUTLINE
  6
ByLayer
 62
  256
370
   -1
100
AcDbLine
 10
121
 20
316
 11
121
 21
315
  0
LINE
  5
F6
100
AcDbEntity
  8
01_CUT_OUTLINE
  6
ByLayer
 62
  256
370
   -1
100
AcDbLine
 10
121
 20
315
 11
121
 21
314
  0
LINE
  5
F7
100
AcDbEntity
  8
01_CUT_OUTLINE
  6
ByLayer
 62
  256
370
   -1
100
AcDbLine
 10
121
 20
314
 11
121
 21
313
  0
LINE
  5
F8
100
AcDbEntity
  8
01_CUT_OUTLINE
  6
ByLayer
 62
  256
370
   -1
100
AcDbLine
 10
121
 20
313
 11
121
 21
312
  0
LINE
  5
F9
100
AcDbEntity
  8
01_CUT_OUTLINE
  6
ByLayer
 62
  256
370
   -1
100
AcDbLine
 10
121
 20
312
 11
121
 21
311
  0
LINE
  5
FA
100
AcDbEntity
  8
01_CUT_OUTLINE
  6
ByLayer
 62
  256
370
   -1
100
AcDbLine
 10
121
 20
311
 11
121
 21
310
  0
LINE
  5
FB
100
AcDbEntity
  8
01_CUT_OUTLINE
  6
ByLayer
 62
  256
370
   -1
100
AcDbLine
 10
121
 20
310
 11
121
 21
309
  0
LINE
  5
FC
100
AcDbEntity
  8
01_CUT_OUTLINE
  6
ByLayer
 62
  256
370
   -1
100
AcDbLine
 10
121
 20
309
 11
121
 21
308
  0
LINE
  5
FD
100
AcDbEntity
  8
01_CUT_OUTLINE
  6
ByLayer
 62
  256
370
   -1
100
AcDbLine
 10
121
 20
308
 11
121
 21
307
  0
LINE
  5
FE
100
AcDbEntity
  8
01_CUT_OUTLINE
  6
ByLayer
 62
  256
370
   -1
100
AcDbLine
 10
121
 20
307
 11
121
 21
306
  0
LINE
  5
FF
100
AcDbEntity
  8
01_CUT_OUTLINE
  6
ByLayer
 62
  256
370
   -1
100
AcDbLine
 10
121
 20
306
 11
121
 21
305
  0
LINE
  5
100
100
AcDbEntity
  8
01_CUT_OUTLINE
  6
ByLayer
 62
  256
370
   -1
100
AcDbLine
 10
121
 20
305
 11
121
 21
304
  0
LINE
  5
101
100
AcDbEntity
  8
01_CUT_OUTLINE
  6
ByLayer
 62
  256
370
   -1
100
AcDbLine
 10
121
 20
304
 11
121
 21
303
  0
LINE
  5
102
100
AcDbEntity
  8
01_CUT_OUTLINE
  6
ByLayer
 62
  256
370
   -1
100
AcDbLine
 10
121
 20
303
 11
121
 21
302
  0
LINE
  5
103
100
AcDbEntity
  8
01_CUT_OUTLINE
  6
ByLayer
 62
  256
370
   -1
100
AcDbLine
 10
121
 20
302
 11
122
 21
301
  0
LINE
  5
104
100
AcDbEntity
  8
01_CUT_OUTLINE
  6
ByLayer
 62
  256
370
   -1
100
AcDbLine
 10
122
 20
301
 11
122
 21
300
  0
LINE
  5
105
100
AcDbEntity
  8
01_CUT_OUTLINE
  6
ByLayer
 62
  256
370
   -1
100
AcDbLine
 10
122
 20
300
 11
123
 21
299
  0
LINE
  5
106
100
AcDbEntity
  8
01_CUT_OUTLINE
  6
ByLayer
 62
  256
370
   -1
100
AcDbLine
 10
141
 20
278
 11
141
 21
277
  0
LINE
  5
107
100
AcDbEntity
  8
01_CUT_OUTLINE
  6
ByLayer
 62
  256
370
   -1
100
AcDbLine
 10
141
 20
277
 11
141
 21
276
  0
LINE
  5
108
100
AcDbEntity
  8
01_CUT_OUTLINE
  6
ByLayer
 62
  256
370
   -1
100
AcDbLine
 10
141
 20
276
 11
141
 21
275
  0
LINE
  5
109
100
AcDbEntity
  8
01_CUT_OUTLINE
  6
ByLayer
 62
  256
370
   -1
100
AcDbLine
 10
141
 20
275
 11
141
 21
274
  0
LINE
  5
10A
100
AcDbEntity
  8
01_CUT_OUTLINE
  6
ByLayer
 62
  256
370
   -1
100
AcDbLine
 10
141
 20
274
 11
141
 21
273
  0
LINE
  5
10B
100
AcDbEntity
  8
01_CUT_OUTLINE
  6
ByLayer
 62
  256
370
   -1
100
AcDbLine
 10
141
 20
273
 11
141
 21
272
  0
LINE
  5
10C
100
AcDbEntity
  8
01_CUT_OUTLINE
  6
ByLayer
 62
  256
370
   -1
100
AcDbLine
 10
141
 20
272
 11
141
 21
271
  0
LINE
  5
10D
100
AcDbEntity
  8
01_CUT_OUTLINE
  6
ByLayer
 62
  256
370
   -1
100
AcDbLine
 10
141
 20
271
 11
141
 21
270
  0
LINE
  5
10E
100
AcDbEntity
  8
01_CUT_OUTLINE
  6
ByLayer
 62
  256
370
   -1
100
AcDbLine
 10
141
 20
270
 11
141
 21
269
  0
LINE
  5
10F
100
AcDbEntity
  8
01_CUT_OUTLINE
  6
ByLayer
 62
  256
370
   -1
100
AcDbLine
 10
141
 20
269
 11
141
 21
268
  0
LINE
  5
110
100
AcDbEntity
  8
01_CUT_OUTLINE
  6
ByLayer
 62
  256
370
   -1
100
AcDbLine
 10
141
 20
268
 11
141
 21
267
  0
LINE
  5
111
100
AcDbEntity
  8
01_CUT_OUTLINE
  6
ByLayer
 62
  256
370
   -1
100
AcDbLine
 10
141
 20
267
 11
141
 21
266
  0
LINE
  5
112
100
AcDbEntity
  8
01_CUT_OUTLINE
  6
ByLayer
 62
  256
370
   -1
100
AcDbLine
 10
141
 20
266
 11
141
 21
265
  0
LINE
  5
113
100
AcDbEntity
  8
01_CUT_OUTLINE
  6
ByLayer
 62
  256
370
   -1
100
AcDbLine
 10
141
 20
265
 11
141
 21
264
  0
LINE
  5
114
100
AcDbEntity
  8
01_CUT_OUTLINE
  6
ByLayer
 62
  256
370
   -1
100
AcDbLine
 10
141
 20
264
 11
141
 21
263
  0
LINE
  5
115
100
AcDbEntity
  8
01_CUT_OUTLINE
  6
ByLayer
 62
  256
370
   -1
100
AcDbLine
 10
141
 20
263
 11
141
 21
262
  0
LINE
  5
116
100
AcDbEntity
  8
01_CUT_OUTLINE
  6
ByLayer
 62
  256
370
   -1
100
AcDbLine
 10
141
 20
262
 11
141
 21
261
  0
LINE
  5
117
100
AcDbEntity
  8
01_CUT_OUTLINE
  6
ByLayer
 62
  256
370
   -1
100
AcDbLine
 10
141
 20
261
 11
141
 21
260
  0
LINE
  5
118
100
AcDbEntity
  8
01_CUT_OUTLINE
  6
ByLayer
 62
  256
370
   -1
100
AcDbLine
 10
141
 20
260
 11
141
 21
259
  0
LINE
  5
119
100
AcDbEntity
  8
01_CUT_OUTLINE
  6
ByLayer
 62
  256
370
   -1
100
AcDbLine
 10
141
 20
259
 11
141
 21
258
  0
LINE
  5
11A
100
AcDbEntity
  8
01_CUT_OUTLINE
  6
ByLayer
 62
  256
370
   -1
100
AcDbLine
 10
141
 20
258
 11
141
 21
257
  0
LINE
  5
11B
100
AcDbEntity
  8
01_CUT_OUTLINE
  6
ByLayer
 62
  256
370
   -1
100
AcDbLine
 10
141
 20
257
 11
141
 21
256
  0
LINE
  5
11C
100
AcDbEntity
  8
01_CUT_OUTLINE
  6
ByLayer
 62
  256
370
   -1
100
AcDbLine
 10
141
 20
256
 11
141
 21
255
  0
LINE
  5
11D
100
AcDbEntity
  8
01_CUT_OUTLINE
  6
ByLayer
 62
  256
370
   -1
100
AcDbLine
 10
141
 20
255
 11
141
 21
254
  0
LINE
  5
11E
100
AcDbEntity
  8
01_CUT_OUTLINE
  6
ByLayer
 62
  256
370
   -1
100
AcDbLine
 10
141
 20
254
 11
141
 21
253
  0
LINE
  5
11F
100
AcDbEntity
  8
01_CUT_OUTLINE
  6
ByLayer
 62
  256
370
   -1
100
AcDbLine
 10
141
 20
253
 11
141
 21
252
  0
LINE
  5
120
100
AcDbEntity
  8
01_CUT_OUTLINE
  6
ByLayer
 62
  256
370
   -1
100
AcDbLine
 10
141
 20
252
 11
141
 21
251
  0
LINE
  5
121
100
AcDbEntity
  8
01_CUT_OUTLINE
  6
ByLayer
 62
  256
370
   -1
100
AcDbLine
 10
141
 20
251
 11
141
 21
250
  0
LINE
  5
122
100
AcDbEntity
  8
01_CUT_OUTLINE
  6
ByLayer
 62
  256
370
   -1
100
AcDbLine
 10
141
 20
250
 11
141
 21
249
  0
LINE
  5
123
100
AcDbEntity
  8
01_CUT_OUTLINE
  6
ByLayer
 62
  256
370
   -1
100
AcDbLine
 10
141
 20
249
 11
141
 21
248
  0
LINE
  5
124
100
AcDbEntity
  8
01_CUT_OUTLINE
  6
ByLayer
 62
  256
370
   -1
100
AcDbLine
 10
141
 20
248
 11
141
 21
247
  0
LINE
  5
125
100
AcDbEntity
  8
01_CUT_OUTLINE
  6
ByLayer
 62
  256
370
   -1
100
AcDbLine
 10
141
 20
247
 11
141
 21
246
  0
LINE
  5
126
100
AcDbEntity
  8
01_CUT_OUTLINE
  6
ByLayer
 62
  256
370
   -1
100
AcDbLine
 10
141
 20
246
 11
141
 21
245
  0
LINE
  5
127
100
AcDbEntity
  8
01_CUT_OUTLINE
  6
ByLayer
 62
  256
370
   -1
100
AcDbLine
 10
141
 20
245
 11
141
 21
244
  0
LINE
  5
128
100
AcDbEntity
  8
01_CUT_OUTLINE
  6
ByLayer
 62
  256
370
   -1
100
AcDbLine
 10
141
 20
244
 11
141
 21
243
  0
LINE
  5
129
100
AcDbEntity
  8
01_CUT_OUTLINE
  6
ByLayer
 62
  256
370
   -1
100
AcDbLine
 10
141
 20
243
 11
142
 21
242
  0
LINE
  5
12A
100
AcDbEntity
  8
01_CUT_OUTLINE
  6
ByLayer
 62
  256
370
   -1
100
AcDbLine
 10
142
 20
242
 11
142
 21
241
  0
LINE
  5
12B
100
AcDbEntity
  8
01_CUT_OUTLINE
  6
ByLayer
 62
  256
370
   -1
100
AcDbLine
 10
142
 20
241
 11
142
 21
240
  0
LINE
  5
12C
100
AcDbEntity
  8
01_CUT_OUTLINE
  6
ByLayer
 62
  256
370
   -1
100
AcDbLine
 10
142
 20
240
 11
142
 21
239
  0
LINE
  5
12D
100
AcDbEntity
  8
01_CUT_OUTLINE
  6
ByLayer
 62
  256
370
   -1
100
AcDbLine
 10
142
 20
239
 11
141
 21
238
  0
LINE
  5
12E
100
AcDbEntity
  8
01_CUT_OUTLINE
  6
ByLayer
 62
  256
370
   -1
100
AcDbLine
 10
141
 20
238
 11
141
 21
237
  0
LINE
  5
12F
100
AcDbEntity
  8
01_CUT_OUTLINE
  6
ByLayer
 62
  256
370
   -1
100
AcDbLine
 10
141
 20
237
 11
141
 21
236
  0
LINE
  5
130
100
AcDbEntity
  8
01_CUT_OUTLINE
  6
ByLayer
 62
  256
370
   -1
100
AcDbLine
 10
141
 20
236
 11
141
 21
235
  0
LINE
  5
131
100
AcDbEntity
  8
01_CUT_OUTLINE
  6
ByLayer
 62
  256
370
   -1
100
AcDbLine
 10
141
 20
235
 11
141
 21
234
  0
LINE
  5
132
100
AcDbEntity
  8
01_CUT_OUTLINE
  6
ByLayer
 62
  256
370
   -1
100
AcDbLine
 10
141
 20
234
 11
141
 21
233
  0
LINE
  5
133
100
AcDbEntity
  8
01_CUT_OUTLINE
  6
ByLayer
 62
  256
370
   -1
100
AcDbLine
 10
141
 20
233
 11
141
 21
232
  0
LINE
  5
134
100
AcDbEntity
  8
01_CUT_OUTLINE
  6
ByLayer
 62
  256
370
   -1
100
AcDbLine
 10
141
 20
232
 11
141
 21
231
  0
LINE
  5
135
100
AcDbEntity
  8
01_CUT_OUTLINE
  6
ByLayer
 62
  256
370
   -1
100
AcDbLine
 10
141
 20
231
 11
141
 21
230
  0
LINE
  5
136
100
AcDbEntity
  8
01_CUT_OUTLINE
  6
ByLayer
 62
  256
370
   -1
100
AcDbLine
 10
141
 20
230
 11
141
 21
229
  0
LINE
  5
137
100
AcDbEntity
  8
01_CUT_OUTLINE
  6
ByLayer
 62
  256
370
   -1
100
AcDbLine
 10
141
 20
229
 11
141
 21
228
  0
LINE
  5
138
100
AcDbEntity
  8
01_CUT_OUTLINE
  6
ByLayer
 62
  256
370
   -1
100
AcDbLine
 10
141
 20
228
 11
141
 21
227
  0
LINE
  5
139
100
AcDbEntity
  8
01_CUT_OUTLINE
  6
ByLayer
 62
  256
370
   -1
100
AcDbLine
 10
141
 20
227
 11
141
 21
226
  0
LINE
  5
13A
100
AcDbEntity
  8
01_CUT_OUTLINE
  6
ByLayer
 62
  256
370
   -1
100
AcDbLine
 10
141
 20
226
 11
141
 21
225
  0
LINE
  5
13B
100
AcDbEntity
  8
01_CUT_OUTLINE
  6
ByLayer
 62
  256
370
   -1
100
AcDbLine
 10
141
 20
225
 11
141
 21
224
  0
LINE
  5
13C
100
AcDbEntity
  8
01_CUT_OUTLINE
  6
ByLayer
 62
  256
370
   -1
100
AcDbLine
 10
141
 20
224
 11
141
 21
223
  0
LINE
  5
13D
100
AcDbEntity
  8
01_CUT_OUTLINE
  6
ByLayer
 62
  256
370
   -1
100
AcDbLine
 10
141
 20
223
 11
141
 21
222
  0
LINE
  5
13E
100
AcDbEntity
  8
01_CUT_OUTLINE
  6
ByLayer
 62
  256
370
   -1
100
AcDbLine
 10
141
 20
222
 11
141
 21
221
  0
LINE
  5
13F
100
AcDbEntity
  8
01_CUT_OUTLINE
  6
ByLayer
 62
  256
370
   -1
100
AcDbLine
 10
141
 20
221
 11
142
 21
220
  0
LINE
  5
140
100
AcDbEntity
  8
01_CUT_OUTLINE
  6
ByLayer
 62
  256
370
   -1
100
AcDbLine
 10
142
 20
220
 11
142
 21
219
  0
LINE
  5
141
100
AcDbEntity
  8
01_CUT_OUTLINE
  6
ByLayer
 62
  256
370
   -1
100
AcDbLine
 10
142
 20
219
 11
142
 21
218
  0
LINE
  5
142
100
AcDbEntity
  8
01_CUT_OUTLINE
  6
ByLayer
 62
  256
370
   -1
100
AcDbLine
 10
142
 20
218
 11
142
 21
217
  0
LINE
  5
143
100
AcDbEntity
  8
01_CUT_OUTLINE
  6
ByLayer
 62
  256
370
   -1
100
AcDbLine
 10
142
 20
217
 11
142
 21
216
  0
LINE
  5
144
100
AcDbEntity
  8
01_CUT_OUTLINE
  6
ByLayer
 62
  256
370
   -1
100
AcDbLine
 10
142
 20
216
 11
141
 21
215
  0
LINE
  5
145
100
AcDbEntity
  8
01_CUT_OUTLINE
  6
ByLayer
 62
  256
370
   -1
100
AcDbLine
 10
141
 20
215
 11
140
 21
214
  0
LINE
  5
146
100
AcDbEntity
  8
01_CUT_OUTLINE
  6
ByLayer
 62
  256
370
   -1
100
AcDbLine
 10
140
 20
214
 11
139
 21
213
  0
ARC
  5
147
100
AcDbEntity
  8
01_CUT_OUTLINE
  6
ByLayer
 62
  256
370
   -1
100
AcDbCircle
 10
138.4235
 20
219.4802
 40
5.163224801213768
100
AcDbArc
 50
22.35741359271421
 51
25.983279453883
  0
LINE
  5
148
100
AcDbEntity
  8
01_CUT_OUTLINE
  6
ByLayer
 62
  256
370
   -1
100
AcDbLine
 10
118
 20
223
 11
117
 21
223
  0
LINE
  5
149
100
AcDbEntity
  8
01_CUT_OUTLINE
  6
ByLayer
 62
  256
370
   -1
100
AcDbLine
 10
117
 20
223
 11
116
 21
223
  0
LINE
  5
14A
100
AcDbEntity
  8
01_CUT_OUTLINE
  6
ByLayer
 62
  256
370
   -1
100
AcDbLine
 10
116
 20
223
 11
115
 21
223
  0
LINE
  5
14B
100
AcDbEntity
  8
01_CUT_OUTLINE
  6
ByLayer
 62
  256
370
   -1
100
AcDbLine
 10
115
 20
223
 11
114
 21
223
  0
LINE
  5
14C
100
AcDbEntity
  8
01_CUT_OUTLINE
  6
ByLayer
 62
  256
370
   -1
100
AcDbLine
 10
114
 20
223
 11
113
 21
223
  0
LINE
  5
14D
100
AcDbEntity
  8
01_CUT_OUTLINE
  6
ByLayer
 62
  256
370
   -1
100
AcDbLine
 10
113
 20
223
 11
112
 21
222
  0
ARC
  5
14E
100
AcDbEntity
  8
01_CUT_OUTLINE
  6
ByLayer
 62
  256
370
   -1
100
AcDbCircle
 10
119.6565
 20
212.5979
 40
11.34741519205019
100
AcDbArc
 50
31.47678248729781
 51
20.70575920046802
  0
LINE
  5
14F
100
AcDbEntity
  8
01_CUT_OUTLINE
  6
ByLayer
 62
  256
370
   -1
100
AcDbLine
 10
109
 20
191
 11
109
 21
190
  0
LINE
  5
150
100
AcDbEntity
  8
01_CUT_OUTLINE
  6
ByLayer
 62
  256
370
   -1
100
AcDbLine
 10
109
 20
190
 11
109
 21
189
  0
LINE
  5
151
100
AcDbEntity
  8
01_CUT_OUTLINE
  6
ByLayer
 62
  256
370
   -1
100
AcDbLine
 10
109
 20
189
 11
109
 21
188
  0
LINE
  5
152
100
AcDbEntity
  8
01_CUT_OUTLINE
  6
ByLayer
 62
  256
370
   -1
100
AcDbLine
 10
109
 20
188
 11
109
 21
187
  0
LINE
  5
153
100
AcDbEntity
  8
01_CUT_OUTLINE
  6
ByLayer
 62
  256
370
   -1
100
AcDbLine
 10
109
 20
187
 11
109
 21
186
  0
LINE
  5
154
100
AcDbEntity
  8
01_CUT_OUTLINE
  6
ByLayer
 62
  256
370
   -1
100
AcDbLine
 10
109
 20
186
 11
109
 21
185
  0
LINE
  5
155
100
AcDbEntity
  8
01_CUT_OUTLINE
  6
ByLayer
 62
  256
370
   -1
100
AcDbLine
 10
109
 20
185
 11
109
 21
184
  0
LINE
  5
156
100
AcDbEntity
  8
01_CUT_OUTLINE
  6
ByLayer
 62
  256
370
   -1
100
AcDbLine
 10
109
 20
184
 11
109
 21
183
  0
LINE
  5
157
100
AcDbEntity
  8
01_CUT_OUTLINE
  6
ByLayer
 62
  256
370
   -1
100
AcDbLine
 10
109
 20
183
 11
109
 21
182
  0
LINE
  5
158
100
AcDbEntity
  8
01_CUT_OUTLINE
  6
ByLayer
 62
  256
370
   -1
100
AcDbLine
 10
109
 20
182
 11
109
 21
181
  0
LINE
  5
159
100
AcDbEntity
  8
01_CUT_OUTLINE
  6
ByLayer
 62
  256
370
   -1
100
AcDbLine
 10
109
 20
181
 11
109
 21
180
  0
LINE
  5
15A
100
AcDbEntity
  8
01_CUT_OUTLINE
  6
ByLayer
 62
  256
370
   -1
100
AcDbLine
 10
109
 20
180
 11
109
 21
179
  0
LINE
  5
15B
100
AcDbEntity
  8
01_CUT_OUTLINE
  6
ByLayer
 62
  256
370
   -1
100
AcDbLine
 10
109
 20
179
 11
109
 21
178
  0
LINE
  5
15C
100
AcDbEntity
  8
01_CUT_OUTLINE
  6
ByLayer
 62
  256
370
   -1
100
AcDbLine
 10
109
 20
178
 11
109
 21
177
  0
LINE
  5
15D
100
AcDbEntity
  8
01_CUT_OUTLINE
  6
ByLayer
 62
  256
370
   -1
100
AcDbLine
 10
109
 20
177
 11
109
 21
176
  0
LINE
  5
15E
100
AcDbEntity
  8
01_CUT_OUTLINE
  6
ByLayer
 62
  256
370
   -1
100
AcDbLine
 10
109
 20
176
 11
109
 21
175
  0
LINE
  5
15F
100
AcDbEntity
  8
01_CUT_OUTLINE
  6
ByLayer
 62
  256
370
   -1
100
AcDbLine
 10
109
 20
175
 11
109
 21
174
  0
LINE
  5
160
100
AcDbEntity
  8
01_CUT_OUTLINE
  6
ByLayer
 62
  256
370
   -1
100
AcDbLine
 10
109
 20
174
 11
109
 21
173
  0
LINE
  5
161
100
AcDbEntity
  8
01_CUT_OUTLINE
  6
ByLayer
 62
  256
370
   -1
100
AcDbLine
 10
109
 20
173
 11
109
 21
172
  0
LINE
  5
162
100
AcDbEntity
  8
01_CUT_OUTLINE
  6
ByLayer
 62
  256
370
   -1
100
AcDbLine
 10
109
 20
172
 11
109
 21
171
  0
LINE
  5
163
100
AcDbEntity
  8
01_CUT_OUTLINE
  6
ByLayer
 62
  256
370
   -1
100
AcDbLine
 10
109
 20
171
 11
109
 21
170
  0
LINE
  5
164
100
AcDbEntity
  8
01_CUT_OUTLINE
  6
ByLayer
 62
  256
370
   -1
100
AcDbLine
 10
109
 20
170
 11
110
 21
169
  0
ARC
  5
165
100
AcDbEntity
  8
01_CUT_OUTLINE
  6
ByLayer
 62
  256
370
   -1
100
AcDbCircle
 10
119.7053
 20
176.1477
 40
11.71373229035804
100
AcDbArc
 50
30.12012643770903
 51
25.37536854340971
  0
LINE
  5
166
100
AcDbEntity
  8
01_CUT_OUTLINE
  6
ByLayer
 62
  256
370
   -1
100
AcDbLine
 10
135
 20
170
 11
135
 21
171
  0
LINE
  5
167
100
AcDbEntity
  8
01_CUT_OUTLINE
  6
ByLayer
 62
  256
370
   -1
100
AcDbLine
 10
135
 20
171
 11
135
 21
172
  0
LINE
  5
168
100
AcDbEntity
  8
01_CUT_OUTLINE
  6
ByLayer
 62
  256
370
   -1
100
AcDbLine
 10
135
 20
172
 11
135
 21
173
  0
LINE
  5
169
100
AcDbEntity
  8
01_CUT_OUTLINE
  6
ByLayer
 62
  256
370
   -1
100
AcDbLine
 10
135
 20
173
 11
135
 21
174
  0
LINE
  5
16A
100
AcDbEntity
  8
01_CUT_OUTLINE
  6
ByLayer
 62
  256
370
   -1
100
AcDbLine
 10
135
 20
174
 11
136
 21
175
  0
LINE
  5
16B
100
AcDbEntity
  8
01_CUT_OUTLINE
  6
ByLayer
 62
  256
370
   -1
100
AcDbLine
 10
136
 20
175
 11
137
 21
176
  0
ARC
  5
16C
100
AcDbEntity
  8
01_CUT_OUTLINE
  6
ByLayer
 62
  256
370
   -1
100
AcDbCircle
 10
137.9204
 20
169.3799
 40
5.095561207586644
100
AcDbArc
 50
28.52732626642688
 51
30.00917396030525
  0
LINE
  5
16D
100
AcDbEntity
  8
01_CUT_OUTLINE
  6
ByLayer
 62
  256
370
   -1
100
AcDbLine
 10
142
 20
147
 11
142
 21
146
  0
LINE
  5
16E
100
AcDbEntity
  8
01_CUT_OUTLINE
  6
ByLayer
 62
  256
370
   -1
100
AcDbLine
 10
142
 20
146
 11
142
 21
145
  0
LINE
  5
16F
100
AcDbEntity
  8
01_CUT_OUTLINE
  6
ByLayer
 62
  256
370
   -1
100
AcDbLine
 10
142
 20
145
 11
142
 21
144
  0
LINE
  5
170
100
AcDbEntity
  8
01_CUT_OUTLINE
  6
ByLayer
 62
  256
370
   -1
100
AcDbLine
 10
142
 20
144
 11
142
 21
143
  0
LINE
  5
171
100
AcDbEntity
  8
01_CUT_OUTLINE
  6
ByLayer
 62
  256
370
   -1
100
AcDbLine
 10
142
 20
143
 11
142
 21
142
  0
LINE
  5
172
100
AcDbEntity
  8
01_CUT_OUTLINE
  6
ByLayer
 62
  256
370
   -1
100
AcDbLine
 10
142
 20
142
 11
142
 21
141
  0
LINE
  5
173
100
AcDbEntity
  8
01_CUT_OUTLINE
  6
ByLayer
 62
  256
370
   -1
100
AcDbLine
 10
142
 20
141
 11
142
 21
140
  0
LINE
  5
174
100
AcDbEntity
  8
01_CUT_OUTLINE
  6
ByLayer
 62
  256
370
   -1
100
AcDbLine
 10
142
 20
140
 11
142
 21
139
  0
LINE
  5
175
100
AcDbEntity
  8
01_CUT_OUTLINE
  6
ByLayer
 62
  256
370
   -1
100
AcDbLine
 10
142
 20
139
 11
142
 21
138
  0
ARC
  5
176
100
AcDbEntity
  8
01_CUT_OUTLINE
  6
ByLayer
 62
  256
370
   -1
100
AcDbCircle
 10
150.3283
 20
145.0294
 40
9.887981674020038
100
AcDbArc
 50
29.22299375644835
 51
25.0086162543695
  0
LINE
  5
177
100
AcDbEntity
  8
01_CUT_OUTLINE
  6
ByLayer
 62
  256
370
   -1
100
AcDbLine
 10
171
 20
136
 11
172
 21
136
  0
LINE
  5
178
100
AcDbEntity
  8
01_CUT_OUTLINE
  6
ByLayer
 62
  256
370
   -1
100
AcDbLine
 10
172
 20
136
 11
173
 21
136
  0
LINE
  5
179
100
AcDbEntity
  8
01_CUT_OUTLINE
  6
ByLayer
 62
  256
370
   -1
100
AcDbLine
 10
173
 20
136
 11
174
 21
136
  0
LINE
  5
17A
100
AcDbEntity
  8
01_CUT_OUTLINE
  6
ByLayer
 62
  256
370
   -1
100
AcDbLine
 10
174
 20
136
 11
175
 21
136
  0
LINE
  5
17B
100
AcDbEntity
  8
01_CUT_OUTLINE
  6
ByLayer
 62
  256
370
   -1
100
AcDbLine
 10
175
 20
136
 11
176
 21
137
  0
ARC
  5
17C
100
AcDbEntity
  8
01_CUT_OUTLINE
  6
ByLayer
 62
  256
370
   -1
100
AcDbCircle
 10
169.5556
 20
128.1308
 40
9.434013212843793
100
AcDbArc
 50
24.88586115015656
 51
26.92156242145616
  0
LINE
  5
17D
100
AcDbEntity
  8
01_CUT_OUTLINE
  6
ByLayer
 62
  256
370
   -1
100
AcDbLine
 10
178
 20
107
 11
178
 21
106
  0
LINE
  5
17E
100
AcDbEntity
  8
01_CUT_OUTLINE
  6
ByLayer
 62
  256
370
   -1
100
AcDbLine
 10
178
 20
106
 11
178
 21
105
  0
LINE
  5
17F
100
AcDbEntity
  8
01_CUT_OUTLINE
  6
ByLayer
 62
  256
370
   -1
100
AcDbLine
 10
178
 20
105
 11
178
 21
104
  0
LINE
  5
180
100
AcDbEntity
  8
01_CUT_OUTLINE
  6
ByLayer
 62
  256
370
   -1
100
AcDbLine
 10
178
 20
104
 11
178
 21
103
  0
LINE
  5
181
100
AcDbEntity
  8
01_CUT_OUTLINE
  6
ByLayer
 62
  256
370
   -1
100
AcDbLine
 10
178
 20
103
 11
178
 21
102
  0
LINE
  5
182
100
AcDbEntity
  8
01_CUT_OUTLINE
  6
ByLayer
 62
  256
370
   -1
100
AcDbLine
 10
178
 20
102
 11
178
 21
101
  0
LINE
  5
183
100
AcDbEntity
  8
01_CUT_OUTLINE
  6
ByLayer
 62
  256
370
   -1
100
AcDbLine
 10
178
 20
101
 11
178
 21
100
  0
LINE
  5
184
100
AcDbEntity
  8
01_CUT_OUTLINE
  6
ByLayer
 62
  256
370
   -1
100
AcDbLine
 10
178
 20
100
 11
178
 21
99
  0
LINE
  5
185
100
AcDbEntity
  8
01_CUT_OUTLINE
  6
ByLayer
 62
  256
370
   -1
100
AcDbLine
 10
178
 20
99
 11
178
 21
98
  0
LINE
  5
186
100
AcDbEntity
  8
01_CUT_OUTLINE
  6
ByLayer
 62
  256
370
   -1
100
AcDbLine
 10
178
 20
98
 11
178
 21
97
  0
LINE
  5
187
100
AcDbEntity
  8
01_CUT_OUTLINE
  6
ByLayer
 62
  256
370
   -1
100
AcDbLine
 10
178
 20
97
 11
178
 21
96
  0
LINE
  5
188
100
AcDbEntity
  8
01_CUT_OUTLINE
  6
ByLayer
 62
  256
370
   -1
100
AcDbLine
 10
178
 20
96
 11
178
 21
95
  0
LINE
  5
189
100
AcDbEntity
  8
01_CUT_OUTLINE
  6
ByLayer
 62
  256
370
   -1
100
AcDbLine
 10
178
 20
95
 11
178
 21
94
  0
LINE
  5
18A
100
AcDbEntity
  8
01_CUT_OUTLINE
  6
ByLayer
 62
  256
370
   -1
100
AcDbLine
 10
178
 20
94
 11
178
 21
93
  0
LINE
  5
18B
100
AcDbEntity
  8
01_CUT_OUTLINE
  6
ByLayer
 62
  256
370
   -1
100
AcDbLine
 10
178
 20
93
 11
178
 21
92
  0
LINE
  5
18C
100
AcDbEntity
  8
01_CUT_OUTLINE
  6
ByLayer
 62
  256
370
   -1
100
AcDbLine
 10
178
 20
92
 11
178
 21
91
  0
LINE
  5
18D
100
AcDbEntity
  8
01_CUT_OUTLINE
  6
ByLayer
 62
  256
370
   -1
100
AcDbLine
 10
178
 20
91
 11
178
 21
90
  0
LINE
  5
18E
100
AcDbEntity
  8
01_CUT_OUTLINE
  6
ByLayer
 62
  256
370
   -1
100
AcDbLine
 10
178
 20
90
 11
178
 21
89
  0
LINE
  5
18F
100
AcDbEntity
  8
01_CUT_OUTLINE
  6
ByLayer
 62
  256
370
   -1
100
AcDbLine
 10
178
 20
89
 11
178
 21
88
  0
LINE
  5
190
100
AcDbEntity
  8
01_CUT_OUTLINE
  6
ByLayer
 62
  256
370
   -1
100
AcDbLine
 10
178
 20
88
 11
178
 21
87
  0
LINE
  5
191
100
AcDbEntity
  8
01_CUT_OUTLINE
  6
ByLayer
 62
  256
370
   -1
100
AcDbLine
 10
178
 20
87
 11
178
 21
86
  0
LINE
  5
192
100
AcDbEntity
  8
01_CUT_OUTLINE
  6
ByLayer
 62
  256
370
   -1
100
AcDbLine
 10
178
 20
86
 11
178
 21
85
  0
LINE
  5
193
100
AcDbEntity
  8
01_CUT_OUTLINE
  6
ByLayer
 62
  256
370
   -1
100
AcDbLine
 10
178
 20
85
 11
178
 21
84
  0
LINE
  5
194
100
AcDbEntity
  8
01_CUT_OUTLINE
  6
ByLayer
 62
  256
370
   -1
100
AcDbLine
 10
178
 20
84
 11
178
 21
83
  0
LINE
  5
195
100
AcDbEntity
  8
01_CUT_OUTLINE
  6
ByLayer
 62
  256
370
   -1
100
AcDbLine
 10
178
 20
83
 11
178
 21
82
  0
LINE
  5
196
100
AcDbEntity
  8
01_CUT_OUTLINE
  6
ByLayer
 62
  256
370
   -1
100
AcDbLine
 10
178
 20
82
 11
178
 21
81
  0
LINE
  5
197
100
AcDbEntity
  8
01_CUT_OUTLINE
  6
ByLayer
 62
  256
370
   -1
100
AcDbLine
 10
178
 20
81
 11
178
 21
80
  0
LINE
  5
198
100
AcDbEntity
  8
01_CUT_OUTLINE
  6
ByLayer
 62
  256
370
   -1
100
AcDbLine
 10
178
 20
80
 11
178
 21
79
  0
LINE
  5
199
100
AcDbEntity
  8
01_CUT_OUTLINE
  6
ByLayer
 62
  256
370
   -1
100
AcDbLine
 10
178
 20
79
 11
178
 21
78
  0
LINE
  5
19A
100
AcDbEntity
  8
01_CUT_OUTLINE
  6
ByLayer
 62
  256
370
   -1
100
AcDbLine
 10
178
 20
78
 11
178
 21
77
  0
LINE
  5
19B
100
AcDbEntity
  8
01_CUT_OUTLINE
  6
ByLayer
 62
  256
370
   -1
100
AcDbLine
 10
178
 20
77
 11
178
 21
76
  0
LINE
  5
19C
100
AcDbEntity
  8
01_CUT_OUTLINE
  6
ByLayer
 62
  256
370
   -1
100
AcDbLine
 10
178
 20
76
 11
178
 21
75
  0
LINE
  5
19D
100
AcDbEntity
  8
01_CUT_OUTLINE
  6
ByLayer
 62
  256
370
   -1
100
AcDbLine
 10
178
 20
75
 11
178
 21
74
  0
LINE
  5
19E
100
AcDbEntity
  8
01_CUT_OUTLINE
  6
ByLayer
 62
  256
370
   -1
100
AcDbLine
 10
178
 20
74
 11
178
 21
73
  0
LINE
  5
19F
100
AcDbEntity
  8
01_CUT_OUTLINE
  6
ByLayer
 62
  256
370
   -1
100
AcDbLine
 10
178
 20
73
 11
178
 21
72
  0
LINE
  5
1A0
100
AcDbEntity
  8
01_CUT_OUTLINE
  6
ByLayer
 62
  256
370
   -1
100
AcDbLine
 10
178
 20
72
 11
178
 21
71
  0
LINE
  5
1A1
100
AcDbEntity
  8
01_CUT_OUTLINE
  6
ByLayer
 62
  256
370
   -1
100
AcDbLine
 10
178
 20
71
 11
178
 21
70
  0
LINE
  5
1A2
100
AcDbEntity
  8
01_CUT_OUTLINE
  6
ByLayer
 62
  256
370
   -1
100
AcDbLine
 10
178
 20
70
 11
178
 21
69
  0
LINE
  5
1A3
100
AcDbEntity
  8
01_CUT_OUTLINE
  6
ByLayer
 62
  256
370
   -1
100
AcDbLine
 10
178
 20
69
 11
178
 21
68
  0
LINE
  5
1A4
100
AcDbEntity
  8
01_CUT_OUTLINE
  6
ByLayer
 62
  256
370
   -1
100
AcDbLine
 10
178
 20
68
 11
178
 21
67
  0
LINE
  5
1A5
100
AcDbEntity
  8
01_CUT_OUTLINE
  6
ByLayer
 62
  256
370
   -1
100
AcDbLine
 10
178
 20
67
 11
178
 21
66
  0
LINE
  5
1A6
100
AcDbEntity
  8
01_CUT_OUTLINE
  6
ByLayer
 62
  256
370
   -1
100
AcDbLine
 10
178
 20
66
 11
178
 21
65
  0
LINE
  5
1A7
100
AcDbEntity
  8
01_CUT_OUTLINE
  6
ByLayer
 62
  256
370
   -1
100
AcDbLine
 10
178
 20
65
 11
178
 21
64
  0
LINE
  5
1A8
100
AcDbEntity
  8
01_CUT_OUTLINE
  6
ByLayer
 62
  256
370
   -1
100
AcDbLine
 10
178
 20
64
 11
178
 21
63
  0
LINE
  5
1A9
100
AcDbEntity
  8
01_CUT_OUTLINE
  6
ByLayer
 62
  256
370
   -1
100
AcDbLine
 10
178
 20
63
 11
178
 21
62
  0
LINE
  5
1AA
100
AcDbEntity
  8
01_CUT_OUTLINE
  6
ByLayer
 62
  256
370
   -1
100
AcDbLine
 10
178
 20
62
 11
178
 21
61
  0
LINE
  5
1AB
100
AcDbEntity
  8
01_CUT_OUTLINE
  6
ByLayer
 62
  256
370
   -1
100
AcDbLine
 10
178
 20
61
 11
178
 21
60
  0
LINE
  5
1AC
100
AcDbEntity
  8
01_CUT_OUTLINE
  6
ByLayer
 62
  256
370
   -1
100
AcDbLine
 10
178
 20
60
 11
178
 21
59
  0
ARC
  5
1AD
100
AcDbEntity
  8
01_CUT_OUTLINE
  6
ByLayer
 62
  256
370
   -1
100
AcDbCircle
 10
187.2583
 20
65.7807
 40
10.52062198867734
100
AcDbArc
 50
29.49788470798355
 51
24.87436686484611
  0
LINE
  5
1AE
100
AcDbEntity
  8
01_CUT_OUTLINE
  6
ByLayer
 62
  256
370
   -1
100
AcDbLine
 10
185
 20
58
 11
184
 21
58
  0
ARC
  5
1AF
100
AcDbEntity
  8
01_CUT_OUTLINE
  6
ByLayer
 62
  256
370
   -1
100
AcDbCircle
 10
189.2569
 20
66.9515
 40
9.948664130606588
100
AcDbArc
 50
26.83363032025619
 51
29.94632015646885
  0
LINE
  5
1B0
100
AcDbEntity
  8
01_CUT_OUTLINE
  6
ByLayer
 62
  256
370
   -1
100
AcDbLine
 10
180
 20
87
 11
180
 21
88
  0
LINE
  5
1B1
100
AcDbEntity
  8
01_CUT_OUTLINE
  6
ByLayer
 62
  256
370
   -1
100
AcDbLine
 10
180
 20
88
 11
180
 21
89
  0
LINE
  5
1B2
100
AcDbEntity
  8
01_CUT_OUTLINE
  6
ByLayer
 62
  256
370
   -1
100
AcDbLine
 10
180
 20
89
 11
180
 21
90
  0
LINE
  5
1B3
100
AcDbEntity
  8
01_CUT_OUTLINE
  6
ByLayer
 62
  256
370
   -1
100
AcDbLine
 10
180
 20
90
 11
180
 21
91
  0
LINE
  5
1B4
100
AcDbEntity
  8
01_CUT_OUTLINE
  6
ByLayer
 62
  256
370
   -1
100
AcDbLine
 10
180
 20
91
 11
180
 21
92
  0
LINE
  5
1B5
100
AcDbEntity
  8
01_CUT_OUTLINE
  6
ByLayer
 62
  256
370
   -1
100
AcDbLine
 10
180
 20
92
 11
180
 21
93
  0
LINE
  5
1B6
100
AcDbEntity
  8
01_CUT_OUTLINE
  6
ByLayer
 62
  256
370
   -1
100
AcDbLine
 10
180
 20
93
 11
180
 21
94
  0
LINE
  5
1B7
100
AcDbEntity
  8
01_CUT_OUTLINE
  6
ByLayer
 62
  256
370
   -1
100
AcDbLine
 10
180
 20
94
 11
180
 21
95
  0
LINE
  5
1B8
100
AcDbEntity
  8
01_CUT_OUTLINE
  6
ByLayer
 62
  256
370
   -1
100
AcDbLine
 10
180
 20
95
 11
180
 21
96
  0
LINE
  5
1B9
100
AcDbEntity
  8
01_CUT_OUTLINE
  6
ByLayer
 62
  256
370
   -1
100
AcDbLine
 10
180
 20
96
 11
180
 21
97
  0
LINE
  5
1BA
100
AcDbEntity
  8
01_CUT_OUTLINE
  6
ByLayer
 62
  256
370
   -1
100
AcDbLine
 10
180
 20
97
 11
180
 21
98
  0
LINE
  5
1BB
100
AcDbEntity
  8
01_CUT_OUTLINE
  6
ByLayer
 62
  256
370
   -1
100
AcDbLine
 10
180
 20
98
 11
180
 21
99
  0
LINE
  5
1BC
100
AcDbEntity
  8
01_CUT_OUTLINE
  6
ByLayer
 62
  256
370
   -1
100
AcDbLine
 10
180
 20
99
 11
180
 21
100
  0
LINE
  5
1BD
100
AcDbEntity
  8
01_CUT_OUTLINE
  6
ByLayer
 62
  256
370
   -1
100
AcDbLine
 10
180
 20
100
 11
180
 21
101
  0
LINE
  5
1BE
100
AcDbEntity
  8
01_CUT_OUTLINE
  6
ByLayer
 62
  256
370
   -1
100
AcDbLine
 10
180
 20
101
 11
180
 21
102
  0
LINE
  5
1BF
100
AcDbEntity
  8
01_CUT_OUTLINE
  6
ByLayer
 62
  256
370
   -1
100
AcDbLine
 10
180
 20
102
 11
180
 21
103
  0
LINE
  5
1C0
100
AcDbEntity
  8
01_CUT_OUTLINE
  6
ByLayer
 62
  256
370
   -1
100
AcDbLine
 10
180
 20
103
 11
180
 21
104
  0
LINE
  5
1C1
100
AcDbEntity
  8
01_CUT_OUTLINE
  6
ByLayer
 62
  256
370
   -1
100
AcDbLine
 10
180
 20
104
 11
180
 21
105
  0
LINE
  5
1C2
100
AcDbEntity
  8
01_CUT_OUTLINE
  6
ByLayer
 62
  256
370
   -1
100
AcDbLine
 10
180
 20
105
 11
180
 21
106
  0
LINE
  5
1C3
100
AcDbEntity
  8
01_CUT_OUTLINE
  6
ByLayer
 62
  256
370
   -1
100
AcDbLine
 10
180
 20
106
 11
180
 21
107
  0
LINE
  5
1C4
100
AcDbEntity
  8
01_CUT_OUTLINE
  6
ByLayer
 62
  256
370
   -1
100
AcDbLine
 10
180
 20
107
 11
180
 21
108
  0
LINE
  5
1C5
100
AcDbEntity
  8
01_CUT_OUTLINE
  6
ByLayer
 62
  256
370
   -1
100
AcDbLine
 10
180
 20
108
 11
180
 21
109
  0
LINE
  5
1C6
100
AcDbEntity
  8
01_CUT_OUTLINE
  6
ByLayer
 62
  256
370
   -1
100
AcDbLine
 10
180
 20
109
 11
180
 21
110
  0
LINE
  5
1C7
100
AcDbEntity
  8
01_CUT_OUTLINE
  6
ByLayer
 62
  256
370
   -1
100
AcDbLine
 10
180
 20
110
 11
180
 21
111
  0
LINE
  5
1C8
100
AcDbEntity
  8
01_CUT_OUTLINE
  6
ByLayer
 62
  256
370
   -1
100
AcDbLine
 10
180
 20
111
 11
180
 21
112
  0
LINE
  5
1C9
100
AcDbEntity
  8
01_CUT_OUTLINE
  6
ByLayer
 62
  256
370
   -1
100
AcDbLine
 10
180
 20
112
 11
180
 21
113
  0
LINE
  5
1CA
100
AcDbEntity
  8
01_CUT_OUTLINE
  6
ByLayer
 62
  256
370
   -1
100
AcDbLine
 10
180
 20
113
 11
180
 21
114
  0
LINE
  5
1CB
100
AcDbEntity
  8
01_CUT_OUTLINE
  6
ByLayer
 62
  256
370
   -1
100
AcDbLine
 10
180
 20
114
 11
180
 21
115
  0
LINE
  5
1CC
100
AcDbEntity
  8
01_CUT_OUTLINE
  6
ByLayer
 62
  256
370
   -1
100
AcDbLine
 10
180
 20
115
 11
180
 21
116
  0
LINE
  5
1CD
100
AcDbEntity
  8
01_CUT_OUTLINE
  6
ByLayer
 62
  256
370
   -1
100
AcDbLine
 10
180
 20
116
 11
180
 21
117
  0
LINE
  5
1CE
100
AcDbEntity
  8
01_CUT_OUTLINE
  6
ByLayer
 62
  256
370
   -1
100
AcDbLine
 10
180
 20
117
 11
180
 21
118
  0
LINE
  5
1CF
100
AcDbEntity
  8
01_CUT_OUTLINE
  6
ByLayer
 62
  256
370
   -1
100
AcDbLine
 10
180
 20
118
 11
180
 21
119
  0
LINE
  5
1D0
100
AcDbEntity
  8
01_CUT_OUTLINE
  6
ByLayer
 62
  256
370
   -1
100
AcDbLine
 10
180
 20
119
 11
180
 21
120
  0
LINE
  5
1D1
100
AcDbEntity
  8
01_CUT_OUTLINE
  6
ByLayer
 62
  256
370
   -1
100
AcDbLine
 10
180
 20
120
 11
180
 21
121
  0
LINE
  5
1D2
100
AcDbEntity
  8
01_CUT_OUTLINE
  6
ByLayer
 62
  256
370
   -1
100
AcDbLine
 10
180
 20
121
 11
180
 21
122
  0
LINE
  5
1D3
100
AcDbEntity
  8
01_CUT_OUTLINE
  6
ByLayer
 62
  256
370
   -1
100
AcDbLine
 10
180
 20
122
 11
180
 21
123
  0
LINE
  5
1D4
100
AcDbEntity
  8
01_CUT_OUTLINE
  6
ByLayer
 62
  256
370
   -1
100
AcDbLine
 10
180
 20
123
 11
180
 21
124
  0
LINE
  5
1D5
100
AcDbEntity
  8
01_CUT_OUTLINE
  6
ByLayer
 62
  256
370
   -1
100
AcDbLine
 10
180
 20
124
 11
180
 21
125
  0
LINE
  5
1D6
100
AcDbEntity
  8
01_CUT_OUTLINE
  6
ByLayer
 62
  256
370
   -1
100
AcDbLine
 10
180
 20
125
 11
180
 21
126
  0
LINE
  5
1D7
100
AcDbEntity
  8
01_CUT_OUTLINE
  6
ByLayer
 62
  256
370
   -1
100
AcDbLine
 10
180
 20
126
 11
180
 21
127
  0
LINE
  5
1D8
100
AcDbEntity
  8
01_CUT_OUTLINE
  6
ByLayer
 62
  256
370
   -1
100
AcDbLine
 10
180
 20
127
 11
180
 21
128
  0
LINE
  5
1D9
100
AcDbEntity
  8
01_CUT_OUTLINE
  6
ByLayer
 62
  256
370
   -1
100
AcDbLine
 10
180
 20
128
 11
180
 21
129
  0
LINE
  5
1DA
100
AcDbEntity
  8
01_CUT_OUTLINE
  6
ByLayer
 62
  256
370
   -1
100
AcDbLine
 10
180
 20
129
 11
180
 21
130
  0
LINE
  5
1DB
100
AcDbEntity
  8
01_CUT_OUTLINE
  6
ByLayer
 62
  256
370
   -1
100
AcDbLine
 10
180
 20
130
 11
180
 21
131
  0
LINE
  5
1DC
100
AcDbEntity
  8
01_CUT_OUTLINE
  6
ByLayer
 62
  256
370
   -1
100
AcDbLine
 10
180
 20
131
 11
180
 21
132
  0
LINE
  5
1DD
100
AcDbEntity
  8
01_CUT_OUTLINE
  6
ByLayer
 62
  256
370
   -1
100
AcDbLine
 10
180
 20
132
 11
180
 21
133
  0
LINE
  5
1DE
100
AcDbEntity
  8
01_CUT_OUTLINE
  6
ByLayer
 62
  256
370
   -1
100
AcDbLine
 10
180
 20
133
 11
180
 21
134
  0
LINE
  5
1DF
100
AcDbEntity
  8
01_CUT_OUTLINE
  6
ByLayer
 62
  256
370
   -1
100
AcDbLine
 10
180
 20
134
 11
180
 21
135
  0
LINE
  5
1E0
100
AcDbEntity
  8
01_CUT_OUTLINE
  6
ByLayer
 62
  256
370
   -1
100
AcDbLine
 10
180
 20
135
 11
181
 21
136
  0
LINE
  5
1E1
100
AcDbEntity
  8
01_CUT_OUTLINE
  6
ByLayer
 62
  256
370
   -1
100
AcDbLine
 10
181
 20
136
 11
181
 21
137
  0
LINE
  5
1E2
100
AcDbEntity
  8
01_CUT_OUTLINE
  6
ByLayer
 62
  256
370
   -1
100
AcDbLine
 10
181
 20
137
 11
181
 21
138
  0
LINE
  5
1E3
100
AcDbEntity
  8
01_CUT_OUTLINE
  6
ByLayer
 62
  256
370
   -1
100
AcDbLine
 10
181
 20
138
 11
181
 21
139
  0
LINE
  5
1E4
100
AcDbEntity
  8
01_CUT_OUTLINE
  6
ByLayer
 62
  256
370
   -1
100
AcDbLine
 10
181
 20
139
 11
180
 21
140
  0
LINE
  5
1E5
100
AcDbEntity
  8
01_CUT_OUTLINE
  6
ByLayer
 62
  256
370
   -1
100
AcDbLine
 10
180
 20
140
 11
180
 21
141
  0
LINE
  5
1E6
100
AcDbEntity
  8
01_CUT_OUTLINE
  6
ByLayer
 62
  256
370
   -1
100
AcDbLine
 10
180
 20
141
 11
180
 21
142
  0
LINE
  5
1E7
100
AcDbEntity
  8
01_CUT_OUTLINE
  6
ByLayer
 62
  256
370
   -1
100
AcDbLine
 10
180
 20
142
 11
180
 21
143
  0
LINE
  5
1E8
100
AcDbEntity
  8
01_CUT_OUTLINE
  6
ByLayer
 62
  256
370
   -1
100
AcDbLine
 10
180
 20
143
 11
179
 21
144
  0
LINE
  5
1E9
100
AcDbEntity
  8
01_CUT_OUTLINE
  6
ByLayer
 62
  256
370
   -1
100
AcDbLine
 10
179
 20
144
 11
179
 21
143
  0
LINE
  5
1EA
100
AcDbEntity
  8
01_CUT_OUTLINE
  6
ByLayer
 62
  256
370
   -1
100
AcDbLine
 10
179
 20
143
 11
179
 21
142
  0
LINE
  5
1EB
100
AcDbEntity
  8
01_CUT_OUTLINE
  6
ByLayer
 62
  256
370
   -1
100
AcDbLine
 10
179
 20
142
 11
179
 21
141
  0
LINE
  5
1EC
100
AcDbEntity
  8
01_CUT_OUTLINE
  6
ByLayer
 62
  256
370
   -1
100
AcDbLine
 10
179
 20
141
 11
179
 21
140
  0
LINE
  5
1ED
100
AcDbEntity
  8
01_CUT_OUTLINE
  6
ByLayer
 62
  256
370
   -1
100
AcDbLine
 10
179
 20
140
 11
178
 21
139
  0
LINE
  5
1EE
100
AcDbEntity
  8
01_CUT_OUTLINE
  6
ByLayer
 62
  256
370
   -1
100
AcDbLine
 10
178
 20
139
 11
177
 21
138
  0
LINE
  5
1EF
100
AcDbEntity
  8
01_CUT_OUTLINE
  6
ByLayer
 62
  256
370
   -1
100
AcDbLine
 10
177
 20
138
 11
176
 21
138
  0
LINE
  5
1F0
100
AcDbEntity
  8
01_CUT_OUTLINE
  6
ByLayer
 62
  256
370
   -1
100
AcDbLine
 10
176
 20
138
 11
175
 21
139
  0
LINE
  5
1F1
100
AcDbEntity
  8
01_CUT_OUTLINE
  6
ByLayer
 62
  256
370
   -1
100
AcDbLine
 10
175
 20
139
 11
175
 21
140
  0
LINE
  5
1F2
100
AcDbEntity
  8
01_CUT_OUTLINE
  6
ByLayer
 62
  256
370
   -1
100
AcDbLine
 10
175
 20
140
 11
175
 21
141
  0
LINE
  5
1F3
100
AcDbEntity
  8
01_CUT_OUTLINE
  6
ByLayer
 62
  256
370
   -1
100
AcDbLine
 10
175
 20
141
 11
176
 21
142
  0
LINE
  5
1F4
100
AcDbEntity
  8
01_CUT_OUTLINE
  6
ByLayer
 62
  256
370
   -1
100
AcDbLine
 10
176
 20
142
 11
176
 21
143
  0
LINE
  5
1F5
100
AcDbEntity
  8
01_CUT_OUTLINE
  6
ByLayer
 62
  256
370
   -1
100
AcDbLine
 10
176
 20
143
 11
176
 21
144
  0
LINE
  5
1F6
100
AcDbEntity
  8
01_CUT_OUTLINE
  6
ByLayer
 62
  256
370
   -1
100
AcDbLine
 10
176
 20
144
 11
176
 21
145
  0
LINE
  5
1F7
100
AcDbEntity
  8
01_CUT_OUTLINE
  6
ByLayer
 62
  256
370
   -1
100
AcDbLine
 10
176
 20
145
 11
176
 21
146
  0
LINE
  5
1F8
100
AcDbEntity
  8
01_CUT_OUTLINE
  6
ByLayer
 62
  256
370
   -1
100
AcDbLine
 10
176
 20
146
 11
176
 21
147
  0
LINE
  5
1F9
100
AcDbEntity
  8
01_CUT_OUTLINE
  6
ByLayer
 62
  256
370
   -1
100
AcDbLine
 10
176
 20
147
 11
176
 21
148
  0
LINE
  5
1FA
100
AcDbEntity
  8
01_CUT_OUTLINE
  6
ByLayer
 62
  256
370
   -1
100
AcDbLine
 10
176
 20
148
 11
176
 21
149
  0
LINE
  5
1FB
100
AcDbEntity
  8
01_CUT_OUTLINE
  6
ByLayer
 62
  256
370
   -1
100
AcDbLine
 10
176
 20
149
 11
176
 21
150
  0
LINE
  5
1FC
100
AcDbEntity
  8
01_CUT_OUTLINE
  6
ByLayer
 62
  256
370
   -1
100
AcDbLine
 10
176
 20
150
 11
176
 21
151
  0
LINE
  5
1FD
100
AcDbEntity
  8
01_CUT_OUTLINE
  6
ByLayer
 62
  256
370
   -1
100
AcDbLine
 10
176
 20
151
 11
176
 21
152
  0
LINE
  5
1FE
100
AcDbEntity
  8
01_CUT_OUTLINE
  6
ByLayer
 62
  256
370
   -1
100
AcDbLine
 10
176
 20
152
 11
176
 21
153
  0
LINE
  5
1FF
100
AcDbEntity
  8
01_CUT_OUTLINE
  6
ByLayer
 62
  256
370
   -1
100
AcDbLine
 10
176
 20
153
 11
176
 21
154
  0
LINE
  5
200
100
AcDbEntity
  8
01_CUT_OUTLINE
  6
ByLayer
 62
  256
370
   -1
100
AcDbLine
 10
176
 20
154
 11
176
 21
155
  0
LINE
  5
201
100
AcDbEntity
  8
01_CUT_OUTLINE
  6
ByLayer
 62
  256
370
   -1
100
AcDbLine
 10
176
 20
155
 11
176
 21
156
  0
LINE
  5
202
100
AcDbEntity
  8
01_CUT_OUTLINE
  6
ByLayer
 62
  256
370
   -1
100
AcDbLine
 10
176
 20
156
 11
176
 21
157
  0
LINE
  5
203
100
AcDbEntity
  8
01_CUT_OUTLINE
  6
ByLayer
 62
  256
370
   -1
100
AcDbLine
 10
176
 20
157
 11
176
 21
158
  0
LINE
  5
204
100
AcDbEntity
  8
01_CUT_OUTLINE
  6
ByLayer
 62
  256
370
   -1
100
AcDbLine
 10
176
 20
158
 11
176
 21
159
  0
LINE
  5
205
100
AcDbEntity
  8
01_CUT_OUTLINE
  6
ByLayer
 62
  256
370
   -1
100
AcDbLine
 10
176
 20
159
 11
176
 21
160
  0
LINE
  5
206
100
AcDbEntity
  8
01_CUT_OUTLINE
  6
ByLayer
 62
  256
370
   -1
100
AcDbLine
 10
176
 20
160
 11
176
 21
161
  0
LINE
  5
207
100
AcDbEntity
  8
01_CUT_OUTLINE
  6
ByLayer
 62
  256
370
   -1
100
AcDbLine
 10
176
 20
161
 11
176
 21
162
  0
LINE
  5
208
100
AcDbEntity
  8
01_CUT_OUTLINE
  6
ByLayer
 62
  256
370
   -1
100
AcDbLine
 10
176
 20
162
 11
176
 21
163
  0
LINE
  5
209
100
AcDbEntity
  8
01_CUT_OUTLINE
  6
ByLayer
 62
  256
370
   -1
100
AcDbLine
 10
176
 20
163
 11
176
 21
164
  0
LINE
  5
20A
100
AcDbEntity
  8
01_CUT_OUTLINE
  6
ByLayer
 62
  256
370
   -1
100
AcDbLine
 10
176
 20
164
 11
176
 21
165
  0
LINE
  5
20B
100
AcDbEntity
  8
01_CUT_OUTLINE
  6
ByLayer
 62
  256
370
   -1
100
AcDbLine
 10
176
 20
165
 11
176
 21
166
  0
LINE
  5
20C
100
AcDbEntity
  8
01_CUT_OUTLINE
  6
ByLayer
 62
  256
370
   -1
100
AcDbLine
 10
176
 20
166
 11
176
 21
167
  0
LINE
  5
20D
100
AcDbEntity
  8
01_CUT_OUTLINE
  6
ByLayer
 62
  256
370
   -1
100
AcDbLine
 10
176
 20
167
 11
176
 21
168
  0
LINE
  5
20E
100
AcDbEntity
  8
01_CUT_OUTLINE
  6
ByLayer
 62
  256
370
   -1
100
AcDbLine
 10
176
 20
168
 11
176
 21
169
  0
LINE
  5
20F
100
AcDbEntity
  8
01_CUT_OUTLINE
  6
ByLayer
 62
  256
370
   -1
100
AcDbLine
 10
176
 20
169
 11
176
 21
170
  0
LINE
  5
210
100
AcDbEntity
  8
01_CUT_OUTLINE
  6
ByLayer
 62
  256
370
   -1
100
AcDbLine
 10
176
 20
170
 11
176
 21
171
  0
ARC
  5
211
100
AcDbEntity
  8
01_CUT_OUTLINE
  6
ByLayer
 62
  256
370
   -1
100
AcDbCircle
 10
184.6403
 20
163.9241
 40
9.915226902411097
100
AcDbArc
 50
21.61825445777242
 51
31.93244346774936
  0
LINE
  5
212
100
AcDbEntity
  8
01_CUT_OUTLINE
  6
ByLayer
 62
  256
370
   -1
100
AcDbLine
 10
206
 20
173
 11
207
 21
173
  0
LINE
  5
213
100
AcDbEntity
  8
01_CUT_OUTLINE
  6
ByLayer
 62
  256
370
   -1
100
AcDbLine
 10
207
 20
173
 11
208
 21
173
  0
LINE
  5
214
100
AcDbEntity
  8
01_CUT_OUTLINE
  6
ByLayer
 62
  256
370
   -1
100
AcDbLine
 10
208
 20
173
 11
209
 21
173
  0
LINE
  5
215
100
AcDbEntity
  8
01_CUT_OUTLINE
  6
ByLayer
 62
  256
370
   -1
100
AcDbLine
 10
209
 20
173
 11
210
 21
173
  0
LINE
  5
216
100
AcDbEntity
  8
01_CUT_OUTLINE
  6
ByLayer
 62
  256
370
   -1
100
AcDbLine
 10
210
 20
173
 11
211
 21
173
  0
LINE
  5
217
100
AcDbEntity
  8
01_CUT_OUTLINE
  6
ByLayer
 62
  256
370
   -1
100
AcDbLine
 10
211
 20
173
 11
212
 21
173
  0
LINE
  5
218
100
AcDbEntity
  8
01_CUT_OUTLINE
  6
ByLayer
 62
  256
370
   -1
100
AcDbLine
 10
212
 20
173
 11
213
 21
173
  0
LINE
  5
219
100
AcDbEntity
  8
01_CUT_OUTLINE
  6
ByLayer
 62
  256
370
   -1
100
AcDbLine
 10
213
 20
173
 11
214
 21
173
  0
LINE
  5
21A
100
AcDbEntity
  8
01_CUT_OUTLINE
  6
ByLayer
 62
  256
370
   -1
100
AcDbLine
 10
214
 20
173
 11
215
 21
173
  0
LINE
  5
21B
100
AcDbEntity
  8
01_CUT_OUTLINE
  6
ByLayer
 62
  256
370
   -1
100
AcDbLine
 10
215
 20
173
 11
216
 21
172
  0
LINE
  5
21C
100
AcDbEntity
  8
01_CUT_OUTLINE
  6
ByLayer
 62
  256
370
   -1
100
AcDbLine
 10
216
 20
172
 11
216
 21
171
  0
ARC
  5
21D
100
AcDbEntity
  8
01_CUT_OUTLINE
  6
ByLayer
 62
  256
370
   -1
100
AcDbCircle
 10
209.9949
 20
169.584
 40
5.323801663727198
100
AcDbArc
 50
26.83092249300516
 51
29.2069377528979
  0
LINE
  5
21E
100
AcDbEntity
  8
01_CUT_OUTLINE
  6
ByLayer
 62
  256
370
   -1
100
AcDbLine
 10
189
 20
166
 11
188
 21
166
  0
LINE
  5
21F
100
AcDbEntity
  8
01_CUT_OUTLINE
  6
ByLayer
 62
  256
370
   -1
100
AcDbLine
 10
188
 20
166
 11
187
 21
166
  0
LINE
  5
220
100
AcDbEntity
  8
01_CUT_OUTLINE
  6
ByLayer
 62
  256
370
   -1
100
AcDbLine
 10
187
 20
166
 11
186
 21
166
  0
LINE
  5
221
100
AcDbEntity
  8
01_CUT_OUTLINE
  6
ByLayer
 62
  256
370
   -1
100
AcDbLine
 10
186
 20
166
 11
185
 21
166
  0
LINE
  5
222
100
AcDbEntity
  8
01_CUT_OUTLINE
  6
ByLayer
 62
  256
370
   -1
100
AcDbLine
 10
185
 20
166
 11
184
 21
166
  0
ARC
  5
223
100
AcDbEntity
  8
01_CUT_OUTLINE
  6
ByLayer
 62
  256
370
   -1
100
AcDbCircle
 10
191.0759
 20
157.3597
 40
9.915226902411097
100
AcDbArc
 50
30.96601130247466
 51
21.36982767534152
  0
LINE
  5
224
100
AcDbEntity
  8
01_CUT_OUTLINE
  6
ByLayer
 62
  256
370
   -1
100
AcDbLine
 10
188
 20
140
 11
189
 21
140
  0
LINE
  5
225
100
AcDbEntity
  8
01_CUT_OUTLINE
  6
ByLayer
 62
  256
370
   -1
100
AcDbLine
 10
189
 20
140
 11
190
 21
140
  0
LINE
  5
226
100
AcDbEntity
  8
01_CUT_OUTLINE
  6
ByLayer
 62
  256
370
   -1
100
AcDbLine
 10
190
 20
140
 11
191
 21
140
  0
LINE
  5
227
100
AcDbEntity
  8
01_CUT_OUTLINE
  6
ByLayer
 62
  256
370
   -1
100
AcDbLine
 10
191
 20
140
 11
192
 21
140
  0
LINE
  5
228
100
AcDbEntity
  8
01_CUT_OUTLINE
  6
ByLayer
 62
  256
370
   -1
100
AcDbLine
 10
192
 20
140
 11
193
 21
140
  0
LINE
  5
229
100
AcDbEntity
  8
01_CUT_OUTLINE
  6
ByLayer
 62
  256
370
   -1
100
AcDbLine
 10
193
 20
140
 11
194
 21
140
  0
LINE
  5
22A
100
AcDbEntity
  8
01_CUT_OUTLINE
  6
ByLayer
 62
  256
370
   -1
100
AcDbLine
 10
194
 20
140
 11
195
 21
140
  0
LINE
  5
22B
100
AcDbEntity
  8
01_CUT_OUTLINE
  6
ByLayer
 62
  256
370
   -1
100
AcDbLine
 10
195
 20
140
 11
196
 21
140
  0
LINE
  5
22C
100
AcDbEntity
  8
01_CUT_OUTLINE
  6
ByLayer
 62
  256
370
   -1
100
AcDbLine
 10
196
 20
140
 11
197
 21
140
  0
LINE
  5
22D
100
AcDbEntity
  8
01_CUT_OUTLINE
  6
ByLayer
 62
  256
370
   -1
100
AcDbLine
 10
197
 20
140
 11
198
 21
140
  0
LINE
  5
22E
100
AcDbEntity
  8
01_CUT_OUTLINE
  6
ByLayer
 62
  256
370
   -1
100
AcDbLine
 10
198
 20
140
 11
199
 21
140
  0
LINE
  5
22F
100
AcDbEntity
  8
01_CUT_OUTLINE
  6
ByLayer
 62
  256
370
   -1
100
AcDbLine
 10
199
 20
140
 11
200
 21
140
  0
LINE
  5
230
100
AcDbEntity
  8
01_CUT_OUTLINE
  6
ByLayer
 62
  256
370
   -1
100
AcDbLine
 10
200
 20
140
 11
201
 21
140
  0
LINE
  5
231
100
AcDbEntity
  8
01_CUT_OUTLINE
  6
ByLayer
 62
  256
370
   -1
100
AcDbLine
 10
201
 20
140
 11
202
 21
140
  0
LINE
  5
232
100
AcDbEntity
  8
01_CUT_OUTLINE
  6
ByLayer
 62
  256
370
   -1
100
AcDbLine
 10
202
 20
140
 11
203
 21
140
  0
LINE
  5
233
100
AcDbEntity
  8
01_CUT_OUTLINE
  6
ByLayer
 62
  256
370
   -1
100
AcDbLine
 10
203
 20
140
 11
204
 21
140
  0
LINE
  5
234
100
AcDbEntity
  8
01_CUT_OUTLINE
  6
ByLayer
 62
  256
370
   -1
100
AcDbLine
 10
204
 20
140
 11
205
 21
140
  0
LINE
  5
235
100
AcDbEntity
  8
01_CUT_OUTLINE
  6
ByLayer
 62
  256
370
   -1
100
AcDbLine
 10
205
 20
140
 11
206
 21
140
  0
LINE
  5
236
100
AcDbEntity
  8
01_CUT_OUTLINE
  6
ByLayer
 62
  256
370
   -1
100
AcDbLine
 10
206
 20
140
 11
207
 21
140
  0
LINE
  5
237
100
AcDbEntity
  8
01_CUT_OUTLINE
  6
ByLayer
 62
  256
370
   -1
100
AcDbLine
 10
207
 20
140
 11
208
 21
140
  0
LINE
  5
238
100
AcDbEntity
  8
01_CUT_OUTLINE
  6
ByLayer
 62
  256
370
   -1
100
AcDbLine
 10
208
 20
140
 11
209
 21
140
  0
LINE
  5
239
100
AcDbEntity
  8
01_CUT_OUTLINE
  6
ByLayer
 62
  256
370
   -1
100
AcDbLine
 10
209
 20
140
 11
210
 21
140
  0
LINE
  5
23A
100
AcDbEntity
  8
01_CUT_OUTLINE
  6
ByLayer
 62
  256
370
   -1
100
AcDbLine
 10
210
 20
140
 11
211
 21
140
  0
LINE
  5
23B
100
AcDbEntity
  8
01_CUT_OUTLINE
  6
ByLayer
 62
  256
370
   -1
100
AcDbLine
 10
211
 20
140
 11
212
 21
140
  0
LINE
  5
23C
100
AcDbEntity
  8
01_CUT_OUTLINE
  6
ByLayer
 62
  256
370
   -1
100
AcDbLine
 10
212
 20
140
 11
213
 21
140
  0
LINE
  5
23D
100
AcDbEntity
  8
01_CUT_OUTLINE
  6
ByLayer
 62
  256
370
   -1
100
AcDbLine
 10
213
 20
140
 11
214
 21
140
  0
LINE
  5
23E
100
AcDbEntity
  8
01_CUT_OUTLINE
  6
ByLayer
 62
  256
370
   -1
100
AcDbLine
 10
214
 20
140
 11
215
 21
140
  0
LINE
  5
23F
100
AcDbEntity
  8
01_CUT_OUTLINE
  6
ByLayer
 62
  256
370
   -1
100
AcDbLine
 10
215
 20
140
 11
216
 21
140
  0
LINE
  5
240
100
AcDbEntity
  8
01_CUT_OUTLINE
  6
ByLayer
 62
  256
370
   -1
100
AcDbLine
 10
216
 20
140
 11
216
 21
141
  0
LINE
  5
241
100
AcDbEntity
  8
01_CUT_OUTLINE
  6
ByLayer
 62
  256
370
   -1
100
AcDbLine
 10
216
 20
141
 11
216
 21
142
  0
LINE
  5
242
100
AcDbEntity
  8
01_CUT_OUTLINE
  6
ByLayer
 62
  256
370
   -1
100
AcDbLine
 10
216
 20
142
 11
216
 21
143
  0
LINE
  5
243
100
AcDbEntity
  8
01_CUT_OUTLINE
  6
ByLayer
 62
  256
370
   -1
100
AcDbLine
 10
216
 20
143
 11
216
 21
144
  0
LINE
  5
244
100
AcDbEntity
  8
01_CUT_OUTLINE
  6
ByLayer
 62
  256
370
   -1
100
AcDbLine
 10
216
 20
144
 11
216
 21
145
  0
LINE
  5
245
100
AcDbEntity
  8
01_CUT_OUTLINE
  6
ByLayer
 62
  256
370
   -1
100
AcDbLine
 10
216
 20
145
 11
216
 21
146
  0
LINE
  5
246
100
AcDbEntity
  8
01_CUT_OUTLINE
  6
ByLayer
 62
  256
370
   -1
100
AcDbLine
 10
216
 20
146
 11
216
 21
147
  0
LINE
  5
247
100
AcDbEntity
  8
01_CUT_OUTLINE
  6
ByLayer
 62
  256
370
   -1
100
AcDbLine
 10
216
 20
147
 11
216
 21
148
  0
LINE
  5
248
100
AcDbEntity
  8
01_CUT_OUTLINE
  6
ByLayer
 62
  256
370
   -1
100
AcDbLine
 10
216
 20
148
 11
216
 21
149
  0
LINE
  5
249
100
AcDbEntity
  8
01_CUT_OUTLINE
  6
ByLayer
 62
  256
370
   -1
100
AcDbLine
 10
216
 20
149
 11
216
 21
150
  0
LINE
  5
24A
100
AcDbEntity
  8
01_CUT_OUTLINE
  6
ByLayer
 62
  256
370
   -1
100
AcDbLine
 10
216
 20
150
 11
216
 21
151
  0
LINE
  5
24B
100
AcDbEntity
  8
01_CUT_OUTLINE
  6
ByLayer
 62
  256
370
   -1
100
AcDbLine
 10
216
 20
151
 11
217
 21
152
  0
LINE
  5
24C
100
AcDbEntity
  8
01_CUT_OUTLINE
  6
ByLayer
 62
  256
370
   -1
100
AcDbLine
 10
217
 20
152
 11
218
 21
152
  0
LINE
  5
24D
100
AcDbEntity
  8
01_CUT_OUTLINE
  6
ByLayer
 62
  256
370
   -1
100
AcDbLine
 10
218
 20
152
 11
219
 21
152
  0
LINE
  5
24E
100
AcDbEntity
  8
01_CUT_OUTLINE
  6
ByLayer
 62
  256
370
   -1
100
AcDbLine
 10
219
 20
152
 11
220
 21
152
  0
LINE
  5
24F
100
AcDbEntity
  8
01_CUT_OUTLINE
  6
ByLayer
 62
  256
370
   -1
100
AcDbLine
 10
220
 20
152
 11
221
 21
152
  0
LINE
  5
250
100
AcDbEntity
  8
01_CUT_OUTLINE
  6
ByLayer
 62
  256
370
   -1
100
AcDbLine
 10
221
 20
152
 11
222
 21
152
  0
LINE
  5
251
100
AcDbEntity
  8
01_CUT_OUTLINE
  6
ByLayer
 62
  256
370
   -1
100
AcDbLine
 10
222
 20
152
 11
223
 21
152
  0
LINE
  5
252
100
AcDbEntity
  8
01_CUT_OUTLINE
  6
ByLayer
 62
  256
370
   -1
100
AcDbLine
 10
223
 20
152
 11
223
 21
153
  0
LINE
  5
253
100
AcDbEntity
  8
01_CUT_OUTLINE
  6
ByLayer
 62
  256
370
   -1
100
AcDbLine
 10
223
 20
153
 11
223
 21
154
  0
LINE
  5
254
100
AcDbEntity
  8
01_CUT_OUTLINE
  6
ByLayer
 62
  256
370
   -1
100
AcDbLine
 10
223
 20
154
 11
223
 21
155
  0
LINE
  5
255
100
AcDbEntity
  8
01_CUT_OUTLINE
  6
ByLayer
 62
  256
370
   -1
100
AcDbLine
 10
223
 20
155
 11
223
 21
156
  0
LINE
  5
256
100
AcDbEntity
  8
01_CUT_OUTLINE
  6
ByLayer
 62
  256
370
   -1
100
AcDbLine
 10
223
 20
156
 11
223
 21
157
  0
LINE
  5
257
100
AcDbEntity
  8
01_CUT_OUTLINE
  6
ByLayer
 62
  256
370
   -1
100
AcDbLine
 10
223
 20
157
 11
223
 21
158
  0
LINE
  5
258
100
AcDbEntity
  8
01_CUT_OUTLINE
  6
ByLayer
 62
  256
370
   -1
100
AcDbLine
 10
223
 20
158
 11
223
 21
159
  0
LINE
  5
259
100
AcDbEntity
  8
01_CUT_OUTLINE
  6
ByLayer
 62
  256
370
   -1
100
AcDbLine
 10
223
 20
159
 11
223
 21
160
  0
LINE
  5
25A
100
AcDbEntity
  8
01_CUT_OUTLINE
  6
ByLayer
 62
  256
370
   -1
100
AcDbLine
 10
223
 20
160
 11
223
 21
161
  0
LINE
  5
25B
100
AcDbEntity
  8
01_CUT_OUTLINE
  6
ByLayer
 62
  256
370
   -1
100
AcDbLine
 10
223
 20
161
 11
223
 21
162
  0
LINE
  5
25C
100
AcDbEntity
  8
01_CUT_OUTLINE
  6
ByLayer
 62
  256
370
   -1
100
AcDbLine
 10
223
 20
162
 11
223
 21
163
  0
LINE
  5
25D
100
AcDbEntity
  8
01_CUT_OUTLINE
  6
ByLayer
 62
  256
370
   -1
100
AcDbLine
 10
223
 20
163
 11
223
 21
164
  0
LINE
  5
25E
100
AcDbEntity
  8
01_CUT_OUTLINE
  6
ByLayer
 62
  256
370
   -1
100
AcDbLine
 10
223
 20
164
 11
223
 21
165
  0
LINE
  5
25F
100
AcDbEntity
  8
01_CUT_OUTLINE
  6
ByLayer
 62
  256
370
   -1
100
AcDbLine
 10
223
 20
165
 11
223
 21
166
  0
LINE
  5
260
100
AcDbEntity
  8
01_CUT_OUTLINE
  6
ByLayer
 62
  256
370
   -1
100
AcDbLine
 10
223
 20
166
 11
223
 21
167
  0
LINE
  5
261
100
AcDbEntity
  8
01_CUT_OUTLINE
  6
ByLayer
 62
  256
370
   -1
100
AcDbLine
 10
223
 20
167
 11
223
 21
168
  0
LINE
  5
262
100
AcDbEntity
  8
01_CUT_OUTLINE
  6
ByLayer
 62
  256
370
   -1
100
AcDbLine
 10
223
 20
168
 11
223
 21
169
  0
LINE
  5
263
100
AcDbEntity
  8
01_CUT_OUTLINE
  6
ByLayer
 62
  256
370
   -1
100
AcDbLine
 10
223
 20
169
 11
223
 21
170
  0
LINE
  5
264
100
AcDbEntity
  8
01_CUT_OUTLINE
  6
ByLayer
 62
  256
370
   -1
100
AcDbLine
 10
223
 20
170
 11
223
 21
171
  0
LINE
  5
265
100
AcDbEntity
  8
01_CUT_OUTLINE
  6
ByLayer
 62
  256
370
   -1
100
AcDbLine
 10
223
 20
171
 11
223
 21
172
  0
LINE
  5
266
100
AcDbEntity
  8
01_CUT_OUTLINE
  6
ByLayer
 62
  256
370
   -1
100
AcDbLine
 10
223
 20
172
 11
223
 21
173
  0
LINE
  5
267
100
AcDbEntity
  8
01_CUT_OUTLINE
  6
ByLayer
 62
  256
370
   -1
100
AcDbLine
 10
223
 20
173
 11
222
 21
173
  0
LINE
  5
268
100
AcDbEntity
  8
01_CUT_OUTLINE
  6
ByLayer
 62
  256
370
   -1
100
AcDbLine
 10
222
 20
173
 11
221
 21
173
  0
LINE
  5
269
100
AcDbEntity
  8
01_CUT_OUTLINE
  6
ByLayer
 62
  256
370
   -1
100
AcDbLine
 10
221
 20
173
 11
220
 21
173
  0
LINE
  5
26A
100
AcDbEntity
  8
01_CUT_OUTLINE
  6
ByLayer
 62
  256
370
   -1
100
AcDbLine
 10
220
 20
173
 11
219
 21
173
  0
LINE
  5
26B
100
AcDbEntity
  8
01_CUT_OUTLINE
  6
ByLayer
 62
  256
370
   -1
100
AcDbLine
 10
219
 20
173
 11
218
 21
174
  0
LINE
  5
26C
100
AcDbEntity
  8
01_CUT_OUTLINE
  6
ByLayer
 62
  256
370
   -1
100
AcDbLine
 10
218
 20
174
 11
218
 21
175
  0
LINE
  5
26D
100
AcDbEntity
  8
01_CUT_OUTLINE
  6
ByLayer
 62
  256
370
   -1
100
AcDbLine
 10
218
 20
175
 11
218
 21
176
  0
LINE
  5
26E
100
AcDbEntity
  8
01_CUT_OUTLINE
  6
ByLayer
 62
  256
370
   -1
100
AcDbLine
 10
218
 20
176
 11
218
 21
177
  0
LINE
  5
26F
100
AcDbEntity
  8
01_CUT_OUTLINE
  6
ByLayer
 62
  256
370
   -1
100
AcDbLine
 10
218
 20
177
 11
219
 21
178
  0
LINE
  5
270
100
AcDbEntity
  8
01_CUT_OUTLINE
  6
ByLayer
 62
  256
370
   -1
100
AcDbLine
 10
219
 20
178
 11
220
 21
179
  0
LINE
  5
271
100
AcDbEntity
  8
01_CUT_OUTLINE
  6
ByLayer
 62
  256
370
   -1
100
AcDbLine
 10
220
 20
179
 11
221
 21
179
  0
LINE
  5
272
100
AcDbEntity
  8
01_CUT_OUTLINE
  6
ByLayer
 62
  256
370
   -1
100
AcDbLine
 10
221
 20
179
 11
222
 21
179
  0
LINE
  5
273
100
AcDbEntity
  8
01_CUT_OUTLINE
  6
ByLayer
 62
  256
370
   -1
100
AcDbLine
 10
222
 20
179
 11
223
 21
179
  0
LINE
  5
274
100
AcDbEntity
  8
01_CUT_OUTLINE
  6
ByLayer
 62
  256
370
   -1
100
AcDbLine
 10
223
 20
179
 11
224
 21
178
  0
LINE
  5
275
100
AcDbEntity
  8
01_CUT_OUTLINE
  6
ByLayer
 62
  256
370
   -1
100
AcDbLine
 10
224
 20
178
 11
225
 21
178
  0
LINE
  5
276
100
AcDbEntity
  8
01_CUT_OUTLINE
  6
ByLayer
 62
  256
370
   -1
100
AcDbLine
 10
225
 20
178
 11
226
 21
178
  0
LINE
  5
277
100
AcDbEntity
  8
01_CUT_OUTLINE
  6
ByLayer
 62
  256
370
   -1
100
AcDbLine
 10
226
 20
178
 11
227
 21
178
  0
LINE
  5
278
100
AcDbEntity
  8
01_CUT_OUTLINE
  6
ByLayer
 62
  256
370
   -1
100
AcDbLine
 10
227
 20
178
 11
228
 21
178
  0
LINE
  5
279
100
AcDbEntity
  8
01_CUT_OUTLINE
  6
ByLayer
 62
  256
370
   -1
100
AcDbLine
 10
228
 20
178
 11
229
 21
178
  0
LINE
  5
27A
100
AcDbEntity
  8
01_CUT_OUTLINE
  6
ByLayer
 62
  256
370
   -1
100
AcDbLine
 10
229
 20
178
 11
230
 21
178
  0
LINE
  5
27B
100
AcDbEntity
  8
01_CUT_OUTLINE
  6
ByLayer
 62
  256
370
   -1
100
AcDbLine
 10
230
 20
178
 11
231
 21
178
  0
LINE
  5
27C
100
AcDbEntity
  8
01_CUT_OUTLINE
  6
ByLayer
 62
  256
370
   -1
100
AcDbLine
 10
231
 20
178
 11
232
 21
178
  0
LINE
  5
27D
100
AcDbEntity
  8
01_CUT_OUTLINE
  6
ByLayer
 62
  256
370
   -1
100
AcDbLine
 10
232
 20
178
 11
233
 21
178
  0
LINE
  5
27E
100
AcDbEntity
  8
01_CUT_OUTLINE
  6
ByLayer
 62
  256
370
   -1
100
AcDbLine
 10
233
 20
178
 11
234
 21
178
  0
LINE
  5
27F
100
AcDbEntity
  8
01_CUT_OUTLINE
  6
ByLayer
 62
  256
370
   -1
100
AcDbLine
 10
234
 20
178
 11
235
 21
178
  0
LINE
  5
280
100
AcDbEntity
  8
01_CUT_OUTLINE
  6
ByLayer
 62
  256
370
   -1
100
AcDbLine
 10
235
 20
178
 11
236
 21
178
  0
LINE
  5
281
100
AcDbEntity
  8
01_CUT_OUTLINE
  6
ByLayer
 62
  256
370
   -1
100
AcDbLine
 10
236
 20
178
 11
237
 21
178
  0
LINE
  5
282
100
AcDbEntity
  8
01_CUT_OUTLINE
  6
ByLayer
 62
  256
370
   -1
100
AcDbLine
 10
237
 20
178
 11
238
 21
178
  0
LINE
  5
283
100
AcDbEntity
  8
01_CUT_OUTLINE
  6
ByLayer
 62
  256
370
   -1
100
AcDbLine
 10
238
 20
178
 11
239
 21
178
  0
LINE
  5
284
100
AcDbEntity
  8
01_CUT_OUTLINE
  6
ByLayer
 62
  256
370
   -1
100
AcDbLine
 10
239
 20
178
 11
240
 21
178
  0
LINE
  5
285
100
AcDbEntity
  8
01_CUT_OUTLINE
  6
ByLayer
 62
  256
370
   -1
100
AcDbLine
 10
240
 20
178
 11
241
 21
178
  0
LINE
  5
286
100
AcDbEntity
  8
01_CUT_OUTLINE
  6
ByLayer
 62
  256
370
   -1
100
AcDbLine
 10
241
 20
178
 11
242
 21
178
  0
LINE
  5
287
100
AcDbEntity
  8
01_CUT_OUTLINE
  6
ByLayer
 62
  256
370
   -1
100
AcDbLine
 10
242
 20
178
 11
243
 21
178
  0
LINE
  5
288
100
AcDbEntity
  8
01_CUT_OUTLINE
  6
ByLayer
 62
  256
370
   -1
100
AcDbLine
 10
243
 20
178
 11
244
 21
178
  0
LINE
  5
289
100
AcDbEntity
  8
01_CUT_OUTLINE
  6
ByLayer
 62
  256
370
   -1
100
AcDbLine
 10
244
 20
178
 11
245
 21
178
  0
LINE
  5
28A
100
AcDbEntity
  8
01_CUT_OUTLINE
  6
ByLayer
 62
  256
370
   -1
100
AcDbLine
 10
245
 20
178
 11
246
 21
178
  0
LINE
  5
28B
100
AcDbEntity
  8
01_CUT_OUTLINE
  6
ByLayer
 62
  256
370
   -1
100
AcDbLine
 10
246
 20
178
 11
247
 21
178
  0
LINE
  5
28C
100
AcDbEntity
  8
01_CUT_OUTLINE
  6
ByLayer
 62
  256
370
   -1
100
AcDbLine
 10
247
 20
178
 11
248
 21
178
  0
LINE
  5
28D
100
AcDbEntity
  8
01_CUT_OUTLINE
  6
ByLayer
 62
  256
370
   -1
100
AcDbLine
 10
248
 20
178
 11
249
 21
178
  0
LINE
  5
28E
100
AcDbEntity
  8
01_CUT_OUTLINE
  6
ByLayer
 62
  256
370
   -1
100
AcDbLine
 10
249
 20
178
 11
250
 21
178
  0
LINE
  5
28F
100
AcDbEntity
  8
01_CUT_OUTLINE
  6
ByLayer
 62
  256
370
   -1
100
AcDbLine
 10
250
 20
178
 11
251
 21
178
  0
LINE
  5
290
100
AcDbEntity
  8
01_CUT_OUTLINE
  6
ByLayer
 62
  256
370
   -1
100
AcDbLine
 10
251
 20
178
 11
252
 21
178
  0
LINE
  5
291
100
AcDbEntity
  8
01_CUT_OUTLINE
  6
ByLayer
 62
  256
370
   -1
100
AcDbLine
 10
252
 20
178
 11
253
 21
178
  0
LINE
  5
292
100
AcDbEntity
  8
01_CUT_OUTLINE
  6
ByLayer
 62
  256
370
   -1
100
AcDbLine
 10
253
 20
178
 11
254
 21
178
  0
ARC
  5
293
100
AcDbEntity
  8
01_CUT_OUTLINE
  6
ByLayer
 62
  256
370
   -1
100
AcDbCircle
 10
246.5551
 20
187.1569
 40
10.28490660477352
100
AcDbArc
 50
32.16052709692406
 51
22.29551514830541
  0
ARC
  5
294
100
AcDbEntity
  8
01_CUT_OUTLINE
  6
ByLayer
 62
  256
370
   -1
100
AcDbCircle
 10
247.5815
 20
201.6009
 40
9.805251233961934
100
AcDbArc
 50
27.68270871520183
 51
23.53201294880819
  0
LINE
  5
295
100
AcDbEntity
  8
01_CUT_OUTLINE
  6
ByLayer
 62
  256
370
   -1
100
AcDbLine
 10
226
 20
210
 11
225
 21
211
  0
LINE
  5
296
100
AcDbEntity
  8
01_CUT_OUTLINE
  6
ByLayer
 62
  256
370
   -1
100
AcDbLine
 10
225
 20
211
 11
224
 21
210
  0
LINE
  5
297
100
AcDbEntity
  8
01_CUT_OUTLINE
  6
ByLayer
 62
  256
370
   -1
100
AcDbLine
 10
224
 20
210
 11
223
 21
210
  0
LINE
  5
298
100
AcDbEntity
  8
01_CUT_OUTLINE
  6
ByLayer
 62
  256
370
   -1
100
AcDbLine
 10
223
 20
210
 11
222
 21
210
  0
LINE
  5
299
100
AcDbEntity
  8
01_CUT_OUTLINE
  6
ByLayer
 62
  256
370
   -1
100
AcDbLine
 10
222
 20
210
 11
221
 21
210
  0
LINE
  5
29A
100
AcDbEntity
  8
01_CUT_OUTLINE
  6
ByLayer
 62
  256
370
   -1
100
AcDbLine
 10
221
 20
210
 11
220
 21
210
  0
LINE
  5
29B
100
AcDbEntity
  8
01_CUT_OUTLINE
  6
ByLayer
 62
  256
370
   -1
100
AcDbLine
 10
220
 20
210
 11
219
 21
211
  0
LINE
  5
29C
100
AcDbEntity
  8
01_CUT_OUTLINE
  6
ByLayer
 62
  256
370
   -1
100
AcDbLine
 10
219
 20
211
 11
218
 21
212
  0
LINE
  5
29D
100
AcDbEntity
  8
01_CUT_OUTLINE
  6
ByLayer
 62
  256
370
   -1
100
AcDbLine
 10
218
 20
212
 11
218
 21
213
  0
LINE
  5
29E
100
AcDbEntity
  8
01_CUT_OUTLINE
  6
ByLayer
 62
  256
370
   -1
100
AcDbLine
 10
218
 20
213
 11
218
 21
214
  0
LINE
  5
29F
100
AcDbEntity
  8
01_CUT_OUTLINE
  6
ByLayer
 62
  256
370
   -1
100
AcDbLine
 10
218
 20
214
 11
219
 21
215
  0
LINE
  5
2A0
100
AcDbEntity
  8
01_CUT_OUTLINE
  6
ByLayer
 62
  256
370
   -1
100
AcDbLine
 10
219
 20
215
 11
220
 21
215
  0
LINE
  5
2A1
100
AcDbEntity
  8
01_CUT_OUTLINE
  6
ByLayer
 62
  256
370
   -1
100
AcDbLine
 10
220
 20
215
 11
221
 21
215
  0
LINE
  5
2A2
100
AcDbEntity
  8
01_CUT_OUTLINE
  6
ByLayer
 62
  256
370
   -1
100
AcDbLine
 10
221
 20
215
 11
222
 21
215
  0
LINE
  5
2A3
100
AcDbEntity
  8
01_CUT_OUTLINE
  6
ByLayer
 62
  256
370
   -1
100
AcDbLine
 10
222
 20
215
 11
223
 21
216
  0
LINE
  5
2A4
100
AcDbEntity
  8
01_CUT_OUTLINE
  6
ByLayer
 62
  256
370
   -1
100
AcDbLine
 10
223
 20
216
 11
223
 21
217
  0
LINE
  5
2A5
100
AcDbEntity
  8
01_CUT_OUTLINE
  6
ByLayer
 62
  256
370
   -1
100
AcDbLine
 10
223
 20
217
 11
223
 21
218
  0
LINE
  5
2A6
100
AcDbEntity
  8
01_CUT_OUTLINE
  6
ByLayer
 62
  256
370
   -1
100
AcDbLine
 10
223
 20
218
 11
223
 21
219
  0
LINE
  5
2A7
100
AcDbEntity
  8
01_CUT_OUTLINE
  6
ByLayer
 62
  256
370
   -1
100
AcDbLine
 10
223
 20
219
 11
223
 21
220
  0
LINE
  5
2A8
100
AcDbEntity
  8
01_CUT_OUTLINE
  6
ByLayer
 62
  256
370
   -1
100
AcDbLine
 10
223
 20
220
 11
223
 21
221
  0
LINE
  5
2A9
100
AcDbEntity
  8
01_CUT_OUTLINE
  6
ByLayer
 62
  256
370
   -1
100
AcDbLine
 10
223
 20
221
 11
223
 21
222
  0
LINE
  5
2AA
100
AcDbEntity
  8
01_CUT_OUTLINE
  6
ByLayer
 62
  256
370
   -1
100
AcDbLine
 10
223
 20
222
 11
223
 21
223
  0
LINE
  5
2AB
100
AcDbEntity
  8
01_CUT_OUTLINE
  6
ByLayer
 62
  256
370
   -1
100
AcDbLine
 10
223
 20
223
 11
223
 21
224
  0
LINE
  5
2AC
100
AcDbEntity
  8
01_CUT_OUTLINE
  6
ByLayer
 62
  256
370
   -1
100
AcDbLine
 10
223
 20
224
 11
223
 21
225
  0
LINE
  5
2AD
100
AcDbEntity
  8
01_CUT_OUTLINE
  6
ByLayer
 62
  256
370
   -1
100
AcDbLine
 10
223
 20
225
 11
223
 21
226
  0
LINE
  5
2AE
100
AcDbEntity
  8
01_CUT_OUTLINE
  6
ByLayer
 62
  256
370
   -1
100
AcDbLine
 10
223
 20
226
 11
223
 21
227
  0
LINE
  5
2AF
100
AcDbEntity
  8
01_CUT_OUTLINE
  6
ByLayer
 62
  256
370
   -1
100
AcDbLine
 10
223
 20
227
 11
223
 21
228
  0
LINE
  5
2B0
100
AcDbEntity
  8
01_CUT_OUTLINE
  6
ByLayer
 62
  256
370
   -1
100
AcDbLine
 10
223
 20
228
 11
223
 21
229
  0
LINE
  5
2B1
100
AcDbEntity
  8
01_CUT_OUTLINE
  6
ByLayer
 62
  256
370
   -1
100
AcDbLine
 10
223
 20
229
 11
223
 21
230
  0
LINE
  5
2B2
100
AcDbEntity
  8
01_CUT_OUTLINE
  6
ByLayer
 62
  256
370
   -1
100
AcDbLine
 10
223
 20
230
 11
223
 21
231
  0
LINE
  5
2B3
100
AcDbEntity
  8
01_CUT_OUTLINE
  6
ByLayer
 62
  256
370
   -1
100
AcDbLine
 10
223
 20
231
 11
223
 21
232
  0
LINE
  5
2B4
100
AcDbEntity
  8
01_CUT_OUTLINE
  6
ByLayer
 62
  256
370
   -1
100
AcDbLine
 10
223
 20
232
 11
223
 21
233
  0
LINE
  5
2B5
100
AcDbEntity
  8
01_CUT_OUTLINE
  6
ByLayer
 62
  256
370
   -1
100
AcDbLine
 10
223
 20
233
 11
223
 21
234
  0
LINE
  5
2B6
100
AcDbEntity
  8
01_CUT_OUTLINE
  6
ByLayer
 62
  256
370
   -1
100
AcDbLine
 10
223
 20
234
 11
223
 21
235
  0
LINE
  5
2B7
100
AcDbEntity
  8
01_CUT_OUTLINE
  6
ByLayer
 62
  256
370
   -1
100
AcDbLine
 10
223
 20
235
 11
223
 21
236
  0
LINE
  5
2B8
100
AcDbEntity
  8
01_CUT_OUTLINE
  6
ByLayer
 62
  256
370
   -1
100
AcDbLine
 10
223
 20
236
 11
222
 21
237
  0
LINE
  5
2B9
100
AcDbEntity
  8
01_CUT_OUTLINE
  6
ByLayer
 62
  256
370
   -1
100
AcDbLine
 10
222
 20
237
 11
221
 21
237
  0
LINE
  5
2BA
100
AcDbEntity
  8
01_CUT_OUTLINE
  6
ByLayer
 62
  256
370
   -1
100
AcDbLine
 10
221
 20
237
 11
220
 21
237
  0
LINE
  5
2BB
100
AcDbEntity
  8
01_CUT_OUTLINE
  6
ByLayer
 62
  256
370
   -1
100
AcDbLine
 10
220
 20
237
 11
219
 21
237
  0
LINE
  5
2BC
100
AcDbEntity
  8
01_CUT_OUTLINE
  6
ByLayer
 62
  256
370
   -1
100
AcDbLine
 10
219
 20
237
 11
218
 21
236
  0
LINE
  5
2BD
100
AcDbEntity
  8
01_CUT_OUTLINE
  6
ByLayer
 62
  256
370
   -1
100
AcDbLine
 10
218
 20
236
 11
217
 21
236
  0
LINE
  5
2BE
100
AcDbEntity
  8
01_CUT_OUTLINE
  6
ByLayer
 62
  256
370
   -1
100
AcDbLine
 10
217
 20
236
 11
216
 21
237
  0
LINE
  5
2BF
100
AcDbEntity
  8
01_CUT_OUTLINE
  6
ByLayer
 62
  256
370
   -1
100
AcDbLine
 10
216
 20
237
 11
216
 21
238
  0
LINE
  5
2C0
100
AcDbEntity
  8
01_CUT_OUTLINE
  6
ByLayer
 62
  256
370
   -1
100
AcDbLine
 10
216
 20
238
 11
216
 21
239
  0
LINE
  5
2C1
100
AcDbEntity
  8
01_CUT_OUTLINE
  6
ByLayer
 62
  256
370
   -1
100
AcDbLine
 10
216
 20
239
 11
216
 21
240
  0
LINE
  5
2C2
100
AcDbEntity
  8
01_CUT_OUTLINE
  6
ByLayer
 62
  256
370
   -1
100
AcDbLine
 10
216
 20
240
 11
216
 21
241
  0
LINE
  5
2C3
100
AcDbEntity
  8
01_CUT_OUTLINE
  6
ByLayer
 62
  256
370
   -1
100
AcDbLine
 10
216
 20
241
 11
216
 21
242
  0
LINE
  5
2C4
100
AcDbEntity
  8
01_CUT_OUTLINE
  6
ByLayer
 62
  256
370
   -1
100
AcDbLine
 10
216
 20
242
 11
216
 21
243
  0
LINE
  5
2C5
100
AcDbEntity
  8
01_CUT_OUTLINE
  6
ByLayer
 62
  256
370
   -1
100
AcDbLine
 10
216
 20
243
 11
216
 21
244
  0
LINE
  5
2C6
100
AcDbEntity
  8
01_CUT_OUTLINE
  6
ByLayer
 62
  256
370
   -1
100
AcDbLine
 10
185
 20
249
 11
184
 21
249
  0
LINE
  5
2C7
100
AcDbEntity
  8
01_CUT_OUTLINE
  6
ByLayer
 62
  256
370
   -1
100
AcDbLine
 10
186
 20
223
 11
187
 21
223
  0
LINE
  5
2C8
100
AcDbEntity
  8
01_CUT_OUTLINE
  6
ByLayer
 62
  256
370
   -1
100
AcDbLine
 10
187
 20
223
 11
188
 21
223
  0
LINE
  5
2C9
100
AcDbEntity
  8
01_CUT_OUTLINE
  6
ByLayer
 62
  256
370
   -1
100
AcDbLine
 10
188
 20
223
 11
189
 21
223
  0
LINE
  5
2CA
100
AcDbEntity
  8
01_CUT_OUTLINE
  6
ByLayer
 62
  256
370
   -1
100
AcDbLine
 10
189
 20
223
 11
190
 21
223
  0
LINE
  5
2CB
100
AcDbEntity
  8
01_CUT_OUTLINE
  6
ByLayer
 62
  256
370
   -1
100
AcDbLine
 10
190
 20
223
 11
191
 21
223
  0
LINE
  5
2CC
100
AcDbEntity
  8
01_CUT_OUTLINE
  6
ByLayer
 62
  256
370
   -1
100
AcDbLine
 10
191
 20
223
 11
192
 21
223
  0
LINE
  5
2CD
100
AcDbEntity
  8
01_CUT_OUTLINE
  6
ByLayer
 62
  256
370
   -1
100
AcDbLine
 10
192
 20
223
 11
193
 21
223
  0
LINE
  5
2CE
100
AcDbEntity
  8
01_CUT_OUTLINE
  6
ByLayer
 62
  256
370
   -1
100
AcDbLine
 10
193
 20
223
 11
194
 21
223
  0
LINE
  5
2CF
100
AcDbEntity
  8
01_CUT_OUTLINE
  6
ByLayer
 62
  256
370
   -1
100
AcDbLine
 10
194
 20
223
 11
195
 21
223
  0
LINE
  5
2D0
100
AcDbEntity
  8
01_CUT_OUTLINE
  6
ByLayer
 62
  256
370
   -1
100
AcDbLine
 10
195
 20
223
 11
196
 21
223
  0
LINE
  5
2D1
100
AcDbEntity
  8
01_CUT_OUTLINE
  6
ByLayer
 62
  256
370
   -1
100
AcDbLine
 10
196
 20
223
 11
197
 21
223
  0
LINE
  5
2D2
100
AcDbEntity
  8
01_CUT_OUTLINE
  6
ByLayer
 62
  256
370
   -1
100
AcDbLine
 10
197
 20
223
 11
198
 21
223
  0
LINE
  5
2D3
100
AcDbEntity
  8
01_CUT_OUTLINE
  6
ByLayer
 62
  256
370
   -1
100
AcDbLine
 10
198
 20
223
 11
199
 21
223
  0
LINE
  5
2D4
100
AcDbEntity
  8
01_CUT_OUTLINE
  6
ByLayer
 62
  256
370
   -1
100
AcDbLine
 10
199
 20
223
 11
200
 21
223
  0
LINE
  5
2D5
100
AcDbEntity
  8
01_CUT_OUTLINE
  6
ByLayer
 62
  256
370
   -1
100
AcDbLine
 10
200
 20
223
 11
201
 21
223
  0
LINE
  5
2D6
100
AcDbEntity
  8
01_CUT_OUTLINE
  6
ByLayer
 62
  256
370
   -1
100
AcDbLine
 10
201
 20
223
 11
202
 21
223
  0
LINE
  5
2D7
100
AcDbEntity
  8
01_CUT_OUTLINE
  6
ByLayer
 62
  256
370
   -1
100
AcDbLine
 10
202
 20
223
 11
203
 21
223
  0
LINE
  5
2D8
100
AcDbEntity
  8
01_CUT_OUTLINE
  6
ByLayer
 62
  256
370
   -1
100
AcDbLine
 10
203
 20
223
 11
204
 21
223
  0
LINE
  5
2D9
100
AcDbEntity
  8
01_CUT_OUTLINE
  6
ByLayer
 62
  256
370
   -1
100
AcDbLine
 10
204
 20
223
 11
205
 21
223
  0
LINE
  5
2DA
100
AcDbEntity
  8
01_CUT_OUTLINE
  6
ByLayer
 62
  256
370
   -1
100
AcDbLine
 10
205
 20
223
 11
206
 21
223
  0
LINE
  5
2DB
100
AcDbEntity
  8
01_CUT_OUTLINE
  6
ByLayer
 62
  256
370
   -1
100
AcDbLine
 10
206
 20
223
 11
207
 21
223
  0
LINE
  5
2DC
100
AcDbEntity
  8
01_CUT_OUTLINE
  6
ByLayer
 62
  256
370
   -1
100
AcDbLine
 10
207
 20
223
 11
208
 21
223
  0
LINE
  5
2DD
100
AcDbEntity
  8
01_CUT_OUTLINE
  6
ByLayer
 62
  256
370
   -1
100
AcDbLine
 10
208
 20
223
 11
209
 21
223
  0
LINE
  5
2DE
100
AcDbEntity
  8
01_CUT_OUTLINE
  6
ByLayer
 62
  256
370
   -1
100
AcDbLine
 10
209
 20
223
 11
210
 21
223
  0
LINE
  5
2DF
100
AcDbEntity
  8
01_CUT_OUTLINE
  6
ByLayer
 62
  256
370
   -1
100
AcDbLine
 10
210
 20
223
 11
211
 21
223
  0
LINE
  5
2E0
100
AcDbEntity
  8
01_CUT_OUTLINE
  6
ByLayer
 62
  256
370
   -1
100
AcDbLine
 10
211
 20
223
 11
212
 21
223
  0
LINE
  5
2E1
100
AcDbEntity
  8
01_CUT_OUTLINE
  6
ByLayer
 62
  256
370
   -1
100
AcDbLine
 10
212
 20
223
 11
213
 21
223
  0
LINE
  5
2E2
100
AcDbEntity
  8
01_CUT_OUTLINE
  6
ByLayer
 62
  256
370
   -1
100
AcDbLine
 10
213
 20
223
 11
214
 21
223
  0
LINE
  5
2E3
100
AcDbEntity
  8
01_CUT_OUTLINE
  6
ByLayer
 62
  256
370
   -1
100
AcDbLine
 10
214
 20
223
 11
215
 21
223
  0
LINE
  5
2E4
100
AcDbEntity
  8
01_CUT_OUTLINE
  6
ByLayer
 62
  256
370
   -1
100
AcDbLine
 10
215
 20
223
 11
216
 21
222
  0
LINE
  5
2E5
100
AcDbEntity
  8
01_CUT_OUTLINE
  6
ByLayer
 62
  256
370
   -1
100
AcDbLine
 10
216
 20
222
 11
216
 21
221
  0
ARC
  5
2E6
100
AcDbEntity
  8
01_CUT_OUTLINE
  6
ByLayer
 62
  256
370
   -1
100
AcDbCircle
 10
210.1872
 20
219.5448
 40
5.347155068316298
100
AcDbArc
 50
26.857475067441
 51
29.00018368752498
  0
LINE
  5
2E7
100
AcDbEntity
  8
01_CUT_OUTLINE
  6
ByLayer
 62
  256
370
   -1
100
AcDbLine
 10
190
 20
216
 11
189
 21
216
  0
LINE
  5
2E8
100
AcDbEntity
  8
01_CUT_OUTLINE
  6
ByLayer
 62
  256
370
   -1
100
AcDbLine
 10
189
 20
216
 11
188
 21
216
  0
LINE
  5
2E9
100
AcDbEntity
  8
01_CUT_OUTLINE
  6
ByLayer
 62
  256
370
   -1
100
AcDbLine
 10
188
 20
216
 11
187
 21
216
  0
LINE
  5
2EA
100
AcDbEntity
  8
01_CUT_OUTLINE
  6
ByLayer
 62
  256
370
   -1
100
AcDbLine
 10
187
 20
216
 11
186
 21
216
  0
LINE
  5
2EB
100
AcDbEntity
  8
01_CUT_OUTLINE
  6
ByLayer
 62
  256
370
   -1
100
AcDbLine
 10
186
 20
216
 11
185
 21
216
  0
LINE
  5
2EC
100
AcDbEntity
  8
01_CUT_OUTLINE
  6
ByLayer
 62
  256
370
   -1
100
AcDbLine
 10
185
 20
216
 11
184
 21
216
  0
LINE
  5
2ED
100
AcDbEntity
  8
01_CUT_OUTLINE
  6
ByLayer
 62
  256
370
   -1
100
AcDbLine
 10
184
 20
216
 11
183
 21
216
  0
LINE
  5
2EE
100
AcDbEntity
  8
01_CUT_OUTLINE
  6
ByLayer
 62
  256
370
   -1
100
AcDbLine
 10
183
 20
216
 11
182
 21
216
  0
LINE
  5
2EF
100
AcDbEntity
  8
01_CUT_OUTLINE
  6
ByLayer
 62
  256
370
   -1
100
AcDbLine
 10
182
 20
216
 11
181
 21
216
  0
LINE
  5
2F0
100
AcDbEntity
  8
01_CUT_OUTLINE
  6
ByLayer
 62
  256
370
   -1
100
AcDbLine
 10
181
 20
216
 11
180
 21
215
  0
LINE
  5
2F1
100
AcDbEntity
  8
01_CUT_OUTLINE
  6
ByLayer
 62
  256
370
   -1
100
AcDbLine
 10
180
 20
215
 11
179
 21
215
  0
ARC
  5
2F2
100
AcDbEntity
  8
01_CUT_OUTLINE
  6
ByLayer
 62
  256
370
   -1
100
AcDbCircle
 10
185.2686
 20
224.5273
 40
10.06302948350469
100
AcDbArc
 50
26.64001811402835
 51
28.17576920894487
  0
LINE
  5
2F3
100
AcDbEntity
  8
01_CUT_OUTLINE
  6
ByLayer
 62
  256
370
   -1
100
AcDbLine
 10
176
 20
245
 11
176
 21
246
  0
LINE
  5
2F4
100
AcDbEntity
  8
01_CUT_OUTLINE
  6
ByLayer
 62
  256
370
   -1
100
AcDbLine
 10
176
 20
246
 11
176
 21
247
  0
LINE
  5
2F5
100
AcDbEntity
  8
01_CUT_OUTLINE
  6
ByLayer
 62
  256
370
   -1
100
AcDbLine
 10
176
 20
247
 11
176
 21
248
  0
LINE
  5
2F6
100
AcDbEntity
  8
01_CUT_OUTLINE
  6
ByLayer
 62
  256
370
   -1
100
AcDbLine
 10
176
 20
248
 11
176
 21
249
  0
LINE
  5
2F7
100
AcDbEntity
  8
01_CUT_OUTLINE
  6
ByLayer
 62
  256
370
   -1
100
AcDbLine
 10
176
 20
249
 11
176
 21
250
  0
LINE
  5
2F8
100
AcDbEntity
  8
01_CUT_OUTLINE
  6
ByLayer
 62
  256
370
   -1
100
AcDbLine
 10
176
 20
250
 11
176
 21
251
  0
LINE
  5
2F9
100
AcDbEntity
  8
01_CUT_OUTLINE
  6
ByLayer
 62
  256
370
   -1
100
AcDbLine
 10
176
 20
251
 11
176
 21
252
  0
LINE
  5
2FA
100
AcDbEntity
  8
01_CUT_OUTLINE
  6
ByLayer
 62
  256
370
   -1
100
AcDbLine
 10
176
 20
252
 11
176
 21
253
  0
LINE
  5
2FB
100
AcDbEntity
  8
01_CUT_OUTLINE
  6
ByLayer
 62
  256
370
   -1
100
AcDbLine
 10
176
 20
253
 11
176
 21
254
  0
LINE
  5
2FC
100
AcDbEntity
  8
01_CUT_OUTLINE
  6
ByLayer
 62
  256
370
   -1
100
AcDbLine
 10
176
 20
254
 11
176
 21
255
  0
LINE
  5
2FD
100
AcDbEntity
  8
01_CUT_OUTLINE
  6
ByLayer
 62
  256
370
   -1
100
AcDbLine
 10
176
 20
255
 11
176
 21
256
  0
LINE
  5
2FE
100
AcDbEntity
  8
01_CUT_OUTLINE
  6
ByLayer
 62
  256
370
   -1
100
AcDbLine
 10
176
 20
256
 11
176
 21
257
  0
LINE
  5
2FF
100
AcDbEntity
  8
01_CUT_OUTLINE
  6
ByLayer
 62
  256
370
   -1
100
AcDbLine
 10
176
 20
257
 11
176
 21
258
  0
LINE
  5
300
100
AcDbEntity
  8
01_CUT_OUTLINE
  6
ByLayer
 62
  256
370
   -1
100
AcDbLine
 10
176
 20
258
 11
176
 21
259
  0
LINE
  5
301
100
AcDbEntity
  8
01_CUT_OUTLINE
  6
ByLayer
 62
  256
370
   -1
100
AcDbLine
 10
176
 20
259
 11
176
 21
260
  0
LINE
  5
302
100
AcDbEntity
  8
01_CUT_OUTLINE
  6
ByLayer
 62
  256
370
   -1
100
AcDbLine
 10
176
 20
260
 11
176
 21
261
  0
LINE
  5
303
100
AcDbEntity
  8
01_CUT_OUTLINE
  6
ByLayer
 62
  256
370
   -1
100
AcDbLine
 10
176
 20
261
 11
176
 21
262
  0
LINE
  5
304
100
AcDbEntity
  8
01_CUT_OUTLINE
  6
ByLayer
 62
  256
370
   -1
100
AcDbLine
 10
176
 20
262
 11
176
 21
263
  0
LINE
  5
305
100
AcDbEntity
  8
01_CUT_OUTLINE
  6
ByLayer
 62
  256
370
   -1
100
AcDbLine
 10
176
 20
263
 11
176
 21
264
  0
LINE
  5
306
100
AcDbEntity
  8
01_CUT_OUTLINE
  6
ByLayer
 62
  256
370
   -1
100
AcDbLine
 10
176
 20
264
 11
176
 21
265
  0
LINE
  5
307
100
AcDbEntity
  8
01_CUT_OUTLINE
  6
ByLayer
 62
  256
370
   -1
100
AcDbLine
 10
176
 20
265
 11
176
 21
266
  0
LINE
  5
308
100
AcDbEntity
  8
01_CUT_OUTLINE
  6
ByLayer
 62
  256
370
   -1
100
AcDbLine
 10
176
 20
266
 11
176
 21
267
  0
LINE
  5
309
100
AcDbEntity
  8
01_CUT_OUTLINE
  6
ByLayer
 62
  256
370
   -1
100
AcDbLine
 10
176
 20
267
 11
176
 21
268
  0
LINE
  5
30A
100
AcDbEntity
  8
01_CUT_OUTLINE
  6
ByLayer
 62
  256
370
   -1
100
AcDbLine
 10
176
 20
268
 11
176
 21
269
  0
LINE
  5
30B
100
AcDbEntity
  8
01_CUT_OUTLINE
  6
ByLayer
 62
  256
370
   -1
100
AcDbLine
 10
176
 20
269
 11
176
 21
270
  0
LINE
  5
30C
100
AcDbEntity
  8
01_CUT_OUTLINE
  6
ByLayer
 62
  256
370
   -1
100
AcDbLine
 10
176
 20
270
 11
176
 21
271
  0
LINE
  5
30D
100
AcDbEntity
  8
01_CUT_OUTLINE
  6
ByLayer
 62
  256
370
   -1
100
AcDbLine
 10
176
 20
271
 11
176
 21
272
  0
LINE
  5
30E
100
AcDbEntity
  8
01_CUT_OUTLINE
  6
ByLayer
 62
  256
370
   -1
100
AcDbLine
 10
176
 20
272
 11
176
 21
273
  0
LINE
  5
30F
100
AcDbEntity
  8
01_CUT_OUTLINE
  6
ByLayer
 62
  256
370
   -1
100
AcDbLine
 10
176
 20
273
 11
176
 21
274
  0
LINE
  5
310
100
AcDbEntity
  8
01_CUT_OUTLINE
  6
ByLayer
 62
  256
370
   -1
100
AcDbLine
 10
176
 20
274
 11
177
 21
275
  0
LINE
  5
311
100
AcDbEntity
  8
01_CUT_OUTLINE
  6
ByLayer
 62
  256
370
   -1
100
AcDbLine
 10
177
 20
275
 11
177
 21
276
  0
LINE
  5
312
100
AcDbEntity
  8
01_CUT_OUTLINE
  6
ByLayer
 62
  256
370
   -1
100
AcDbLine
 10
177
 20
276
 11
177
 21
277
  0
LINE
  5
313
100
AcDbEntity
  8
01_CUT_OUTLINE
  6
ByLayer
 62
  256
370
   -1
100
AcDbLine
 10
177
 20
277
 11
177
 21
278
  0
LINE
  5
314
100
AcDbEntity
  8
01_CUT_OUTLINE
  6
ByLayer
 62
  256
370
   -1
100
AcDbLine
 10
177
 20
278
 11
177
 21
279
  0
LINE
  5
315
100
AcDbEntity
  8
01_CUT_OUTLINE
  6
ByLayer
 62
  256
370
   -1
100
AcDbLine
 10
177
 20
279
 11
178
 21
280
  0
LINE
  5
316
100
AcDbEntity
  8
01_CUT_OUTLINE
  6
ByLayer
 62
  256
370
   -1
100
AcDbLine
 10
178
 20
280
 11
178
 21
281
  0
LINE
  5
317
100
AcDbEntity
  8
01_CUT_OUTLINE
  6
ByLayer
 62
  256
370
   -1
100
AcDbLine
 10
178
 20
281
 11
178
 21
282
  0
LINE
  5
318
100
AcDbEntity
  8
01_CUT_OUTLINE
  6
ByLayer
 62
  256
370
   -1
100
AcDbLine
 10
178
 20
282
 11
179
 21
283
  0
LINE
  5
319
100
AcDbEntity
  8
01_CUT_OUTLINE
  6
ByLayer
 62
  256
370
   -1
100
AcDbLine
 10
179
 20
283
 11
179
 21
284
  0
LINE
  5
31A
100
AcDbEntity
  8
01_CUT_OUTLINE
  6
ByLayer
 62
  256
370
   -1
100
AcDbLine
 10
179
 20
284
 11
180
 21
285
  0
LINE
  5
31B
100
AcDbEntity
  8
01_CUT_OUTLINE
  6
ByLayer
 62
  256
370
   -1
100
AcDbLine
 10
180
 20
285
 11
180
 21
286
  0
LINE
  5
31C
100
AcDbEntity
  8
01_CUT_OUTLINE
  6
ByLayer
 62
  256
370
   -1
100
AcDbLine
 10
180
 20
286
 11
181
 21
287
  0
LINE
  5
31D
100
AcDbEntity
  8
01_CUT_OUTLINE
  6
ByLayer
 62
  256
370
   -1
100
AcDbLine
 10
181
 20
287
 11
182
 21
288
  0
LINE
  5
31E
100
AcDbEntity
  8
01_CUT_OUTLINE
  6
ByLayer
 62
  256
370
   -1
100
AcDbLine
 10
182
 20
288
 11
182
 21
289
  0
LINE
  5
31F
100
AcDbEntity
  8
01_CUT_OUTLINE
  6
ByLayer
 62
  256
370
   -1
100
AcDbLine
 10
182
 20
289
 11
183
 21
290
  0
LINE
  5
320
100
AcDbEntity
  8
01_CUT_OUTLINE
  6
ByLayer
 62
  256
370
   -1
100
AcDbLine
 10
183
 20
290
 11
184
 21
291
  0
ARC
  5
321
100
AcDbEntity
  8
01_CUT_OUTLINE
  6
ByLayer
 62
  256
370
   -1
100
AcDbCircle
 10
215.8539
 20
264.6502
 40
41.17124261921332
100
AcDbArc
 50
10.06788920068703
 51
31.66684517112658
  0
LINE
  5
322
100
AcDbEntity
  8
01_CUT_OUTLINE
  6
ByLayer
 62
  256
370
   -1
100
AcDbLine
 10
196
 20
319
 11
196
 21
320
  0
LINE
  5
323
100
AcDbEntity
  8
01_CUT_OUTLINE
  6
ByLayer
 62
  256
370
   -1
100
AcDbLine
 10
196
 20
320
 11
196
 21
321
  0
LINE
  5
324
100
AcDbEntity
  8
01_CUT_OUTLINE
  6
ByLayer
 62
  256
370
   -1
100
AcDbLine
 10
196
 20
321
 11
196
 21
322
  0
LINE
  5
325
100
AcDbEntity
  8
01_CUT_OUTLINE
  6
ByLayer
 62
  256
370
   -1
100
AcDbLine
 10
196
 20
322
 11
196
 21
323
  0
LINE
  5
326
100
AcDbEntity
  8
01_CUT_OUTLINE
  6
ByLayer
 62
  256
370
   -1
100
AcDbLine
 10
196
 20
323
 11
196
 21
324
  0
LINE
  5
327
100
AcDbEntity
  8
01_CUT_OUTLINE
  6
ByLayer
 62
  256
370
   -1
100
AcDbLine
 10
196
 20
324
 11
196
 21
325
  0
LINE
  5
328
100
AcDbEntity
  8
01_CUT_OUTLINE
  6
ByLayer
 62
  256
370
   -1
100
AcDbLine
 10
196
 20
325
 11
196
 21
326
  0
LINE
  5
329
100
AcDbEntity
  8
01_CUT_OUTLINE
  6
ByLayer
 62
  256
370
   -1
100
AcDbLine
 10
196
 20
326
 11
196
 21
327
  0
LINE
  5
32A
100
AcDbEntity
  8
01_CUT_OUTLINE
  6
ByLayer
 62
  256
370
   -1
100
AcDbLine
 10
196
 20
327
 11
196
 21
328
  0
LINE
  5
32B
100
AcDbEntity
  8
01_CUT_OUTLINE
  6
ByLayer
 62
  256
370
   -1
100
AcDbLine
 10
196
 20
328
 11
196
 21
329
  0
LINE
  5
32C
100
AcDbEntity
  8
01_CUT_OUTLINE
  6
ByLayer
 62
  256
370
   -1
100
AcDbLine
 10
196
 20
329
 11
196
 21
330
  0
LINE
  5
32D
100
AcDbEntity
  8
01_CUT_OUTLINE
  6
ByLayer
 62
  256
370
   -1
100
AcDbLine
 10
196
 20
330
 11
196
 21
331
  0
LINE
  5
32E
100
AcDbEntity
  8
01_CUT_OUTLINE
  6
ByLayer
 62
  256
370
   -1
100
AcDbLine
 10
196
 20
331
 11
196
 21
332
  0
LINE
  5
32F
100
AcDbEntity
  8
01_CUT_OUTLINE
  6
ByLayer
 62
  256
370
   -1
100
AcDbLine
 10
196
 20
332
 11
196
 21
333
  0
LINE
  5
330
100
AcDbEntity
  8
01_CUT_OUTLINE
  6
ByLayer
 62
  256
370
   -1
100
AcDbLine
 10
196
 20
333
 11
196
 21
334
  0
LINE
  5
331
100
AcDbEntity
  8
01_CUT_OUTLINE
  6
ByLayer
 62
  256
370
   -1
100
AcDbLine
 10
196
 20
334
 11
196
 21
335
  0
LINE
  5
332
100
AcDbEntity
  8
01_CUT_OUTLINE
  6
ByLayer
 62
  256
370
   -1
100
AcDbLine
 10
196
 20
335
 11
196
 21
336
  0
LINE
  5
333
100
AcDbEntity
  8
01_CUT_OUTLINE
  6
ByLayer
 62
  256
370
   -1
100
AcDbLine
 10
196
 20
336
 11
196
 21
337
  0
LINE
  5
334
100
AcDbEntity
  8
01_CUT_OUTLINE
  6
ByLayer
 62
  256
370
   -1
100
AcDbLine
 10
196
 20
337
 11
196
 21
338
  0
LINE
  5
335
100
AcDbEntity
  8
01_CUT_OUTLINE
  6
ByLayer
 62
  256
370
   -1
100
AcDbLine
 10
196
 20
338
 11
196
 21
339
  0
LINE
  5
336
100
AcDbEntity
  8
01_CUT_OUTLINE
  6
ByLayer
 62
  256
370
   -1
100
AcDbLine
 10
196
 20
339
 11
196
 21
340
  0
LINE
  5
337
100
AcDbEntity
  8
01_CUT_OUTLINE
  6
ByLayer
 62
  256
370
   -1
100
AcDbLine
 10
196
 20
340
 11
196
 21
341
  0
LINE
  5
338
100
AcDbEntity
  8
01_CUT_OUTLINE
  6
ByLayer
 62
  256
370
   -1
100
AcDbLine
 10
196
 20
341
 11
196
 21
342
  0
LINE
  5
339
100
AcDbEntity
  8
01_CUT_OUTLINE
  6
ByLayer
 62
  256
370
   -1
100
AcDbLine
 10
196
 20
342
 11
196
 21
343
  0
LINE
  5
33A
100
AcDbEntity
  8
01_CUT_OUTLINE
  6
ByLayer
 62
  256
370
   -1
100
AcDbLine
 10
196
 20
343
 11
196
 21
344
  0
LINE
  5
33B
100
AcDbEntity
  8
01_CUT_OUTLINE
  6
ByLayer
 62
  256
370
   -1
100
AcDbLine
 10
196
 20
344
 11
196
 21
345
  0
LINE
  5
33C
100
AcDbEntity
  8
01_CUT_OUTLINE
  6
ByLayer
 62
  256
370
   -1
100
AcDbLine
 10
196
 20
345
 11
197
 21
346
  0
LINE
  5
33D
100
AcDbEntity
  8
01_CUT_OUTLINE
  6
ByLayer
 62
  256
370
   -1
100
AcDbLine
 10
197
 20
346
 11
197
 21
347
  0
LINE
  5
33E
100
AcDbEntity
  8
01_CUT_OUTLINE
  6
ByLayer
 62
  256
370
   -1
100
AcDbLine
 10
197
 20
347
 11
197
 21
348
  0
LINE
  5
33F
100
AcDbEntity
  8
01_CUT_OUTLINE
  6
ByLayer
 62
  256
370
   -1
100
AcDbLine
 10
197
 20
348
 11
197
 21
349
  0
LINE
  5
340
100
AcDbEntity
  8
01_CUT_OUTLINE
  6
ByLayer
 62
  256
370
   -1
100
AcDbLine
 10
197
 20
349
 11
197
 21
350
  0
LINE
  5
341
100
AcDbEntity
  8
01_CUT_OUTLINE
  6
ByLayer
 62
  256
370
   -1
100
AcDbLine
 10
197
 20
350
 11
197
 21
351
  0
LINE
  5
342
100
AcDbEntity
  8
01_CUT_OUTLINE
  6
ByLayer
 62
  256
370
   -1
100
AcDbLine
 10
197
 20
351
 11
197
 21
352
  0
LINE
  5
343
100
AcDbEntity
  8
01_CUT_OUTLINE
  6
ByLayer
 62
  256
370
   -1
100
AcDbLine
 10
197
 20
352
 11
197
 21
353
  0
LINE
  5
344
100
AcDbEntity
  8
01_CUT_OUTLINE
  6
ByLayer
 62
  256
370
   -1
100
AcDbLine
 10
197
 20
353
 11
197
 21
354
  0
LINE
  5
345
100
AcDbEntity
  8
01_CUT_OUTLINE
  6
ByLayer
 62
  256
370
   -1
100
AcDbLine
 10
197
 20
354
 11
197
 21
355
  0
LINE
  5
346
100
AcDbEntity
  8
01_CUT_OUTLINE
  6
ByLayer
 62
  256
370
   -1
100
AcDbLine
 10
197
 20
355
 11
197
 21
356
  0
LINE
  5
347
100
AcDbEntity
  8
01_CUT_OUTLINE
  6
ByLayer
 62
  256
370
   -1
100
AcDbLine
 10
197
 20
356
 11
197
 21
357
  0
LINE
  5
348
100
AcDbEntity
  8
01_CUT_OUTLINE
  6
ByLayer
 62
  256
370
   -1
100
AcDbLine
 10
197
 20
357
 11
197
 21
358
  0
LINE
  5
349
100
AcDbEntity
  8
01_CUT_OUTLINE
  6
ByLayer
 62
  256
370
   -1
100
AcDbLine
 10
197
 20
358
 11
197
 21
359
  0
LINE
  5
34A
100
AcDbEntity
  8
01_CUT_OUTLINE
  6
ByLayer
 62
  256
370
   -1
100
AcDbLine
 10
197
 20
359
 11
196
 21
360
  0
LINE
  5
34B
100
AcDbEntity
  8
01_CUT_OUTLINE
  6
ByLayer
 62
  256
370
   -1
100
AcDbLine
 10
196
 20
360
 11
196
 21
361
  0
LINE
  5
34C
100
AcDbEntity
  8
01_CUT_OUTLINE
  6
ByLayer
 62
  256
370
   -1
100
AcDbLine
 10
196
 20
361
 11
197
 21
362
  0
LINE
  5
34D
100
AcDbEntity
  8
01_CUT_OUTLINE
  6
ByLayer
 62
  256
370
   -1
100
AcDbLine
 10
197
 20
362
 11
197
 21
363
  0
LINE
  5
34E
100
AcDbEntity
  8
01_CUT_OUTLINE
  6
ByLayer
 62
  256
370
   -1
100
AcDbLine
 10
197
 20
363
 11
197
 21
364
  0
LINE
  5
34F
100
AcDbEntity
  8
01_CUT_OUTLINE
  6
ByLayer
 62
  256
370
   -1
100
AcDbLine
 10
197
 20
364
 11
196
 21
365
  0
LINE
  5
350
100
AcDbEntity
  8
01_CUT_OUTLINE
  6
ByLayer
 62
  256
370
   -1
100
AcDbLine
 10
196
 20
365
 11
196
 21
366
  0
LINE
  5
351
100
AcDbEntity
  8
01_CUT_OUTLINE
  6
ByLayer
 62
  256
370
   -1
100
AcDbLine
 10
196
 20
366
 11
196
 21
367
  0
LINE
  5
352
100
AcDbEntity
  8
01_CUT_OUTLINE
  6
ByLayer
 62
  256
370
   -1
100
AcDbLine
 10
196
 20
367
 11
196
 21
368
  0
LINE
  5
353
100
AcDbEntity
  8
01_CUT_OUTLINE
  6
ByLayer
 62
  256
370
   -1
100
AcDbLine
 10
196
 20
368
 11
196
 21
369
  0
LINE
  5
354
100
AcDbEntity
  8
01_CUT_OUTLINE
  6
ByLayer
 62
  256
370
   -1
100
AcDbLine
 10
196
 20
369
 11
197
 21
370
  0
LINE
  5
355
100
AcDbEntity
  8
01_CUT_OUTLINE
  6
ByLayer
 62
  256
370
   -1
100
AcDbLine
 10
197
 20
370
 11
197
 21
371
  0
LINE
  5
356
100
AcDbEntity
  8
01_CUT_OUTLINE
  6
ByLayer
 62
  256
370
   -1
100
AcDbLine
 10
197
 20
371
 11
197
 21
372
  0
LINE
  5
357
100
AcDbEntity
  8
01_CUT_OUTLINE
  6
ByLayer
 62
  256
370
   -1
100
AcDbLine
 10
197
 20
372
 11
196
 21
373
  0
LINE
  5
358
100
AcDbEntity
  8
01_CUT_OUTLINE
  6
ByLayer
 62
  256
370
   -1
100
AcDbLine
 10
196
 20
373
 11
196
 21
374
  0
LINE
  5
359
100
AcDbEntity
  8
01_CUT_OUTLINE
  6
ByLayer
 62
  256
370
   -1
100
AcDbLine
 10
196
 20
374
 11
196
 21
375
  0
LINE
  5
35A
100
AcDbEntity
  8
01_CUT_OUTLINE
  6
ByLayer
 62
  256
370
   -1
100
AcDbLine
 10
196
 20
375
 11
196
 21
376
  0
LINE
  5
35B
100
AcDbEntity
  8
01_CUT_OUTLINE
  6
ByLayer
 62
  256
370
   -1
100
AcDbLine
 10
196
 20
376
 11
196
 21
377
  0
LINE
  5
35C
100
AcDbEntity
  8
01_CUT_OUTLINE
  6
ByLayer
 62
  256
370
   -1
100
AcDbLine
 10
196
 20
377
 11
196
 21
378
  0
LINE
  5
35D
100
AcDbEntity
  8
01_CUT_OUTLINE
  6
ByLayer
 62
  256
370
   -1
100
AcDbLine
 10
196
 20
378
 11
196
 21
379
  0
LINE
  5
35E
100
AcDbEntity
  8
01_CUT_OUTLINE
  6
ByLayer
 62
  256
370
   -1
100
AcDbLine
 10
196
 20
379
 11
196
 21
380
  0
LINE
  5
35F
100
AcDbEntity
  8
01_CUT_OUTLINE
  6
ByLayer
 62
  256
370
   -1
100
AcDbLine
 10
196
 20
380
 11
196
 21
381
  0
LINE
  5
360
100
AcDbEntity
  8
01_CUT_OUTLINE
  6
ByLayer
 62
  256
370
   -1
100
AcDbLine
 10
196
 20
381
 11
197
 21
382
  0
LINE
  5
361
100
AcDbEntity
  8
01_CUT_OUTLINE
  6
ByLayer
 62
  256
370
   -1
100
AcDbLine
 10
197
 20
382
 11
198
 21
382
  0
LINE
  5
362
100
AcDbEntity
  8
01_CUT_OUTLINE
  6
ByLayer
 62
  256
370
   -1
100
AcDbLine
 10
198
 20
382
 11
199
 21
382
  0
LINE
  5
363
100
AcDbEntity
  8
01_CUT_OUTLINE
  6
ByLayer
 62
  256
370
   -1
100
AcDbLine
 10
199
 20
382
 11
200
 21
382
  0
LINE
  5
364
100
AcDbEntity
  8
01_CUT_OUTLINE
  6
ByLayer
 62
  256
370
   -1
100
AcDbLine
 10
200
 20
382
 11
201
 21
382
  0
LINE
  5
365
100
AcDbEntity
  8
01_CUT_OUTLINE
  6
ByLayer
 62
  256
370
   -1
100
AcDbLine
 10
201
 20
382
 11
202
 21
382
  0
LINE
  5
366
100
AcDbEntity
  8
01_CUT_OUTLINE
  6
ByLayer
 62
  256
370
   -1
100
AcDbLine
 10
202
 20
382
 11
202
 21
383
  0
LINE
  5
367
100
AcDbEntity
  8
01_CUT_OUTLINE
  6
ByLayer
 62
  256
370
   -1
100
AcDbLine
 10
202
 20
383
 11
202
 21
384
  0
LINE
  5
368
100
AcDbEntity
  8
01_CUT_OUTLINE
  6
ByLayer
 62
  256
370
   -1
100
AcDbLine
 10
202
 20
384
 11
201
 21
384
  0
LINE
  5
369
100
AcDbEntity
  8
01_CUT_OUTLINE
  6
ByLayer
 62
  256
370
   -1
100
AcDbLine
 10
201
 20
384
 11
200
 21
384
  0
LINE
  5
36A
100
AcDbEntity
  8
01_CUT_OUTLINE
  6
ByLayer
 62
  256
370
   -1
100
AcDbLine
 10
200
 20
384
 11
199
 21
384
  0
LINE
  5
36B
100
AcDbEntity
  8
01_CUT_OUTLINE
  6
ByLayer
 62
  256
370
   -1
100
AcDbLine
 10
199
 20
384
 11
198
 21
384
  0
LINE
  5
36C
100
AcDbEntity
  8
01_CUT_OUTLINE
  6
ByLayer
 62
  256
370
   -1
100
AcDbLine
 10
198
 20
384
 11
197
 21
384
  0
LINE
  5
36D
100
AcDbEntity
  8
01_CUT_OUTLINE
  6
ByLayer
 62
  256
370
   -1
100
AcDbLine
 10
197
 20
384
 11
196
 21
385
  0
LINE
  5
36E
100
AcDbEntity
  8
01_CUT_OUTLINE
  6
ByLayer
 62
  256
370
   -1
100
AcDbLine
 10
196
 20
385
 11
196
 21
386
  0
LINE
  5
36F
100
AcDbEntity
  8
01_CUT_OUTLINE
  6
ByLayer
 62
  256
370
   -1
100
AcDbLine
 10
196
 20
386
 11
196
 21
387
  0
LINE
  5
370
100
AcDbEntity
  8
01_CUT_OUTLINE
  6
ByLayer
 62
  256
370
   -1
100
AcDbLine
 10
196
 20
387
 11
196
 21
388
  0
LINE
  5
371
100
AcDbEntity
  8
01_CUT_OUTLINE
  6
ByLayer
 62
  256
370
   -1
100
AcDbLine
 10
196
 20
388
 11
196
 21
389
  0
LINE
  5
372
100
AcDbEntity
  8
01_CUT_OUTLINE
  6
ByLayer
 62
  256
370
   -1
100
AcDbLine
 10
196
 20
389
 11
196
 21
390
  0
LINE
  5
373
100
AcDbEntity
  8
01_CUT_OUTLINE
  6
ByLayer
 62
  256
370
   -1
100
AcDbLine
 10
196
 20
390
 11
196
 21
391
  0
LINE
  5
374
100
AcDbEntity
  8
01_CUT_OUTLINE
  6
ByLayer
 62
  256
370
   -1
100
AcDbLine
 10
196
 20
391
 11
197
 21
392
  0
LINE
  5
375
100
AcDbEntity
  8
01_CUT_OUTLINE
  6
ByLayer
 62
  256
370
   -1
100
AcDbLine
 10
197
 20
392
 11
196
 21
393
  0
LINE
  5
376
100
AcDbEntity
  8
01_CUT_OUTLINE
  6
ByLayer
 62
  256
370
   -1
100
AcDbLine
 10
196
 20
393
 11
196
 21
394
  0
LINE
  5
377
100
AcDbEntity
  8
01_CUT_OUTLINE
  6
ByLayer
 62
  256
370
   -1
100
AcDbLine
 10
196
 20
394
 11
196
 21
395
  0
LINE
  5
378
100
AcDbEntity
  8
01_CUT_OUTLINE
  6
ByLayer
 62
  256
370
   -1
100
AcDbLine
 10
196
 20
395
 11
196
 21
396
  0
LINE
  5
379
100
AcDbEntity
  8
01_CUT_OUTLINE
  6
ByLayer
 62
  256
370
   -1
100
AcDbLine
 10
196
 20
396
 11
196
 21
397
  0
LINE
  5
37A
100
AcDbEntity
  8
01_CUT_OUTLINE
  6
ByLayer
 62
  256
370
   -1
100
AcDbLine
 10
196
 20
397
 11
196
 21
398
  0
LINE
  5
37B
100
AcDbEntity
  8
01_CUT_OUTLINE
  6
ByLayer
 62
  256
370
   -1
100
AcDbLine
 10
196
 20
398
 11
196
 21
399
  0
LINE
  5
37C
100
AcDbEntity
  8
01_CUT_OUTLINE
  6
ByLayer
 62
  256
370
   -1
100
AcDbLine
 10
196
 20
399
 11
196
 21
400
  0
LINE
  5
37D
100
AcDbEntity
  8
01_CUT_OUTLINE
  6
ByLayer
 62
  256
370
   -1
100
AcDbLine
 10
196
 20
400
 11
196
 21
401
  0
LINE
  5
37E
100
AcDbEntity
  8
01_CUT_OUTLINE
  6
ByLayer
 62
  256
370
   -1
100
AcDbLine
 10
196
 20
401
 11
196
 21
402
  0
LINE
  5
37F
100
AcDbEntity
  8
01_CUT_OUTLINE
  6
ByLayer
 62
  256
370
   -1
100
AcDbLine
 10
196
 20
402
 11
196
 21
403
  0
LINE
  5
380
100
AcDbEntity
  8
01_CUT_OUTLINE
  6
ByLayer
 62
  256
370
   -1
100
AcDbLine
 10
196
 20
403
 11
196
 21
404
  0
LINE
  5
381
100
AcDbEntity
  8
01_CUT_OUTLINE
  6
ByLayer
 62
  256
370
   -1
100
AcDbLine
 10
196
 20
404
 11
196
 21
405
  0
LINE
  5
382
100
AcDbEntity
  8
01_CUT_OUTLINE
  6
ByLayer
 62
  256
370
   -1
100
AcDbLine
 10
196
 20
405
 11
196
 21
406
  0
LINE
  5
383
100
AcDbEntity
  8
01_CUT_OUTLINE
  6
ByLayer
 62
  256
370
   -1
100
AcDbLine
 10
196
 20
406
 11
196
 21
407
  0
LINE
  5
384
100
AcDbEntity
  8
01_CUT_OUTLINE
  6
ByLayer
 62
  256
370
   -1
100
AcDbLine
 10
196
 20
407
 11
196
 21
408
  0
LINE
  5
385
100
AcDbEntity
  8
01_CUT_OUTLINE
  6
ByLayer
 62
  256
370
   -1
100
AcDbLine
 10
196
 20
408
 11
196
 21
409
  0
LINE
  5
386
100
AcDbEntity
  8
01_CUT_OUTLINE
  6
ByLayer
 62
  256
370
   -1
100
AcDbLine
 10
196
 20
409
 11
196
 21
410
  0
LINE
  5
387
100
AcDbEntity
  8
01_CUT_OUTLINE
  6
ByLayer
 62
  256
370
   -1
100
AcDbLine
 10
196
 20
410
 11
196
 21
411
  0
LINE
  5
388
100
AcDbEntity
  8
01_CUT_OUTLINE
  6
ByLayer
 62
  256
370
   -1
100
AcDbLine
 10
196
 20
411
 11
196
 21
412
  0
LINE
  5
389
100
AcDbEntity
  8
01_CUT_OUTLINE
  6
ByLayer
 62
  256
370
   -1
100
AcDbLine
 10
196
 20
412
 11
196
 21
413
  0
LINE
  5
38A
100
AcDbEntity
  8
01_CUT_OUTLINE
  6
ByLayer
 62
  256
370
   -1
100
AcDbLine
 10
196
 20
413
 11
196
 21
414
  0
LINE
  5
38B
100
AcDbEntity
  8
01_CUT_OUTLINE
  6
ByLayer
 62
  256
370
   -1
100
AcDbLine
 10
196
 20
414
 11
196
 21
415
  0
ARC
  5
38C
100
AcDbEntity
  8
01_CUT_OUTLINE
  6
ByLayer
 62
  256
370
   -1
100
AcDbCircle
 10
184.7764
 20
407.3462
 40
12.13505022887121
100
AcDbArc
 50
27.22795481226183
 51
21.63853945908602
  0
LINE
  5
38D
100
AcDbEntity
  8
01_CUT_OUTLINE
  6
ByLayer
 62
  256
370
   -1
100
AcDbLine
 10
165
 20
418
 11
164
 21
418
  0
LINE
  5
38E
100
AcDbEntity
  8
01_CUT_OUTLINE
  6
ByLayer
 62
  256
370
   -1
100
AcDbLine
 10
164
 20
418
 11
163
 21
418
  0
LINE
  5
38F
100
AcDbEntity
  8
01_CUT_OUTLINE
  6
ByLayer
 62
  256
370
   -1
100
AcDbLine
 10
163
 20
418
 11
162
 21
417
  0
LINE
  5
390
100
AcDbEntity
  8
01_CUT_OUTLINE
  6
ByLayer
 62
  256
370
   -1
100
AcDbLine
 10
162
 20
417
 11
161
 21
417
  0
LINE
  5
391
100
AcDbEntity
  8
01_CUT_OUTLINE
  6
ByLayer
 62
  256
370
   -1
100
AcDbLine
 10
161
 20
417
 11
160
 21
416
  0
LINE
  5
392
100
AcDbEntity
  8
01_CUT_OUTLINE
  6
ByLayer
 62
  256
370
   -1
100
AcDbLine
 10
160
 20
416
 11
159
 21
416
  0
LINE
  5
393
100
AcDbEntity
  8
01_CUT_OUTLINE
  6
ByLayer
 62
  256
370
   -1
100
AcDbLine
 10
159
 20
416
 11
158
 21
416
  0
LINE
  5
394
100
AcDbEntity
  8
01_CUT_OUTLINE
  6
ByLayer
 62
  256
370
   -1
100
AcDbLine
 10
158
 20
416
 11
157
 21
417
  0
LINE
  5
395
100
AcDbEntity
  8
01_CUT_OUTLINE
  6
ByLayer
 62
  256
370
   -1
100
AcDbLine
 10
157
 20
417
 11
156
 21
417
  0
LINE
  5
396
100
AcDbEntity
  8
01_CUT_OUTLINE
  6
ByLayer
 62
  256
370
   -1
100
AcDbLine
 10
156
 20
417
 11
155
 21
418
  0
LINE
  5
397
100
AcDbEntity
  8
01_CUT_OUTLINE
  6
ByLayer
 62
  256
370
   -1
100
AcDbLine
 10
155
 20
418
 11
154
 21
418
  0
LINE
  5
398
100
AcDbEntity
  8
01_CUT_OUTLINE
  6
ByLayer
 62
  256
370
   -1
100
AcDbLine
 10
154
 20
418
 11
153
 21
418
  0
LINE
  5
399
100
AcDbEntity
  8
01_CUT_OUTLINE
  6
ByLayer
 62
  256
370
   -1
100
AcDbLine
 10
153
 20
418
 11
152
 21
419
  0
LINE
  5
39A
100
AcDbEntity
  8
01_CUT_OUTLINE
  6
ByLayer
 62
  256
370
   -1
100
AcDbLine
 10
152
 20
419
 11
151
 21
419
  0
LINE
  5
39B
100
AcDbEntity
  8
01_CUT_OUTLINE
  6
ByLayer
 62
  256
370
   -1
100
AcDbLine
 10
151
 20
419
 11
150
 21
419
  0
LINE
  5
39C
100
AcDbEntity
  8
01_CUT_OUTLINE
  6
ByLayer
 62
  256
370
   -1
100
AcDbLine
 10
150
 20
419
 11
149
 21
419
  0
LINE
  5
39D
100
AcDbEntity
  8
01_CUT_OUTLINE
  6
ByLayer
 62
  256
370
   -1
100
AcDbLine
 10
149
 20
419
 11
148
 21
419
  0
LINE
  5
39E
100
AcDbEntity
  8
01_CUT_OUTLINE
  6
ByLayer
 62
  256
370
   -1
100
AcDbLine
 10
148
 20
419
 11
147
 21
419
  0
LINE
  5
39F
100
AcDbEntity
  8
01_CUT_OUTLINE
  6
ByLayer
 62
  256
370
   -1
100
AcDbLine
 10
147
 20
419
 11
146
 21
419
  0
LINE
  5
3A0
100
AcDbEntity
  8
01_CUT_OUTLINE
  6
ByLayer
 62
  256
370
   -1
100
AcDbLine
 10
146
 20
419
 11
145
 21
419
  0
LINE
  5
3A1
100
AcDbEntity
  8
01_CUT_OUTLINE
  6
ByLayer
 62
  256
370
   -1
100
AcDbLine
 10
145
 20
419
 11
144
 21
420
  0
LINE
  5
3A2
100
AcDbEntity
  8
01_CUT_OUTLINE
  6
ByLayer
 62
  256
370
   -1
100
AcDbLine
 10
144
 20
420
 11
143
 21
420
  0
LINE
  5
3A3
100
AcDbEntity
  8
01_CUT_OUTLINE
  6
ByLayer
 62
  256
370
   -1
100
AcDbLine
 10
143
 20
420
 11
142
 21
420
  0
LINE
  5
3A4
100
AcDbEntity
  8
01_CUT_OUTLINE
  6
ByLayer
 62
  256
370
   -1
100
AcDbLine
 10
142
 20
420
 11
141
 21
420
  0
LINE
  5
3A5
100
AcDbEntity
  8
01_CUT_OUTLINE
  6
ByLayer
 62
  256
370
   -1
100
AcDbLine
 10
141
 20
420
 11
140
 21
420
  0
LINE
  5
3A6
100
AcDbEntity
  8
01_CUT_OUTLINE
  6
ByLayer
 62
  256
370
   -1
100
AcDbLine
 10
140
 20
420
 11
139
 21
420
  0
LINE
  5
3A7
100
AcDbEntity
  8
01_CUT_OUTLINE
  6
ByLayer
 62
  256
370
   -1
100
AcDbLine
 10
139
 20
420
 11
138
 21
420
  0
LINE
  5
3A8
100
AcDbEntity
  8
01_CUT_OUTLINE
  6
ByLayer
 62
  256
370
   -1
100
AcDbLine
 10
138
 20
420
 11
137
 21
420
  0
LWPOLYLINE
  5
3A9
100
AcDbEntity
  8
04_MILL_SLOTS
  6
ByLayer
 62
  256
370
   -1
100
AcDbPolyline
 90
    4
 70
    1
 43
0
 10
213
 20
49
 10
213
 20
75
 10
221
 20
75
 10
221
 20
49
  0
ARC
  5
3AA
100
AcDbEntity
  8
04_MILL_SLOTS
  6
ByLayer
 62
  256
370
   -1
100
AcDbCircle
 10
217
 20
49
 40
4
100
AcDbArc
 50
180
 51
360
  0
ARC
  5
3AB
100
AcDbEntity
  8
04_MILL_SLOTS
  6
ByLayer
 62
  256
370
   -1
100
AcDbCircle
 10
217
 20
75
 40
4
100
AcDbArc
 50
0
 51
180
  0
LWPOLYLINE
  5
3AC
100
AcDbEntity
  8
04_MILL_SLOTS
  6
ByLayer
 62
  256
370
   -1
100
AcDbPolyline
 90
    4
 70
    1
 43
0
 10
197.9753327029298
 20
96.03511958734099
 10
198.8544409050591
 20
130.3202766200038
 10
212.8708672970702
 20
129.960880412659
 10
211.9917590949409
 20
95.67572337999621
  0
ARC
  5
3AD
100
AcDbEntity
  8
04_MILL_SLOTS
  6
ByLayer
 62
  256
370
   -1
100
AcDbCircle
 10
204.9835458989353
 20
95.85542148366861
 40
7.01051664352417
100
AcDbArc
 50
178.5311965942383
 51
358.5311965942383
  0
ARC
  5
3AE
100
AcDbEntity
  8
04_MILL_SLOTS
  6
ByLayer
 62
  256
370
   -1
100
AcDbCircle
 10
205.8626541010647
 20
130.1405785163314
 40
7.01051664352417
100
AcDbArc
 50
-1.468803405761719
 51
178.5311965942383
  0
LWPOLYLINE
  5
3AF
100
AcDbEntity
  8
04_MILL_SLOTS
  6
ByLayer
 62
  256
370
   -1
100
AcDbPolyline
 90
    4
 70
    1
 43
0
 10
99.31484220921136
 20
125.2143522438103
 10
145.6604527357415
 20
150.2409828387842
 10
148.6957577907886
 20
144.6200477561897
 10
102.3501472642585
 20
119.5934171612158
  0
ARC
  5
3B0
100
AcDbEntity
  8
04_MILL_SLOTS
  6
ByLayer
 62
  256
370
   -1
100
AcDbCircle
 10
100.8324947367349
 20
122.403884702513
 40
3.194056510925293
100
AcDbArc
 50
118.369047164917
 51
298.369047164917
  0
ARC
  5
3B1
100
AcDbEntity
  8
04_MILL_SLOTS
  6
ByLayer
 62
  256
370
   -1
100
AcDbCircle
 10
147.1781052632651
 20
147.430515297487
 40
3.194056510925293
100
AcDbArc
 50
-61.63095283508301
 51
118.369047164917
  0
LWPOLYLINE
  5
3B2
100
AcDbEntity
  8
04_MILL_SLOTS
  6
ByLayer
 62
  256
370
   -1
100
AcDbPolyline
 90
    4
 70
    1
 43
0
 10
105.5000019073486
 20
205.4999980926514
 10
138.4999980926514
 20
205.4999980926514
 10
138.4999980926514
 20
183.5000019073486
 10
105.5000019073486
 20
183.5000019073486
  0
ARC
  5
3B3
100
AcDbEntity
  8
04_MILL_SLOTS
  6
ByLayer
 62
  256
370
   -1
100
AcDbCircle
 10
105.5000019073486
 20
194.5
 40
10.99999809265137
100
AcDbArc
 50
90
 51
270
  0
ARC
  5
3B4
100
AcDbEntity
  8
04_MILL_SLOTS
  6
ByLayer
 62
  256
370
   -1
100
AcDbCircle
 10
138.4999980926514
 20
194.5
 40
10.99999809265137
100
AcDbArc
 50
-90
 51
90
  0
ARC
  5
3B5
100
AcDbEntity
  8
04_MILL_SLOTS
  6
ByLayer
 62
  256
370
   -1
100
AcDbCircle
 10
266.3529229746469
 20
276.0587938018134
 40
2.057982921600342
100
AcDbArc
 50
-59.03624343872071
 51
120.9637565612793
  0
LWPOLYLINE
  5
3B6
100
AcDbEntity
  8
04_MILL_SLOTS
  6
ByLayer
 62
  256
370
   -1
100
AcDbPolyline
 90
    4
 70
    1
 43
0
 10
214
 20
375.5
 10
214
 20
391.5
 10
221
 20
391.5
 10
221
 20
375.5
  0
ARC
  5
3B7
100
AcDbEntity
  8
04_MILL_SLOTS
  6
ByLayer
 62
  256
370
   -1
100
AcDbCircle
 10
217.5
 20
375.5
 40
3.5
100
AcDbArc
 50
180
 51
360
  0
ARC
  5
3B8
100
AcDbEntity
  8
04_MILL_SLOTS
  6
ByLayer
 62
  256
370
   -1
100
AcDbCircle
 10
217.5
 20
391.5
 40
3.5
100
AcDbArc
 50
0
 51
180
  0
LWPOLYLINE
  5
3B9
100
AcDbEntity
  8
04_MILL_SLOTS
  6
ByLayer
 62
  256
370
   -1
100
AcDbPolyline
 90
    4
 70
    1
 43
0
 10
164
 20
417
 10
190
 20
417
 10
190
 20
409
 10
164
 20
409
  0
ARC
  5
3BA
100
AcDbEntity
  8
04_MILL_SLOTS
  6
ByLayer
 62
  256
370
   -1
100
AcDbCircle
 10
164
 20
413
 40
4
100
AcDbArc
 50
90
 51
270
  0
ARC
  5
3BB
100
AcDbEntity
  8
04_MILL_SLOTS
  6
ByLayer
 62
  256
370
   -1
100
AcDbCircle
 10
190
 20
413
 40
4
100
AcDbArc
 50
-90
 51
90
  0
LWPOLYLINE
  5
3BC
100
AcDbEntity
  8
04_MILL_SLOTS
  6
ByLayer
 62
  256
370
   -1
100
AcDbPolyline
 90
    4
 70
    1
 43
0
 10
95
 20
352.5
 10
224
 20
352.5
 10
224
 20
281.5
 10
95
 20
281.5
  0
ARC
  5
3BD
100
AcDbEntity
  8
04_MILL_SLOTS
  6
ByLayer
 62
  256
370
   -1
100
AcDbCircle
 10
95
 20
317
 40
35.5
100
AcDbArc
 50
90
 51
270
  0
ARC
  5
3BE
100
AcDbEntity
  8
04_MILL_SLOTS
  6
ByLayer
 62
  256
370
   -1
100
AcDbCircle
 10
224
 20
317
 40
35.5
100
AcDbArc
 50
-90
 51
90
  0
ENDSEC
  0
SECTION
  2
OBJECTS
  0
DICTIONARY
  5
C
330
0
100
AcDbDictionary
281
    1
  3
ACAD_GROUP
350
D
  0
DICTIONARY
  5
D
330
C
100
AcDbDictionary
281
    1
  0
PLOTSETTINGS
  5
3BF
100
AcDbPlotSettings
  6
1x1
 40
0
 41
0
 42
0
 43
0
  0
ENDSEC
  0
EOF
