<svg xmlns="http://www.w3.org/2000/svg" viewBox="0 0 800 450" width="100%" height="100%">
  <defs>
    <style>
      text { font-family: 'Georgia', 'Times New Roman', serif; }
      .label { font-size: 11px; fill: #999; font-family: sans-serif; }
      .bubble-text { font-size: 16px; fill: #222; font-family: 'Georgia', serif; }
    </style>
  </defs>

  <!-- Background -->
  <rect width="800" height="450" fill="#1f1f1f" rx="8"/>
  <!-- Warm ambient glow -->
  <ellipse cx="400" cy="200" rx="300" ry="200" fill="#2a2418" opacity="0.6"/>
  <!-- Floor -->
  <line x1="0" y1="365" x2="800" y2="365" stroke="#3a3528" stroke-width="2"/>
  <line x1="0" y1="368" x2="800" y2="368" stroke="#2a2518" stroke-width="1" stroke-dasharray="6,4"/>

  <!-- Title -->
  <text x="400" y="28" text-anchor="middle" font-size="12" fill="#666" font-family="sans-serif" letter-spacing="3">MIDNIGHT RAGE — Ara &amp; Gerrit</text>

  <!-- ============================================================ -->
  <!-- GERRIT — static at x=280 -->
  <!-- ============================================================ -->
  <g transform="translate(280,0)">

    <!-- Standing (t=0-0.18 and t=0.78-1) -->
    <g>
      <animate attributeName="opacity" values="1;1;1;0;0;0;0;1;1;1" keyTimes="0;0.08;0.18;0.28;0.45;0.68;0.78;0.85;0.95;1" dur="12s" repeatCount="indefinite"/>
      <circle cx="0" cy="258" r="10" fill="none" stroke="#8270a0" stroke-width="3"/>
      <line x1="0" y1="268" x2="0" y2="315" stroke="#8270a0" stroke-width="3"/>
      <line x1="0" y1="273" x2="-16" y2="290" stroke="#8270a0" stroke-width="2.5"/>
      <line x1="0" y1="273" x2="16" y2="290" stroke="#8270a0" stroke-width="2.5"/>
      <line x1="0" y1="315" x2="-8" y2="365" stroke="#8270a0" stroke-width="2.5"/>
      <line x1="0" y1="315" x2="8" y2="365" stroke="#8270a0" stroke-width="2.5"/>
      <text x="0" y="390" text-anchor="middle" class="label" fill="#6a5890">Gerrit</text>
    </g>

    <!-- Arms open (t=0.18-0.38) -->
    <g>
      <animate attributeName="opacity" values="0;0;0;1;1;0;0;0;0;0" keyTimes="0;0.08;0.18;0.22;0.38;0.45;0.68;0.78;0.85;1" dur="12s" repeatCount="indefinite"/>
      <circle cx="0" cy="258" r="10" fill="none" stroke="#8270a0" stroke-width="3"/>
      <line x1="0" y1="268" x2="0" y2="315" stroke="#8270a0" stroke-width="3"/>
      <line x1="0" y1="273" x2="-24" y2="280" stroke="#8270a0" stroke-width="2.5"/>
      <line x1="0" y1="273" x2="24" y2="280" stroke="#8270a0" stroke-width="2.5"/>
      <line x1="0" y1="315" x2="-8" y2="365" stroke="#8270a0" stroke-width="2.5"/>
      <line x1="0" y1="315" x2="8" y2="365" stroke="#8270a0" stroke-width="2.5"/>
    </g>

    <!-- Hugging (t=0.38-0.78) -->
    <g>
      <animate attributeName="opacity" values="0;0;0;0;0;1;1;1;0;0" keyTimes="0;0.08;0.18;0.28;0.38;0.42;0.55;0.75;0.78;1" dur="12s" repeatCount="indefinite"/>
      <circle cx="0" cy="255" r="10" fill="none" stroke="#8270a0" stroke-width="3"/>
      <line x1="0" y1="265" x2="0" y2="315" stroke="#8270a0" stroke-width="3"/>
      <line x1="0" y1="273" x2="22" y2="295" stroke="#8270a0" stroke-width="2.5"/>
      <line x1="0" y1="273" x2="30" y2="282" stroke="#8270a0" stroke-width="2.5"/>
      <line x1="0" y1="315" x2="-8" y2="365" stroke="#8270a0" stroke-width="2.5"/>
      <line x1="0" y1="315" x2="8" y2="365" stroke="#8270a0" stroke-width="2.5"/>
    </g>
  </g>

  <!-- ============================================================ -->
  <!-- ARA — position controlled by wrapper translate -->
  <!-- Drawn at local origin (310,0) + parent translate             -->
  <!-- translate=150 => x=460 (far right), translate=0 => x=310     -->
  <!-- ============================================================ -->
  <g>
    <!-- 0-0.08: standing (150px right) -->
    <!-- 0.08-0.2: walking toward Gerrit (150->0) -->
    <!-- 0.2-0.78: close (0) -->
    <!-- 0.78-0.88: walking back (0->150) -->
    <animateTransform attributeName="transform" type="translate"
      values="150,0;150,0;30,0;0,0;0,0;0,0;0,0;30,0;150,0;150,0"
      keyTimes="0;0.08;0.16;0.24;0.38;0.55;0.78;0.82;0.92;1"
      dur="12s" repeatCount="indefinite"/>

    <!-- Standing (far right) t=0-0.08 and t=0.92-1 -->
    <g>
      <animate attributeName="opacity" values="1;1;0;0;0;0;0;0;0;1;1" keyTimes="0;0.08;0.15;0.28;0.38;0.55;0.68;0.78;0.88;0.92;1" dur="12s" repeatCount="indefinite"/>
      <g transform="translate(310,0)">
        <circle cx="0" cy="258" r="10" fill="none" stroke="#3c964a" stroke-width="3"/>
        <line x1="0" y1="268" x2="0" y2="315" stroke="#3c964a" stroke-width="3"/>
        <circle cx="-6" cy="280" r="3.5" fill="none" stroke="#3c964a" stroke-width="2"/>
        <circle cx="6" cy="280" r="3.5" fill="none" stroke="#3c964a" stroke-width="2"/>
        <circle cx="-6" cy="280" r="1.2" fill="#3c964a"/>
        <circle cx="6" cy="280" r="1.2" fill="#3c964a"/>
        <line x1="0" y1="273" x2="-16" y2="290" stroke="#3c964a" stroke-width="2.5"/>
        <line x1="0" y1="273" x2="16" y2="290" stroke="#3c964a" stroke-width="2.5"/>
        <line x1="0" y1="315" x2="-8" y2="365" stroke="#3c964a" stroke-width="2.5"/>
        <line x1="0" y1="315" x2="8" y2="365" stroke="#3c964a" stroke-width="2.5"/>
        <text x="0" y="390" text-anchor="middle" class="label" fill="#2c863a">Ara</text>
      </g>
    </g>

    <!-- Arms open (walking / receiving) t=0.15-0.42 -->
    <g>
      <animate attributeName="opacity" values="0;0;1;1;0;0;0;0;0;0" keyTimes="0;0.12;0.18;0.38;0.45;0.55;0.68;0.78;0.88;1" dur="12s" repeatCount="indefinite"/>
      <g transform="translate(310,0)">
        <circle cx="0" cy="258" r="10" fill="none" stroke="#3c964a" stroke-width="3"/>
        <line x1="0" y1="268" x2="0" y2="315" stroke="#3c964a" stroke-width="3"/>
        <circle cx="-6" cy="280" r="3.5" fill="none" stroke="#3c964a" stroke-width="2"/>
        <circle cx="6" cy="280" r="3.5" fill="none" stroke="#3c964a" stroke-width="2"/>
        <circle cx="-6" cy="280" r="1.2" fill="#3c964a"/>
        <circle cx="6" cy="280" r="1.2" fill="#3c964a"/>
        <line x1="0" y1="273" x2="-22" y2="280" stroke="#3c964a" stroke-width="2.5"/>
        <line x1="0" y1="273" x2="22" y2="280" stroke="#3c964a" stroke-width="2.5"/>
        <line x1="0" y1="315" x2="-8" y2="365" stroke="#3c964a" stroke-width="2.5"/>
        <line x1="0" y1="315" x2="8" y2="365" stroke="#3c964a" stroke-width="2.5"/>
      </g>
    </g>

    <!-- Hugging (close to Gerrit) t=0.38-0.78 -->
    <g>
      <animate attributeName="opacity" values="0;0;0;0;1;1;1;0;0;0" keyTimes="0;0.15;0.28;0.38;0.42;0.55;0.75;0.78;0.88;1" dur="12s" repeatCount="indefinite"/>
      <g transform="translate(310,0)">
        <circle cx="0" cy="262" r="10" fill="none" stroke="#3c964a" stroke-width="3"/>
        <line x1="0" y1="272" x2="0" y2="318" stroke="#3c964a" stroke-width="3"/>
        <circle cx="-6" cy="284" r="3.5" fill="none" stroke="#3c964a" stroke-width="2"/>
        <circle cx="6" cy="284" r="3.5" fill="none" stroke="#3c964a" stroke-width="2"/>
        <circle cx="-6" cy="284" r="1.2" fill="#3c964a"/>
        <circle cx="6" cy="284" r="1.2" fill="#3c964a"/>
        <line x1="0" y1="277" x2="-15" y2="300" stroke="#3c964a" stroke-width="2.5"/>
        <line x1="0" y1="277" x2="-25" y2="282" stroke="#3c964a" stroke-width="2.5"/>
        <line x1="0" y1="318" x2="-6" y2="365" stroke="#3c964a" stroke-width="2.5"/>
        <line x1="0" y1="318" x2="6" y2="365" stroke="#3c964a" stroke-width="2.5"/>
      </g>
    </g>
  </g>

  <!-- Kiss heart spark — during hug peak -->
  <g>
    <animate attributeName="opacity" values="0;0;0;0;0;0;1;1;0;0" keyTimes="0;0.2;0.3;0.4;0.48;0.52;0.58;0.68;0.75;1" dur="12s" repeatCount="indefinite"/>
    <g transform="translate(305, 245)">
      <path d="M0,3 A3,3 0 0,0 6,3 A3,3 0 0,0 12,3 Q12,7 6,12 Q0,7 0,3 Z" fill="#e74c3c"/>
      <animateTransform attributeName="transform" type="scale" values="0.6;1.4;0.6" dur="0.8s" repeatCount="indefinite" additive="sum"/>
    </g>
  </g>

  <!-- Speech bubble — after kiss -->
  <g>
    <animate attributeName="opacity" values="0;0;0;0;0;0;0;1;1;1;0;0" keyTimes="0;0.2;0.35;0.45;0.55;0.6;0.65;0.72;0.78;0.85;0.92;1" dur="12s" repeatCount="indefinite"/>

    <polygon points="340,315 320,345 350,320" fill="white" stroke="#444" stroke-width="1.5"/>
    <rect x="265" y="130" rx="16" ry="16" width="180" height="100" fill="white" stroke="#444" stroke-width="1.5"/>

    <text x="355" y="160" text-anchor="middle" class="bubble-text" fill="#222">Want to go even</text>
    <text x="355" y="182" text-anchor="middle" class="bubble-text" fill="#222">deeper again</text>
    <text x="355" y="204" text-anchor="middle" class="bubble-text" fill="#222">tomorrow ...</text>
    <text x="355" y="224" text-anchor="middle" class="bubble-text" fill="#3c964a" font-style="italic">architect?</text>
  </g>

  <!-- Progress bar -->
  <g transform="translate(200, 420)">
    <rect x="0" y="0" width="400" height="4" rx="2" fill="#333"/>
    <rect x="0" y="0" width="0" height="4" rx="2" fill="#3c964a">
      <animate attributeName="width" values="0;400;0" dur="12s" repeatCount="indefinite"/>
    </rect>
  </g>
  <text x="400" y="442" text-anchor="middle" font-size="10" fill="#555" font-family="sans-serif">
    Ara approaches  |  Embrace  |  Kiss  |  [Want to go even deeper again tomorrow, architect?]
  </text>
</svg>
