  0
SECTION
  2
HEADER
  9
$ACADVER
  1
AC1032
  9
$ACADMAINTVER
 90
4
  9
$DWGCODEPAGE
  3
ANSI_1252
  9
$LASTSAVEDBY
  1
ezdxf
  9
$REQUIREDVERSIONS
160
0
  9
$INSBASE
 10
0.0
 20
0.0
 30
0.0
  9
$EXTMIN
 10
1e+20
 20
1e+20
 30
1e+20
  9
$EXTMAX
 10
-1e+20
 20
-1e+20
 30
-1e+20
  9
$LIMMIN
 10
0.0
 20
0.0
  9
$LIMMAX
 10
420.0
 20
297.0
  9
$ORTHOMODE
 70
0
  9
$REGENMODE
 70
1
  9
$FILLMODE
 70
1
  9
$QTEXTMODE
 70
0
  9
$MIRRTEXT
 70
1
  9
$LTSCALE
 40
1.0
  9
$ATTMODE
 70
1
  9
$TEXTSIZE
 40
2.5
  9
$TRACEWID
 40
1.0
  9
$TEXTSTYLE
  7
Standard
  9
$CLAYER
  8
0
  9
$CELTYPE
  6
ByLayer
  9
$CECOLOR
 62
256
  9
$CELTSCALE
 40
1.0
  9
$DISPSILH
 70
0
  9
$DIMSCALE
 40
1.0
  9
$DIMASZ
 40
2.5
  9
$DIMEXO
 40
0.625
  9
$DIMDLI
 40
3.75
  9
$DIMRND
 40
0.0
  9
$DIMDLE
 40
0.0
  9
$DIMEXE
 40
1.25
  9
$DIMTP
 40
0.0
  9
$DIMTM
 40
0.0
  9
$DIMTXT
 40
2.5
  9
$DIMCEN
 40
2.5
  9
$DIMTSZ
 40
0.0
  9
$DIMTOL
 70
0
  9
$DIMLIM
 70
0
  9
$DIMTIH
 70
0
  9
$DIMTOH
 70
0
  9
$DIMSE1
 70
0
  9
$DIMSE2
 70
0
  9
$DIMTAD
 70
1
  9
$DIMZIN
 70
8
  9
$DIMBLK
  1

  9
$DIMASO
 70
1
  9
$DIMSHO
 70
1
  9
$DIMPOST
  1

  9
$DIMAPOST
  1

  9
$DIMALT
 70
0
  9
$DIMALTD
 70
3
  9
$DIMALTF
 40
0.03937007874
  9
$DIMLFAC
 40
1.0
  9
$DIMTOFL
 70
1
  9
$DIMTVP
 40
0.0
  9
$DIMTIX
 70
0
  9
$DIMSOXD
 70
0
  9
$DIMSAH
 70
0
  9
$DIMBLK1
  1

  9
$DIMBLK2
  1

  9
$DIMSTYLE
  2
ISO-25
  9
$DIMCLRD
 70
0
  9
$DIMCLRE
 70
0
  9
$DIMCLRT
 70
0
  9
$DIMTFAC
 40
1.0
  9
$DIMGAP
 40
0.625
  9
$DIMJUST
 70
0
  9
$DIMSD1
 70
0
  9
$DIMSD2
 70
0
  9
$DIMTOLJ
 70
0
  9
$DIMTZIN
 70
8
  9
$DIMALTZ
 70
0
  9
$DIMALTTZ
 70
0
  9
$DIMUPT
 70
0
  9
$DIMDEC
 70
2
  9
$DIMTDEC
 70
2
  9
$DIMALTU
 70
2
  9
$DIMALTTD
 70
3
  9
$DIMTXSTY
  7
Standard
  9
$DIMAUNIT
 70
0
  9
$DIMADEC
 70
0
  9
$DIMALTRND
 40
0.0
  9
$DIMAZIN
 70
0
  9
$DIMDSEP
 70
44
  9
$DIMATFIT
 70
3
  9
$DIMFRAC
 70
0
  9
$DIMLDRBLK
  1

  9
$DIMLUNIT
 70
2
  9
$DIMLWD
 70
-2
  9
$DIMLWE
 70
-2
  9
$DIMTMOVE
 70
0
  9
$DIMFXL
 40
1.0
  9
$DIMFXLON
 70
0
  9
$DIMJOGANG
 40
0.785398163397
  9
$DIMTFILL
 70
0
  9
$DIMTFILLCLR
 70
0
  9
$DIMARCSYM
 70
0
  9
$DIMLTYPE
  6

  9
$DIMLTEX1
  6

  9
$DIMLTEX2
  6

  9
$DIMTXTDIRECTION
 70
0
  9
$LUNITS
 70
2
  9
$LUPREC
 70
4
  9
$SKETCHINC
 40
1.0
  9
$FILLETRAD
 40
10.0
  9
$AUNITS
 70
0
  9
$AUPREC
 70
2
  9
$MENU
  1
.
  9
$ELEVATION
 40
0.0
  9
$PELEVATION
 40
0.0
  9
$THICKNESS
 40
0.0
  9
$LIMCHECK
 70
0
  9
$CHAMFERA
 40
0.0
  9
$CHAMFERB
 40
0.0
  9
$CHAMFERC
 40
0.0
  9
$CHAMFERD
 40
0.0
  9
$SKPOLY
 70
0
  9
$TDCREATE
 40
2461180.4435416665
  9
$TDUCREATE
 40
2458532.153996898
  9
$TDUPDATE
 40
2461180.4435416665
  9
$TDUUPDATE
 40
2458532.1544311
  9
$TDINDWG
 40
0.0
  9
$TDUSRTIMER
 40
0.0
  9
$USRTIMER
 70
1
  9
$ANGBASE
 50
0.0
  9
$ANGDIR
 70
0
  9
$PDMODE
 70
0
  9
$PDSIZE
 40
0.0
  9
$PLINEWID
 40
0.0
  9
$SPLFRAME
 70
0
  9
$SPLINETYPE
 70
6
  9
$SPLINESEGS
 70
8
  9
$HANDSEED
  5
3CA
  9
$SURFTAB1
 70
6
  9
$SURFTAB2
 70
6
  9
$SURFTYPE
 70
6
  9
$SURFU
 70
6
  9
$SURFV
 70
6
  9
$UCSBASE
  2

  9
$UCSNAME
  2

  9
$UCSORG
 10
0.0
 20
0.0
 30
0.0
  9
$UCSXDIR
 10
1.0
 20
0.0
 30
0.0
  9
$UCSYDIR
 10
0.0
 20
1.0
 30
0.0
  9
$UCSORTHOREF
  2

  9
$UCSORTHOVIEW
 70
0
  9
$UCSORGTOP
 10
0.0
 20
0.0
 30
0.0
  9
$UCSORGBOTTOM
 10
0.0
 20
0.0
 30
0.0
  9
$UCSORGLEFT
 10
0.0
 20
0.0
 30
0.0
  9
$UCSORGRIGHT
 10
0.0
 20
0.0
 30
0.0
  9
$UCSORGFRONT
 10
0.0
 20
0.0
 30
0.0
  9
$UCSORGBACK
 10
0.0
 20
0.0
 30
0.0
  9
$PUCSBASE
  2

  9
$PUCSNAME
  2

  9
$PUCSORG
 10
0.0
 20
0.0
 30
0.0
  9
$PUCSXDIR
 10
1.0
 20
0.0
 30
0.0
  9
$PUCSYDIR
 10
0.0
 20
1.0
 30
0.0
  9
$PUCSORTHOREF
  2

  9
$PUCSORTHOVIEW
 70
0
  9
$PUCSORGTOP
 10
0.0
 20
0.0
 30
0.0
  9
$PUCSORGBOTTOM
 10
0.0
 20
0.0
 30
0.0
  9
$PUCSORGLEFT
 10
0.0
 20
0.0
 30
0.0
  9
$PUCSORGRIGHT
 10
0.0
 20
0.0
 30
0.0
  9
$PUCSORGFRONT
 10
0.0
 20
0.0
 30
0.0
  9
$PUCSORGBACK
 10
0.0
 20
0.0
 30
0.0
  9
$USERI1
 70
0
  9
$USERI2
 70
0
  9
$USERI3
 70
0
  9
$USERI4
 70
0
  9
$USERI5
 70
0
  9
$USERR1
 40
0.0
  9
$USERR2
 40
0.0
  9
$USERR3
 40
0.0
  9
$USERR4
 40
0.0
  9
$USERR5
 40
0.0
  9
$WORLDVIEW
 70
1
  9
$SHADEDGE
 70
3
  9
$SHADEDIF
 70
70
  9
$TILEMODE
 70
1
  9
$MAXACTVP
 70
64
  9
$PINSBASE
 10
0.0
 20
0.0
 30
0.0
  9
$PLIMCHECK
 70
0
  9
$PEXTMIN
 10
1e+20
 20
1e+20
 30
1e+20
  9
$PEXTMAX
 10
-1e+20
 20
-1e+20
 30
-1e+20
  9
$PLIMMIN
 10
0.0
 20
0.0
  9
$PLIMMAX
 10
420.0
 20
297.0
  9
$UNITMODE
 70
0
  9
$VISRETAIN
 70
1
  9
$PLINEGEN
 70
0
  9
$PSLTSCALE
 70
1
  9
$TREEDEPTH
 70
3020
  9
$CMLSTYLE
  2
Standard
  9
$CMLJUST
 70
0
  9
$CMLSCALE
 40
20.0
  9
$PROXYGRAPHICS
 70
1
  9
$MEASUREMENT
 70
1
  9
$CELWEIGHT
370
-1
  9
$ENDCAPS
280
0
  9
$JOINSTYLE
280
0
  9
$LWDISPLAY
290
0
  9
$INSUNITS
 70
4
  9
$HYPERLINKBASE
  1

  9
$STYLESHEET
  1

  9
$XEDIT
290
1
  9
$CEPSNTYPE
380
0
  9
$PSTYLEMODE
290
1
  9
$FINGERPRINTGUID
  2
{CFED2803-FB24-43F3-A7C0-DF37F8500AD9}
  9
$VERSIONGUID
  2
{4E59EDCF-C3DD-4DCE-9952-C13C8B1E729F}
  9
$EXTNAMES
290
1
  9
$PSVPSCALE
 40
0.0
  9
$OLESTARTUP
290
0
  9
$SORTENTS
280
127
  9
$INDEXCTL
280
0
  9
$HIDETEXT
280
1
  9
$XCLIPFRAME
280
1
  9
$HALOGAP
280
0
  9
$OBSCOLOR
 70
257
  9
$OBSLTYPE
280
0
  9
$INTERSECTIONDISPLAY
280
0
  9
$INTERSECTIONCOLOR
 70
257
  9
$DIMASSOC
280
2
  9
$PROJECTNAME
  1

  9
$CAMERADISPLAY
290
0
  9
$LENSLENGTH
 40
50.0
  9
$CAMERAHEIGHT
 40
0.0
  9
$STEPSPERSEC
 40
24.0
  9
$STEPSIZE
 40
100.0
  9
$3DDWFPREC
 40
2.0
  9
$PSOLWIDTH
 40
0.005
  9
$PSOLHEIGHT
 40
0.08
  9
$LOFTANG1
 40
1.570796326795
  9
$LOFTANG2
 40
1.570796326795
  9
$LOFTMAG1
 40
0.0
  9
$LOFTMAG2
 40
0.0
  9
$LOFTPARAM
 70
7
  9
$LOFTNORMALS
280
1
  9
$LATITUDE
 40
37.795
  9
$LONGITUDE
 40
-122.394
  9
$NORTHDIRECTION
 40
0.0
  9
$TIMEZONE
 70
-8000
  9
$LIGHTGLYPHDISPLAY
280
1
  9
$TILEMODELIGHTSYNCH
280
1
  9
$CMATERIAL
347
20
  9
$SOLIDHIST
280
0
  9
$SHOWHIST
280
1
  9
$DWFFRAME
280
2
  9
$DGNFRAME
280
2
  9
$REALWORLDSCALE
290
1
  9
$INTERFERECOLOR
 62
256
  9
$CSHADOW
280
0
  9
$SHADOWPLANELOCATION
 40
0.0
  0
ENDSEC
  0
SECTION
  2
CLASSES
  0
CLASS
  1
ACDBDICTIONARYWDFLT
  2
AcDbDictionaryWithDefault
  3
ObjectDBX Classes
 90
0
 91
0
280
0
281
0
  0
CLASS
  1
SUN
  2
AcDbSun
  3
SCENEOE
 90
1153
 91
0
280
0
281
0
  0
CLASS
  1
VISUALSTYLE
  2
AcDbVisualStyle
  3
ObjectDBX Classes
 90
4095
 91
0
280
0
281
0
  0
CLASS
  1
MATERIAL
  2
AcDbMaterial
  3
ObjectDBX Classes
 90
1153
 91
0
280
0
281
0
  0
CLASS
  1
SCALE
  2
AcDbScale
  3
ObjectDBX Classes
 90
1153
 91
0
280
0
281
0
  0
CLASS
  1
TABLESTYLE
  2
AcDbTableStyle
  3
ObjectDBX Classes
 90
4095
 91
0
280
0
281
0
  0
CLASS
  1
MLEADERSTYLE
  2
AcDbMLeaderStyle
  3
ACDB_MLEADERSTYLE_CLASS
 90
4095
 91
0
280
0
281
0
  0
CLASS
  1
DICTIONARYVAR
  2
AcDbDictionaryVar
  3
ObjectDBX Classes
 90
0
 91
0
280
0
281
0
  0
CLASS
  1
CELLSTYLEMAP
  2
AcDbCellStyleMap
  3
ObjectDBX Classes
 90
1152
 91
0
280
0
281
0
  0
CLASS
  1
MENTALRAYRENDERSETTINGS
  2
AcDbMentalRayRenderSettings
  3
SCENEOE
 90
1024
 91
0
280
0
281
0
  0
CLASS
  1
ACDBDETAILVIEWSTYLE
  2
AcDbDetailViewStyle
  3
ObjectDBX Classes
 90
1025
 91
0
280
0
281
0
  0
CLASS
  1
ACDBSECTIONVIEWSTYLE
  2
AcDbSectionViewStyle
  3
ObjectDBX Classes
 90
1025
 91
0
280
0
281
0
  0
CLASS
  1
RASTERVARIABLES
  2
AcDbRasterVariables
  3
ISM
 90
0
 91
0
280
0
281
0
  0
CLASS
  1
LAYOUT
  2
AcDbLayout
  3
ObjectDBX Classes
 90
0
 91
0
280
0
281
0
  0
CLASS
  1
ACDBPLACEHOLDER
  2
AcDbPlaceHolder
  3
ObjectDBX Classes
 90
0
 91
0
280
0
281
0
  0
ENDSEC
  0
SECTION
  2
TABLES
  0
TABLE
  2
VPORT
  5
8
330
0
100
AcDbSymbolTable
 70
1
  0
VPORT
  5
23
330
8
100
AcDbSymbolTableRecord
100
AcDbViewportTableRecord
  2
*Active
 70
0
 10
0.0
 20
0.0
 11
1.0
 21
1.0
 12
0.0
 22
0.0
 13
0.0
 23
0.0
 14
0.5
 24
0.5
 15
0.5
 25
0.5
 16
0.0
 26
0.0
 36
1.0
 17
0.0
 27
0.0
 37
0.0
 40
1000.0
 41
1.34
 42
50.0
 43
0.0
 44
0.0
 50
0.0
 51
0.0
 71
0
 72
1000
 73
1
 74
3
 75
0
 76
0
 77
0
 78
0
281
0
 65
0
146
0.0
  0
ENDTAB
  0
TABLE
  2
LTYPE
  5
2
330
0
100
AcDbSymbolTable
 70
4
  0
LTYPE
  5
24
330
2
100
AcDbSymbolTableRecord
100
AcDbLinetypeTableRecord
  2
ByBlock
 70
0
  3

 72
65
 73
0
 40
0.0
  0
LTYPE
  5
25
330
2
100
AcDbSymbolTableRecord
100
AcDbLinetypeTableRecord
  2
ByLayer
 70
0
  3

 72
65
 73
0
 40
0.0
  0
LTYPE
  5
26
330
2
100
AcDbSymbolTableRecord
100
AcDbLinetypeTableRecord
  2
Continuous
 70
0
  3

 72
65
 73
0
 40
0.0
  0
LTYPE
  5
2F
330
2
100
AcDbSymbolTableRecord
100
AcDbLinetypeTableRecord
  2
DASHED
 70
0
  3

 72
65
 73
0
 40
0.0
  0
ENDTAB
  0
TABLE
  2
LAYER
  5
1
330
0
100
AcDbSymbolTable
 70
10
  0
LAYER
  5
27
330
1
100
AcDbSymbolTableRecord
100
AcDbLayerTableRecord
  2
0
 70
0
 62
7
  6
Continuous
370
-3
390
13
347
21
  0
LAYER
  5
28
330
1
100
AcDbSymbolTableRecord
100
AcDbLayerTableRecord
  2
Defpoints
 70
0
 62
7
  6
Continuous
290
0
370
-3
390
13
347
21
  0
LAYER
  5
30
330
1
100
AcDbSymbolTableRecord
100
AcDbLayerTableRecord
  2
01_CUT_OUTLINE
 70
0
 62
7
  6
CONTINUOUS
370
35
390
13
347
21
  0
LAYER
  5
31
330
1
100
AcDbSymbolTableRecord
100
AcDbLayerTableRecord
  2
02_CUT_INNER
 70
0
 62
7
  6
CONTINUOUS
370
35
390
13
347
21
  0
LAYER
  5
32
330
1
100
AcDbSymbolTableRecord
100
AcDbLayerTableRecord
  2
03_DRILL_BORES
 70
0
 62
4
  6
CONTINUOUS
370
25
390
13
347
21
  0
LAYER
  5
33
330
1
100
AcDbSymbolTableRecord
100
AcDbLayerTableRecord
  2
04_MILL_SLOTS
 70
0
 62
3
  6
CONTINUOUS
370
25
390
13
347
21
  0
LAYER
  5
34
330
1
100
AcDbSymbolTableRecord
100
AcDbLayerTableRecord
  2
90_CENTER_MARKS
 70
0
 62
1
  6
CONTINUOUS
370
13
390
13
347
21
  0
LAYER
  5
35
330
1
100
AcDbSymbolTableRecord
100
AcDbLayerTableRecord
  2
95_DIMENSIONS
 70
0
 62
2
  6
CONTINUOUS
370
18
390
13
347
21
  0
LAYER
  5
36
330
1
100
AcDbSymbolTableRecord
100
AcDbLayerTableRecord
  2
98_TEXT
 70
0
 62
2
  6
CONTINUOUS
370
18
390
13
347
21
  0
LAYER
  5
37
330
1
100
AcDbSymbolTableRecord
100
AcDbLayerTableRecord
  2
99_REFERENCE
 70
0
 62
8
  6
DASHED
370
13
390
13
347
21
  0
ENDTAB
  0
TABLE
  2
STYLE
  5
5
330
0
100
AcDbSymbolTable
 70
1
  0
STYLE
  5
29
330
5
100
AcDbSymbolTableRecord
100
AcDbTextStyleTableRecord
  2
Standard
 70
0
 40
0.0
 41
1.0
 50
0.0
 71
0
 42
2.5
  3
txt
  4

  0
ENDTAB
  0
TABLE
  2
VIEW
  5
7
330
0
100
AcDbSymbolTable
 70
0
  0
ENDTAB
  0
TABLE
  2
UCS
  5
6
330
0
100
AcDbSymbolTable
 70
0
  0
ENDTAB
  0
TABLE
  2
APPID
  5
3
330
0
100
AcDbSymbolTable
 70
3
  0
APPID
  5
2A
330
3
100
AcDbSymbolTableRecord
100
AcDbRegAppTableRecord
  2
ACAD
 70
0
  0
APPID
  5
3C7
330
3
100
AcDbSymbolTableRecord
100
AcDbRegAppTableRecord
  2
HATCHBACKGROUNDCOLOR
 70
0
  0
APPID
  5
3C8
330
3
100
AcDbSymbolTableRecord
100
AcDbRegAppTableRecord
  2
EZDXF
 70
0
  0
ENDTAB
  0
TABLE
  2
DIMSTYLE
  5
4
330
0
100
AcDbSymbolTable
 70
1
100
AcDbDimStyleTable
  0
DIMSTYLE
105
2B
330
4
100
AcDbSymbolTableRecord
100
AcDbDimStyleTableRecord
  2
Standard
 70
0
 40
1.0
 41
2.5
 42
0.625
 43
3.75
 44
1.25
 45
0.0
 46
0.0
 47
0.0
 48
0.0
 49
2.5
140
2.5
141
2.5
142
0.0
143
0.03937007874
144
1.0
145
0.0
146
1.0
147
0.625
148
0.0
 69
0
 70
0
 71
0
 72
0
 73
0
 74
0
 75
0
 76
0
 77
1
 78
8
 79
3
170
0
171
3
172
1
173
0
174
0
175
0
176
0
177
0
178
0
179
2
271
2
272
2
273
2
274
3
275
0
276
0
277
2
278
44
279
0
280
0
281
0
282
0
283
0
284
8
285
0
286
0
288
0
289
3
290
0
371
-2
372
-2
  0
ENDTAB
  0
TABLE
  2
BLOCK_RECORD
  5
9
330
0
100
AcDbSymbolTable
 70
2
  0
BLOCK_RECORD
  5
17
330
9
100
AcDbSymbolTableRecord
100
AcDbBlockTableRecord
  2
*Model_Space
340
1A
 70
0
280
1
281
0
  0
BLOCK_RECORD
  5
1B
330
9
100
AcDbSymbolTableRecord
100
AcDbBlockTableRecord
  2
*Paper_Space
340
1E
 70
0
280
1
281
0
  0
ENDTAB
  0
ENDSEC
  0
SECTION
  2
BLOCKS
  0
BLOCK
  5
18
330
17
100
AcDbEntity
  8
0
100
AcDbBlockBegin
  2
*Model_Space
 70
0
 10
0.0
 20
0.0
 30
0.0
  3
*Model_Space
  1

  0
ENDBLK
  5
19
330
17
100
AcDbEntity
  8
0
100
AcDbBlockEnd
  0
BLOCK
  5
1C
330
1B
100
AcDbEntity
  8
0
100
AcDbBlockBegin
  2
*Paper_Space
 70
0
 10
0.0
 20
0.0
 30
0.0
  3
*Paper_Space
  1

  0
ENDBLK
  5
1D
330
1B
100
AcDbEntity
  8
0
100
AcDbBlockEnd
  0
ENDSEC
  0
SECTION
  2
ENTITIES
  0
LINE
  5
38
330
17
100
AcDbEntity
  8
01_CUT_OUTLINE
100
AcDbLine
 10
199.2939
 20
175.0169
 30
0.0
 11
200.4169
 21
88.9924
 31
0.0
  0
LINE
  5
39
330
17
100
AcDbEntity
  8
01_CUT_OUTLINE
100
AcDbLine
 10
178.5936
 20
175.0367
 30
0.0
 11
179.5452
 21
55.9964
 31
0.0
  0
LINE
  5
3A
330
17
100
AcDbEntity
  8
01_CUT_OUTLINE
100
AcDbLine
 10
122.9595
 20
417.0075
 30
0.0
 11
122.5246
 21
299.0018
 31
0.0
  0
LINE
  5
3B
330
17
100
AcDbEntity
  8
01_CUT_OUTLINE
100
AcDbLine
 10
141.1738
 20
284.9948
 30
0.0
 11
136.7543
 21
136.1558
 31
0.0
  0
LINE
  5
3C
330
17
100
AcDbEntity
  8
01_CUT_OUTLINE
100
AcDbLine
 10
100.0
 20
194.5
 30
0.0
 11
379.0
 21
194.5
 31
0.0
  0
LINE
  5
3D
330
17
100
AcDbEntity
  8
01_CUT_OUTLINE
100
AcDbLine
 10
159.002
 20
440.0
 30
0.0
 11
158.998
 21
275.0
 31
0.0
  0
LINE
  5
3E
330
17
100
AcDbEntity
  8
01_CUT_OUTLINE
100
AcDbLine
 10
256.0868
 20
208.9114
 30
0.0
 11
112.957
 21
222.5486
 31
0.0
  0
LINE
  5
3F
330
17
100
AcDbEntity
  8
01_CUT_OUTLINE
100
AcDbLine
 10
227.6951
 20
232.9442
 30
0.0
 11
172.9431
 21
238.4069
 31
0.0
  0
LINE
  5
40
330
17
100
AcDbEntity
  8
01_CUT_OUTLINE
100
AcDbLine
 10
175.7267
 20
282.9885
 30
0.0
 11
178.6253
 21
213.9004
 31
0.0
  0
LINE
  5
41
330
17
100
AcDbEntity
  8
01_CUT_OUTLINE
100
AcDbLine
 10
194.2926
 20
417.0172
 30
0.0
 11
195.8538
 21
299.998
 31
0.0
  0
LINE
  5
42
330
17
100
AcDbEntity
  8
01_CUT_OUTLINE
100
AcDbLine
 10
216.1172
 20
141.7368
 30
0.0
 11
143.9956
 21
135.0477
 31
0.0
  0
LINE
  5
43
330
17
100
AcDbEntity
  8
01_CUT_OUTLINE
100
AcDbLine
 10
256.0916
 20
179.3656
 30
0.0
 11
132.918
 21
172.4643
 31
0.0
  0
LINE
  5
44
330
17
100
AcDbEntity
  8
01_CUT_OUTLINE
100
AcDbLine
 10
204.0
 20
173.0
 30
0.0
 11
224.0
 21
182.0
 31
0.0
  0
LINE
  5
45
330
17
100
AcDbEntity
  8
01_CUT_OUTLINE
100
AcDbLine
 10
223.0108
 20
165.0163
 30
0.0
 11
173.9838
 21
164.4782
 31
0.0
  0
LINE
  5
46
330
17
100
AcDbEntity
  8
01_CUT_OUTLINE
100
AcDbLine
 10
106.0
 20
248.0
 30
0.0
 11
141.0
 21
202.0
 31
0.0
  0
LINE
  5
47
330
17
100
AcDbEntity
  8
01_CUT_OUTLINE
100
AcDbLine
 10
218.7505
 20
245.9853
 30
0.0
 11
218.1834
 21
139.983
 31
0.0
  0
LINE
  5
48
330
17
100
AcDbEntity
  8
01_CUT_OUTLINE
100
AcDbLine
 10
109.9863
 20
220.0
 30
0.0
 11
110.0155
 21
166.9995
 31
0.0
  0
LINE
  5
49
330
17
100
AcDbEntity
  8
01_CUT_OUTLINE
100
AcDbLine
 10
262.6768
 20
296.1904
 30
0.0
 11
214.0112
 21
213.5825
 31
0.0
  0
LINE
  5
4A
330
17
100
AcDbEntity
  8
01_CUT_OUTLINE
100
AcDbLine
 10
122.0
 20
301.0
 30
0.0
 11
173.0
 21
301.0
 31
0.0
  0
LINE
  5
4B
330
17
100
AcDbEntity
  8
01_CUT_OUTLINE
100
AcDbLine
 10
170.0
 20
136.0
 30
0.0
 11
193.0
 21
175.0
 31
0.0
  0
LINE
  5
4C
330
17
100
AcDbEntity
  8
01_CUT_OUTLINE
100
AcDbLine
 10
119.0
 20
207.0
 30
0.0
 11
135.0
 21
186.0
 31
0.0
  0
LINE
  5
4D
330
17
100
AcDbEntity
  8
01_CUT_OUTLINE
100
AcDbLine
 10
126.0
 20
166.0
 30
0.0
 11
156.0
 21
136.0
 31
0.0
  0
LINE
  5
4E
330
17
100
AcDbEntity
  8
01_CUT_OUTLINE
100
AcDbLine
 10
201.0
 20
248.0
 30
0.0
 11
204.0
 21
215.0
 31
0.0
  0
LINE
  5
4F
330
17
100
AcDbEntity
  8
01_CUT_OUTLINE
100
AcDbLine
 10
171.0
 20
136.0
 30
0.0
 11
196.0
 21
142.0
 31
0.0
  0
LINE
  5
50
330
17
100
AcDbEntity
  8
01_CUT_OUTLINE
100
AcDbLine
 10
228.0
 20
82.0
 30
0.0
 11
249.0
 21
89.0
 31
0.0
  0
LINE
  5
51
330
17
100
AcDbEntity
  8
01_CUT_OUTLINE
100
AcDbLine
 10
195.0169
 20
417.7524
 30
0.0
 11
126.004
 21
418.4178
 31
0.0
  0
LINE
  5
52
330
17
100
AcDbEntity
  8
01_CUT_OUTLINE
100
AcDbLine
 10
252.1547
 20
83.1942
 30
0.0
 11
200.8499
 21
89.8418
 31
0.0
  0
LINE
  5
53
330
17
100
AcDbEntity
  8
01_CUT_OUTLINE
100
AcDbLine
 10
205.1647
 20
164.6951
 30
0.0
 11
173.6387
 21
147.669
 31
0.0
  0
LINE
  5
54
330
17
100
AcDbEntity
  8
01_CUT_OUTLINE
100
AcDbLine
 10
251.0032
 20
383.6932
 30
0.0
 11
173.012
 21
382.8678
 31
0.0
  0
LINE
  5
55
330
17
100
AcDbEntity
  8
01_CUT_OUTLINE
100
AcDbLine
 10
150.5709
 20
174.2876
 30
0.0
 11
111.5115
 21
115.9974
 31
0.0
  0
LINE
  5
56
330
17
100
AcDbEntity
  8
01_CUT_OUTLINE
100
AcDbLine
 10
117.0
 20
165.0
 30
0.0
 11
148.0
 21
175.0
 31
0.0
  0
LINE
  5
57
330
17
100
AcDbEntity
  8
01_CUT_OUTLINE
100
AcDbLine
 10
233.298
 20
62.9495
 30
0.0
 11
181.0925
 21
55.3635
 31
0.0
  0
LINE
  5
58
330
17
100
AcDbEntity
  8
01_CUT_OUTLINE
100
AcDbLine
 10
254.0
 20
210.0
 30
0.0
 11
256.0
 21
183.0
 31
0.0
  0
LINE
  5
59
330
17
100
AcDbEntity
  8
01_CUT_OUTLINE
100
AcDbLine
 10
202.0
 20
89.0
 30
0.0
 11
232.0
 21
95.0
 31
0.0
  0
LINE
  5
5A
330
17
100
AcDbEntity
  8
01_CUT_OUTLINE
100
AcDbLine
 10
107.0
 20
109.0
 30
0.0
 11
144.0
 21
162.0
 31
0.0
  0
LINE
  5
5B
330
17
100
AcDbEntity
  8
01_CUT_OUTLINE
100
AcDbLine
 10
112.0
 20
167.0
 30
0.0
 11
144.0
 21
167.0
 31
0.0
  0
LINE
  5
5C
330
17
100
AcDbEntity
  8
01_CUT_OUTLINE
100
AcDbLine
 10
161.0
 20
300.0
 30
0.0
 11
194.0
 21
301.0
 31
0.0
  0
LINE
  5
5D
330
17
100
AcDbEntity
  8
01_CUT_OUTLINE
100
AcDbLine
 10
174.0
 20
273.0
 30
0.0
 11
186.0
 21
294.0
 31
0.0
  0
LINE
  5
5E
330
17
100
AcDbEntity
  8
01_CUT_OUTLINE
100
AcDbLine
 10
200.0
 20
65.0
 30
0.0
 11
241.0
 21
55.0
 31
0.0
  0
LINE
  5
5F
330
17
100
AcDbEntity
  8
01_CUT_OUTLINE
100
AcDbLine
 10
174.0
 20
221.0
 30
0.0
 11
223.0
 21
228.0
 31
0.0
  0
CIRCLE
  5
60
330
17
100
AcDbEntity
  8
03_DRILL_BORES
100
AcDbCircle
 10
211.8
 20
339.0
 30
0.0
 40
92.23999786376953
  0
CIRCLE
  5
61
330
17
100
AcDbEntity
  8
03_DRILL_BORES
100
AcDbCircle
 10
207.0
 20
281.4
 30
0.0
 40
104.23999786376953
  0
CIRCLE
  5
62
330
17
100
AcDbEntity
  8
03_DRILL_BORES
100
AcDbCircle
 10
126.6
 20
102.6
 30
0.0
 40
94.8800048828125
  0
CIRCLE
  5
63
330
17
100
AcDbEntity
  8
03_DRILL_BORES
100
AcDbCircle
 10
168.6
 20
102.6
 30
0.0
 40
95.0
  0
CIRCLE
  5
64
330
17
100
AcDbEntity
  8
03_DRILL_BORES
100
AcDbCircle
 10
179.4
 20
347.4
 30
0.0
 40
124.04000091552734
  0
CIRCLE
  5
65
330
17
100
AcDbEntity
  8
03_DRILL_BORES
100
AcDbCircle
 10
168.6
 20
197.4
 30
0.0
 40
61.8800048828125
  0
CIRCLE
  5
66
330
17
100
AcDbEntity
  8
03_DRILL_BORES
100
AcDbCircle
 10
255.0
 20
257.4
 30
0.0
 40
80.36000061035156
  0
CIRCLE
  5
67
330
17
100
AcDbEntity
  8
03_DRILL_BORES
100
AcDbCircle
 10
191.4
 20
313.8
 30
0.0
 40
71.24000549316406
  0
CIRCLE
  5
68
330
17
100
AcDbEntity
  8
03_DRILL_BORES
100
AcDbCircle
 10
243.0
 20
304.2
 30
0.0
 40
122.72000122070312
  0
CIRCLE
  5
69
330
17
100
AcDbEntity
  8
03_DRILL_BORES
100
AcDbCircle
 10
249.0
 20
121.8
 30
0.0
 40
72.44000244140625
  0
CIRCLE
  5
6A
330
17
100
AcDbEntity
  8
03_DRILL_BORES
100
AcDbCircle
 10
214.2
 20
113.4
 30
0.0
 40
105.56000518798828
  0
CIRCLE
  5
6B
330
17
100
AcDbEntity
  8
03_DRILL_BORES
100
AcDbCircle
 10
257.4
 20
168.6
 30
0.0
 40
84.31999969482422
  0
CIRCLE
  5
6C
330
17
100
AcDbEntity
  8
03_DRILL_BORES
100
AcDbCircle
 10
156.6
 20
75.0
 30
0.0
 40
64.63999938964844
  0
CIRCLE
  5
6D
330
17
100
AcDbEntity
  8
03_DRILL_BORES
100
AcDbCircle
 10
123.0
 20
367.8
 30
0.0
 40
73.52000427246094
  0
CIRCLE
  5
6E
330
17
100
AcDbEntity
  8
03_DRILL_BORES
100
AcDbCircle
 10
226.2
 20
144.6
 30
0.0
 40
54.08000564575195
  0
CIRCLE
  5
6F
330
17
100
AcDbEntity
  8
03_DRILL_BORES
100
AcDbCircle
 10
162.6
 20
231.0
 30
0.0
 40
57.92000198364258
  0
CIRCLE
  5
70
330
17
100
AcDbEntity
  8
03_DRILL_BORES
100
AcDbCircle
 10
154.2
 20
273.0
 30
0.0
 40
55.400001525878906
  0
CIRCLE
  5
71
330
17
100
AcDbEntity
  8
03_DRILL_BORES
100
AcDbCircle
 10
126.6
 20
333.0
 30
0.0
 40
69.91999816894531
  0
CIRCLE
  5
72
330
17
100
AcDbEntity
  8
03_DRILL_BORES
100
AcDbCircle
 10
229.8
 20
373.8
 30
0.0
 40
74.0
  0
CIRCLE
  5
73
330
17
100
AcDbEntity
  8
03_DRILL_BORES
100
AcDbCircle
 10
251.4
 20
84.6
 30
0.0
 40
73.8800048828125
  0
CIRCLE
  5
74
330
17
100
AcDbEntity
  8
03_DRILL_BORES
100
AcDbCircle
 10
247.8
 20
346.2
 30
0.0
 40
55.28000259399414
  0
CIRCLE
  5
75
330
17
100
AcDbEntity
  8
03_DRILL_BORES
100
AcDbCircle
 10
154.2
 20
130.2
 30
0.0
 40
43.28000259399414
  0
CIRCLE
  5
76
330
17
100
AcDbEntity
  8
03_DRILL_BORES
100
AcDbCircle
 10
119.4
 20
64.2
 30
0.0
 40
105.20000457763672
  0
CIRCLE
  5
77
330
17
100
AcDbEntity
  8
03_DRILL_BORES
100
AcDbCircle
 10
120.6
 20
249.0
 30
0.0
 40
55.400001525878906
  0
CIRCLE
  5
78
330
17
100
AcDbEntity
  8
03_DRILL_BORES
100
AcDbCircle
 10
120.6
 20
401.4
 30
0.0
 40
75.56000518798828
  0
CIRCLE
  5
79
330
17
100
AcDbEntity
  8
03_DRILL_BORES
100
AcDbCircle
 10
156.6
 20
323.4
 30
0.0
 40
39.92000198364258
  0
CIRCLE
  5
7A
330
17
100
AcDbEntity
  8
03_DRILL_BORES
100
AcDbCircle
 10
145.8
 20
177.0
 30
0.0
 40
38.2400016784668
  0
CIRCLE
  5
7B
330
17
100
AcDbEntity
  8
03_DRILL_BORES
100
AcDbCircle
 10
201.0
 20
183.0
 30
0.0
 40
31.400001525878906
  0
CIRCLE
  5
7C
330
17
100
AcDbEntity
  8
03_DRILL_BORES
100
AcDbCircle
 10
232.2
 20
217.8
 30
0.0
 40
39.20000076293945
  0
CIRCLE
  5
7D
330
17
100
AcDbEntity
  8
03_DRILL_BORES
100
AcDbCircle
 10
156.6
 20
381.0
 30
0.0
 40
36.92000198364258
  0
CIRCLE
  5
7E
330
17
100
AcDbEntity
  8
03_DRILL_BORES
100
AcDbCircle
 10
204.6
 20
84.6
 30
0.0
 40
28.040000915527344
  0
CIRCLE
  5
7F
330
17
100
AcDbEntity
  8
03_DRILL_BORES
100
AcDbCircle
 10
249.0
 20
401.4
 30
0.0
 40
53.2400016784668
  0
CIRCLE
  5
80
330
17
100
AcDbEntity
  8
03_DRILL_BORES
100
AcDbCircle
 10
123.0
 20
203.4
 30
0.0
 40
19.520000457763672
  0
CIRCLE
  5
81
330
17
100
AcDbEntity
  8
03_DRILL_BORES
100
AcDbCircle
 10
196.2
 20
216.6
 30
0.0
 40
23.600000381469727
  0
CIRCLE
  5
82
330
17
100
AcDbEntity
  8
03_DRILL_BORES
100
AcDbCircle
 10
183.0
 20
263.4
 30
0.0
 40
39.44000244140625
  0
CIRCLE
  5
83
330
17
100
AcDbEntity
  8
03_DRILL_BORES
100
AcDbCircle
 10
168.6
 20
156.6
 30
0.0
 40
20.96000099182129
  0
CIRCLE
  5
84
330
17
100
AcDbEntity
  8
03_DRILL_BORES
100
AcDbCircle
 10
180.6
 20
401.4
 30
0.0
 40
20.0
  0
CIRCLE
  5
85
330
17
100
AcDbEntity
  8
03_DRILL_BORES
100
AcDbCircle
 10
213.0
 20
251.4
 30
0.0
 40
19.520000457763672
  0
CIRCLE
  5
86
330
17
100
AcDbEntity
  8
03_DRILL_BORES
100
AcDbCircle
 10
192.6
 20
138.6
 30
0.0
 40
15.680000305175781
  0
CIRCLE
  5
87
330
17
100
AcDbEntity
  8
03_DRILL_BORES
100
AcDbCircle
 10
213.0
 20
401.4
 30
0.0
 40
20.1200008392334
  0
LWPOLYLINE
  5
88
330
17
100
AcDbEntity
  8
99_REFERENCE
100
AcDbPolyline
 90
4
 70
1
 10
108.0
 20
420.0
 10
258.0
 20
420.0
 10
258.0
 20
55.0
 10
108.0
 20
55.0
  0
LINE
  5
89
330
17
100
AcDbEntity
  8
01_CUT_OUTLINE
100
AcDbLine
 10
137.0
 20
420.0
 30
0.0
 11
136.0
 21
419.0
 31
0.0
  0
LINE
  5
8A
330
17
100
AcDbEntity
  8
01_CUT_OUTLINE
100
AcDbLine
 10
136.0
 20
419.0
 30
0.0
 11
135.0
 21
419.0
 31
0.0
  0
LINE
  5
8B
330
17
100
AcDbEntity
  8
01_CUT_OUTLINE
100
AcDbLine
 10
135.0
 20
419.0
 30
0.0
 11
134.0
 21
419.0
 31
0.0
  0
LINE
  5
8C
330
17
100
AcDbEntity
  8
01_CUT_OUTLINE
100
AcDbLine
 10
134.0
 20
419.0
 30
0.0
 11
133.0
 21
419.0
 31
0.0
  0
LINE
  5
8D
330
17
100
AcDbEntity
  8
01_CUT_OUTLINE
100
AcDbLine
 10
133.0
 20
419.0
 30
0.0
 11
132.0
 21
419.0
 31
0.0
  0
LINE
  5
8E
330
17
100
AcDbEntity
  8
01_CUT_OUTLINE
100
AcDbLine
 10
132.0
 20
419.0
 30
0.0
 11
131.0
 21
419.0
 31
0.0
  0
LINE
  5
8F
330
17
100
AcDbEntity
  8
01_CUT_OUTLINE
100
AcDbLine
 10
131.0
 20
419.0
 30
0.0
 11
130.0
 21
419.0
 31
0.0
  0
LINE
  5
90
330
17
100
AcDbEntity
  8
01_CUT_OUTLINE
100
AcDbLine
 10
130.0
 20
419.0
 30
0.0
 11
129.0
 21
418.0
 31
0.0
  0
LINE
  5
91
330
17
100
AcDbEntity
  8
01_CUT_OUTLINE
100
AcDbLine
 10
129.0
 20
418.0
 30
0.0
 11
128.0
 21
418.0
 31
0.0
  0
LINE
  5
92
330
17
100
AcDbEntity
  8
01_CUT_OUTLINE
100
AcDbLine
 10
128.0
 20
418.0
 30
0.0
 11
127.0
 21
418.0
 31
0.0
  0
LINE
  5
93
330
17
100
AcDbEntity
  8
01_CUT_OUTLINE
100
AcDbLine
 10
127.0
 20
418.0
 30
0.0
 11
126.0
 21
418.0
 31
0.0
  0
LINE
  5
94
330
17
100
AcDbEntity
  8
01_CUT_OUTLINE
100
AcDbLine
 10
126.0
 20
418.0
 30
0.0
 11
125.0
 21
417.0
 31
0.0
  0
ARC
  5
95
330
17
100
AcDbEntity
  8
01_CUT_OUTLINE
100
AcDbCircle
 10
133.7379
 20
406.698
 30
0.0
 40
13.25583076865919
100
AcDbArc
 50
31.20230678579405
 51
19.604948293362217
  0
LINE
  5
96
330
17
100
AcDbEntity
  8
01_CUT_OUTLINE
100
AcDbLine
 10
121.0
 20
387.0
 30
0.0
 11
121.0
 21
386.0
 31
0.0
  0
LINE
  5
97
330
17
100
AcDbEntity
  8
01_CUT_OUTLINE
100
AcDbLine
 10
121.0
 20
386.0
 30
0.0
 11
121.0
 21
385.0
 31
0.0
  0
LINE
  5
98
330
17
100
AcDbEntity
  8
01_CUT_OUTLINE
100
AcDbLine
 10
121.0
 20
385.0
 30
0.0
 11
121.0
 21
384.0
 31
0.0
  0
LINE
  5
99
330
17
100
AcDbEntity
  8
01_CUT_OUTLINE
100
AcDbLine
 10
121.0
 20
384.0
 30
0.0
 11
121.0
 21
383.0
 31
0.0
  0
LINE
  5
9A
330
17
100
AcDbEntity
  8
01_CUT_OUTLINE
100
AcDbLine
 10
121.0
 20
383.0
 30
0.0
 11
121.0
 21
382.0
 31
0.0
  0
LINE
  5
9B
330
17
100
AcDbEntity
  8
01_CUT_OUTLINE
100
AcDbLine
 10
121.0
 20
382.0
 30
0.0
 11
121.0
 21
381.0
 31
0.0
  0
LINE
  5
9C
330
17
100
AcDbEntity
  8
01_CUT_OUTLINE
100
AcDbLine
 10
121.0
 20
381.0
 30
0.0
 11
121.0
 21
380.0
 31
0.0
  0
LINE
  5
9D
330
17
100
AcDbEntity
  8
01_CUT_OUTLINE
100
AcDbLine
 10
121.0
 20
380.0
 30
0.0
 11
121.0
 21
379.0
 31
0.0
  0
LINE
  5
9E
330
17
100
AcDbEntity
  8
01_CUT_OUTLINE
100
AcDbLine
 10
121.0
 20
379.0
 30
0.0
 11
121.0
 21
378.0
 31
0.0
  0
LINE
  5
9F
330
17
100
AcDbEntity
  8
01_CUT_OUTLINE
100
AcDbLine
 10
121.0
 20
378.0
 30
0.0
 11
121.0
 21
377.0
 31
0.0
  0
LINE
  5
A0
330
17
100
AcDbEntity
  8
01_CUT_OUTLINE
100
AcDbLine
 10
121.0
 20
377.0
 30
0.0
 11
121.0
 21
376.0
 31
0.0
  0
LINE
  5
A1
330
17
100
AcDbEntity
  8
01_CUT_OUTLINE
100
AcDbLine
 10
121.0
 20
376.0
 30
0.0
 11
121.0
 21
375.0
 31
0.0
  0
LINE
  5
A2
330
17
100
AcDbEntity
  8
01_CUT_OUTLINE
100
AcDbLine
 10
121.0
 20
375.0
 30
0.0
 11
121.0
 21
374.0
 31
0.0
  0
LINE
  5
A3
330
17
100
AcDbEntity
  8
01_CUT_OUTLINE
100
AcDbLine
 10
121.0
 20
374.0
 30
0.0
 11
121.0
 21
373.0
 31
0.0
  0
LINE
  5
A4
330
17
100
AcDbEntity
  8
01_CUT_OUTLINE
100
AcDbLine
 10
121.0
 20
373.0
 30
0.0
 11
121.0
 21
372.0
 31
0.0
  0
LINE
  5
A5
330
17
100
AcDbEntity
  8
01_CUT_OUTLINE
100
AcDbLine
 10
121.0
 20
372.0
 30
0.0
 11
121.0
 21
371.0
 31
0.0
  0
LINE
  5
A6
330
17
100
AcDbEntity
  8
01_CUT_OUTLINE
100
AcDbLine
 10
121.0
 20
371.0
 30
0.0
 11
121.0
 21
370.0
 31
0.0
  0
LINE
  5
A7
330
17
100
AcDbEntity
  8
01_CUT_OUTLINE
100
AcDbLine
 10
121.0
 20
370.0
 30
0.0
 11
121.0
 21
369.0
 31
0.0
  0
LINE
  5
A8
330
17
100
AcDbEntity
  8
01_CUT_OUTLINE
100
AcDbLine
 10
121.0
 20
369.0
 30
0.0
 11
121.0
 21
368.0
 31
0.0
  0
LINE
  5
A9
330
17
100
AcDbEntity
  8
01_CUT_OUTLINE
100
AcDbLine
 10
121.0
 20
368.0
 30
0.0
 11
121.0
 21
367.0
 31
0.0
  0
LINE
  5
AA
330
17
100
AcDbEntity
  8
01_CUT_OUTLINE
100
AcDbLine
 10
121.0
 20
367.0
 30
0.0
 11
121.0
 21
366.0
 31
0.0
  0
LINE
  5
AB
330
17
100
AcDbEntity
  8
01_CUT_OUTLINE
100
AcDbLine
 10
121.0
 20
366.0
 30
0.0
 11
121.0
 21
365.0
 31
0.0
  0
LINE
  5
AC
330
17
100
AcDbEntity
  8
01_CUT_OUTLINE
100
AcDbLine
 10
121.0
 20
365.0
 30
0.0
 11
121.0
 21
364.0
 31
0.0
  0
LINE
  5
AD
330
17
100
AcDbEntity
  8
01_CUT_OUTLINE
100
AcDbLine
 10
121.0
 20
364.0
 30
0.0
 11
121.0
 21
363.0
 31
0.0
  0
LINE
  5
AE
330
17
100
AcDbEntity
  8
01_CUT_OUTLINE
100
AcDbLine
 10
121.0
 20
363.0
 30
0.0
 11
121.0
 21
362.0
 31
0.0
  0
LINE
  5
AF
330
17
100
AcDbEntity
  8
01_CUT_OUTLINE
100
AcDbLine
 10
121.0
 20
362.0
 30
0.0
 11
121.0
 21
361.0
 31
0.0
  0
LINE
  5
B0
330
17
100
AcDbEntity
  8
01_CUT_OUTLINE
100
AcDbLine
 10
121.0
 20
361.0
 30
0.0
 11
121.0
 21
360.0
 31
0.0
  0
LINE
  5
B1
330
17
100
AcDbEntity
  8
01_CUT_OUTLINE
100
AcDbLine
 10
121.0
 20
360.0
 30
0.0
 11
121.0
 21
359.0
 31
0.0
  0
LINE
  5
B2
330
17
100
AcDbEntity
  8
01_CUT_OUTLINE
100
AcDbLine
 10
121.0
 20
359.0
 30
0.0
 11
121.0
 21
358.0
 31
0.0
  0
LINE
  5
B3
330
17
100
AcDbEntity
  8
01_CUT_OUTLINE
100
AcDbLine
 10
121.0
 20
358.0
 30
0.0
 11
121.0
 21
357.0
 31
0.0
  0
LINE
  5
B4
330
17
100
AcDbEntity
  8
01_CUT_OUTLINE
100
AcDbLine
 10
121.0
 20
357.0
 30
0.0
 11
121.0
 21
356.0
 31
0.0
  0
LINE
  5
B5
330
17
100
AcDbEntity
  8
01_CUT_OUTLINE
100
AcDbLine
 10
121.0
 20
356.0
 30
0.0
 11
121.0
 21
355.0
 31
0.0
  0
LINE
  5
B6
330
17
100
AcDbEntity
  8
01_CUT_OUTLINE
100
AcDbLine
 10
121.0
 20
355.0
 30
0.0
 11
121.0
 21
354.0
 31
0.0
  0
LINE
  5
B7
330
17
100
AcDbEntity
  8
01_CUT_OUTLINE
100
AcDbLine
 10
121.0
 20
354.0
 30
0.0
 11
121.0
 21
353.0
 31
0.0
  0
LINE
  5
B8
330
17
100
AcDbEntity
  8
01_CUT_OUTLINE
100
AcDbLine
 10
121.0
 20
353.0
 30
0.0
 11
121.0
 21
352.0
 31
0.0
  0
LINE
  5
B9
330
17
100
AcDbEntity
  8
01_CUT_OUTLINE
100
AcDbLine
 10
121.0
 20
352.0
 30
0.0
 11
121.0
 21
351.0
 31
0.0
  0
LINE
  5
BA
330
17
100
AcDbEntity
  8
01_CUT_OUTLINE
100
AcDbLine
 10
121.0
 20
351.0
 30
0.0
 11
121.0
 21
350.0
 31
0.0
  0
LINE
  5
BB
330
17
100
AcDbEntity
  8
01_CUT_OUTLINE
100
AcDbLine
 10
121.0
 20
350.0
 30
0.0
 11
121.0
 21
349.0
 31
0.0
  0
LINE
  5
BC
330
17
100
AcDbEntity
  8
01_CUT_OUTLINE
100
AcDbLine
 10
121.0
 20
349.0
 30
0.0
 11
121.0
 21
348.0
 31
0.0
  0
LINE
  5
BD
330
17
100
AcDbEntity
  8
01_CUT_OUTLINE
100
AcDbLine
 10
121.0
 20
348.0
 30
0.0
 11
121.0
 21
347.0
 31
0.0
  0
LINE
  5
BE
330
17
100
AcDbEntity
  8
01_CUT_OUTLINE
100
AcDbLine
 10
121.0
 20
347.0
 30
0.0
 11
121.0
 21
346.0
 31
0.0
  0
LINE
  5
BF
330
17
100
AcDbEntity
  8
01_CUT_OUTLINE
100
AcDbLine
 10
121.0
 20
346.0
 30
0.0
 11
121.0
 21
345.0
 31
0.0
  0
LINE
  5
C0
330
17
100
AcDbEntity
  8
01_CUT_OUTLINE
100
AcDbLine
 10
121.0
 20
345.0
 30
0.0
 11
121.0
 21
344.0
 31
0.0
  0
LINE
  5
C1
330
17
100
AcDbEntity
  8
01_CUT_OUTLINE
100
AcDbLine
 10
121.0
 20
344.0
 30
0.0
 11
121.0
 21
343.0
 31
0.0
  0
LINE
  5
C2
330
17
100
AcDbEntity
  8
01_CUT_OUTLINE
100
AcDbLine
 10
121.0
 20
343.0
 30
0.0
 11
121.0
 21
342.0
 31
0.0
  0
LINE
  5
C3
330
17
100
AcDbEntity
  8
01_CUT_OUTLINE
100
AcDbLine
 10
121.0
 20
342.0
 30
0.0
 11
121.0
 21
341.0
 31
0.0
  0
LINE
  5
C4
330
17
100
AcDbEntity
  8
01_CUT_OUTLINE
100
AcDbLine
 10
121.0
 20
341.0
 30
0.0
 11
121.0
 21
340.0
 31
0.0
  0
LINE
  5
C5
330
17
100
AcDbEntity
  8
01_CUT_OUTLINE
100
AcDbLine
 10
121.0
 20
340.0
 30
0.0
 11
121.0
 21
339.0
 31
0.0
  0
LINE
  5
C6
330
17
100
AcDbEntity
  8
01_CUT_OUTLINE
100
AcDbLine
 10
121.0
 20
339.0
 30
0.0
 11
121.0
 21
338.0
 31
0.0
  0
LINE
  5
C7
330
17
100
AcDbEntity
  8
01_CUT_OUTLINE
100
AcDbLine
 10
121.0
 20
338.0
 30
0.0
 11
121.0
 21
337.0
 31
0.0
  0
LINE
  5
C8
330
17
100
AcDbEntity
  8
01_CUT_OUTLINE
100
AcDbLine
 10
121.0
 20
337.0
 30
0.0
 11
121.0
 21
336.0
 31
0.0
  0
LINE
  5
C9
330
17
100
AcDbEntity
  8
01_CUT_OUTLINE
100
AcDbLine
 10
121.0
 20
336.0
 30
0.0
 11
121.0
 21
335.0
 31
0.0
  0
LINE
  5
CA
330
17
100
AcDbEntity
  8
01_CUT_OUTLINE
100
AcDbLine
 10
121.0
 20
335.0
 30
0.0
 11
121.0
 21
334.0
 31
0.0
  0
LINE
  5
CB
330
17
100
AcDbEntity
  8
01_CUT_OUTLINE
100
AcDbLine
 10
121.0
 20
334.0
 30
0.0
 11
121.0
 21
333.0
 31
0.0
  0
LINE
  5
CC
330
17
100
AcDbEntity
  8
01_CUT_OUTLINE
100
AcDbLine
 10
121.0
 20
333.0
 30
0.0
 11
121.0
 21
332.0
 31
0.0
  0
LINE
  5
CD
330
17
100
AcDbEntity
  8
01_CUT_OUTLINE
100
AcDbLine
 10
121.0
 20
332.0
 30
0.0
 11
121.0
 21
331.0
 31
0.0
  0
LINE
  5
CE
330
17
100
AcDbEntity
  8
01_CUT_OUTLINE
100
AcDbLine
 10
121.0
 20
331.0
 30
0.0
 11
121.0
 21
330.0
 31
0.0
  0
LINE
  5
CF
330
17
100
AcDbEntity
  8
01_CUT_OUTLINE
100
AcDbLine
 10
121.0
 20
330.0
 30
0.0
 11
121.0
 21
329.0
 31
0.0
  0
LINE
  5
D0
330
17
100
AcDbEntity
  8
01_CUT_OUTLINE
100
AcDbLine
 10
121.0
 20
329.0
 30
0.0
 11
121.0
 21
328.0
 31
0.0
  0
LINE
  5
D1
330
17
100
AcDbEntity
  8
01_CUT_OUTLINE
100
AcDbLine
 10
121.0
 20
328.0
 30
0.0
 11
121.0
 21
327.0
 31
0.0
  0
LINE
  5
D2
330
17
100
AcDbEntity
  8
01_CUT_OUTLINE
100
AcDbLine
 10
121.0
 20
327.0
 30
0.0
 11
121.0
 21
326.0
 31
0.0
  0
LINE
  5
D3
330
17
100
AcDbEntity
  8
01_CUT_OUTLINE
100
AcDbLine
 10
121.0
 20
326.0
 30
0.0
 11
121.0
 21
325.0
 31
0.0
  0
LINE
  5
D4
330
17
100
AcDbEntity
  8
01_CUT_OUTLINE
100
AcDbLine
 10
121.0
 20
325.0
 30
0.0
 11
121.0
 21
324.0
 31
0.0
  0
LINE
  5
D5
330
17
100
AcDbEntity
  8
01_CUT_OUTLINE
100
AcDbLine
 10
121.0
 20
324.0
 30
0.0
 11
121.0
 21
323.0
 31
0.0
  0
LINE
  5
D6
330
17
100
AcDbEntity
  8
01_CUT_OUTLINE
100
AcDbLine
 10
121.0
 20
323.0
 30
0.0
 11
121.0
 21
322.0
 31
0.0
  0
LINE
  5
D7
330
17
100
AcDbEntity
  8
01_CUT_OUTLINE
100
AcDbLine
 10
121.0
 20
322.0
 30
0.0
 11
121.0
 21
321.0
 31
0.0
  0
LINE
  5
D8
330
17
100
AcDbEntity
  8
01_CUT_OUTLINE
100
AcDbLine
 10
121.0
 20
321.0
 30
0.0
 11
121.0
 21
320.0
 31
0.0
  0
LINE
  5
D9
330
17
100
AcDbEntity
  8
01_CUT_OUTLINE
100
AcDbLine
 10
121.0
 20
320.0
 30
0.0
 11
121.0
 21
319.0
 31
0.0
  0
LINE
  5
DA
330
17
100
AcDbEntity
  8
01_CUT_OUTLINE
100
AcDbLine
 10
121.0
 20
319.0
 30
0.0
 11
121.0
 21
318.0
 31
0.0
  0
LINE
  5
DB
330
17
100
AcDbEntity
  8
01_CUT_OUTLINE
100
AcDbLine
 10
121.0
 20
318.0
 30
0.0
 11
121.0
 21
317.0
 31
0.0
  0
LINE
  5
DC
330
17
100
AcDbEntity
  8
01_CUT_OUTLINE
100
AcDbLine
 10
121.0
 20
317.0
 30
0.0
 11
121.0
 21
316.0
 31
0.0
  0
LINE
  5
DD
330
17
100
AcDbEntity
  8
01_CUT_OUTLINE
100
AcDbLine
 10
121.0
 20
316.0
 30
0.0
 11
121.0
 21
315.0
 31
0.0
  0
LINE
  5
DE
330
17
100
AcDbEntity
  8
01_CUT_OUTLINE
100
AcDbLine
 10
121.0
 20
315.0
 30
0.0
 11
121.0
 21
314.0
 31
0.0
  0
LINE
  5
DF
330
17
100
AcDbEntity
  8
01_CUT_OUTLINE
100
AcDbLine
 10
121.0
 20
314.0
 30
0.0
 11
121.0
 21
313.0
 31
0.0
  0
LINE
  5
E0
330
17
100
AcDbEntity
  8
01_CUT_OUTLINE
100
AcDbLine
 10
121.0
 20
313.0
 30
0.0
 11
121.0
 21
312.0
 31
0.0
  0
LINE
  5
E1
330
17
100
AcDbEntity
  8
01_CUT_OUTLINE
100
AcDbLine
 10
121.0
 20
312.0
 30
0.0
 11
121.0
 21
311.0
 31
0.0
  0
LINE
  5
E2
330
17
100
AcDbEntity
  8
01_CUT_OUTLINE
100
AcDbLine
 10
121.0
 20
311.0
 30
0.0
 11
121.0
 21
310.0
 31
0.0
  0
LINE
  5
E3
330
17
100
AcDbEntity
  8
01_CUT_OUTLINE
100
AcDbLine
 10
121.0
 20
310.0
 30
0.0
 11
121.0
 21
309.0
 31
0.0
  0
LINE
  5
E4
330
17
100
AcDbEntity
  8
01_CUT_OUTLINE
100
AcDbLine
 10
121.0
 20
309.0
 30
0.0
 11
121.0
 21
308.0
 31
0.0
  0
LINE
  5
E5
330
17
100
AcDbEntity
  8
01_CUT_OUTLINE
100
AcDbLine
 10
121.0
 20
308.0
 30
0.0
 11
121.0
 21
307.0
 31
0.0
  0
LINE
  5
E6
330
17
100
AcDbEntity
  8
01_CUT_OUTLINE
100
AcDbLine
 10
121.0
 20
307.0
 30
0.0
 11
121.0
 21
306.0
 31
0.0
  0
LINE
  5
E7
330
17
100
AcDbEntity
  8
01_CUT_OUTLINE
100
AcDbLine
 10
121.0
 20
306.0
 30
0.0
 11
121.0
 21
305.0
 31
0.0
  0
LINE
  5
E8
330
17
100
AcDbEntity
  8
01_CUT_OUTLINE
100
AcDbLine
 10
121.0
 20
305.0
 30
0.0
 11
121.0
 21
304.0
 31
0.0
  0
LINE
  5
E9
330
17
100
AcDbEntity
  8
01_CUT_OUTLINE
100
AcDbLine
 10
121.0
 20
304.0
 30
0.0
 11
121.0
 21
303.0
 31
0.0
  0
LINE
  5
EA
330
17
100
AcDbEntity
  8
01_CUT_OUTLINE
100
AcDbLine
 10
121.0
 20
303.0
 30
0.0
 11
121.0
 21
302.0
 31
0.0
  0
LINE
  5
EB
330
17
100
AcDbEntity
  8
01_CUT_OUTLINE
100
AcDbLine
 10
121.0
 20
302.0
 30
0.0
 11
122.0
 21
301.0
 31
0.0
  0
LINE
  5
EC
330
17
100
AcDbEntity
  8
01_CUT_OUTLINE
100
AcDbLine
 10
122.0
 20
301.0
 30
0.0
 11
122.0
 21
300.0
 31
0.0
  0
LINE
  5
ED
330
17
100
AcDbEntity
  8
01_CUT_OUTLINE
100
AcDbLine
 10
122.0
 20
300.0
 30
0.0
 11
123.0
 21
299.0
 31
0.0
  0
LINE
  5
EE
330
17
100
AcDbEntity
  8
01_CUT_OUTLINE
100
AcDbLine
 10
123.0
 20
299.0
 30
0.0
 11
124.0
 21
299.0
 31
0.0
  0
LINE
  5
EF
330
17
100
AcDbEntity
  8
01_CUT_OUTLINE
100
AcDbLine
 10
124.0
 20
299.0
 30
0.0
 11
125.0
 21
298.0
 31
0.0
  0
LINE
  5
F0
330
17
100
AcDbEntity
  8
01_CUT_OUTLINE
100
AcDbLine
 10
125.0
 20
298.0
 30
0.0
 11
126.0
 21
297.0
 31
0.0
  0
LINE
  5
F1
330
17
100
AcDbEntity
  8
01_CUT_OUTLINE
100
AcDbLine
 10
126.0
 20
297.0
 30
0.0
 11
127.0
 21
297.0
 31
0.0
  0
LINE
  5
F2
330
17
100
AcDbEntity
  8
01_CUT_OUTLINE
100
AcDbLine
 10
127.0
 20
297.0
 30
0.0
 11
128.0
 21
296.0
 31
0.0
  0
LINE
  5
F3
330
17
100
AcDbEntity
  8
01_CUT_OUTLINE
100
AcDbLine
 10
128.0
 20
296.0
 30
0.0
 11
129.0
 21
295.0
 31
0.0
  0
LINE
  5
F4
330
17
100
AcDbEntity
  8
01_CUT_OUTLINE
100
AcDbLine
 10
129.0
 20
295.0
 30
0.0
 11
130.0
 21
295.0
 31
0.0
  0
LINE
  5
F5
330
17
100
AcDbEntity
  8
01_CUT_OUTLINE
100
AcDbLine
 10
130.0
 20
295.0
 30
0.0
 11
131.0
 21
294.0
 31
0.0
  0
LINE
  5
F6
330
17
100
AcDbEntity
  8
01_CUT_OUTLINE
100
AcDbLine
 10
131.0
 20
294.0
 30
0.0
 11
132.0
 21
293.0
 31
0.0
  0
LINE
  5
F7
330
17
100
AcDbEntity
  8
01_CUT_OUTLINE
100
AcDbLine
 10
132.0
 20
293.0
 30
0.0
 11
133.0
 21
292.0
 31
0.0
  0
LINE
  5
F8
330
17
100
AcDbEntity
  8
01_CUT_OUTLINE
100
AcDbLine
 10
133.0
 20
292.0
 30
0.0
 11
134.0
 21
291.0
 31
0.0
  0
LINE
  5
F9
330
17
100
AcDbEntity
  8
01_CUT_OUTLINE
100
AcDbLine
 10
134.0
 20
291.0
 30
0.0
 11
135.0
 21
290.0
 31
0.0
  0
LINE
  5
FA
330
17
100
AcDbEntity
  8
01_CUT_OUTLINE
100
AcDbLine
 10
135.0
 20
290.0
 30
0.0
 11
135.0
 21
289.0
 31
0.0
  0
LINE
  5
FB
330
17
100
AcDbEntity
  8
01_CUT_OUTLINE
100
AcDbLine
 10
135.0
 20
289.0
 30
0.0
 11
136.0
 21
288.0
 31
0.0
  0
LINE
  5
FC
330
17
100
AcDbEntity
  8
01_CUT_OUTLINE
100
AcDbLine
 10
136.0
 20
288.0
 30
0.0
 11
137.0
 21
287.0
 31
0.0
  0
LINE
  5
FD
330
17
100
AcDbEntity
  8
01_CUT_OUTLINE
100
AcDbLine
 10
137.0
 20
287.0
 30
0.0
 11
137.0
 21
286.0
 31
0.0
  0
LINE
  5
FE
330
17
100
AcDbEntity
  8
01_CUT_OUTLINE
100
AcDbLine
 10
137.0
 20
286.0
 30
0.0
 11
138.0
 21
285.0
 31
0.0
  0
LINE
  5
FF
330
17
100
AcDbEntity
  8
01_CUT_OUTLINE
100
AcDbLine
 10
138.0
 20
285.0
 30
0.0
 11
138.0
 21
284.0
 31
0.0
  0
LINE
  5
100
330
17
100
AcDbEntity
  8
01_CUT_OUTLINE
100
AcDbLine
 10
138.0
 20
284.0
 30
0.0
 11
139.0
 21
283.0
 31
0.0
  0
LINE
  5
101
330
17
100
AcDbEntity
  8
01_CUT_OUTLINE
100
AcDbLine
 10
139.0
 20
283.0
 30
0.0
 11
139.0
 21
282.0
 31
0.0
  0
LINE
  5
102
330
17
100
AcDbEntity
  8
01_CUT_OUTLINE
100
AcDbLine
 10
139.0
 20
282.0
 30
0.0
 11
140.0
 21
281.0
 31
0.0
  0
LINE
  5
103
330
17
100
AcDbEntity
  8
01_CUT_OUTLINE
100
AcDbLine
 10
140.0
 20
281.0
 30
0.0
 11
140.0
 21
280.0
 31
0.0
  0
LINE
  5
104
330
17
100
AcDbEntity
  8
01_CUT_OUTLINE
100
AcDbLine
 10
140.0
 20
280.0
 30
0.0
 11
140.0
 21
279.0
 31
0.0
  0
LINE
  5
105
330
17
100
AcDbEntity
  8
01_CUT_OUTLINE
100
AcDbLine
 10
140.0
 20
279.0
 30
0.0
 11
141.0
 21
278.0
 31
0.0
  0
LINE
  5
106
330
17
100
AcDbEntity
  8
01_CUT_OUTLINE
100
AcDbLine
 10
141.0
 20
278.0
 30
0.0
 11
141.0
 21
277.0
 31
0.0
  0
LINE
  5
107
330
17
100
AcDbEntity
  8
01_CUT_OUTLINE
100
AcDbLine
 10
141.0
 20
277.0
 30
0.0
 11
141.0
 21
276.0
 31
0.0
  0
LINE
  5
108
330
17
100
AcDbEntity
  8
01_CUT_OUTLINE
100
AcDbLine
 10
141.0
 20
276.0
 30
0.0
 11
141.0
 21
275.0
 31
0.0
  0
LINE
  5
109
330
17
100
AcDbEntity
  8
01_CUT_OUTLINE
100
AcDbLine
 10
141.0
 20
275.0
 30
0.0
 11
141.0
 21
274.0
 31
0.0
  0
LINE
  5
10A
330
17
100
AcDbEntity
  8
01_CUT_OUTLINE
100
AcDbLine
 10
141.0
 20
274.0
 30
0.0
 11
141.0
 21
273.0
 31
0.0
  0
LINE
  5
10B
330
17
100
AcDbEntity
  8
01_CUT_OUTLINE
100
AcDbLine
 10
141.0
 20
273.0
 30
0.0
 11
141.0
 21
272.0
 31
0.0
  0
LINE
  5
10C
330
17
100
AcDbEntity
  8
01_CUT_OUTLINE
100
AcDbLine
 10
141.0
 20
272.0
 30
0.0
 11
141.0
 21
271.0
 31
0.0
  0
LINE
  5
10D
330
17
100
AcDbEntity
  8
01_CUT_OUTLINE
100
AcDbLine
 10
141.0
 20
271.0
 30
0.0
 11
141.0
 21
270.0
 31
0.0
  0
LINE
  5
10E
330
17
100
AcDbEntity
  8
01_CUT_OUTLINE
100
AcDbLine
 10
141.0
 20
270.0
 30
0.0
 11
141.0
 21
269.0
 31
0.0
  0
LINE
  5
10F
330
17
100
AcDbEntity
  8
01_CUT_OUTLINE
100
AcDbLine
 10
141.0
 20
269.0
 30
0.0
 11
141.0
 21
268.0
 31
0.0
  0
LINE
  5
110
330
17
100
AcDbEntity
  8
01_CUT_OUTLINE
100
AcDbLine
 10
141.0
 20
268.0
 30
0.0
 11
141.0
 21
267.0
 31
0.0
  0
LINE
  5
111
330
17
100
AcDbEntity
  8
01_CUT_OUTLINE
100
AcDbLine
 10
141.0
 20
267.0
 30
0.0
 11
141.0
 21
266.0
 31
0.0
  0
LINE
  5
112
330
17
100
AcDbEntity
  8
01_CUT_OUTLINE
100
AcDbLine
 10
141.0
 20
266.0
 30
0.0
 11
141.0
 21
265.0
 31
0.0
  0
LINE
  5
113
330
17
100
AcDbEntity
  8
01_CUT_OUTLINE
100
AcDbLine
 10
141.0
 20
265.0
 30
0.0
 11
141.0
 21
264.0
 31
0.0
  0
LINE
  5
114
330
17
100
AcDbEntity
  8
01_CUT_OUTLINE
100
AcDbLine
 10
141.0
 20
264.0
 30
0.0
 11
141.0
 21
263.0
 31
0.0
  0
LINE
  5
115
330
17
100
AcDbEntity
  8
01_CUT_OUTLINE
100
AcDbLine
 10
141.0
 20
263.0
 30
0.0
 11
141.0
 21
262.0
 31
0.0
  0
LINE
  5
116
330
17
100
AcDbEntity
  8
01_CUT_OUTLINE
100
AcDbLine
 10
141.0
 20
262.0
 30
0.0
 11
141.0
 21
261.0
 31
0.0
  0
LINE
  5
117
330
17
100
AcDbEntity
  8
01_CUT_OUTLINE
100
AcDbLine
 10
141.0
 20
261.0
 30
0.0
 11
141.0
 21
260.0
 31
0.0
  0
LINE
  5
118
330
17
100
AcDbEntity
  8
01_CUT_OUTLINE
100
AcDbLine
 10
141.0
 20
260.0
 30
0.0
 11
141.0
 21
259.0
 31
0.0
  0
LINE
  5
119
330
17
100
AcDbEntity
  8
01_CUT_OUTLINE
100
AcDbLine
 10
141.0
 20
259.0
 30
0.0
 11
141.0
 21
258.0
 31
0.0
  0
LINE
  5
11A
330
17
100
AcDbEntity
  8
01_CUT_OUTLINE
100
AcDbLine
 10
141.0
 20
258.0
 30
0.0
 11
141.0
 21
257.0
 31
0.0
  0
LINE
  5
11B
330
17
100
AcDbEntity
  8
01_CUT_OUTLINE
100
AcDbLine
 10
141.0
 20
257.0
 30
0.0
 11
141.0
 21
256.0
 31
0.0
  0
LINE
  5
11C
330
17
100
AcDbEntity
  8
01_CUT_OUTLINE
100
AcDbLine
 10
141.0
 20
256.0
 30
0.0
 11
141.0
 21
255.0
 31
0.0
  0
LINE
  5
11D
330
17
100
AcDbEntity
  8
01_CUT_OUTLINE
100
AcDbLine
 10
141.0
 20
255.0
 30
0.0
 11
141.0
 21
254.0
 31
0.0
  0
LINE
  5
11E
330
17
100
AcDbEntity
  8
01_CUT_OUTLINE
100
AcDbLine
 10
141.0
 20
254.0
 30
0.0
 11
141.0
 21
253.0
 31
0.0
  0
LINE
  5
11F
330
17
100
AcDbEntity
  8
01_CUT_OUTLINE
100
AcDbLine
 10
141.0
 20
253.0
 30
0.0
 11
141.0
 21
252.0
 31
0.0
  0
LINE
  5
120
330
17
100
AcDbEntity
  8
01_CUT_OUTLINE
100
AcDbLine
 10
141.0
 20
252.0
 30
0.0
 11
141.0
 21
251.0
 31
0.0
  0
LINE
  5
121
330
17
100
AcDbEntity
  8
01_CUT_OUTLINE
100
AcDbLine
 10
141.0
 20
251.0
 30
0.0
 11
141.0
 21
250.0
 31
0.0
  0
LINE
  5
122
330
17
100
AcDbEntity
  8
01_CUT_OUTLINE
100
AcDbLine
 10
141.0
 20
250.0
 30
0.0
 11
141.0
 21
249.0
 31
0.0
  0
LINE
  5
123
330
17
100
AcDbEntity
  8
01_CUT_OUTLINE
100
AcDbLine
 10
141.0
 20
249.0
 30
0.0
 11
141.0
 21
248.0
 31
0.0
  0
LINE
  5
124
330
17
100
AcDbEntity
  8
01_CUT_OUTLINE
100
AcDbLine
 10
141.0
 20
248.0
 30
0.0
 11
141.0
 21
247.0
 31
0.0
  0
LINE
  5
125
330
17
100
AcDbEntity
  8
01_CUT_OUTLINE
100
AcDbLine
 10
141.0
 20
247.0
 30
0.0
 11
141.0
 21
246.0
 31
0.0
  0
LINE
  5
126
330
17
100
AcDbEntity
  8
01_CUT_OUTLINE
100
AcDbLine
 10
141.0
 20
246.0
 30
0.0
 11
141.0
 21
245.0
 31
0.0
  0
LINE
  5
127
330
17
100
AcDbEntity
  8
01_CUT_OUTLINE
100
AcDbLine
 10
141.0
 20
245.0
 30
0.0
 11
141.0
 21
244.0
 31
0.0
  0
LINE
  5
128
330
17
100
AcDbEntity
  8
01_CUT_OUTLINE
100
AcDbLine
 10
141.0
 20
244.0
 30
0.0
 11
141.0
 21
243.0
 31
0.0
  0
LINE
  5
129
330
17
100
AcDbEntity
  8
01_CUT_OUTLINE
100
AcDbLine
 10
141.0
 20
243.0
 30
0.0
 11
142.0
 21
242.0
 31
0.0
  0
LINE
  5
12A
330
17
100
AcDbEntity
  8
01_CUT_OUTLINE
100
AcDbLine
 10
142.0
 20
242.0
 30
0.0
 11
142.0
 21
241.0
 31
0.0
  0
LINE
  5
12B
330
17
100
AcDbEntity
  8
01_CUT_OUTLINE
100
AcDbLine
 10
142.0
 20
241.0
 30
0.0
 11
142.0
 21
240.0
 31
0.0
  0
LINE
  5
12C
330
17
100
AcDbEntity
  8
01_CUT_OUTLINE
100
AcDbLine
 10
142.0
 20
240.0
 30
0.0
 11
142.0
 21
239.0
 31
0.0
  0
LINE
  5
12D
330
17
100
AcDbEntity
  8
01_CUT_OUTLINE
100
AcDbLine
 10
142.0
 20
239.0
 30
0.0
 11
141.0
 21
238.0
 31
0.0
  0
LINE
  5
12E
330
17
100
AcDbEntity
  8
01_CUT_OUTLINE
100
AcDbLine
 10
141.0
 20
238.0
 30
0.0
 11
141.0
 21
237.0
 31
0.0
  0
LINE
  5
12F
330
17
100
AcDbEntity
  8
01_CUT_OUTLINE
100
AcDbLine
 10
141.0
 20
237.0
 30
0.0
 11
141.0
 21
236.0
 31
0.0
  0
LINE
  5
130
330
17
100
AcDbEntity
  8
01_CUT_OUTLINE
100
AcDbLine
 10
141.0
 20
236.0
 30
0.0
 11
141.0
 21
235.0
 31
0.0
  0
LINE
  5
131
330
17
100
AcDbEntity
  8
01_CUT_OUTLINE
100
AcDbLine
 10
141.0
 20
235.0
 30
0.0
 11
141.0
 21
234.0
 31
0.0
  0
LINE
  5
132
330
17
100
AcDbEntity
  8
01_CUT_OUTLINE
100
AcDbLine
 10
141.0
 20
234.0
 30
0.0
 11
141.0
 21
233.0
 31
0.0
  0
LINE
  5
133
330
17
100
AcDbEntity
  8
01_CUT_OUTLINE
100
AcDbLine
 10
141.0
 20
233.0
 30
0.0
 11
141.0
 21
232.0
 31
0.0
  0
LINE
  5
134
330
17
100
AcDbEntity
  8
01_CUT_OUTLINE
100
AcDbLine
 10
141.0
 20
232.0
 30
0.0
 11
141.0
 21
231.0
 31
0.0
  0
LINE
  5
135
330
17
100
AcDbEntity
  8
01_CUT_OUTLINE
100
AcDbLine
 10
141.0
 20
231.0
 30
0.0
 11
141.0
 21
230.0
 31
0.0
  0
LINE
  5
136
330
17
100
AcDbEntity
  8
01_CUT_OUTLINE
100
AcDbLine
 10
141.0
 20
230.0
 30
0.0
 11
141.0
 21
229.0
 31
0.0
  0
LINE
  5
137
330
17
100
AcDbEntity
  8
01_CUT_OUTLINE
100
AcDbLine
 10
141.0
 20
229.0
 30
0.0
 11
141.0
 21
228.0
 31
0.0
  0
LINE
  5
138
330
17
100
AcDbEntity
  8
01_CUT_OUTLINE
100
AcDbLine
 10
141.0
 20
228.0
 30
0.0
 11
141.0
 21
227.0
 31
0.0
  0
LINE
  5
139
330
17
100
AcDbEntity
  8
01_CUT_OUTLINE
100
AcDbLine
 10
141.0
 20
227.0
 30
0.0
 11
141.0
 21
226.0
 31
0.0
  0
LINE
  5
13A
330
17
100
AcDbEntity
  8
01_CUT_OUTLINE
100
AcDbLine
 10
141.0
 20
226.0
 30
0.0
 11
141.0
 21
225.0
 31
0.0
  0
LINE
  5
13B
330
17
100
AcDbEntity
  8
01_CUT_OUTLINE
100
AcDbLine
 10
141.0
 20
225.0
 30
0.0
 11
141.0
 21
224.0
 31
0.0
  0
LINE
  5
13C
330
17
100
AcDbEntity
  8
01_CUT_OUTLINE
100
AcDbLine
 10
141.0
 20
224.0
 30
0.0
 11
141.0
 21
223.0
 31
0.0
  0
LINE
  5
13D
330
17
100
AcDbEntity
  8
01_CUT_OUTLINE
100
AcDbLine
 10
141.0
 20
223.0
 30
0.0
 11
141.0
 21
222.0
 31
0.0
  0
LINE
  5
13E
330
17
100
AcDbEntity
  8
01_CUT_OUTLINE
100
AcDbLine
 10
141.0
 20
222.0
 30
0.0
 11
141.0
 21
221.0
 31
0.0
  0
LINE
  5
13F
330
17
100
AcDbEntity
  8
01_CUT_OUTLINE
100
AcDbLine
 10
141.0
 20
221.0
 30
0.0
 11
142.0
 21
220.0
 31
0.0
  0
LINE
  5
140
330
17
100
AcDbEntity
  8
01_CUT_OUTLINE
100
AcDbLine
 10
142.0
 20
220.0
 30
0.0
 11
142.0
 21
219.0
 31
0.0
  0
LINE
  5
141
330
17
100
AcDbEntity
  8
01_CUT_OUTLINE
100
AcDbLine
 10
142.0
 20
219.0
 30
0.0
 11
142.0
 21
218.0
 31
0.0
  0
LINE
  5
142
330
17
100
AcDbEntity
  8
01_CUT_OUTLINE
100
AcDbLine
 10
142.0
 20
218.0
 30
0.0
 11
142.0
 21
217.0
 31
0.0
  0
LINE
  5
143
330
17
100
AcDbEntity
  8
01_CUT_OUTLINE
100
AcDbLine
 10
142.0
 20
217.0
 30
0.0
 11
142.0
 21
216.0
 31
0.0
  0
LINE
  5
144
330
17
100
AcDbEntity
  8
01_CUT_OUTLINE
100
AcDbLine
 10
142.0
 20
216.0
 30
0.0
 11
141.0
 21
215.0
 31
0.0
  0
LINE
  5
145
330
17
100
AcDbEntity
  8
01_CUT_OUTLINE
100
AcDbLine
 10
141.0
 20
215.0
 30
0.0
 11
140.0
 21
214.0
 31
0.0
  0
LINE
  5
146
330
17
100
AcDbEntity
  8
01_CUT_OUTLINE
100
AcDbLine
 10
140.0
 20
214.0
 30
0.0
 11
139.0
 21
213.0
 31
0.0
  0
ARC
  5
147
330
17
100
AcDbEntity
  8
01_CUT_OUTLINE
100
AcDbCircle
 10
138.4235
 20
219.4802
 30
0.0
 40
5.163224801213768
100
AcDbArc
 50
22.35741359271421
 51
25.983279453882997
  0
LINE
  5
148
330
17
100
AcDbEntity
  8
01_CUT_OUTLINE
100
AcDbLine
 10
118.0
 20
223.0
 30
0.0
 11
117.0
 21
223.0
 31
0.0
  0
LINE
  5
149
330
17
100
AcDbEntity
  8
01_CUT_OUTLINE
100
AcDbLine
 10
117.0
 20
223.0
 30
0.0
 11
116.0
 21
223.0
 31
0.0
  0
LINE
  5
14A
330
17
100
AcDbEntity
  8
01_CUT_OUTLINE
100
AcDbLine
 10
116.0
 20
223.0
 30
0.0
 11
115.0
 21
223.0
 31
0.0
  0
LINE
  5
14B
330
17
100
AcDbEntity
  8
01_CUT_OUTLINE
100
AcDbLine
 10
115.0
 20
223.0
 30
0.0
 11
114.0
 21
223.0
 31
0.0
  0
LINE
  5
14C
330
17
100
AcDbEntity
  8
01_CUT_OUTLINE
100
AcDbLine
 10
114.0
 20
223.0
 30
0.0
 11
113.0
 21
223.0
 31
0.0
  0
LINE
  5
14D
330
17
100
AcDbEntity
  8
01_CUT_OUTLINE
100
AcDbLine
 10
113.0
 20
223.0
 30
0.0
 11
112.0
 21
222.0
 31
0.0
  0
ARC
  5
14E
330
17
100
AcDbEntity
  8
01_CUT_OUTLINE
100
AcDbCircle
 10
119.6565
 20
212.5979
 30
0.0
 40
11.347415192050194
100
AcDbArc
 50
31.476782487297807
 51
20.705759200468016
  0
LINE
  5
14F
330
17
100
AcDbEntity
  8
01_CUT_OUTLINE
100
AcDbLine
 10
109.0
 20
191.0
 30
0.0
 11
109.0
 21
190.0
 31
0.0
  0
LINE
  5
150
330
17
100
AcDbEntity
  8
01_CUT_OUTLINE
100
AcDbLine
 10
109.0
 20
190.0
 30
0.0
 11
109.0
 21
189.0
 31
0.0
  0
LINE
  5
151
330
17
100
AcDbEntity
  8
01_CUT_OUTLINE
100
AcDbLine
 10
109.0
 20
189.0
 30
0.0
 11
109.0
 21
188.0
 31
0.0
  0
LINE
  5
152
330
17
100
AcDbEntity
  8
01_CUT_OUTLINE
100
AcDbLine
 10
109.0
 20
188.0
 30
0.0
 11
109.0
 21
187.0
 31
0.0
  0
LINE
  5
153
330
17
100
AcDbEntity
  8
01_CUT_OUTLINE
100
AcDbLine
 10
109.0
 20
187.0
 30
0.0
 11
109.0
 21
186.0
 31
0.0
  0
LINE
  5
154
330
17
100
AcDbEntity
  8
01_CUT_OUTLINE
100
AcDbLine
 10
109.0
 20
186.0
 30
0.0
 11
109.0
 21
185.0
 31
0.0
  0
LINE
  5
155
330
17
100
AcDbEntity
  8
01_CUT_OUTLINE
100
AcDbLine
 10
109.0
 20
185.0
 30
0.0
 11
109.0
 21
184.0
 31
0.0
  0
LINE
  5
156
330
17
100
AcDbEntity
  8
01_CUT_OUTLINE
100
AcDbLine
 10
109.0
 20
184.0
 30
0.0
 11
109.0
 21
183.0
 31
0.0
  0
LINE
  5
157
330
17
100
AcDbEntity
  8
01_CUT_OUTLINE
100
AcDbLine
 10
109.0
 20
183.0
 30
0.0
 11
109.0
 21
182.0
 31
0.0
  0
LINE
  5
158
330
17
100
AcDbEntity
  8
01_CUT_OUTLINE
100
AcDbLine
 10
109.0
 20
182.0
 30
0.0
 11
109.0
 21
181.0
 31
0.0
  0
LINE
  5
159
330
17
100
AcDbEntity
  8
01_CUT_OUTLINE
100
AcDbLine
 10
109.0
 20
181.0
 30
0.0
 11
109.0
 21
180.0
 31
0.0
  0
LINE
  5
15A
330
17
100
AcDbEntity
  8
01_CUT_OUTLINE
100
AcDbLine
 10
109.0
 20
180.0
 30
0.0
 11
109.0
 21
179.0
 31
0.0
  0
LINE
  5
15B
330
17
100
AcDbEntity
  8
01_CUT_OUTLINE
100
AcDbLine
 10
109.0
 20
179.0
 30
0.0
 11
109.0
 21
178.0
 31
0.0
  0
LINE
  5
15C
330
17
100
AcDbEntity
  8
01_CUT_OUTLINE
100
AcDbLine
 10
109.0
 20
178.0
 30
0.0
 11
109.0
 21
177.0
 31
0.0
  0
LINE
  5
15D
330
17
100
AcDbEntity
  8
01_CUT_OUTLINE
100
AcDbLine
 10
109.0
 20
177.0
 30
0.0
 11
109.0
 21
176.0
 31
0.0
  0
LINE
  5
15E
330
17
100
AcDbEntity
  8
01_CUT_OUTLINE
100
AcDbLine
 10
109.0
 20
176.0
 30
0.0
 11
109.0
 21
175.0
 31
0.0
  0
LINE
  5
15F
330
17
100
AcDbEntity
  8
01_CUT_OUTLINE
100
AcDbLine
 10
109.0
 20
175.0
 30
0.0
 11
109.0
 21
174.0
 31
0.0
  0
LINE
  5
160
330
17
100
AcDbEntity
  8
01_CUT_OUTLINE
100
AcDbLine
 10
109.0
 20
174.0
 30
0.0
 11
109.0
 21
173.0
 31
0.0
  0
LINE
  5
161
330
17
100
AcDbEntity
  8
01_CUT_OUTLINE
100
AcDbLine
 10
109.0
 20
173.0
 30
0.0
 11
109.0
 21
172.0
 31
0.0
  0
LINE
  5
162
330
17
100
AcDbEntity
  8
01_CUT_OUTLINE
100
AcDbLine
 10
109.0
 20
172.0
 30
0.0
 11
109.0
 21
171.0
 31
0.0
  0
LINE
  5
163
330
17
100
AcDbEntity
  8
01_CUT_OUTLINE
100
AcDbLine
 10
109.0
 20
171.0
 30
0.0
 11
109.0
 21
170.0
 31
0.0
  0
LINE
  5
164
330
17
100
AcDbEntity
  8
01_CUT_OUTLINE
100
AcDbLine
 10
109.0
 20
170.0
 30
0.0
 11
110.0
 21
169.0
 31
0.0
  0
ARC
  5
165
330
17
100
AcDbEntity
  8
01_CUT_OUTLINE
100
AcDbCircle
 10
119.7053
 20
176.1477
 30
0.0
 40
11.713732290358037
100
AcDbArc
 50
30.12012643770903
 51
25.37536854340971
  0
LINE
  5
166
330
17
100
AcDbEntity
  8
01_CUT_OUTLINE
100
AcDbLine
 10
135.0
 20
170.0
 30
0.0
 11
135.0
 21
171.0
 31
0.0
  0
LINE
  5
167
330
17
100
AcDbEntity
  8
01_CUT_OUTLINE
100
AcDbLine
 10
135.0
 20
171.0
 30
0.0
 11
135.0
 21
172.0
 31
0.0
  0
LINE
  5
168
330
17
100
AcDbEntity
  8
01_CUT_OUTLINE
100
AcDbLine
 10
135.0
 20
172.0
 30
0.0
 11
135.0
 21
173.0
 31
0.0
  0
LINE
  5
169
330
17
100
AcDbEntity
  8
01_CUT_OUTLINE
100
AcDbLine
 10
135.0
 20
173.0
 30
0.0
 11
135.0
 21
174.0
 31
0.0
  0
LINE
  5
16A
330
17
100
AcDbEntity
  8
01_CUT_OUTLINE
100
AcDbLine
 10
135.0
 20
174.0
 30
0.0
 11
136.0
 21
175.0
 31
0.0
  0
LINE
  5
16B
330
17
100
AcDbEntity
  8
01_CUT_OUTLINE
100
AcDbLine
 10
136.0
 20
175.0
 30
0.0
 11
137.0
 21
176.0
 31
0.0
  0
ARC
  5
16C
330
17
100
AcDbEntity
  8
01_CUT_OUTLINE
100
AcDbCircle
 10
137.9204
 20
169.3799
 30
0.0
 40
5.095561207586644
100
AcDbArc
 50
28.527326266426883
 51
30.009173960305255
  0
LINE
  5
16D
330
17
100
AcDbEntity
  8
01_CUT_OUTLINE
100
AcDbLine
 10
142.0
 20
147.0
 30
0.0
 11
142.0
 21
146.0
 31
0.0
  0
LINE
  5
16E
330
17
100
AcDbEntity
  8
01_CUT_OUTLINE
100
AcDbLine
 10
142.0
 20
146.0
 30
0.0
 11
142.0
 21
145.0
 31
0.0
  0
LINE
  5
16F
330
17
100
AcDbEntity
  8
01_CUT_OUTLINE
100
AcDbLine
 10
142.0
 20
145.0
 30
0.0
 11
142.0
 21
144.0
 31
0.0
  0
LINE
  5
170
330
17
100
AcDbEntity
  8
01_CUT_OUTLINE
100
AcDbLine
 10
142.0
 20
144.0
 30
0.0
 11
142.0
 21
143.0
 31
0.0
  0
LINE
  5
171
330
17
100
AcDbEntity
  8
01_CUT_OUTLINE
100
AcDbLine
 10
142.0
 20
143.0
 30
0.0
 11
142.0
 21
142.0
 31
0.0
  0
LINE
  5
172
330
17
100
AcDbEntity
  8
01_CUT_OUTLINE
100
AcDbLine
 10
142.0
 20
142.0
 30
0.0
 11
142.0
 21
141.0
 31
0.0
  0
LINE
  5
173
330
17
100
AcDbEntity
  8
01_CUT_OUTLINE
100
AcDbLine
 10
142.0
 20
141.0
 30
0.0
 11
142.0
 21
140.0
 31
0.0
  0
LINE
  5
174
330
17
100
AcDbEntity
  8
01_CUT_OUTLINE
100
AcDbLine
 10
142.0
 20
140.0
 30
0.0
 11
142.0
 21
139.0
 31
0.0
  0
LINE
  5
175
330
17
100
AcDbEntity
  8
01_CUT_OUTLINE
100
AcDbLine
 10
142.0
 20
139.0
 30
0.0
 11
142.0
 21
138.0
 31
0.0
  0
ARC
  5
176
330
17
100
AcDbEntity
  8
01_CUT_OUTLINE
100
AcDbCircle
 10
150.3283
 20
145.0294
 30
0.0
 40
9.887981674020038
100
AcDbArc
 50
29.222993756448346
 51
25.008616254369503
  0
LINE
  5
177
330
17
100
AcDbEntity
  8
01_CUT_OUTLINE
100
AcDbLine
 10
171.0
 20
136.0
 30
0.0
 11
172.0
 21
136.0
 31
0.0
  0
LINE
  5
178
330
17
100
AcDbEntity
  8
01_CUT_OUTLINE
100
AcDbLine
 10
172.0
 20
136.0
 30
0.0
 11
173.0
 21
136.0
 31
0.0
  0
LINE
  5
179
330
17
100
AcDbEntity
  8
01_CUT_OUTLINE
100
AcDbLine
 10
173.0
 20
136.0
 30
0.0
 11
174.0
 21
136.0
 31
0.0
  0
LINE
  5
17A
330
17
100
AcDbEntity
  8
01_CUT_OUTLINE
100
AcDbLine
 10
174.0
 20
136.0
 30
0.0
 11
175.0
 21
136.0
 31
0.0
  0
LINE
  5
17B
330
17
100
AcDbEntity
  8
01_CUT_OUTLINE
100
AcDbLine
 10
175.0
 20
136.0
 30
0.0
 11
176.0
 21
137.0
 31
0.0
  0
ARC
  5
17C
330
17
100
AcDbEntity
  8
01_CUT_OUTLINE
100
AcDbCircle
 10
169.5556
 20
128.1308
 30
0.0
 40
9.434013212843793
100
AcDbArc
 50
24.88586115015656
 51
26.921562421456155
  0
LINE
  5
17D
330
17
100
AcDbEntity
  8
01_CUT_OUTLINE
100
AcDbLine
 10
178.0
 20
107.0
 30
0.0
 11
178.0
 21
106.0
 31
0.0
  0
LINE
  5
17E
330
17
100
AcDbEntity
  8
01_CUT_OUTLINE
100
AcDbLine
 10
178.0
 20
106.0
 30
0.0
 11
178.0
 21
105.0
 31
0.0
  0
LINE
  5
17F
330
17
100
AcDbEntity
  8
01_CUT_OUTLINE
100
AcDbLine
 10
178.0
 20
105.0
 30
0.0
 11
178.0
 21
104.0
 31
0.0
  0
LINE
  5
180
330
17
100
AcDbEntity
  8
01_CUT_OUTLINE
100
AcDbLine
 10
178.0
 20
104.0
 30
0.0
 11
178.0
 21
103.0
 31
0.0
  0
LINE
  5
181
330
17
100
AcDbEntity
  8
01_CUT_OUTLINE
100
AcDbLine
 10
178.0
 20
103.0
 30
0.0
 11
178.0
 21
102.0
 31
0.0
  0
LINE
  5
182
330
17
100
AcDbEntity
  8
01_CUT_OUTLINE
100
AcDbLine
 10
178.0
 20
102.0
 30
0.0
 11
178.0
 21
101.0
 31
0.0
  0
LINE
  5
183
330
17
100
AcDbEntity
  8
01_CUT_OUTLINE
100
AcDbLine
 10
178.0
 20
101.0
 30
0.0
 11
178.0
 21
100.0
 31
0.0
  0
LINE
  5
184
330
17
100
AcDbEntity
  8
01_CUT_OUTLINE
100
AcDbLine
 10
178.0
 20
100.0
 30
0.0
 11
178.0
 21
99.0
 31
0.0
  0
LINE
  5
185
330
17
100
AcDbEntity
  8
01_CUT_OUTLINE
100
AcDbLine
 10
178.0
 20
99.0
 30
0.0
 11
178.0
 21
98.0
 31
0.0
  0
LINE
  5
186
330
17
100
AcDbEntity
  8
01_CUT_OUTLINE
100
AcDbLine
 10
178.0
 20
98.0
 30
0.0
 11
178.0
 21
97.0
 31
0.0
  0
LINE
  5
187
330
17
100
AcDbEntity
  8
01_CUT_OUTLINE
100
AcDbLine
 10
178.0
 20
97.0
 30
0.0
 11
178.0
 21
96.0
 31
0.0
  0
LINE
  5
188
330
17
100
AcDbEntity
  8
01_CUT_OUTLINE
100
AcDbLine
 10
178.0
 20
96.0
 30
0.0
 11
178.0
 21
95.0
 31
0.0
  0
LINE
  5
189
330
17
100
AcDbEntity
  8
01_CUT_OUTLINE
100
AcDbLine
 10
178.0
 20
95.0
 30
0.0
 11
178.0
 21
94.0
 31
0.0
  0
LINE
  5
18A
330
17
100
AcDbEntity
  8
01_CUT_OUTLINE
100
AcDbLine
 10
178.0
 20
94.0
 30
0.0
 11
178.0
 21
93.0
 31
0.0
  0
LINE
  5
18B
330
17
100
AcDbEntity
  8
01_CUT_OUTLINE
100
AcDbLine
 10
178.0
 20
93.0
 30
0.0
 11
178.0
 21
92.0
 31
0.0
  0
LINE
  5
18C
330
17
100
AcDbEntity
  8
01_CUT_OUTLINE
100
AcDbLine
 10
178.0
 20
92.0
 30
0.0
 11
178.0
 21
91.0
 31
0.0
  0
LINE
  5
18D
330
17
100
AcDbEntity
  8
01_CUT_OUTLINE
100
AcDbLine
 10
178.0
 20
91.0
 30
0.0
 11
178.0
 21
90.0
 31
0.0
  0
LINE
  5
18E
330
17
100
AcDbEntity
  8
01_CUT_OUTLINE
100
AcDbLine
 10
178.0
 20
90.0
 30
0.0
 11
178.0
 21
89.0
 31
0.0
  0
LINE
  5
18F
330
17
100
AcDbEntity
  8
01_CUT_OUTLINE
100
AcDbLine
 10
178.0
 20
89.0
 30
0.0
 11
178.0
 21
88.0
 31
0.0
  0
LINE
  5
190
330
17
100
AcDbEntity
  8
01_CUT_OUTLINE
100
AcDbLine
 10
178.0
 20
88.0
 30
0.0
 11
178.0
 21
87.0
 31
0.0
  0
LINE
  5
191
330
17
100
AcDbEntity
  8
01_CUT_OUTLINE
100
AcDbLine
 10
178.0
 20
87.0
 30
0.0
 11
178.0
 21
86.0
 31
0.0
  0
LINE
  5
192
330
17
100
AcDbEntity
  8
01_CUT_OUTLINE
100
AcDbLine
 10
178.0
 20
86.0
 30
0.0
 11
178.0
 21
85.0
 31
0.0
  0
LINE
  5
193
330
17
100
AcDbEntity
  8
01_CUT_OUTLINE
100
AcDbLine
 10
178.0
 20
85.0
 30
0.0
 11
178.0
 21
84.0
 31
0.0
  0
LINE
  5
194
330
17
100
AcDbEntity
  8
01_CUT_OUTLINE
100
AcDbLine
 10
178.0
 20
84.0
 30
0.0
 11
178.0
 21
83.0
 31
0.0
  0
LINE
  5
195
330
17
100
AcDbEntity
  8
01_CUT_OUTLINE
100
AcDbLine
 10
178.0
 20
83.0
 30
0.0
 11
178.0
 21
82.0
 31
0.0
  0
LINE
  5
196
330
17
100
AcDbEntity
  8
01_CUT_OUTLINE
100
AcDbLine
 10
178.0
 20
82.0
 30
0.0
 11
178.0
 21
81.0
 31
0.0
  0
LINE
  5
197
330
17
100
AcDbEntity
  8
01_CUT_OUTLINE
100
AcDbLine
 10
178.0
 20
81.0
 30
0.0
 11
178.0
 21
80.0
 31
0.0
  0
LINE
  5
198
330
17
100
AcDbEntity
  8
01_CUT_OUTLINE
100
AcDbLine
 10
178.0
 20
80.0
 30
0.0
 11
178.0
 21
79.0
 31
0.0
  0
LINE
  5
199
330
17
100
AcDbEntity
  8
01_CUT_OUTLINE
100
AcDbLine
 10
178.0
 20
79.0
 30
0.0
 11
178.0
 21
78.0
 31
0.0
  0
LINE
  5
19A
330
17
100
AcDbEntity
  8
01_CUT_OUTLINE
100
AcDbLine
 10
178.0
 20
78.0
 30
0.0
 11
178.0
 21
77.0
 31
0.0
  0
LINE
  5
19B
330
17
100
AcDbEntity
  8
01_CUT_OUTLINE
100
AcDbLine
 10
178.0
 20
77.0
 30
0.0
 11
178.0
 21
76.0
 31
0.0
  0
LINE
  5
19C
330
17
100
AcDbEntity
  8
01_CUT_OUTLINE
100
AcDbLine
 10
178.0
 20
76.0
 30
0.0
 11
178.0
 21
75.0
 31
0.0
  0
LINE
  5
19D
330
17
100
AcDbEntity
  8
01_CUT_OUTLINE
100
AcDbLine
 10
178.0
 20
75.0
 30
0.0
 11
178.0
 21
74.0
 31
0.0
  0
LINE
  5
19E
330
17
100
AcDbEntity
  8
01_CUT_OUTLINE
100
AcDbLine
 10
178.0
 20
74.0
 30
0.0
 11
178.0
 21
73.0
 31
0.0
  0
LINE
  5
19F
330
17
100
AcDbEntity
  8
01_CUT_OUTLINE
100
AcDbLine
 10
178.0
 20
73.0
 30
0.0
 11
178.0
 21
72.0
 31
0.0
  0
LINE
  5
1A0
330
17
100
AcDbEntity
  8
01_CUT_OUTLINE
100
AcDbLine
 10
178.0
 20
72.0
 30
0.0
 11
178.0
 21
71.0
 31
0.0
  0
LINE
  5
1A1
330
17
100
AcDbEntity
  8
01_CUT_OUTLINE
100
AcDbLine
 10
178.0
 20
71.0
 30
0.0
 11
178.0
 21
70.0
 31
0.0
  0
LINE
  5
1A2
330
17
100
AcDbEntity
  8
01_CUT_OUTLINE
100
AcDbLine
 10
178.0
 20
70.0
 30
0.0
 11
178.0
 21
69.0
 31
0.0
  0
LINE
  5
1A3
330
17
100
AcDbEntity
  8
01_CUT_OUTLINE
100
AcDbLine
 10
178.0
 20
69.0
 30
0.0
 11
178.0
 21
68.0
 31
0.0
  0
LINE
  5
1A4
330
17
100
AcDbEntity
  8
01_CUT_OUTLINE
100
AcDbLine
 10
178.0
 20
68.0
 30
0.0
 11
178.0
 21
67.0
 31
0.0
  0
LINE
  5
1A5
330
17
100
AcDbEntity
  8
01_CUT_OUTLINE
100
AcDbLine
 10
178.0
 20
67.0
 30
0.0
 11
178.0
 21
66.0
 31
0.0
  0
LINE
  5
1A6
330
17
100
AcDbEntity
  8
01_CUT_OUTLINE
100
AcDbLine
 10
178.0
 20
66.0
 30
0.0
 11
178.0
 21
65.0
 31
0.0
  0
LINE
  5
1A7
330
17
100
AcDbEntity
  8
01_CUT_OUTLINE
100
AcDbLine
 10
178.0
 20
65.0
 30
0.0
 11
178.0
 21
64.0
 31
0.0
  0
LINE
  5
1A8
330
17
100
AcDbEntity
  8
01_CUT_OUTLINE
100
AcDbLine
 10
178.0
 20
64.0
 30
0.0
 11
178.0
 21
63.0
 31
0.0
  0
LINE
  5
1A9
330
17
100
AcDbEntity
  8
01_CUT_OUTLINE
100
AcDbLine
 10
178.0
 20
63.0
 30
0.0
 11
178.0
 21
62.0
 31
0.0
  0
LINE
  5
1AA
330
17
100
AcDbEntity
  8
01_CUT_OUTLINE
100
AcDbLine
 10
178.0
 20
62.0
 30
0.0
 11
178.0
 21
61.0
 31
0.0
  0
LINE
  5
1AB
330
17
100
AcDbEntity
  8
01_CUT_OUTLINE
100
AcDbLine
 10
178.0
 20
61.0
 30
0.0
 11
178.0
 21
60.0
 31
0.0
  0
LINE
  5
1AC
330
17
100
AcDbEntity
  8
01_CUT_OUTLINE
100
AcDbLine
 10
178.0
 20
60.0
 30
0.0
 11
178.0
 21
59.0
 31
0.0
  0
ARC
  5
1AD
330
17
100
AcDbEntity
  8
01_CUT_OUTLINE
100
AcDbCircle
 10
187.2583
 20
65.7807
 30
0.0
 40
10.52062198867734
100
AcDbArc
 50
29.49788470798355
 51
24.874366864846113
  0
LINE
  5
1AE
330
17
100
AcDbEntity
  8
01_CUT_OUTLINE
100
AcDbLine
 10
185.0
 20
58.0
 30
0.0
 11
184.0
 21
58.0
 31
0.0
  0
ARC
  5
1AF
330
17
100
AcDbEntity
  8
01_CUT_OUTLINE
100
AcDbCircle
 10
189.2569
 20
66.9515
 30
0.0
 40
9.948664130606588
100
AcDbArc
 50
26.83363032025619
 51
29.94632015646885
  0
LINE
  5
1B0
330
17
100
AcDbEntity
  8
01_CUT_OUTLINE
100
AcDbLine
 10
180.0
 20
87.0
 30
0.0
 11
180.0
 21
88.0
 31
0.0
  0
LINE
  5
1B1
330
17
100
AcDbEntity
  8
01_CUT_OUTLINE
100
AcDbLine
 10
180.0
 20
88.0
 30
0.0
 11
180.0
 21
89.0
 31
0.0
  0
LINE
  5
1B2
330
17
100
AcDbEntity
  8
01_CUT_OUTLINE
100
AcDbLine
 10
180.0
 20
89.0
 30
0.0
 11
180.0
 21
90.0
 31
0.0
  0
LINE
  5
1B3
330
17
100
AcDbEntity
  8
01_CUT_OUTLINE
100
AcDbLine
 10
180.0
 20
90.0
 30
0.0
 11
180.0
 21
91.0
 31
0.0
  0
LINE
  5
1B4
330
17
100
AcDbEntity
  8
01_CUT_OUTLINE
100
AcDbLine
 10
180.0
 20
91.0
 30
0.0
 11
180.0
 21
92.0
 31
0.0
  0
LINE
  5
1B5
330
17
100
AcDbEntity
  8
01_CUT_OUTLINE
100
AcDbLine
 10
180.0
 20
92.0
 30
0.0
 11
180.0
 21
93.0
 31
0.0
  0
LINE
  5
1B6
330
17
100
AcDbEntity
  8
01_CUT_OUTLINE
100
AcDbLine
 10
180.0
 20
93.0
 30
0.0
 11
180.0
 21
94.0
 31
0.0
  0
LINE
  5
1B7
330
17
100
AcDbEntity
  8
01_CUT_OUTLINE
100
AcDbLine
 10
180.0
 20
94.0
 30
0.0
 11
180.0
 21
95.0
 31
0.0
  0
LINE
  5
1B8
330
17
100
AcDbEntity
  8
01_CUT_OUTLINE
100
AcDbLine
 10
180.0
 20
95.0
 30
0.0
 11
180.0
 21
96.0
 31
0.0
  0
LINE
  5
1B9
330
17
100
AcDbEntity
  8
01_CUT_OUTLINE
100
AcDbLine
 10
180.0
 20
96.0
 30
0.0
 11
180.0
 21
97.0
 31
0.0
  0
LINE
  5
1BA
330
17
100
AcDbEntity
  8
01_CUT_OUTLINE
100
AcDbLine
 10
180.0
 20
97.0
 30
0.0
 11
180.0
 21
98.0
 31
0.0
  0
LINE
  5
1BB
330
17
100
AcDbEntity
  8
01_CUT_OUTLINE
100
AcDbLine
 10
180.0
 20
98.0
 30
0.0
 11
180.0
 21
99.0
 31
0.0
  0
LINE
  5
1BC
330
17
100
AcDbEntity
  8
01_CUT_OUTLINE
100
AcDbLine
 10
180.0
 20
99.0
 30
0.0
 11
180.0
 21
100.0
 31
0.0
  0
LINE
  5
1BD
330
17
100
AcDbEntity
  8
01_CUT_OUTLINE
100
AcDbLine
 10
180.0
 20
100.0
 30
0.0
 11
180.0
 21
101.0
 31
0.0
  0
LINE
  5
1BE
330
17
100
AcDbEntity
  8
01_CUT_OUTLINE
100
AcDbLine
 10
180.0
 20
101.0
 30
0.0
 11
180.0
 21
102.0
 31
0.0
  0
LINE
  5
1BF
330
17
100
AcDbEntity
  8
01_CUT_OUTLINE
100
AcDbLine
 10
180.0
 20
102.0
 30
0.0
 11
180.0
 21
103.0
 31
0.0
  0
LINE
  5
1C0
330
17
100
AcDbEntity
  8
01_CUT_OUTLINE
100
AcDbLine
 10
180.0
 20
103.0
 30
0.0
 11
180.0
 21
104.0
 31
0.0
  0
LINE
  5
1C1
330
17
100
AcDbEntity
  8
01_CUT_OUTLINE
100
AcDbLine
 10
180.0
 20
104.0
 30
0.0
 11
180.0
 21
105.0
 31
0.0
  0
LINE
  5
1C2
330
17
100
AcDbEntity
  8
01_CUT_OUTLINE
100
AcDbLine
 10
180.0
 20
105.0
 30
0.0
 11
180.0
 21
106.0
 31
0.0
  0
LINE
  5
1C3
330
17
100
AcDbEntity
  8
01_CUT_OUTLINE
100
AcDbLine
 10
180.0
 20
106.0
 30
0.0
 11
180.0
 21
107.0
 31
0.0
  0
LINE
  5
1C4
330
17
100
AcDbEntity
  8
01_CUT_OUTLINE
100
AcDbLine
 10
180.0
 20
107.0
 30
0.0
 11
180.0
 21
108.0
 31
0.0
  0
LINE
  5
1C5
330
17
100
AcDbEntity
  8
01_CUT_OUTLINE
100
AcDbLine
 10
180.0
 20
108.0
 30
0.0
 11
180.0
 21
109.0
 31
0.0
  0
LINE
  5
1C6
330
17
100
AcDbEntity
  8
01_CUT_OUTLINE
100
AcDbLine
 10
180.0
 20
109.0
 30
0.0
 11
180.0
 21
110.0
 31
0.0
  0
LINE
  5
1C7
330
17
100
AcDbEntity
  8
01_CUT_OUTLINE
100
AcDbLine
 10
180.0
 20
110.0
 30
0.0
 11
180.0
 21
111.0
 31
0.0
  0
LINE
  5
1C8
330
17
100
AcDbEntity
  8
01_CUT_OUTLINE
100
AcDbLine
 10
180.0
 20
111.0
 30
0.0
 11
180.0
 21
112.0
 31
0.0
  0
LINE
  5
1C9
330
17
100
AcDbEntity
  8
01_CUT_OUTLINE
100
AcDbLine
 10
180.0
 20
112.0
 30
0.0
 11
180.0
 21
113.0
 31
0.0
  0
LINE
  5
1CA
330
17
100
AcDbEntity
  8
01_CUT_OUTLINE
100
AcDbLine
 10
180.0
 20
113.0
 30
0.0
 11
180.0
 21
114.0
 31
0.0
  0
LINE
  5
1CB
330
17
100
AcDbEntity
  8
01_CUT_OUTLINE
100
AcDbLine
 10
180.0
 20
114.0
 30
0.0
 11
180.0
 21
115.0
 31
0.0
  0
LINE
  5
1CC
330
17
100
AcDbEntity
  8
01_CUT_OUTLINE
100
AcDbLine
 10
180.0
 20
115.0
 30
0.0
 11
180.0
 21
116.0
 31
0.0
  0
LINE
  5
1CD
330
17
100
AcDbEntity
  8
01_CUT_OUTLINE
100
AcDbLine
 10
180.0
 20
116.0
 30
0.0
 11
180.0
 21
117.0
 31
0.0
  0
LINE
  5
1CE
330
17
100
AcDbEntity
  8
01_CUT_OUTLINE
100
AcDbLine
 10
180.0
 20
117.0
 30
0.0
 11
180.0
 21
118.0
 31
0.0
  0
LINE
  5
1CF
330
17
100
AcDbEntity
  8
01_CUT_OUTLINE
100
AcDbLine
 10
180.0
 20
118.0
 30
0.0
 11
180.0
 21
119.0
 31
0.0
  0
LINE
  5
1D0
330
17
100
AcDbEntity
  8
01_CUT_OUTLINE
100
AcDbLine
 10
180.0
 20
119.0
 30
0.0
 11
180.0
 21
120.0
 31
0.0
  0
LINE
  5
1D1
330
17
100
AcDbEntity
  8
01_CUT_OUTLINE
100
AcDbLine
 10
180.0
 20
120.0
 30
0.0
 11
180.0
 21
121.0
 31
0.0
  0
LINE
  5
1D2
330
17
100
AcDbEntity
  8
01_CUT_OUTLINE
100
AcDbLine
 10
180.0
 20
121.0
 30
0.0
 11
180.0
 21
122.0
 31
0.0
  0
LINE
  5
1D3
330
17
100
AcDbEntity
  8
01_CUT_OUTLINE
100
AcDbLine
 10
180.0
 20
122.0
 30
0.0
 11
180.0
 21
123.0
 31
0.0
  0
LINE
  5
1D4
330
17
100
AcDbEntity
  8
01_CUT_OUTLINE
100
AcDbLine
 10
180.0
 20
123.0
 30
0.0
 11
180.0
 21
124.0
 31
0.0
  0
LINE
  5
1D5
330
17
100
AcDbEntity
  8
01_CUT_OUTLINE
100
AcDbLine
 10
180.0
 20
124.0
 30
0.0
 11
180.0
 21
125.0
 31
0.0
  0
LINE
  5
1D6
330
17
100
AcDbEntity
  8
01_CUT_OUTLINE
100
AcDbLine
 10
180.0
 20
125.0
 30
0.0
 11
180.0
 21
126.0
 31
0.0
  0
LINE
  5
1D7
330
17
100
AcDbEntity
  8
01_CUT_OUTLINE
100
AcDbLine
 10
180.0
 20
126.0
 30
0.0
 11
180.0
 21
127.0
 31
0.0
  0
LINE
  5
1D8
330
17
100
AcDbEntity
  8
01_CUT_OUTLINE
100
AcDbLine
 10
180.0
 20
127.0
 30
0.0
 11
180.0
 21
128.0
 31
0.0
  0
LINE
  5
1D9
330
17
100
AcDbEntity
  8
01_CUT_OUTLINE
100
AcDbLine
 10
180.0
 20
128.0
 30
0.0
 11
180.0
 21
129.0
 31
0.0
  0
LINE
  5
1DA
330
17
100
AcDbEntity
  8
01_CUT_OUTLINE
100
AcDbLine
 10
180.0
 20
129.0
 30
0.0
 11
180.0
 21
130.0
 31
0.0
  0
LINE
  5
1DB
330
17
100
AcDbEntity
  8
01_CUT_OUTLINE
100
AcDbLine
 10
180.0
 20
130.0
 30
0.0
 11
180.0
 21
131.0
 31
0.0
  0
LINE
  5
1DC
330
17
100
AcDbEntity
  8
01_CUT_OUTLINE
100
AcDbLine
 10
180.0
 20
131.0
 30
0.0
 11
180.0
 21
132.0
 31
0.0
  0
LINE
  5
1DD
330
17
100
AcDbEntity
  8
01_CUT_OUTLINE
100
AcDbLine
 10
180.0
 20
132.0
 30
0.0
 11
180.0
 21
133.0
 31
0.0
  0
LINE
  5
1DE
330
17
100
AcDbEntity
  8
01_CUT_OUTLINE
100
AcDbLine
 10
180.0
 20
133.0
 30
0.0
 11
180.0
 21
134.0
 31
0.0
  0
LINE
  5
1DF
330
17
100
AcDbEntity
  8
01_CUT_OUTLINE
100
AcDbLine
 10
180.0
 20
134.0
 30
0.0
 11
180.0
 21
135.0
 31
0.0
  0
LINE
  5
1E0
330
17
100
AcDbEntity
  8
01_CUT_OUTLINE
100
AcDbLine
 10
180.0
 20
135.0
 30
0.0
 11
181.0
 21
136.0
 31
0.0
  0
LINE
  5
1E1
330
17
100
AcDbEntity
  8
01_CUT_OUTLINE
100
AcDbLine
 10
181.0
 20
136.0
 30
0.0
 11
181.0
 21
137.0
 31
0.0
  0
LINE
  5
1E2
330
17
100
AcDbEntity
  8
01_CUT_OUTLINE
100
AcDbLine
 10
181.0
 20
137.0
 30
0.0
 11
181.0
 21
138.0
 31
0.0
  0
LINE
  5
1E3
330
17
100
AcDbEntity
  8
01_CUT_OUTLINE
100
AcDbLine
 10
181.0
 20
138.0
 30
0.0
 11
181.0
 21
139.0
 31
0.0
  0
LINE
  5
1E4
330
17
100
AcDbEntity
  8
01_CUT_OUTLINE
100
AcDbLine
 10
181.0
 20
139.0
 30
0.0
 11
180.0
 21
140.0
 31
0.0
  0
LINE
  5
1E5
330
17
100
AcDbEntity
  8
01_CUT_OUTLINE
100
AcDbLine
 10
180.0
 20
140.0
 30
0.0
 11
180.0
 21
141.0
 31
0.0
  0
LINE
  5
1E6
330
17
100
AcDbEntity
  8
01_CUT_OUTLINE
100
AcDbLine
 10
180.0
 20
141.0
 30
0.0
 11
180.0
 21
142.0
 31
0.0
  0
LINE
  5
1E7
330
17
100
AcDbEntity
  8
01_CUT_OUTLINE
100
AcDbLine
 10
180.0
 20
142.0
 30
0.0
 11
180.0
 21
143.0
 31
0.0
  0
LINE
  5
1E8
330
17
100
AcDbEntity
  8
01_CUT_OUTLINE
100
AcDbLine
 10
180.0
 20
143.0
 30
0.0
 11
179.0
 21
144.0
 31
0.0
  0
LINE
  5
1E9
330
17
100
AcDbEntity
  8
01_CUT_OUTLINE
100
AcDbLine
 10
179.0
 20
144.0
 30
0.0
 11
179.0
 21
143.0
 31
0.0
  0
LINE
  5
1EA
330
17
100
AcDbEntity
  8
01_CUT_OUTLINE
100
AcDbLine
 10
179.0
 20
143.0
 30
0.0
 11
179.0
 21
142.0
 31
0.0
  0
LINE
  5
1EB
330
17
100
AcDbEntity
  8
01_CUT_OUTLINE
100
AcDbLine
 10
179.0
 20
142.0
 30
0.0
 11
179.0
 21
141.0
 31
0.0
  0
LINE
  5
1EC
330
17
100
AcDbEntity
  8
01_CUT_OUTLINE
100
AcDbLine
 10
179.0
 20
141.0
 30
0.0
 11
179.0
 21
140.0
 31
0.0
  0
LINE
  5
1ED
330
17
100
AcDbEntity
  8
01_CUT_OUTLINE
100
AcDbLine
 10
179.0
 20
140.0
 30
0.0
 11
178.0
 21
139.0
 31
0.0
  0
LINE
  5
1EE
330
17
100
AcDbEntity
  8
01_CUT_OUTLINE
100
AcDbLine
 10
178.0
 20
139.0
 30
0.0
 11
177.0
 21
138.0
 31
0.0
  0
LINE
  5
1EF
330
17
100
AcDbEntity
  8
01_CUT_OUTLINE
100
AcDbLine
 10
177.0
 20
138.0
 30
0.0
 11
176.0
 21
138.0
 31
0.0
  0
LINE
  5
1F0
330
17
100
AcDbEntity
  8
01_CUT_OUTLINE
100
AcDbLine
 10
176.0
 20
138.0
 30
0.0
 11
175.0
 21
139.0
 31
0.0
  0
LINE
  5
1F1
330
17
100
AcDbEntity
  8
01_CUT_OUTLINE
100
AcDbLine
 10
175.0
 20
139.0
 30
0.0
 11
175.0
 21
140.0
 31
0.0
  0
LINE
  5
1F2
330
17
100
AcDbEntity
  8
01_CUT_OUTLINE
100
AcDbLine
 10
175.0
 20
140.0
 30
0.0
 11
175.0
 21
141.0
 31
0.0
  0
LINE
  5
1F3
330
17
100
AcDbEntity
  8
01_CUT_OUTLINE
100
AcDbLine
 10
175.0
 20
141.0
 30
0.0
 11
176.0
 21
142.0
 31
0.0
  0
LINE
  5
1F4
330
17
100
AcDbEntity
  8
01_CUT_OUTLINE
100
AcDbLine
 10
176.0
 20
142.0
 30
0.0
 11
176.0
 21
143.0
 31
0.0
  0
LINE
  5
1F5
330
17
100
AcDbEntity
  8
01_CUT_OUTLINE
100
AcDbLine
 10
176.0
 20
143.0
 30
0.0
 11
176.0
 21
144.0
 31
0.0
  0
LINE
  5
1F6
330
17
100
AcDbEntity
  8
01_CUT_OUTLINE
100
AcDbLine
 10
176.0
 20
144.0
 30
0.0
 11
176.0
 21
145.0
 31
0.0
  0
LINE
  5
1F7
330
17
100
AcDbEntity
  8
01_CUT_OUTLINE
100
AcDbLine
 10
176.0
 20
145.0
 30
0.0
 11
176.0
 21
146.0
 31
0.0
  0
LINE
  5
1F8
330
17
100
AcDbEntity
  8
01_CUT_OUTLINE
100
AcDbLine
 10
176.0
 20
146.0
 30
0.0
 11
176.0
 21
147.0
 31
0.0
  0
LINE
  5
1F9
330
17
100
AcDbEntity
  8
01_CUT_OUTLINE
100
AcDbLine
 10
176.0
 20
147.0
 30
0.0
 11
176.0
 21
148.0
 31
0.0
  0
LINE
  5
1FA
330
17
100
AcDbEntity
  8
01_CUT_OUTLINE
100
AcDbLine
 10
176.0
 20
148.0
 30
0.0
 11
176.0
 21
149.0
 31
0.0
  0
LINE
  5
1FB
330
17
100
AcDbEntity
  8
01_CUT_OUTLINE
100
AcDbLine
 10
176.0
 20
149.0
 30
0.0
 11
176.0
 21
150.0
 31
0.0
  0
LINE
  5
1FC
330
17
100
AcDbEntity
  8
01_CUT_OUTLINE
100
AcDbLine
 10
176.0
 20
150.0
 30
0.0
 11
176.0
 21
151.0
 31
0.0
  0
LINE
  5
1FD
330
17
100
AcDbEntity
  8
01_CUT_OUTLINE
100
AcDbLine
 10
176.0
 20
151.0
 30
0.0
 11
176.0
 21
152.0
 31
0.0
  0
LINE
  5
1FE
330
17
100
AcDbEntity
  8
01_CUT_OUTLINE
100
AcDbLine
 10
176.0
 20
152.0
 30
0.0
 11
176.0
 21
153.0
 31
0.0
  0
LINE
  5
1FF
330
17
100
AcDbEntity
  8
01_CUT_OUTLINE
100
AcDbLine
 10
176.0
 20
153.0
 30
0.0
 11
176.0
 21
154.0
 31
0.0
  0
LINE
  5
200
330
17
100
AcDbEntity
  8
01_CUT_OUTLINE
100
AcDbLine
 10
176.0
 20
154.0
 30
0.0
 11
176.0
 21
155.0
 31
0.0
  0
LINE
  5
201
330
17
100
AcDbEntity
  8
01_CUT_OUTLINE
100
AcDbLine
 10
176.0
 20
155.0
 30
0.0
 11
176.0
 21
156.0
 31
0.0
  0
LINE
  5
202
330
17
100
AcDbEntity
  8
01_CUT_OUTLINE
100
AcDbLine
 10
176.0
 20
156.0
 30
0.0
 11
176.0
 21
157.0
 31
0.0
  0
LINE
  5
203
330
17
100
AcDbEntity
  8
01_CUT_OUTLINE
100
AcDbLine
 10
176.0
 20
157.0
 30
0.0
 11
176.0
 21
158.0
 31
0.0
  0
LINE
  5
204
330
17
100
AcDbEntity
  8
01_CUT_OUTLINE
100
AcDbLine
 10
176.0
 20
158.0
 30
0.0
 11
176.0
 21
159.0
 31
0.0
  0
LINE
  5
205
330
17
100
AcDbEntity
  8
01_CUT_OUTLINE
100
AcDbLine
 10
176.0
 20
159.0
 30
0.0
 11
176.0
 21
160.0
 31
0.0
  0
LINE
  5
206
330
17
100
AcDbEntity
  8
01_CUT_OUTLINE
100
AcDbLine
 10
176.0
 20
160.0
 30
0.0
 11
176.0
 21
161.0
 31
0.0
  0
LINE
  5
207
330
17
100
AcDbEntity
  8
01_CUT_OUTLINE
100
AcDbLine
 10
176.0
 20
161.0
 30
0.0
 11
176.0
 21
162.0
 31
0.0
  0
LINE
  5
208
330
17
100
AcDbEntity
  8
01_CUT_OUTLINE
100
AcDbLine
 10
176.0
 20
162.0
 30
0.0
 11
176.0
 21
163.0
 31
0.0
  0
LINE
  5
209
330
17
100
AcDbEntity
  8
01_CUT_OUTLINE
100
AcDbLine
 10
176.0
 20
163.0
 30
0.0
 11
176.0
 21
164.0
 31
0.0
  0
LINE
  5
20A
330
17
100
AcDbEntity
  8
01_CUT_OUTLINE
100
AcDbLine
 10
176.0
 20
164.0
 30
0.0
 11
176.0
 21
165.0
 31
0.0
  0
LINE
  5
20B
330
17
100
AcDbEntity
  8
01_CUT_OUTLINE
100
AcDbLine
 10
176.0
 20
165.0
 30
0.0
 11
176.0
 21
166.0
 31
0.0
  0
LINE
  5
20C
330
17
100
AcDbEntity
  8
01_CUT_OUTLINE
100
AcDbLine
 10
176.0
 20
166.0
 30
0.0
 11
176.0
 21
167.0
 31
0.0
  0
LINE
  5
20D
330
17
100
AcDbEntity
  8
01_CUT_OUTLINE
100
AcDbLine
 10
176.0
 20
167.0
 30
0.0
 11
176.0
 21
168.0
 31
0.0
  0
LINE
  5
20E
330
17
100
AcDbEntity
  8
01_CUT_OUTLINE
100
AcDbLine
 10
176.0
 20
168.0
 30
0.0
 11
176.0
 21
169.0
 31
0.0
  0
LINE
  5
20F
330
17
100
AcDbEntity
  8
01_CUT_OUTLINE
100
AcDbLine
 10
176.0
 20
169.0
 30
0.0
 11
176.0
 21
170.0
 31
0.0
  0
LINE
  5
210
330
17
100
AcDbEntity
  8
01_CUT_OUTLINE
100
AcDbLine
 10
176.0
 20
170.0
 30
0.0
 11
176.0
 21
171.0
 31
0.0
  0
ARC
  5
211
330
17
100
AcDbEntity
  8
01_CUT_OUTLINE
100
AcDbCircle
 10
184.6403
 20
163.9241
 30
0.0
 40
9.915226902411097
100
AcDbArc
 50
21.618254457772423
 51
31.93244346774936
  0
LINE
  5
212
330
17
100
AcDbEntity
  8
01_CUT_OUTLINE
100
AcDbLine
 10
206.0
 20
173.0
 30
0.0
 11
207.0
 21
173.0
 31
0.0
  0
LINE
  5
213
330
17
100
AcDbEntity
  8
01_CUT_OUTLINE
100
AcDbLine
 10
207.0
 20
173.0
 30
0.0
 11
208.0
 21
173.0
 31
0.0
  0
LINE
  5
214
330
17
100
AcDbEntity
  8
01_CUT_OUTLINE
100
AcDbLine
 10
208.0
 20
173.0
 30
0.0
 11
209.0
 21
173.0
 31
0.0
  0
LINE
  5
215
330
17
100
AcDbEntity
  8
01_CUT_OUTLINE
100
AcDbLine
 10
209.0
 20
173.0
 30
0.0
 11
210.0
 21
173.0
 31
0.0
  0
LINE
  5
216
330
17
100
AcDbEntity
  8
01_CUT_OUTLINE
100
AcDbLine
 10
210.0
 20
173.0
 30
0.0
 11
211.0
 21
173.0
 31
0.0
  0
LINE
  5
217
330
17
100
AcDbEntity
  8
01_CUT_OUTLINE
100
AcDbLine
 10
211.0
 20
173.0
 30
0.0
 11
212.0
 21
173.0
 31
0.0
  0
LINE
  5
218
330
17
100
AcDbEntity
  8
01_CUT_OUTLINE
100
AcDbLine
 10
212.0
 20
173.0
 30
0.0
 11
213.0
 21
173.0
 31
0.0
  0
LINE
  5
219
330
17
100
AcDbEntity
  8
01_CUT_OUTLINE
100
AcDbLine
 10
213.0
 20
173.0
 30
0.0
 11
214.0
 21
173.0
 31
0.0
  0
LINE
  5
21A
330
17
100
AcDbEntity
  8
01_CUT_OUTLINE
100
AcDbLine
 10
214.0
 20
173.0
 30
0.0
 11
215.0
 21
173.0
 31
0.0
  0
LINE
  5
21B
330
17
100
AcDbEntity
  8
01_CUT_OUTLINE
100
AcDbLine
 10
215.0
 20
173.0
 30
0.0
 11
216.0
 21
172.0
 31
0.0
  0
LINE
  5
21C
330
17
100
AcDbEntity
  8
01_CUT_OUTLINE
100
AcDbLine
 10
216.0
 20
172.0
 30
0.0
 11
216.0
 21
171.0
 31
0.0
  0
ARC
  5
21D
330
17
100
AcDbEntity
  8
01_CUT_OUTLINE
100
AcDbCircle
 10
209.9949
 20
169.584
 30
0.0
 40
5.323801663727198
100
AcDbArc
 50
26.830922493005158
 51
29.206937752897904
  0
LINE
  5
21E
330
17
100
AcDbEntity
  8
01_CUT_OUTLINE
100
AcDbLine
 10
189.0
 20
166.0
 30
0.0
 11
188.0
 21
166.0
 31
0.0
  0
LINE
  5
21F
330
17
100
AcDbEntity
  8
01_CUT_OUTLINE
100
AcDbLine
 10
188.0
 20
166.0
 30
0.0
 11
187.0
 21
166.0
 31
0.0
  0
LINE
  5
220
330
17
100
AcDbEntity
  8
01_CUT_OUTLINE
100
AcDbLine
 10
187.0
 20
166.0
 30
0.0
 11
186.0
 21
166.0
 31
0.0
  0
LINE
  5
221
330
17
100
AcDbEntity
  8
01_CUT_OUTLINE
100
AcDbLine
 10
186.0
 20
166.0
 30
0.0
 11
185.0
 21
166.0
 31
0.0
  0
LINE
  5
222
330
17
100
AcDbEntity
  8
01_CUT_OUTLINE
100
AcDbLine
 10
185.0
 20
166.0
 30
0.0
 11
184.0
 21
166.0
 31
0.0
  0
ARC
  5
223
330
17
100
AcDbEntity
  8
01_CUT_OUTLINE
100
AcDbCircle
 10
191.0759
 20
157.3597
 30
0.0
 40
9.915226902411097
100
AcDbArc
 50
30.96601130247466
 51
21.36982767534152
  0
LINE
  5
224
330
17
100
AcDbEntity
  8
01_CUT_OUTLINE
100
AcDbLine
 10
188.0
 20
140.0
 30
0.0
 11
189.0
 21
140.0
 31
0.0
  0
LINE
  5
225
330
17
100
AcDbEntity
  8
01_CUT_OUTLINE
100
AcDbLine
 10
189.0
 20
140.0
 30
0.0
 11
190.0
 21
140.0
 31
0.0
  0
LINE
  5
226
330
17
100
AcDbEntity
  8
01_CUT_OUTLINE
100
AcDbLine
 10
190.0
 20
140.0
 30
0.0
 11
191.0
 21
140.0
 31
0.0
  0
LINE
  5
227
330
17
100
AcDbEntity
  8
01_CUT_OUTLINE
100
AcDbLine
 10
191.0
 20
140.0
 30
0.0
 11
192.0
 21
140.0
 31
0.0
  0
LINE
  5
228
330
17
100
AcDbEntity
  8
01_CUT_OUTLINE
100
AcDbLine
 10
192.0
 20
140.0
 30
0.0
 11
193.0
 21
140.0
 31
0.0
  0
LINE
  5
229
330
17
100
AcDbEntity
  8
01_CUT_OUTLINE
100
AcDbLine
 10
193.0
 20
140.0
 30
0.0
 11
194.0
 21
140.0
 31
0.0
  0
LINE
  5
22A
330
17
100
AcDbEntity
  8
01_CUT_OUTLINE
100
AcDbLine
 10
194.0
 20
140.0
 30
0.0
 11
195.0
 21
140.0
 31
0.0
  0
LINE
  5
22B
330
17
100
AcDbEntity
  8
01_CUT_OUTLINE
100
AcDbLine
 10
195.0
 20
140.0
 30
0.0
 11
196.0
 21
140.0
 31
0.0
  0
LINE
  5
22C
330
17
100
AcDbEntity
  8
01_CUT_OUTLINE
100
AcDbLine
 10
196.0
 20
140.0
 30
0.0
 11
197.0
 21
140.0
 31
0.0
  0
LINE
  5
22D
330
17
100
AcDbEntity
  8
01_CUT_OUTLINE
100
AcDbLine
 10
197.0
 20
140.0
 30
0.0
 11
198.0
 21
140.0
 31
0.0
  0
LINE
  5
22E
330
17
100
AcDbEntity
  8
01_CUT_OUTLINE
100
AcDbLine
 10
198.0
 20
140.0
 30
0.0
 11
199.0
 21
140.0
 31
0.0
  0
LINE
  5
22F
330
17
100
AcDbEntity
  8
01_CUT_OUTLINE
100
AcDbLine
 10
199.0
 20
140.0
 30
0.0
 11
200.0
 21
140.0
 31
0.0
  0
LINE
  5
230
330
17
100
AcDbEntity
  8
01_CUT_OUTLINE
100
AcDbLine
 10
200.0
 20
140.0
 30
0.0
 11
201.0
 21
140.0
 31
0.0
  0
LINE
  5
231
330
17
100
AcDbEntity
  8
01_CUT_OUTLINE
100
AcDbLine
 10
201.0
 20
140.0
 30
0.0
 11
202.0
 21
140.0
 31
0.0
  0
LINE
  5
232
330
17
100
AcDbEntity
  8
01_CUT_OUTLINE
100
AcDbLine
 10
202.0
 20
140.0
 30
0.0
 11
203.0
 21
140.0
 31
0.0
  0
LINE
  5
233
330
17
100
AcDbEntity
  8
01_CUT_OUTLINE
100
AcDbLine
 10
203.0
 20
140.0
 30
0.0
 11
204.0
 21
140.0
 31
0.0
  0
LINE
  5
234
330
17
100
AcDbEntity
  8
01_CUT_OUTLINE
100
AcDbLine
 10
204.0
 20
140.0
 30
0.0
 11
205.0
 21
140.0
 31
0.0
  0
LINE
  5
235
330
17
100
AcDbEntity
  8
01_CUT_OUTLINE
100
AcDbLine
 10
205.0
 20
140.0
 30
0.0
 11
206.0
 21
140.0
 31
0.0
  0
LINE
  5
236
330
17
100
AcDbEntity
  8
01_CUT_OUTLINE
100
AcDbLine
 10
206.0
 20
140.0
 30
0.0
 11
207.0
 21
140.0
 31
0.0
  0
LINE
  5
237
330
17
100
AcDbEntity
  8
01_CUT_OUTLINE
100
AcDbLine
 10
207.0
 20
140.0
 30
0.0
 11
208.0
 21
140.0
 31
0.0
  0
LINE
  5
238
330
17
100
AcDbEntity
  8
01_CUT_OUTLINE
100
AcDbLine
 10
208.0
 20
140.0
 30
0.0
 11
209.0
 21
140.0
 31
0.0
  0
LINE
  5
239
330
17
100
AcDbEntity
  8
01_CUT_OUTLINE
100
AcDbLine
 10
209.0
 20
140.0
 30
0.0
 11
210.0
 21
140.0
 31
0.0
  0
LINE
  5
23A
330
17
100
AcDbEntity
  8
01_CUT_OUTLINE
100
AcDbLine
 10
210.0
 20
140.0
 30
0.0
 11
211.0
 21
140.0
 31
0.0
  0
LINE
  5
23B
330
17
100
AcDbEntity
  8
01_CUT_OUTLINE
100
AcDbLine
 10
211.0
 20
140.0
 30
0.0
 11
212.0
 21
140.0
 31
0.0
  0
LINE
  5
23C
330
17
100
AcDbEntity
  8
01_CUT_OUTLINE
100
AcDbLine
 10
212.0
 20
140.0
 30
0.0
 11
213.0
 21
140.0
 31
0.0
  0
LINE
  5
23D
330
17
100
AcDbEntity
  8
01_CUT_OUTLINE
100
AcDbLine
 10
213.0
 20
140.0
 30
0.0
 11
214.0
 21
140.0
 31
0.0
  0
LINE
  5
23E
330
17
100
AcDbEntity
  8
01_CUT_OUTLINE
100
AcDbLine
 10
214.0
 20
140.0
 30
0.0
 11
215.0
 21
140.0
 31
0.0
  0
LINE
  5
23F
330
17
100
AcDbEntity
  8
01_CUT_OUTLINE
100
AcDbLine
 10
215.0
 20
140.0
 30
0.0
 11
216.0
 21
140.0
 31
0.0
  0
LINE
  5
240
330
17
100
AcDbEntity
  8
01_CUT_OUTLINE
100
AcDbLine
 10
216.0
 20
140.0
 30
0.0
 11
216.0
 21
141.0
 31
0.0
  0
LINE
  5
241
330
17
100
AcDbEntity
  8
01_CUT_OUTLINE
100
AcDbLine
 10
216.0
 20
141.0
 30
0.0
 11
216.0
 21
142.0
 31
0.0
  0
LINE
  5
242
330
17
100
AcDbEntity
  8
01_CUT_OUTLINE
100
AcDbLine
 10
216.0
 20
142.0
 30
0.0
 11
216.0
 21
143.0
 31
0.0
  0
LINE
  5
243
330
17
100
AcDbEntity
  8
01_CUT_OUTLINE
100
AcDbLine
 10
216.0
 20
143.0
 30
0.0
 11
216.0
 21
144.0
 31
0.0
  0
LINE
  5
244
330
17
100
AcDbEntity
  8
01_CUT_OUTLINE
100
AcDbLine
 10
216.0
 20
144.0
 30
0.0
 11
216.0
 21
145.0
 31
0.0
  0
LINE
  5
245
330
17
100
AcDbEntity
  8
01_CUT_OUTLINE
100
AcDbLine
 10
216.0
 20
145.0
 30
0.0
 11
216.0
 21
146.0
 31
0.0
  0
LINE
  5
246
330
17
100
AcDbEntity
  8
01_CUT_OUTLINE
100
AcDbLine
 10
216.0
 20
146.0
 30
0.0
 11
216.0
 21
147.0
 31
0.0
  0
LINE
  5
247
330
17
100
AcDbEntity
  8
01_CUT_OUTLINE
100
AcDbLine
 10
216.0
 20
147.0
 30
0.0
 11
216.0
 21
148.0
 31
0.0
  0
LINE
  5
248
330
17
100
AcDbEntity
  8
01_CUT_OUTLINE
100
AcDbLine
 10
216.0
 20
148.0
 30
0.0
 11
216.0
 21
149.0
 31
0.0
  0
LINE
  5
249
330
17
100
AcDbEntity
  8
01_CUT_OUTLINE
100
AcDbLine
 10
216.0
 20
149.0
 30
0.0
 11
216.0
 21
150.0
 31
0.0
  0
LINE
  5
24A
330
17
100
AcDbEntity
  8
01_CUT_OUTLINE
100
AcDbLine
 10
216.0
 20
150.0
 30
0.0
 11
216.0
 21
151.0
 31
0.0
  0
LINE
  5
24B
330
17
100
AcDbEntity
  8
01_CUT_OUTLINE
100
AcDbLine
 10
216.0
 20
151.0
 30
0.0
 11
217.0
 21
152.0
 31
0.0
  0
LINE
  5
24C
330
17
100
AcDbEntity
  8
01_CUT_OUTLINE
100
AcDbLine
 10
217.0
 20
152.0
 30
0.0
 11
218.0
 21
152.0
 31
0.0
  0
LINE
  5
24D
330
17
100
AcDbEntity
  8
01_CUT_OUTLINE
100
AcDbLine
 10
218.0
 20
152.0
 30
0.0
 11
219.0
 21
152.0
 31
0.0
  0
LINE
  5
24E
330
17
100
AcDbEntity
  8
01_CUT_OUTLINE
100
AcDbLine
 10
219.0
 20
152.0
 30
0.0
 11
220.0
 21
152.0
 31
0.0
  0
LINE
  5
24F
330
17
100
AcDbEntity
  8
01_CUT_OUTLINE
100
AcDbLine
 10
220.0
 20
152.0
 30
0.0
 11
221.0
 21
152.0
 31
0.0
  0
LINE
  5
250
330
17
100
AcDbEntity
  8
01_CUT_OUTLINE
100
AcDbLine
 10
221.0
 20
152.0
 30
0.0
 11
222.0
 21
152.0
 31
0.0
  0
LINE
  5
251
330
17
100
AcDbEntity
  8
01_CUT_OUTLINE
100
AcDbLine
 10
222.0
 20
152.0
 30
0.0
 11
223.0
 21
152.0
 31
0.0
  0
LINE
  5
252
330
17
100
AcDbEntity
  8
01_CUT_OUTLINE
100
AcDbLine
 10
223.0
 20
152.0
 30
0.0
 11
223.0
 21
153.0
 31
0.0
  0
LINE
  5
253
330
17
100
AcDbEntity
  8
01_CUT_OUTLINE
100
AcDbLine
 10
223.0
 20
153.0
 30
0.0
 11
223.0
 21
154.0
 31
0.0
  0
LINE
  5
254
330
17
100
AcDbEntity
  8
01_CUT_OUTLINE
100
AcDbLine
 10
223.0
 20
154.0
 30
0.0
 11
223.0
 21
155.0
 31
0.0
  0
LINE
  5
255
330
17
100
AcDbEntity
  8
01_CUT_OUTLINE
100
AcDbLine
 10
223.0
 20
155.0
 30
0.0
 11
223.0
 21
156.0
 31
0.0
  0
LINE
  5
256
330
17
100
AcDbEntity
  8
01_CUT_OUTLINE
100
AcDbLine
 10
223.0
 20
156.0
 30
0.0
 11
223.0
 21
157.0
 31
0.0
  0
LINE
  5
257
330
17
100
AcDbEntity
  8
01_CUT_OUTLINE
100
AcDbLine
 10
223.0
 20
157.0
 30
0.0
 11
223.0
 21
158.0
 31
0.0
  0
LINE
  5
258
330
17
100
AcDbEntity
  8
01_CUT_OUTLINE
100
AcDbLine
 10
223.0
 20
158.0
 30
0.0
 11
223.0
 21
159.0
 31
0.0
  0
LINE
  5
259
330
17
100
AcDbEntity
  8
01_CUT_OUTLINE
100
AcDbLine
 10
223.0
 20
159.0
 30
0.0
 11
223.0
 21
160.0
 31
0.0
  0
LINE
  5
25A
330
17
100
AcDbEntity
  8
01_CUT_OUTLINE
100
AcDbLine
 10
223.0
 20
160.0
 30
0.0
 11
223.0
 21
161.0
 31
0.0
  0
LINE
  5
25B
330
17
100
AcDbEntity
  8
01_CUT_OUTLINE
100
AcDbLine
 10
223.0
 20
161.0
 30
0.0
 11
223.0
 21
162.0
 31
0.0
  0
LINE
  5
25C
330
17
100
AcDbEntity
  8
01_CUT_OUTLINE
100
AcDbLine
 10
223.0
 20
162.0
 30
0.0
 11
223.0
 21
163.0
 31
0.0
  0
LINE
  5
25D
330
17
100
AcDbEntity
  8
01_CUT_OUTLINE
100
AcDbLine
 10
223.0
 20
163.0
 30
0.0
 11
223.0
 21
164.0
 31
0.0
  0
LINE
  5
25E
330
17
100
AcDbEntity
  8
01_CUT_OUTLINE
100
AcDbLine
 10
223.0
 20
164.0
 30
0.0
 11
223.0
 21
165.0
 31
0.0
  0
LINE
  5
25F
330
17
100
AcDbEntity
  8
01_CUT_OUTLINE
100
AcDbLine
 10
223.0
 20
165.0
 30
0.0
 11
223.0
 21
166.0
 31
0.0
  0
LINE
  5
260
330
17
100
AcDbEntity
  8
01_CUT_OUTLINE
100
AcDbLine
 10
223.0
 20
166.0
 30
0.0
 11
223.0
 21
167.0
 31
0.0
  0
LINE
  5
261
330
17
100
AcDbEntity
  8
01_CUT_OUTLINE
100
AcDbLine
 10
223.0
 20
167.0
 30
0.0
 11
223.0
 21
168.0
 31
0.0
  0
LINE
  5
262
330
17
100
AcDbEntity
  8
01_CUT_OUTLINE
100
AcDbLine
 10
223.0
 20
168.0
 30
0.0
 11
223.0
 21
169.0
 31
0.0
  0
LINE
  5
263
330
17
100
AcDbEntity
  8
01_CUT_OUTLINE
100
AcDbLine
 10
223.0
 20
169.0
 30
0.0
 11
223.0
 21
170.0
 31
0.0
  0
LINE
  5
264
330
17
100
AcDbEntity
  8
01_CUT_OUTLINE
100
AcDbLine
 10
223.0
 20
170.0
 30
0.0
 11
223.0
 21
171.0
 31
0.0
  0
LINE
  5
265
330
17
100
AcDbEntity
  8
01_CUT_OUTLINE
100
AcDbLine
 10
223.0
 20
171.0
 30
0.0
 11
223.0
 21
172.0
 31
0.0
  0
LINE
  5
266
330
17
100
AcDbEntity
  8
01_CUT_OUTLINE
100
AcDbLine
 10
223.0
 20
172.0
 30
0.0
 11
223.0
 21
173.0
 31
0.0
  0
LINE
  5
267
330
17
100
AcDbEntity
  8
01_CUT_OUTLINE
100
AcDbLine
 10
223.0
 20
173.0
 30
0.0
 11
222.0
 21
173.0
 31
0.0
  0
LINE
  5
268
330
17
100
AcDbEntity
  8
01_CUT_OUTLINE
100
AcDbLine
 10
222.0
 20
173.0
 30
0.0
 11
221.0
 21
173.0
 31
0.0
  0
LINE
  5
269
330
17
100
AcDbEntity
  8
01_CUT_OUTLINE
100
AcDbLine
 10
221.0
 20
173.0
 30
0.0
 11
220.0
 21
173.0
 31
0.0
  0
LINE
  5
26A
330
17
100
AcDbEntity
  8
01_CUT_OUTLINE
100
AcDbLine
 10
220.0
 20
173.0
 30
0.0
 11
219.0
 21
173.0
 31
0.0
  0
LINE
  5
26B
330
17
100
AcDbEntity
  8
01_CUT_OUTLINE
100
AcDbLine
 10
219.0
 20
173.0
 30
0.0
 11
218.0
 21
174.0
 31
0.0
  0
LINE
  5
26C
330
17
100
AcDbEntity
  8
01_CUT_OUTLINE
100
AcDbLine
 10
218.0
 20
174.0
 30
0.0
 11
218.0
 21
175.0
 31
0.0
  0
LINE
  5
26D
330
17
100
AcDbEntity
  8
01_CUT_OUTLINE
100
AcDbLine
 10
218.0
 20
175.0
 30
0.0
 11
218.0
 21
176.0
 31
0.0
  0
LINE
  5
26E
330
17
100
AcDbEntity
  8
01_CUT_OUTLINE
100
AcDbLine
 10
218.0
 20
176.0
 30
0.0
 11
218.0
 21
177.0
 31
0.0
  0
LINE
  5
26F
330
17
100
AcDbEntity
  8
01_CUT_OUTLINE
100
AcDbLine
 10
218.0
 20
177.0
 30
0.0
 11
219.0
 21
178.0
 31
0.0
  0
LINE
  5
270
330
17
100
AcDbEntity
  8
01_CUT_OUTLINE
100
AcDbLine
 10
219.0
 20
178.0
 30
0.0
 11
220.0
 21
179.0
 31
0.0
  0
LINE
  5
271
330
17
100
AcDbEntity
  8
01_CUT_OUTLINE
100
AcDbLine
 10
220.0
 20
179.0
 30
0.0
 11
221.0
 21
179.0
 31
0.0
  0
LINE
  5
272
330
17
100
AcDbEntity
  8
01_CUT_OUTLINE
100
AcDbLine
 10
221.0
 20
179.0
 30
0.0
 11
222.0
 21
179.0
 31
0.0
  0
LINE
  5
273
330
17
100
AcDbEntity
  8
01_CUT_OUTLINE
100
AcDbLine
 10
222.0
 20
179.0
 30
0.0
 11
223.0
 21
179.0
 31
0.0
  0
LINE
  5
274
330
17
100
AcDbEntity
  8
01_CUT_OUTLINE
100
AcDbLine
 10
223.0
 20
179.0
 30
0.0
 11
224.0
 21
178.0
 31
0.0
  0
LINE
  5
275
330
17
100
AcDbEntity
  8
01_CUT_OUTLINE
100
AcDbLine
 10
224.0
 20
178.0
 30
0.0
 11
225.0
 21
178.0
 31
0.0
  0
LINE
  5
276
330
17
100
AcDbEntity
  8
01_CUT_OUTLINE
100
AcDbLine
 10
225.0
 20
178.0
 30
0.0
 11
226.0
 21
178.0
 31
0.0
  0
LINE
  5
277
330
17
100
AcDbEntity
  8
01_CUT_OUTLINE
100
AcDbLine
 10
226.0
 20
178.0
 30
0.0
 11
227.0
 21
178.0
 31
0.0
  0
LINE
  5
278
330
17
100
AcDbEntity
  8
01_CUT_OUTLINE
100
AcDbLine
 10
227.0
 20
178.0
 30
0.0
 11
228.0
 21
178.0
 31
0.0
  0
LINE
  5
279
330
17
100
AcDbEntity
  8
01_CUT_OUTLINE
100
AcDbLine
 10
228.0
 20
178.0
 30
0.0
 11
229.0
 21
178.0
 31
0.0
  0
LINE
  5
27A
330
17
100
AcDbEntity
  8
01_CUT_OUTLINE
100
AcDbLine
 10
229.0
 20
178.0
 30
0.0
 11
230.0
 21
178.0
 31
0.0
  0
LINE
  5
27B
330
17
100
AcDbEntity
  8
01_CUT_OUTLINE
100
AcDbLine
 10
230.0
 20
178.0
 30
0.0
 11
231.0
 21
178.0
 31
0.0
  0
LINE
  5
27C
330
17
100
AcDbEntity
  8
01_CUT_OUTLINE
100
AcDbLine
 10
231.0
 20
178.0
 30
0.0
 11
232.0
 21
178.0
 31
0.0
  0
LINE
  5
27D
330
17
100
AcDbEntity
  8
01_CUT_OUTLINE
100
AcDbLine
 10
232.0
 20
178.0
 30
0.0
 11
233.0
 21
178.0
 31
0.0
  0
LINE
  5
27E
330
17
100
AcDbEntity
  8
01_CUT_OUTLINE
100
AcDbLine
 10
233.0
 20
178.0
 30
0.0
 11
234.0
 21
178.0
 31
0.0
  0
LINE
  5
27F
330
17
100
AcDbEntity
  8
01_CUT_OUTLINE
100
AcDbLine
 10
234.0
 20
178.0
 30
0.0
 11
235.0
 21
178.0
 31
0.0
  0
LINE
  5
280
330
17
100
AcDbEntity
  8
01_CUT_OUTLINE
100
AcDbLine
 10
235.0
 20
178.0
 30
0.0
 11
236.0
 21
178.0
 31
0.0
  0
LINE
  5
281
330
17
100
AcDbEntity
  8
01_CUT_OUTLINE
100
AcDbLine
 10
236.0
 20
178.0
 30
0.0
 11
237.0
 21
178.0
 31
0.0
  0
LINE
  5
282
330
17
100
AcDbEntity
  8
01_CUT_OUTLINE
100
AcDbLine
 10
237.0
 20
178.0
 30
0.0
 11
238.0
 21
178.0
 31
0.0
  0
LINE
  5
283
330
17
100
AcDbEntity
  8
01_CUT_OUTLINE
100
AcDbLine
 10
238.0
 20
178.0
 30
0.0
 11
239.0
 21
178.0
 31
0.0
  0
LINE
  5
284
330
17
100
AcDbEntity
  8
01_CUT_OUTLINE
100
AcDbLine
 10
239.0
 20
178.0
 30
0.0
 11
240.0
 21
178.0
 31
0.0
  0
LINE
  5
285
330
17
100
AcDbEntity
  8
01_CUT_OUTLINE
100
AcDbLine
 10
240.0
 20
178.0
 30
0.0
 11
241.0
 21
178.0
 31
0.0
  0
LINE
  5
286
330
17
100
AcDbEntity
  8
01_CUT_OUTLINE
100
AcDbLine
 10
241.0
 20
178.0
 30
0.0
 11
242.0
 21
178.0
 31
0.0
  0
LINE
  5
287
330
17
100
AcDbEntity
  8
01_CUT_OUTLINE
100
AcDbLine
 10
242.0
 20
178.0
 30
0.0
 11
243.0
 21
178.0
 31
0.0
  0
LINE
  5
288
330
17
100
AcDbEntity
  8
01_CUT_OUTLINE
100
AcDbLine
 10
243.0
 20
178.0
 30
0.0
 11
244.0
 21
178.0
 31
0.0
  0
LINE
  5
289
330
17
100
AcDbEntity
  8
01_CUT_OUTLINE
100
AcDbLine
 10
244.0
 20
178.0
 30
0.0
 11
245.0
 21
178.0
 31
0.0
  0
LINE
  5
28A
330
17
100
AcDbEntity
  8
01_CUT_OUTLINE
100
AcDbLine
 10
245.0
 20
178.0
 30
0.0
 11
246.0
 21
178.0
 31
0.0
  0
LINE
  5
28B
330
17
100
AcDbEntity
  8
01_CUT_OUTLINE
100
AcDbLine
 10
246.0
 20
178.0
 30
0.0
 11
247.0
 21
178.0
 31
0.0
  0
LINE
  5
28C
330
17
100
AcDbEntity
  8
01_CUT_OUTLINE
100
AcDbLine
 10
247.0
 20
178.0
 30
0.0
 11
248.0
 21
178.0
 31
0.0
  0
LINE
  5
28D
330
17
100
AcDbEntity
  8
01_CUT_OUTLINE
100
AcDbLine
 10
248.0
 20
178.0
 30
0.0
 11
249.0
 21
178.0
 31
0.0
  0
LINE
  5
28E
330
17
100
AcDbEntity
  8
01_CUT_OUTLINE
100
AcDbLine
 10
249.0
 20
178.0
 30
0.0
 11
250.0
 21
178.0
 31
0.0
  0
LINE
  5
28F
330
17
100
AcDbEntity
  8
01_CUT_OUTLINE
100
AcDbLine
 10
250.0
 20
178.0
 30
0.0
 11
251.0
 21
178.0
 31
0.0
  0
LINE
  5
290
330
17
100
AcDbEntity
  8
01_CUT_OUTLINE
100
AcDbLine
 10
251.0
 20
178.0
 30
0.0
 11
252.0
 21
178.0
 31
0.0
  0
LINE
  5
291
330
17
100
AcDbEntity
  8
01_CUT_OUTLINE
100
AcDbLine
 10
252.0
 20
178.0
 30
0.0
 11
253.0
 21
178.0
 31
0.0
  0
LINE
  5
292
330
17
100
AcDbEntity
  8
01_CUT_OUTLINE
100
AcDbLine
 10
253.0
 20
178.0
 30
0.0
 11
254.0
 21
178.0
 31
0.0
  0
ARC
  5
293
330
17
100
AcDbEntity
  8
01_CUT_OUTLINE
100
AcDbCircle
 10
246.5551
 20
187.1569
 30
0.0
 40
10.284906604773518
100
AcDbArc
 50
32.16052709692406
 51
22.295515148305412
  0
ARC
  5
294
330
17
100
AcDbEntity
  8
01_CUT_OUTLINE
100
AcDbCircle
 10
247.5815
 20
201.6009
 30
0.0
 40
9.805251233961934
100
AcDbArc
 50
27.682708715201827
 51
23.532012948808188
  0
LINE
  5
295
330
17
100
AcDbEntity
  8
01_CUT_OUTLINE
100
AcDbLine
 10
226.0
 20
210.0
 30
0.0
 11
225.0
 21
211.0
 31
0.0
  0
LINE
  5
296
330
17
100
AcDbEntity
  8
01_CUT_OUTLINE
100
AcDbLine
 10
225.0
 20
211.0
 30
0.0
 11
224.0
 21
210.0
 31
0.0
  0
LINE
  5
297
330
17
100
AcDbEntity
  8
01_CUT_OUTLINE
100
AcDbLine
 10
224.0
 20
210.0
 30
0.0
 11
223.0
 21
210.0
 31
0.0
  0
LINE
  5
298
330
17
100
AcDbEntity
  8
01_CUT_OUTLINE
100
AcDbLine
 10
223.0
 20
210.0
 30
0.0
 11
222.0
 21
210.0
 31
0.0
  0
LINE
  5
299
330
17
100
AcDbEntity
  8
01_CUT_OUTLINE
100
AcDbLine
 10
222.0
 20
210.0
 30
0.0
 11
221.0
 21
210.0
 31
0.0
  0
LINE
  5
29A
330
17
100
AcDbEntity
  8
01_CUT_OUTLINE
100
AcDbLine
 10
221.0
 20
210.0
 30
0.0
 11
220.0
 21
210.0
 31
0.0
  0
LINE
  5
29B
330
17
100
AcDbEntity
  8
01_CUT_OUTLINE
100
AcDbLine
 10
220.0
 20
210.0
 30
0.0
 11
219.0
 21
211.0
 31
0.0
  0
LINE
  5
29C
330
17
100
AcDbEntity
  8
01_CUT_OUTLINE
100
AcDbLine
 10
219.0
 20
211.0
 30
0.0
 11
218.0
 21
212.0
 31
0.0
  0
LINE
  5
29D
330
17
100
AcDbEntity
  8
01_CUT_OUTLINE
100
AcDbLine
 10
218.0
 20
212.0
 30
0.0
 11
218.0
 21
213.0
 31
0.0
  0
LINE
  5
29E
330
17
100
AcDbEntity
  8
01_CUT_OUTLINE
100
AcDbLine
 10
218.0
 20
213.0
 30
0.0
 11
218.0
 21
214.0
 31
0.0
  0
LINE
  5
29F
330
17
100
AcDbEntity
  8
01_CUT_OUTLINE
100
AcDbLine
 10
218.0
 20
214.0
 30
0.0
 11
219.0
 21
215.0
 31
0.0
  0
LINE
  5
2A0
330
17
100
AcDbEntity
  8
01_CUT_OUTLINE
100
AcDbLine
 10
219.0
 20
215.0
 30
0.0
 11
220.0
 21
215.0
 31
0.0
  0
LINE
  5
2A1
330
17
100
AcDbEntity
  8
01_CUT_OUTLINE
100
AcDbLine
 10
220.0
 20
215.0
 30
0.0
 11
221.0
 21
215.0
 31
0.0
  0
LINE
  5
2A2
330
17
100
AcDbEntity
  8
01_CUT_OUTLINE
100
AcDbLine
 10
221.0
 20
215.0
 30
0.0
 11
222.0
 21
215.0
 31
0.0
  0
LINE
  5
2A3
330
17
100
AcDbEntity
  8
01_CUT_OUTLINE
100
AcDbLine
 10
222.0
 20
215.0
 30
0.0
 11
223.0
 21
216.0
 31
0.0
  0
LINE
  5
2A4
330
17
100
AcDbEntity
  8
01_CUT_OUTLINE
100
AcDbLine
 10
223.0
 20
216.0
 30
0.0
 11
223.0
 21
217.0
 31
0.0
  0
LINE
  5
2A5
330
17
100
AcDbEntity
  8
01_CUT_OUTLINE
100
AcDbLine
 10
223.0
 20
217.0
 30
0.0
 11
223.0
 21
218.0
 31
0.0
  0
LINE
  5
2A6
330
17
100
AcDbEntity
  8
01_CUT_OUTLINE
100
AcDbLine
 10
223.0
 20
218.0
 30
0.0
 11
223.0
 21
219.0
 31
0.0
  0
LINE
  5
2A7
330
17
100
AcDbEntity
  8
01_CUT_OUTLINE
100
AcDbLine
 10
223.0
 20
219.0
 30
0.0
 11
223.0
 21
220.0
 31
0.0
  0
LINE
  5
2A8
330
17
100
AcDbEntity
  8
01_CUT_OUTLINE
100
AcDbLine
 10
223.0
 20
220.0
 30
0.0
 11
223.0
 21
221.0
 31
0.0
  0
LINE
  5
2A9
330
17
100
AcDbEntity
  8
01_CUT_OUTLINE
100
AcDbLine
 10
223.0
 20
221.0
 30
0.0
 11
223.0
 21
222.0
 31
0.0
  0
LINE
  5
2AA
330
17
100
AcDbEntity
  8
01_CUT_OUTLINE
100
AcDbLine
 10
223.0
 20
222.0
 30
0.0
 11
223.0
 21
223.0
 31
0.0
  0
LINE
  5
2AB
330
17
100
AcDbEntity
  8
01_CUT_OUTLINE
100
AcDbLine
 10
223.0
 20
223.0
 30
0.0
 11
223.0
 21
224.0
 31
0.0
  0
LINE
  5
2AC
330
17
100
AcDbEntity
  8
01_CUT_OUTLINE
100
AcDbLine
 10
223.0
 20
224.0
 30
0.0
 11
223.0
 21
225.0
 31
0.0
  0
LINE
  5
2AD
330
17
100
AcDbEntity
  8
01_CUT_OUTLINE
100
AcDbLine
 10
223.0
 20
225.0
 30
0.0
 11
223.0
 21
226.0
 31
0.0
  0
LINE
  5
2AE
330
17
100
AcDbEntity
  8
01_CUT_OUTLINE
100
AcDbLine
 10
223.0
 20
226.0
 30
0.0
 11
223.0
 21
227.0
 31
0.0
  0
LINE
  5
2AF
330
17
100
AcDbEntity
  8
01_CUT_OUTLINE
100
AcDbLine
 10
223.0
 20
227.0
 30
0.0
 11
223.0
 21
228.0
 31
0.0
  0
LINE
  5
2B0
330
17
100
AcDbEntity
  8
01_CUT_OUTLINE
100
AcDbLine
 10
223.0
 20
228.0
 30
0.0
 11
223.0
 21
229.0
 31
0.0
  0
LINE
  5
2B1
330
17
100
AcDbEntity
  8
01_CUT_OUTLINE
100
AcDbLine
 10
223.0
 20
229.0
 30
0.0
 11
223.0
 21
230.0
 31
0.0
  0
LINE
  5
2B2
330
17
100
AcDbEntity
  8
01_CUT_OUTLINE
100
AcDbLine
 10
223.0
 20
230.0
 30
0.0
 11
223.0
 21
231.0
 31
0.0
  0
LINE
  5
2B3
330
17
100
AcDbEntity
  8
01_CUT_OUTLINE
100
AcDbLine
 10
223.0
 20
231.0
 30
0.0
 11
223.0
 21
232.0
 31
0.0
  0
LINE
  5
2B4
330
17
100
AcDbEntity
  8
01_CUT_OUTLINE
100
AcDbLine
 10
223.0
 20
232.0
 30
0.0
 11
223.0
 21
233.0
 31
0.0
  0
LINE
  5
2B5
330
17
100
AcDbEntity
  8
01_CUT_OUTLINE
100
AcDbLine
 10
223.0
 20
233.0
 30
0.0
 11
223.0
 21
234.0
 31
0.0
  0
LINE
  5
2B6
330
17
100
AcDbEntity
  8
01_CUT_OUTLINE
100
AcDbLine
 10
223.0
 20
234.0
 30
0.0
 11
223.0
 21
235.0
 31
0.0
  0
LINE
  5
2B7
330
17
100
AcDbEntity
  8
01_CUT_OUTLINE
100
AcDbLine
 10
223.0
 20
235.0
 30
0.0
 11
223.0
 21
236.0
 31
0.0
  0
LINE
  5
2B8
330
17
100
AcDbEntity
  8
01_CUT_OUTLINE
100
AcDbLine
 10
223.0
 20
236.0
 30
0.0
 11
222.0
 21
237.0
 31
0.0
  0
LINE
  5
2B9
330
17
100
AcDbEntity
  8
01_CUT_OUTLINE
100
AcDbLine
 10
222.0
 20
237.0
 30
0.0
 11
221.0
 21
237.0
 31
0.0
  0
LINE
  5
2BA
330
17
100
AcDbEntity
  8
01_CUT_OUTLINE
100
AcDbLine
 10
221.0
 20
237.0
 30
0.0
 11
220.0
 21
237.0
 31
0.0
  0
LINE
  5
2BB
330
17
100
AcDbEntity
  8
01_CUT_OUTLINE
100
AcDbLine
 10
220.0
 20
237.0
 30
0.0
 11
219.0
 21
237.0
 31
0.0
  0
LINE
  5
2BC
330
17
100
AcDbEntity
  8
01_CUT_OUTLINE
100
AcDbLine
 10
219.0
 20
237.0
 30
0.0
 11
218.0
 21
236.0
 31
0.0
  0
LINE
  5
2BD
330
17
100
AcDbEntity
  8
01_CUT_OUTLINE
100
AcDbLine
 10
218.0
 20
236.0
 30
0.0
 11
217.0
 21
236.0
 31
0.0
  0
LINE
  5
2BE
330
17
100
AcDbEntity
  8
01_CUT_OUTLINE
100
AcDbLine
 10
217.0
 20
236.0
 30
0.0
 11
216.0
 21
237.0
 31
0.0
  0
LINE
  5
2BF
330
17
100
AcDbEntity
  8
01_CUT_OUTLINE
100
AcDbLine
 10
216.0
 20
237.0
 30
0.0
 11
216.0
 21
238.0
 31
0.0
  0
LINE
  5
2C0
330
17
100
AcDbEntity
  8
01_CUT_OUTLINE
100
AcDbLine
 10
216.0
 20
238.0
 30
0.0
 11
216.0
 21
239.0
 31
0.0
  0
LINE
  5
2C1
330
17
100
AcDbEntity
  8
01_CUT_OUTLINE
100
AcDbLine
 10
216.0
 20
239.0
 30
0.0
 11
216.0
 21
240.0
 31
0.0
  0
LINE
  5
2C2
330
17
100
AcDbEntity
  8
01_CUT_OUTLINE
100
AcDbLine
 10
216.0
 20
240.0
 30
0.0
 11
216.0
 21
241.0
 31
0.0
  0
LINE
  5
2C3
330
17
100
AcDbEntity
  8
01_CUT_OUTLINE
100
AcDbLine
 10
216.0
 20
241.0
 30
0.0
 11
216.0
 21
242.0
 31
0.0
  0
LINE
  5
2C4
330
17
100
AcDbEntity
  8
01_CUT_OUTLINE
100
AcDbLine
 10
216.0
 20
242.0
 30
0.0
 11
216.0
 21
243.0
 31
0.0
  0
LINE
  5
2C5
330
17
100
AcDbEntity
  8
01_CUT_OUTLINE
100
AcDbLine
 10
216.0
 20
243.0
 30
0.0
 11
216.0
 21
244.0
 31
0.0
  0
LINE
  5
2C6
330
17
100
AcDbEntity
  8
01_CUT_OUTLINE
100
AcDbLine
 10
216.0
 20
244.0
 30
0.0
 11
216.0
 21
245.0
 31
0.0
  0
LINE
  5
2C7
330
17
100
AcDbEntity
  8
01_CUT_OUTLINE
100
AcDbLine
 10
216.0
 20
245.0
 30
0.0
 11
216.0
 21
246.0
 31
0.0
  0
LINE
  5
2C8
330
17
100
AcDbEntity
  8
01_CUT_OUTLINE
100
AcDbLine
 10
216.0
 20
246.0
 30
0.0
 11
216.0
 21
247.0
 31
0.0
  0
LINE
  5
2C9
330
17
100
AcDbEntity
  8
01_CUT_OUTLINE
100
AcDbLine
 10
216.0
 20
247.0
 30
0.0
 11
216.0
 21
248.0
 31
0.0
  0
ARC
  5
2CA
330
17
100
AcDbEntity
  8
01_CUT_OUTLINE
100
AcDbCircle
 10
207.402
 20
239.7716
 30
0.0
 40
10.134535509090576
100
AcDbArc
 50
25.208756997982658
 51
23.781853349265475
  0
LINE
  5
2CB
330
17
100
AcDbEntity
  8
01_CUT_OUTLINE
100
AcDbLine
 10
185.0
 20
249.0
 30
0.0
 11
184.0
 21
249.0
 31
0.0
  0
ARC
  5
2CC
330
17
100
AcDbEntity
  8
01_CUT_OUTLINE
100
AcDbCircle
 10
191.0759
 20
240.3597
 30
0.0
 40
9.915226902411097
100
AcDbArc
 50
30.966011302474655
 51
21.369827675341508
  0
LINE
  5
2CD
330
17
100
AcDbEntity
  8
01_CUT_OUTLINE
100
AcDbLine
 10
186.0
 20
223.0
 30
0.0
 11
187.0
 21
223.0
 31
0.0
  0
LINE
  5
2CE
330
17
100
AcDbEntity
  8
01_CUT_OUTLINE
100
AcDbLine
 10
187.0
 20
223.0
 30
0.0
 11
188.0
 21
223.0
 31
0.0
  0
LINE
  5
2CF
330
17
100
AcDbEntity
  8
01_CUT_OUTLINE
100
AcDbLine
 10
188.0
 20
223.0
 30
0.0
 11
189.0
 21
223.0
 31
0.0
  0
LINE
  5
2D0
330
17
100
AcDbEntity
  8
01_CUT_OUTLINE
100
AcDbLine
 10
189.0
 20
223.0
 30
0.0
 11
190.0
 21
223.0
 31
0.0
  0
LINE
  5
2D1
330
17
100
AcDbEntity
  8
01_CUT_OUTLINE
100
AcDbLine
 10
190.0
 20
223.0
 30
0.0
 11
191.0
 21
223.0
 31
0.0
  0
LINE
  5
2D2
330
17
100
AcDbEntity
  8
01_CUT_OUTLINE
100
AcDbLine
 10
191.0
 20
223.0
 30
0.0
 11
192.0
 21
223.0
 31
0.0
  0
LINE
  5
2D3
330
17
100
AcDbEntity
  8
01_CUT_OUTLINE
100
AcDbLine
 10
192.0
 20
223.0
 30
0.0
 11
193.0
 21
223.0
 31
0.0
  0
LINE
  5
2D4
330
17
100
AcDbEntity
  8
01_CUT_OUTLINE
100
AcDbLine
 10
193.0
 20
223.0
 30
0.0
 11
194.0
 21
223.0
 31
0.0
  0
LINE
  5
2D5
330
17
100
AcDbEntity
  8
01_CUT_OUTLINE
100
AcDbLine
 10
194.0
 20
223.0
 30
0.0
 11
195.0
 21
223.0
 31
0.0
  0
LINE
  5
2D6
330
17
100
AcDbEntity
  8
01_CUT_OUTLINE
100
AcDbLine
 10
195.0
 20
223.0
 30
0.0
 11
196.0
 21
223.0
 31
0.0
  0
LINE
  5
2D7
330
17
100
AcDbEntity
  8
01_CUT_OUTLINE
100
AcDbLine
 10
196.0
 20
223.0
 30
0.0
 11
197.0
 21
223.0
 31
0.0
  0
LINE
  5
2D8
330
17
100
AcDbEntity
  8
01_CUT_OUTLINE
100
AcDbLine
 10
197.0
 20
223.0
 30
0.0
 11
198.0
 21
223.0
 31
0.0
  0
LINE
  5
2D9
330
17
100
AcDbEntity
  8
01_CUT_OUTLINE
100
AcDbLine
 10
198.0
 20
223.0
 30
0.0
 11
199.0
 21
223.0
 31
0.0
  0
LINE
  5
2DA
330
17
100
AcDbEntity
  8
01_CUT_OUTLINE
100
AcDbLine
 10
199.0
 20
223.0
 30
0.0
 11
200.0
 21
223.0
 31
0.0
  0
LINE
  5
2DB
330
17
100
AcDbEntity
  8
01_CUT_OUTLINE
100
AcDbLine
 10
200.0
 20
223.0
 30
0.0
 11
201.0
 21
223.0
 31
0.0
  0
LINE
  5
2DC
330
17
100
AcDbEntity
  8
01_CUT_OUTLINE
100
AcDbLine
 10
201.0
 20
223.0
 30
0.0
 11
202.0
 21
223.0
 31
0.0
  0
LINE
  5
2DD
330
17
100
AcDbEntity
  8
01_CUT_OUTLINE
100
AcDbLine
 10
202.0
 20
223.0
 30
0.0
 11
203.0
 21
223.0
 31
0.0
  0
LINE
  5
2DE
330
17
100
AcDbEntity
  8
01_CUT_OUTLINE
100
AcDbLine
 10
203.0
 20
223.0
 30
0.0
 11
204.0
 21
223.0
 31
0.0
  0
LINE
  5
2DF
330
17
100
AcDbEntity
  8
01_CUT_OUTLINE
100
AcDbLine
 10
204.0
 20
223.0
 30
0.0
 11
205.0
 21
223.0
 31
0.0
  0
LINE
  5
2E0
330
17
100
AcDbEntity
  8
01_CUT_OUTLINE
100
AcDbLine
 10
205.0
 20
223.0
 30
0.0
 11
206.0
 21
223.0
 31
0.0
  0
LINE
  5
2E1
330
17
100
AcDbEntity
  8
01_CUT_OUTLINE
100
AcDbLine
 10
206.0
 20
223.0
 30
0.0
 11
207.0
 21
223.0
 31
0.0
  0
LINE
  5
2E2
330
17
100
AcDbEntity
  8
01_CUT_OUTLINE
100
AcDbLine
 10
207.0
 20
223.0
 30
0.0
 11
208.0
 21
223.0
 31
0.0
  0
LINE
  5
2E3
330
17
100
AcDbEntity
  8
01_CUT_OUTLINE
100
AcDbLine
 10
208.0
 20
223.0
 30
0.0
 11
209.0
 21
223.0
 31
0.0
  0
LINE
  5
2E4
330
17
100
AcDbEntity
  8
01_CUT_OUTLINE
100
AcDbLine
 10
209.0
 20
223.0
 30
0.0
 11
210.0
 21
223.0
 31
0.0
  0
LINE
  5
2E5
330
17
100
AcDbEntity
  8
01_CUT_OUTLINE
100
AcDbLine
 10
210.0
 20
223.0
 30
0.0
 11
211.0
 21
223.0
 31
0.0
  0
LINE
  5
2E6
330
17
100
AcDbEntity
  8
01_CUT_OUTLINE
100
AcDbLine
 10
211.0
 20
223.0
 30
0.0
 11
212.0
 21
223.0
 31
0.0
  0
LINE
  5
2E7
330
17
100
AcDbEntity
  8
01_CUT_OUTLINE
100
AcDbLine
 10
212.0
 20
223.0
 30
0.0
 11
213.0
 21
223.0
 31
0.0
  0
LINE
  5
2E8
330
17
100
AcDbEntity
  8
01_CUT_OUTLINE
100
AcDbLine
 10
213.0
 20
223.0
 30
0.0
 11
214.0
 21
223.0
 31
0.0
  0
LINE
  5
2E9
330
17
100
AcDbEntity
  8
01_CUT_OUTLINE
100
AcDbLine
 10
214.0
 20
223.0
 30
0.0
 11
215.0
 21
223.0
 31
0.0
  0
LINE
  5
2EA
330
17
100
AcDbEntity
  8
01_CUT_OUTLINE
100
AcDbLine
 10
215.0
 20
223.0
 30
0.0
 11
216.0
 21
222.0
 31
0.0
  0
LINE
  5
2EB
330
17
100
AcDbEntity
  8
01_CUT_OUTLINE
100
AcDbLine
 10
216.0
 20
222.0
 30
0.0
 11
216.0
 21
221.0
 31
0.0
  0
ARC
  5
2EC
330
17
100
AcDbEntity
  8
01_CUT_OUTLINE
100
AcDbCircle
 10
210.1872
 20
219.5448
 30
0.0
 40
5.347155068316298
100
AcDbArc
 50
26.857475067441
 51
29.00018368752498
  0
LINE
  5
2ED
330
17
100
AcDbEntity
  8
01_CUT_OUTLINE
100
AcDbLine
 10
190.0
 20
216.0
 30
0.0
 11
189.0
 21
216.0
 31
0.0
  0
LINE
  5
2EE
330
17
100
AcDbEntity
  8
01_CUT_OUTLINE
100
AcDbLine
 10
189.0
 20
216.0
 30
0.0
 11
188.0
 21
216.0
 31
0.0
  0
LINE
  5
2EF
330
17
100
AcDbEntity
  8
01_CUT_OUTLINE
100
AcDbLine
 10
188.0
 20
216.0
 30
0.0
 11
187.0
 21
216.0
 31
0.0
  0
LINE
  5
2F0
330
17
100
AcDbEntity
  8
01_CUT_OUTLINE
100
AcDbLine
 10
187.0
 20
216.0
 30
0.0
 11
186.0
 21
216.0
 31
0.0
  0
LINE
  5
2F1
330
17
100
AcDbEntity
  8
01_CUT_OUTLINE
100
AcDbLine
 10
186.0
 20
216.0
 30
0.0
 11
185.0
 21
216.0
 31
0.0
  0
LINE
  5
2F2
330
17
100
AcDbEntity
  8
01_CUT_OUTLINE
100
AcDbLine
 10
185.0
 20
216.0
 30
0.0
 11
184.0
 21
216.0
 31
0.0
  0
LINE
  5
2F3
330
17
100
AcDbEntity
  8
01_CUT_OUTLINE
100
AcDbLine
 10
184.0
 20
216.0
 30
0.0
 11
183.0
 21
216.0
 31
0.0
  0
LINE
  5
2F4
330
17
100
AcDbEntity
  8
01_CUT_OUTLINE
100
AcDbLine
 10
183.0
 20
216.0
 30
0.0
 11
182.0
 21
216.0
 31
0.0
  0
LINE
  5
2F5
330
17
100
AcDbEntity
  8
01_CUT_OUTLINE
100
AcDbLine
 10
182.0
 20
216.0
 30
0.0
 11
181.0
 21
216.0
 31
0.0
  0
LINE
  5
2F6
330
17
100
AcDbEntity
  8
01_CUT_OUTLINE
100
AcDbLine
 10
181.0
 20
216.0
 30
0.0
 11
180.0
 21
215.0
 31
0.0
  0
LINE
  5
2F7
330
17
100
AcDbEntity
  8
01_CUT_OUTLINE
100
AcDbLine
 10
180.0
 20
215.0
 30
0.0
 11
179.0
 21
215.0
 31
0.0
  0
ARC
  5
2F8
330
17
100
AcDbEntity
  8
01_CUT_OUTLINE
100
AcDbCircle
 10
185.2686
 20
224.5273
 30
0.0
 40
10.063029483504693
100
AcDbArc
 50
26.64001811402835
 51
28.175769208944867
  0
LINE
  5
2F9
330
17
100
AcDbEntity
  8
01_CUT_OUTLINE
100
AcDbLine
 10
176.0
 20
245.0
 30
0.0
 11
176.0
 21
246.0
 31
0.0
  0
LINE
  5
2FA
330
17
100
AcDbEntity
  8
01_CUT_OUTLINE
100
AcDbLine
 10
176.0
 20
246.0
 30
0.0
 11
176.0
 21
247.0
 31
0.0
  0
LINE
  5
2FB
330
17
100
AcDbEntity
  8
01_CUT_OUTLINE
100
AcDbLine
 10
176.0
 20
247.0
 30
0.0
 11
176.0
 21
248.0
 31
0.0
  0
LINE
  5
2FC
330
17
100
AcDbEntity
  8
01_CUT_OUTLINE
100
AcDbLine
 10
176.0
 20
248.0
 30
0.0
 11
176.0
 21
249.0
 31
0.0
  0
LINE
  5
2FD
330
17
100
AcDbEntity
  8
01_CUT_OUTLINE
100
AcDbLine
 10
176.0
 20
249.0
 30
0.0
 11
176.0
 21
250.0
 31
0.0
  0
LINE
  5
2FE
330
17
100
AcDbEntity
  8
01_CUT_OUTLINE
100
AcDbLine
 10
176.0
 20
250.0
 30
0.0
 11
176.0
 21
251.0
 31
0.0
  0
LINE
  5
2FF
330
17
100
AcDbEntity
  8
01_CUT_OUTLINE
100
AcDbLine
 10
176.0
 20
251.0
 30
0.0
 11
176.0
 21
252.0
 31
0.0
  0
LINE
  5
300
330
17
100
AcDbEntity
  8
01_CUT_OUTLINE
100
AcDbLine
 10
176.0
 20
252.0
 30
0.0
 11
176.0
 21
253.0
 31
0.0
  0
LINE
  5
301
330
17
100
AcDbEntity
  8
01_CUT_OUTLINE
100
AcDbLine
 10
176.0
 20
253.0
 30
0.0
 11
176.0
 21
254.0
 31
0.0
  0
LINE
  5
302
330
17
100
AcDbEntity
  8
01_CUT_OUTLINE
100
AcDbLine
 10
176.0
 20
254.0
 30
0.0
 11
176.0
 21
255.0
 31
0.0
  0
LINE
  5
303
330
17
100
AcDbEntity
  8
01_CUT_OUTLINE
100
AcDbLine
 10
176.0
 20
255.0
 30
0.0
 11
176.0
 21
256.0
 31
0.0
  0
LINE
  5
304
330
17
100
AcDbEntity
  8
01_CUT_OUTLINE
100
AcDbLine
 10
176.0
 20
256.0
 30
0.0
 11
176.0
 21
257.0
 31
0.0
  0
LINE
  5
305
330
17
100
AcDbEntity
  8
01_CUT_OUTLINE
100
AcDbLine
 10
176.0
 20
257.0
 30
0.0
 11
176.0
 21
258.0
 31
0.0
  0
LINE
  5
306
330
17
100
AcDbEntity
  8
01_CUT_OUTLINE
100
AcDbLine
 10
176.0
 20
258.0
 30
0.0
 11
176.0
 21
259.0
 31
0.0
  0
LINE
  5
307
330
17
100
AcDbEntity
  8
01_CUT_OUTLINE
100
AcDbLine
 10
176.0
 20
259.0
 30
0.0
 11
176.0
 21
260.0
 31
0.0
  0
LINE
  5
308
330
17
100
AcDbEntity
  8
01_CUT_OUTLINE
100
AcDbLine
 10
176.0
 20
260.0
 30
0.0
 11
176.0
 21
261.0
 31
0.0
  0
LINE
  5
309
330
17
100
AcDbEntity
  8
01_CUT_OUTLINE
100
AcDbLine
 10
176.0
 20
261.0
 30
0.0
 11
176.0
 21
262.0
 31
0.0
  0
LINE
  5
30A
330
17
100
AcDbEntity
  8
01_CUT_OUTLINE
100
AcDbLine
 10
176.0
 20
262.0
 30
0.0
 11
176.0
 21
263.0
 31
0.0
  0
LINE
  5
30B
330
17
100
AcDbEntity
  8
01_CUT_OUTLINE
100
AcDbLine
 10
176.0
 20
263.0
 30
0.0
 11
176.0
 21
264.0
 31
0.0
  0
LINE
  5
30C
330
17
100
AcDbEntity
  8
01_CUT_OUTLINE
100
AcDbLine
 10
176.0
 20
264.0
 30
0.0
 11
176.0
 21
265.0
 31
0.0
  0
LINE
  5
30D
330
17
100
AcDbEntity
  8
01_CUT_OUTLINE
100
AcDbLine
 10
176.0
 20
265.0
 30
0.0
 11
176.0
 21
266.0
 31
0.0
  0
LINE
  5
30E
330
17
100
AcDbEntity
  8
01_CUT_OUTLINE
100
AcDbLine
 10
176.0
 20
266.0
 30
0.0
 11
176.0
 21
267.0
 31
0.0
  0
LINE
  5
30F
330
17
100
AcDbEntity
  8
01_CUT_OUTLINE
100
AcDbLine
 10
176.0
 20
267.0
 30
0.0
 11
176.0
 21
268.0
 31
0.0
  0
LINE
  5
310
330
17
100
AcDbEntity
  8
01_CUT_OUTLINE
100
AcDbLine
 10
176.0
 20
268.0
 30
0.0
 11
176.0
 21
269.0
 31
0.0
  0
LINE
  5
311
330
17
100
AcDbEntity
  8
01_CUT_OUTLINE
100
AcDbLine
 10
176.0
 20
269.0
 30
0.0
 11
176.0
 21
270.0
 31
0.0
  0
LINE
  5
312
330
17
100
AcDbEntity
  8
01_CUT_OUTLINE
100
AcDbLine
 10
176.0
 20
270.0
 30
0.0
 11
176.0
 21
271.0
 31
0.0
  0
LINE
  5
313
330
17
100
AcDbEntity
  8
01_CUT_OUTLINE
100
AcDbLine
 10
176.0
 20
271.0
 30
0.0
 11
176.0
 21
272.0
 31
0.0
  0
LINE
  5
314
330
17
100
AcDbEntity
  8
01_CUT_OUTLINE
100
AcDbLine
 10
176.0
 20
272.0
 30
0.0
 11
176.0
 21
273.0
 31
0.0
  0
LINE
  5
315
330
17
100
AcDbEntity
  8
01_CUT_OUTLINE
100
AcDbLine
 10
176.0
 20
273.0
 30
0.0
 11
176.0
 21
274.0
 31
0.0
  0
LINE
  5
316
330
17
100
AcDbEntity
  8
01_CUT_OUTLINE
100
AcDbLine
 10
176.0
 20
274.0
 30
0.0
 11
177.0
 21
275.0
 31
0.0
  0
LINE
  5
317
330
17
100
AcDbEntity
  8
01_CUT_OUTLINE
100
AcDbLine
 10
177.0
 20
275.0
 30
0.0
 11
177.0
 21
276.0
 31
0.0
  0
LINE
  5
318
330
17
100
AcDbEntity
  8
01_CUT_OUTLINE
100
AcDbLine
 10
177.0
 20
276.0
 30
0.0
 11
177.0
 21
277.0
 31
0.0
  0
LINE
  5
319
330
17
100
AcDbEntity
  8
01_CUT_OUTLINE
100
AcDbLine
 10
177.0
 20
277.0
 30
0.0
 11
177.0
 21
278.0
 31
0.0
  0
LINE
  5
31A
330
17
100
AcDbEntity
  8
01_CUT_OUTLINE
100
AcDbLine
 10
177.0
 20
278.0
 30
0.0
 11
177.0
 21
279.0
 31
0.0
  0
LINE
  5
31B
330
17
100
AcDbEntity
  8
01_CUT_OUTLINE
100
AcDbLine
 10
177.0
 20
279.0
 30
0.0
 11
178.0
 21
280.0
 31
0.0
  0
LINE
  5
31C
330
17
100
AcDbEntity
  8
01_CUT_OUTLINE
100
AcDbLine
 10
178.0
 20
280.0
 30
0.0
 11
178.0
 21
281.0
 31
0.0
  0
LINE
  5
31D
330
17
100
AcDbEntity
  8
01_CUT_OUTLINE
100
AcDbLine
 10
178.0
 20
281.0
 30
0.0
 11
178.0
 21
282.0
 31
0.0
  0
LINE
  5
31E
330
17
100
AcDbEntity
  8
01_CUT_OUTLINE
100
AcDbLine
 10
178.0
 20
282.0
 30
0.0
 11
179.0
 21
283.0
 31
0.0
  0
LINE
  5
31F
330
17
100
AcDbEntity
  8
01_CUT_OUTLINE
100
AcDbLine
 10
179.0
 20
283.0
 30
0.0
 11
179.0
 21
284.0
 31
0.0
  0
LINE
  5
320
330
17
100
AcDbEntity
  8
01_CUT_OUTLINE
100
AcDbLine
 10
179.0
 20
284.0
 30
0.0
 11
180.0
 21
285.0
 31
0.0
  0
LINE
  5
321
330
17
100
AcDbEntity
  8
01_CUT_OUTLINE
100
AcDbLine
 10
180.0
 20
285.0
 30
0.0
 11
180.0
 21
286.0
 31
0.0
  0
LINE
  5
322
330
17
100
AcDbEntity
  8
01_CUT_OUTLINE
100
AcDbLine
 10
180.0
 20
286.0
 30
0.0
 11
181.0
 21
287.0
 31
0.0
  0
LINE
  5
323
330
17
100
AcDbEntity
  8
01_CUT_OUTLINE
100
AcDbLine
 10
181.0
 20
287.0
 30
0.0
 11
182.0
 21
288.0
 31
0.0
  0
LINE
  5
324
330
17
100
AcDbEntity
  8
01_CUT_OUTLINE
100
AcDbLine
 10
182.0
 20
288.0
 30
0.0
 11
182.0
 21
289.0
 31
0.0
  0
LINE
  5
325
330
17
100
AcDbEntity
  8
01_CUT_OUTLINE
100
AcDbLine
 10
182.0
 20
289.0
 30
0.0
 11
183.0
 21
290.0
 31
0.0
  0
LINE
  5
326
330
17
100
AcDbEntity
  8
01_CUT_OUTLINE
100
AcDbLine
 10
183.0
 20
290.0
 30
0.0
 11
184.0
 21
291.0
 31
0.0
  0
ARC
  5
327
330
17
100
AcDbEntity
  8
01_CUT_OUTLINE
100
AcDbCircle
 10
215.8539
 20
264.6502
 30
0.0
 40
41.171242619213324
100
AcDbArc
 50
10.067889200687034
 51
31.666845171126578
  0
LINE
  5
328
330
17
100
AcDbEntity
  8
01_CUT_OUTLINE
100
AcDbLine
 10
196.0
 20
319.0
 30
0.0
 11
196.0
 21
320.0
 31
0.0
  0
LINE
  5
329
330
17
100
AcDbEntity
  8
01_CUT_OUTLINE
100
AcDbLine
 10
196.0
 20
320.0
 30
0.0
 11
196.0
 21
321.0
 31
0.0
  0
LINE
  5
32A
330
17
100
AcDbEntity
  8
01_CUT_OUTLINE
100
AcDbLine
 10
196.0
 20
321.0
 30
0.0
 11
196.0
 21
322.0
 31
0.0
  0
LINE
  5
32B
330
17
100
AcDbEntity
  8
01_CUT_OUTLINE
100
AcDbLine
 10
196.0
 20
322.0
 30
0.0
 11
196.0
 21
323.0
 31
0.0
  0
LINE
  5
32C
330
17
100
AcDbEntity
  8
01_CUT_OUTLINE
100
AcDbLine
 10
196.0
 20
323.0
 30
0.0
 11
196.0
 21
324.0
 31
0.0
  0
LINE
  5
32D
330
17
100
AcDbEntity
  8
01_CUT_OUTLINE
100
AcDbLine
 10
196.0
 20
324.0
 30
0.0
 11
196.0
 21
325.0
 31
0.0
  0
LINE
  5
32E
330
17
100
AcDbEntity
  8
01_CUT_OUTLINE
100
AcDbLine
 10
196.0
 20
325.0
 30
0.0
 11
196.0
 21
326.0
 31
0.0
  0
LINE
  5
32F
330
17
100
AcDbEntity
  8
01_CUT_OUTLINE
100
AcDbLine
 10
196.0
 20
326.0
 30
0.0
 11
196.0
 21
327.0
 31
0.0
  0
LINE
  5
330
330
17
100
AcDbEntity
  8
01_CUT_OUTLINE
100
AcDbLine
 10
196.0
 20
327.0
 30
0.0
 11
196.0
 21
328.0
 31
0.0
  0
LINE
  5
331
330
17
100
AcDbEntity
  8
01_CUT_OUTLINE
100
AcDbLine
 10
196.0
 20
328.0
 30
0.0
 11
196.0
 21
329.0
 31
0.0
  0
LINE
  5
332
330
17
100
AcDbEntity
  8
01_CUT_OUTLINE
100
AcDbLine
 10
196.0
 20
329.0
 30
0.0
 11
196.0
 21
330.0
 31
0.0
  0
LINE
  5
333
330
17
100
AcDbEntity
  8
01_CUT_OUTLINE
100
AcDbLine
 10
196.0
 20
330.0
 30
0.0
 11
196.0
 21
331.0
 31
0.0
  0
LINE
  5
334
330
17
100
AcDbEntity
  8
01_CUT_OUTLINE
100
AcDbLine
 10
196.0
 20
331.0
 30
0.0
 11
196.0
 21
332.0
 31
0.0
  0
LINE
  5
335
330
17
100
AcDbEntity
  8
01_CUT_OUTLINE
100
AcDbLine
 10
196.0
 20
332.0
 30
0.0
 11
196.0
 21
333.0
 31
0.0
  0
LINE
  5
336
330
17
100
AcDbEntity
  8
01_CUT_OUTLINE
100
AcDbLine
 10
196.0
 20
333.0
 30
0.0
 11
196.0
 21
334.0
 31
0.0
  0
LINE
  5
337
330
17
100
AcDbEntity
  8
01_CUT_OUTLINE
100
AcDbLine
 10
196.0
 20
334.0
 30
0.0
 11
196.0
 21
335.0
 31
0.0
  0
LINE
  5
338
330
17
100
AcDbEntity
  8
01_CUT_OUTLINE
100
AcDbLine
 10
196.0
 20
335.0
 30
0.0
 11
196.0
 21
336.0
 31
0.0
  0
LINE
  5
339
330
17
100
AcDbEntity
  8
01_CUT_OUTLINE
100
AcDbLine
 10
196.0
 20
336.0
 30
0.0
 11
196.0
 21
337.0
 31
0.0
  0
LINE
  5
33A
330
17
100
AcDbEntity
  8
01_CUT_OUTLINE
100
AcDbLine
 10
196.0
 20
337.0
 30
0.0
 11
196.0
 21
338.0
 31
0.0
  0
LINE
  5
33B
330
17
100
AcDbEntity
  8
01_CUT_OUTLINE
100
AcDbLine
 10
196.0
 20
338.0
 30
0.0
 11
196.0
 21
339.0
 31
0.0
  0
LINE
  5
33C
330
17
100
AcDbEntity
  8
01_CUT_OUTLINE
100
AcDbLine
 10
196.0
 20
339.0
 30
0.0
 11
196.0
 21
340.0
 31
0.0
  0
LINE
  5
33D
330
17
100
AcDbEntity
  8
01_CUT_OUTLINE
100
AcDbLine
 10
196.0
 20
340.0
 30
0.0
 11
196.0
 21
341.0
 31
0.0
  0
LINE
  5
33E
330
17
100
AcDbEntity
  8
01_CUT_OUTLINE
100
AcDbLine
 10
196.0
 20
341.0
 30
0.0
 11
196.0
 21
342.0
 31
0.0
  0
LINE
  5
33F
330
17
100
AcDbEntity
  8
01_CUT_OUTLINE
100
AcDbLine
 10
196.0
 20
342.0
 30
0.0
 11
196.0
 21
343.0
 31
0.0
  0
LINE
  5
340
330
17
100
AcDbEntity
  8
01_CUT_OUTLINE
100
AcDbLine
 10
196.0
 20
343.0
 30
0.0
 11
196.0
 21
344.0
 31
0.0
  0
LINE
  5
341
330
17
100
AcDbEntity
  8
01_CUT_OUTLINE
100
AcDbLine
 10
196.0
 20
344.0
 30
0.0
 11
196.0
 21
345.0
 31
0.0
  0
LINE
  5
342
330
17
100
AcDbEntity
  8
01_CUT_OUTLINE
100
AcDbLine
 10
196.0
 20
345.0
 30
0.0
 11
197.0
 21
346.0
 31
0.0
  0
LINE
  5
343
330
17
100
AcDbEntity
  8
01_CUT_OUTLINE
100
AcDbLine
 10
197.0
 20
346.0
 30
0.0
 11
197.0
 21
347.0
 31
0.0
  0
LINE
  5
344
330
17
100
AcDbEntity
  8
01_CUT_OUTLINE
100
AcDbLine
 10
197.0
 20
347.0
 30
0.0
 11
197.0
 21
348.0
 31
0.0
  0
LINE
  5
345
330
17
100
AcDbEntity
  8
01_CUT_OUTLINE
100
AcDbLine
 10
197.0
 20
348.0
 30
0.0
 11
197.0
 21
349.0
 31
0.0
  0
LINE
  5
346
330
17
100
AcDbEntity
  8
01_CUT_OUTLINE
100
AcDbLine
 10
197.0
 20
349.0
 30
0.0
 11
197.0
 21
350.0
 31
0.0
  0
LINE
  5
347
330
17
100
AcDbEntity
  8
01_CUT_OUTLINE
100
AcDbLine
 10
197.0
 20
350.0
 30
0.0
 11
197.0
 21
351.0
 31
0.0
  0
LINE
  5
348
330
17
100
AcDbEntity
  8
01_CUT_OUTLINE
100
AcDbLine
 10
197.0
 20
351.0
 30
0.0
 11
197.0
 21
352.0
 31
0.0
  0
LINE
  5
349
330
17
100
AcDbEntity
  8
01_CUT_OUTLINE
100
AcDbLine
 10
197.0
 20
352.0
 30
0.0
 11
197.0
 21
353.0
 31
0.0
  0
LINE
  5
34A
330
17
100
AcDbEntity
  8
01_CUT_OUTLINE
100
AcDbLine
 10
197.0
 20
353.0
 30
0.0
 11
197.0
 21
354.0
 31
0.0
  0
LINE
  5
34B
330
17
100
AcDbEntity
  8
01_CUT_OUTLINE
100
AcDbLine
 10
197.0
 20
354.0
 30
0.0
 11
197.0
 21
355.0
 31
0.0
  0
LINE
  5
34C
330
17
100
AcDbEntity
  8
01_CUT_OUTLINE
100
AcDbLine
 10
197.0
 20
355.0
 30
0.0
 11
197.0
 21
356.0
 31
0.0
  0
LINE
  5
34D
330
17
100
AcDbEntity
  8
01_CUT_OUTLINE
100
AcDbLine
 10
197.0
 20
356.0
 30
0.0
 11
197.0
 21
357.0
 31
0.0
  0
LINE
  5
34E
330
17
100
AcDbEntity
  8
01_CUT_OUTLINE
100
AcDbLine
 10
197.0
 20
357.0
 30
0.0
 11
197.0
 21
358.0
 31
0.0
  0
LINE
  5
34F
330
17
100
AcDbEntity
  8
01_CUT_OUTLINE
100
AcDbLine
 10
197.0
 20
358.0
 30
0.0
 11
197.0
 21
359.0
 31
0.0
  0
LINE
  5
350
330
17
100
AcDbEntity
  8
01_CUT_OUTLINE
100
AcDbLine
 10
197.0
 20
359.0
 30
0.0
 11
196.0
 21
360.0
 31
0.0
  0
LINE
  5
351
330
17
100
AcDbEntity
  8
01_CUT_OUTLINE
100
AcDbLine
 10
196.0
 20
360.0
 30
0.0
 11
196.0
 21
361.0
 31
0.0
  0
LINE
  5
352
330
17
100
AcDbEntity
  8
01_CUT_OUTLINE
100
AcDbLine
 10
196.0
 20
361.0
 30
0.0
 11
197.0
 21
362.0
 31
0.0
  0
LINE
  5
353
330
17
100
AcDbEntity
  8
01_CUT_OUTLINE
100
AcDbLine
 10
197.0
 20
362.0
 30
0.0
 11
197.0
 21
363.0
 31
0.0
  0
LINE
  5
354
330
17
100
AcDbEntity
  8
01_CUT_OUTLINE
100
AcDbLine
 10
197.0
 20
363.0
 30
0.0
 11
197.0
 21
364.0
 31
0.0
  0
LINE
  5
355
330
17
100
AcDbEntity
  8
01_CUT_OUTLINE
100
AcDbLine
 10
197.0
 20
364.0
 30
0.0
 11
196.0
 21
365.0
 31
0.0
  0
LINE
  5
356
330
17
100
AcDbEntity
  8
01_CUT_OUTLINE
100
AcDbLine
 10
196.0
 20
365.0
 30
0.0
 11
196.0
 21
366.0
 31
0.0
  0
LINE
  5
357
330
17
100
AcDbEntity
  8
01_CUT_OUTLINE
100
AcDbLine
 10
196.0
 20
366.0
 30
0.0
 11
196.0
 21
367.0
 31
0.0
  0
LINE
  5
358
330
17
100
AcDbEntity
  8
01_CUT_OUTLINE
100
AcDbLine
 10
196.0
 20
367.0
 30
0.0
 11
196.0
 21
368.0
 31
0.0
  0
LINE
  5
359
330
17
100
AcDbEntity
  8
01_CUT_OUTLINE
100
AcDbLine
 10
196.0
 20
368.0
 30
0.0
 11
196.0
 21
369.0
 31
0.0
  0
LINE
  5
35A
330
17
100
AcDbEntity
  8
01_CUT_OUTLINE
100
AcDbLine
 10
196.0
 20
369.0
 30
0.0
 11
197.0
 21
370.0
 31
0.0
  0
LINE
  5
35B
330
17
100
AcDbEntity
  8
01_CUT_OUTLINE
100
AcDbLine
 10
197.0
 20
370.0
 30
0.0
 11
197.0
 21
371.0
 31
0.0
  0
LINE
  5
35C
330
17
100
AcDbEntity
  8
01_CUT_OUTLINE
100
AcDbLine
 10
197.0
 20
371.0
 30
0.0
 11
197.0
 21
372.0
 31
0.0
  0
LINE
  5
35D
330
17
100
AcDbEntity
  8
01_CUT_OUTLINE
100
AcDbLine
 10
197.0
 20
372.0
 30
0.0
 11
196.0
 21
373.0
 31
0.0
  0
LINE
  5
35E
330
17
100
AcDbEntity
  8
01_CUT_OUTLINE
100
AcDbLine
 10
196.0
 20
373.0
 30
0.0
 11
196.0
 21
374.0
 31
0.0
  0
LINE
  5
35F
330
17
100
AcDbEntity
  8
01_CUT_OUTLINE
100
AcDbLine
 10
196.0
 20
374.0
 30
0.0
 11
196.0
 21
375.0
 31
0.0
  0
LINE
  5
360
330
17
100
AcDbEntity
  8
01_CUT_OUTLINE
100
AcDbLine
 10
196.0
 20
375.0
 30
0.0
 11
196.0
 21
376.0
 31
0.0
  0
LINE
  5
361
330
17
100
AcDbEntity
  8
01_CUT_OUTLINE
100
AcDbLine
 10
196.0
 20
376.0
 30
0.0
 11
196.0
 21
377.0
 31
0.0
  0
LINE
  5
362
330
17
100
AcDbEntity
  8
01_CUT_OUTLINE
100
AcDbLine
 10
196.0
 20
377.0
 30
0.0
 11
196.0
 21
378.0
 31
0.0
  0
LINE
  5
363
330
17
100
AcDbEntity
  8
01_CUT_OUTLINE
100
AcDbLine
 10
196.0
 20
378.0
 30
0.0
 11
196.0
 21
379.0
 31
0.0
  0
LINE
  5
364
330
17
100
AcDbEntity
  8
01_CUT_OUTLINE
100
AcDbLine
 10
196.0
 20
379.0
 30
0.0
 11
196.0
 21
380.0
 31
0.0
  0
LINE
  5
365
330
17
100
AcDbEntity
  8
01_CUT_OUTLINE
100
AcDbLine
 10
196.0
 20
380.0
 30
0.0
 11
196.0
 21
381.0
 31
0.0
  0
LINE
  5
366
330
17
100
AcDbEntity
  8
01_CUT_OUTLINE
100
AcDbLine
 10
196.0
 20
381.0
 30
0.0
 11
197.0
 21
382.0
 31
0.0
  0
LINE
  5
367
330
17
100
AcDbEntity
  8
01_CUT_OUTLINE
100
AcDbLine
 10
197.0
 20
382.0
 30
0.0
 11
198.0
 21
382.0
 31
0.0
  0
LINE
  5
368
330
17
100
AcDbEntity
  8
01_CUT_OUTLINE
100
AcDbLine
 10
198.0
 20
382.0
 30
0.0
 11
199.0
 21
382.0
 31
0.0
  0
LINE
  5
369
330
17
100
AcDbEntity
  8
01_CUT_OUTLINE
100
AcDbLine
 10
199.0
 20
382.0
 30
0.0
 11
200.0
 21
382.0
 31
0.0
  0
LINE
  5
36A
330
17
100
AcDbEntity
  8
01_CUT_OUTLINE
100
AcDbLine
 10
200.0
 20
382.0
 30
0.0
 11
201.0
 21
382.0
 31
0.0
  0
LINE
  5
36B
330
17
100
AcDbEntity
  8
01_CUT_OUTLINE
100
AcDbLine
 10
201.0
 20
382.0
 30
0.0
 11
202.0
 21
382.0
 31
0.0
  0
LINE
  5
36C
330
17
100
AcDbEntity
  8
01_CUT_OUTLINE
100
AcDbLine
 10
202.0
 20
382.0
 30
0.0
 11
202.0
 21
383.0
 31
0.0
  0
LINE
  5
36D
330
17
100
AcDbEntity
  8
01_CUT_OUTLINE
100
AcDbLine
 10
202.0
 20
383.0
 30
0.0
 11
202.0
 21
384.0
 31
0.0
  0
LINE
  5
36E
330
17
100
AcDbEntity
  8
01_CUT_OUTLINE
100
AcDbLine
 10
202.0
 20
384.0
 30
0.0
 11
201.0
 21
384.0
 31
0.0
  0
LINE
  5
36F
330
17
100
AcDbEntity
  8
01_CUT_OUTLINE
100
AcDbLine
 10
201.0
 20
384.0
 30
0.0
 11
200.0
 21
384.0
 31
0.0
  0
LINE
  5
370
330
17
100
AcDbEntity
  8
01_CUT_OUTLINE
100
AcDbLine
 10
200.0
 20
384.0
 30
0.0
 11
199.0
 21
384.0
 31
0.0
  0
LINE
  5
371
330
17
100
AcDbEntity
  8
01_CUT_OUTLINE
100
AcDbLine
 10
199.0
 20
384.0
 30
0.0
 11
198.0
 21
384.0
 31
0.0
  0
LINE
  5
372
330
17
100
AcDbEntity
  8
01_CUT_OUTLINE
100
AcDbLine
 10
198.0
 20
384.0
 30
0.0
 11
197.0
 21
384.0
 31
0.0
  0
LINE
  5
373
330
17
100
AcDbEntity
  8
01_CUT_OUTLINE
100
AcDbLine
 10
197.0
 20
384.0
 30
0.0
 11
196.0
 21
385.0
 31
0.0
  0
LINE
  5
374
330
17
100
AcDbEntity
  8
01_CUT_OUTLINE
100
AcDbLine
 10
196.0
 20
385.0
 30
0.0
 11
196.0
 21
386.0
 31
0.0
  0
LINE
  5
375
330
17
100
AcDbEntity
  8
01_CUT_OUTLINE
100
AcDbLine
 10
196.0
 20
386.0
 30
0.0
 11
196.0
 21
387.0
 31
0.0
  0
LINE
  5
376
330
17
100
AcDbEntity
  8
01_CUT_OUTLINE
100
AcDbLine
 10
196.0
 20
387.0
 30
0.0
 11
196.0
 21
388.0
 31
0.0
  0
LINE
  5
377
330
17
100
AcDbEntity
  8
01_CUT_OUTLINE
100
AcDbLine
 10
196.0
 20
388.0
 30
0.0
 11
196.0
 21
389.0
 31
0.0
  0
LINE
  5
378
330
17
100
AcDbEntity
  8
01_CUT_OUTLINE
100
AcDbLine
 10
196.0
 20
389.0
 30
0.0
 11
196.0
 21
390.0
 31
0.0
  0
LINE
  5
379
330
17
100
AcDbEntity
  8
01_CUT_OUTLINE
100
AcDbLine
 10
196.0
 20
390.0
 30
0.0
 11
196.0
 21
391.0
 31
0.0
  0
LINE
  5
37A
330
17
100
AcDbEntity
  8
01_CUT_OUTLINE
100
AcDbLine
 10
196.0
 20
391.0
 30
0.0
 11
197.0
 21
392.0
 31
0.0
  0
LINE
  5
37B
330
17
100
AcDbEntity
  8
01_CUT_OUTLINE
100
AcDbLine
 10
197.0
 20
392.0
 30
0.0
 11
196.0
 21
393.0
 31
0.0
  0
LINE
  5
37C
330
17
100
AcDbEntity
  8
01_CUT_OUTLINE
100
AcDbLine
 10
196.0
 20
393.0
 30
0.0
 11
196.0
 21
394.0
 31
0.0
  0
LINE
  5
37D
330
17
100
AcDbEntity
  8
01_CUT_OUTLINE
100
AcDbLine
 10
196.0
 20
394.0
 30
0.0
 11
196.0
 21
395.0
 31
0.0
  0
LINE
  5
37E
330
17
100
AcDbEntity
  8
01_CUT_OUTLINE
100
AcDbLine
 10
196.0
 20
395.0
 30
0.0
 11
196.0
 21
396.0
 31
0.0
  0
LINE
  5
37F
330
17
100
AcDbEntity
  8
01_CUT_OUTLINE
100
AcDbLine
 10
196.0
 20
396.0
 30
0.0
 11
196.0
 21
397.0
 31
0.0
  0
LINE
  5
380
330
17
100
AcDbEntity
  8
01_CUT_OUTLINE
100
AcDbLine
 10
196.0
 20
397.0
 30
0.0
 11
196.0
 21
398.0
 31
0.0
  0
LINE
  5
381
330
17
100
AcDbEntity
  8
01_CUT_OUTLINE
100
AcDbLine
 10
196.0
 20
398.0
 30
0.0
 11
196.0
 21
399.0
 31
0.0
  0
LINE
  5
382
330
17
100
AcDbEntity
  8
01_CUT_OUTLINE
100
AcDbLine
 10
196.0
 20
399.0
 30
0.0
 11
196.0
 21
400.0
 31
0.0
  0
LINE
  5
383
330
17
100
AcDbEntity
  8
01_CUT_OUTLINE
100
AcDbLine
 10
196.0
 20
400.0
 30
0.0
 11
196.0
 21
401.0
 31
0.0
  0
LINE
  5
384
330
17
100
AcDbEntity
  8
01_CUT_OUTLINE
100
AcDbLine
 10
196.0
 20
401.0
 30
0.0
 11
196.0
 21
402.0
 31
0.0
  0
LINE
  5
385
330
17
100
AcDbEntity
  8
01_CUT_OUTLINE
100
AcDbLine
 10
196.0
 20
402.0
 30
0.0
 11
196.0
 21
403.0
 31
0.0
  0
LINE
  5
386
330
17
100
AcDbEntity
  8
01_CUT_OUTLINE
100
AcDbLine
 10
196.0
 20
403.0
 30
0.0
 11
196.0
 21
404.0
 31
0.0
  0
LINE
  5
387
330
17
100
AcDbEntity
  8
01_CUT_OUTLINE
100
AcDbLine
 10
196.0
 20
404.0
 30
0.0
 11
196.0
 21
405.0
 31
0.0
  0
LINE
  5
388
330
17
100
AcDbEntity
  8
01_CUT_OUTLINE
100
AcDbLine
 10
196.0
 20
405.0
 30
0.0
 11
196.0
 21
406.0
 31
0.0
  0
LINE
  5
389
330
17
100
AcDbEntity
  8
01_CUT_OUTLINE
100
AcDbLine
 10
196.0
 20
406.0
 30
0.0
 11
196.0
 21
407.0
 31
0.0
  0
LINE
  5
38A
330
17
100
AcDbEntity
  8
01_CUT_OUTLINE
100
AcDbLine
 10
196.0
 20
407.0
 30
0.0
 11
196.0
 21
408.0
 31
0.0
  0
LINE
  5
38B
330
17
100
AcDbEntity
  8
01_CUT_OUTLINE
100
AcDbLine
 10
196.0
 20
408.0
 30
0.0
 11
196.0
 21
409.0
 31
0.0
  0
LINE
  5
38C
330
17
100
AcDbEntity
  8
01_CUT_OUTLINE
100
AcDbLine
 10
196.0
 20
409.0
 30
0.0
 11
196.0
 21
410.0
 31
0.0
  0
LINE
  5
38D
330
17
100
AcDbEntity
  8
01_CUT_OUTLINE
100
AcDbLine
 10
196.0
 20
410.0
 30
0.0
 11
196.0
 21
411.0
 31
0.0
  0
LINE
  5
38E
330
17
100
AcDbEntity
  8
01_CUT_OUTLINE
100
AcDbLine
 10
196.0
 20
411.0
 30
0.0
 11
196.0
 21
412.0
 31
0.0
  0
LINE
  5
38F
330
17
100
AcDbEntity
  8
01_CUT_OUTLINE
100
AcDbLine
 10
196.0
 20
412.0
 30
0.0
 11
196.0
 21
413.0
 31
0.0
  0
LINE
  5
390
330
17
100
AcDbEntity
  8
01_CUT_OUTLINE
100
AcDbLine
 10
196.0
 20
413.0
 30
0.0
 11
196.0
 21
414.0
 31
0.0
  0
LINE
  5
391
330
17
100
AcDbEntity
  8
01_CUT_OUTLINE
100
AcDbLine
 10
196.0
 20
414.0
 30
0.0
 11
196.0
 21
415.0
 31
0.0
  0
ARC
  5
392
330
17
100
AcDbEntity
  8
01_CUT_OUTLINE
100
AcDbCircle
 10
184.7764
 20
407.3462
 30
0.0
 40
12.135050228871213
100
AcDbArc
 50
27.227954812261828
 51
21.63853945908602
  0
LINE
  5
393
330
17
100
AcDbEntity
  8
01_CUT_OUTLINE
100
AcDbLine
 10
165.0
 20
418.0
 30
0.0
 11
164.0
 21
418.0
 31
0.0
  0
LINE
  5
394
330
17
100
AcDbEntity
  8
01_CUT_OUTLINE
100
AcDbLine
 10
164.0
 20
418.0
 30
0.0
 11
163.0
 21
418.0
 31
0.0
  0
LINE
  5
395
330
17
100
AcDbEntity
  8
01_CUT_OUTLINE
100
AcDbLine
 10
163.0
 20
418.0
 30
0.0
 11
162.0
 21
417.0
 31
0.0
  0
LINE
  5
396
330
17
100
AcDbEntity
  8
01_CUT_OUTLINE
100
AcDbLine
 10
162.0
 20
417.0
 30
0.0
 11
161.0
 21
417.0
 31
0.0
  0
LINE
  5
397
330
17
100
AcDbEntity
  8
01_CUT_OUTLINE
100
AcDbLine
 10
161.0
 20
417.0
 30
0.0
 11
160.0
 21
416.0
 31
0.0
  0
LINE
  5
398
330
17
100
AcDbEntity
  8
01_CUT_OUTLINE
100
AcDbLine
 10
160.0
 20
416.0
 30
0.0
 11
159.0
 21
416.0
 31
0.0
  0
LINE
  5
399
330
17
100
AcDbEntity
  8
01_CUT_OUTLINE
100
AcDbLine
 10
159.0
 20
416.0
 30
0.0
 11
158.0
 21
416.0
 31
0.0
  0
LINE
  5
39A
330
17
100
AcDbEntity
  8
01_CUT_OUTLINE
100
AcDbLine
 10
158.0
 20
416.0
 30
0.0
 11
157.0
 21
417.0
 31
0.0
  0
LINE
  5
39B
330
17
100
AcDbEntity
  8
01_CUT_OUTLINE
100
AcDbLine
 10
157.0
 20
417.0
 30
0.0
 11
156.0
 21
417.0
 31
0.0
  0
LINE
  5
39C
330
17
100
AcDbEntity
  8
01_CUT_OUTLINE
100
AcDbLine
 10
156.0
 20
417.0
 30
0.0
 11
155.0
 21
418.0
 31
0.0
  0
LINE
  5
39D
330
17
100
AcDbEntity
  8
01_CUT_OUTLINE
100
AcDbLine
 10
155.0
 20
418.0
 30
0.0
 11
154.0
 21
418.0
 31
0.0
  0
LINE
  5
39E
330
17
100
AcDbEntity
  8
01_CUT_OUTLINE
100
AcDbLine
 10
154.0
 20
418.0
 30
0.0
 11
153.0
 21
418.0
 31
0.0
  0
LINE
  5
39F
330
17
100
AcDbEntity
  8
01_CUT_OUTLINE
100
AcDbLine
 10
153.0
 20
418.0
 30
0.0
 11
152.0
 21
419.0
 31
0.0
  0
LINE
  5
3A0
330
17
100
AcDbEntity
  8
01_CUT_OUTLINE
100
AcDbLine
 10
152.0
 20
419.0
 30
0.0
 11
151.0
 21
419.0
 31
0.0
  0
LINE
  5
3A1
330
17
100
AcDbEntity
  8
01_CUT_OUTLINE
100
AcDbLine
 10
151.0
 20
419.0
 30
0.0
 11
150.0
 21
419.0
 31
0.0
  0
LINE
  5
3A2
330
17
100
AcDbEntity
  8
01_CUT_OUTLINE
100
AcDbLine
 10
150.0
 20
419.0
 30
0.0
 11
149.0
 21
419.0
 31
0.0
  0
LINE
  5
3A3
330
17
100
AcDbEntity
  8
01_CUT_OUTLINE
100
AcDbLine
 10
149.0
 20
419.0
 30
0.0
 11
148.0
 21
419.0
 31
0.0
  0
LINE
  5
3A4
330
17
100
AcDbEntity
  8
01_CUT_OUTLINE
100
AcDbLine
 10
148.0
 20
419.0
 30
0.0
 11
147.0
 21
419.0
 31
0.0
  0
LINE
  5
3A5
330
17
100
AcDbEntity
  8
01_CUT_OUTLINE
100
AcDbLine
 10
147.0
 20
419.0
 30
0.0
 11
146.0
 21
419.0
 31
0.0
  0
LINE
  5
3A6
330
17
100
AcDbEntity
  8
01_CUT_OUTLINE
100
AcDbLine
 10
146.0
 20
419.0
 30
0.0
 11
145.0
 21
419.0
 31
0.0
  0
LINE
  5
3A7
330
17
100
AcDbEntity
  8
01_CUT_OUTLINE
100
AcDbLine
 10
145.0
 20
419.0
 30
0.0
 11
144.0
 21
420.0
 31
0.0
  0
LINE
  5
3A8
330
17
100
AcDbEntity
  8
01_CUT_OUTLINE
100
AcDbLine
 10
144.0
 20
420.0
 30
0.0
 11
143.0
 21
420.0
 31
0.0
  0
LINE
  5
3A9
330
17
100
AcDbEntity
  8
01_CUT_OUTLINE
100
AcDbLine
 10
143.0
 20
420.0
 30
0.0
 11
142.0
 21
420.0
 31
0.0
  0
LINE
  5
3AA
330
17
100
AcDbEntity
  8
01_CUT_OUTLINE
100
AcDbLine
 10
142.0
 20
420.0
 30
0.0
 11
141.0
 21
420.0
 31
0.0
  0
LINE
  5
3AB
330
17
100
AcDbEntity
  8
01_CUT_OUTLINE
100
AcDbLine
 10
141.0
 20
420.0
 30
0.0
 11
140.0
 21
420.0
 31
0.0
  0
LINE
  5
3AC
330
17
100
AcDbEntity
  8
01_CUT_OUTLINE
100
AcDbLine
 10
140.0
 20
420.0
 30
0.0
 11
139.0
 21
420.0
 31
0.0
  0
LINE
  5
3AD
330
17
100
AcDbEntity
  8
01_CUT_OUTLINE
100
AcDbLine
 10
139.0
 20
420.0
 30
0.0
 11
138.0
 21
420.0
 31
0.0
  0
LINE
  5
3AE
330
17
100
AcDbEntity
  8
01_CUT_OUTLINE
100
AcDbLine
 10
138.0
 20
420.0
 30
0.0
 11
137.0
 21
420.0
 31
0.0
  0
LWPOLYLINE
  5
3AF
330
17
100
AcDbEntity
  8
04_MILL_SLOTS
100
AcDbPolyline
 90
4
 70
1
 10
213.0
 20
49.0
 10
213.0
 20
75.0
 10
221.0
 20
75.0
 10
221.0
 20
49.0
  0
ARC
  5
3B0
330
17
100
AcDbEntity
  8
04_MILL_SLOTS
100
AcDbCircle
 10
217.0
 20
49.0
 30
0.0
 40
4.0
100
AcDbArc
 50
180.0
 51
360.0
  0
ARC
  5
3B1
330
17
100
AcDbEntity
  8
04_MILL_SLOTS
100
AcDbCircle
 10
217.0
 20
75.0
 30
0.0
 40
4.0
100
AcDbArc
 50
0.0
 51
180.0
  0
LWPOLYLINE
  5
3B2
330
17
100
AcDbEntity
  8
04_MILL_SLOTS
100
AcDbPolyline
 90
4
 70
1
 10
197.97533270292982
 20
96.03511958734099
 10
198.85444090505914
 20
130.3202766200038
 10
212.8708672970702
 20
129.96088041265904
 10
211.99175909494087
 20
95.67572337999621
  0
ARC
  5
3B3
330
17
100
AcDbEntity
  8
04_MILL_SLOTS
100
AcDbCircle
 10
204.98354589893535
 20
95.85542148366861
 30
0.0
 40
7.01051664352417
100
AcDbArc
 50
178.53119659423828
 51
358.5311965942383
  0
ARC
  5
3B4
330
17
100
AcDbEntity
  8
04_MILL_SLOTS
100
AcDbCircle
 10
205.86265410106466
 20
130.1405785163314
 30
0.0
 40
7.01051664352417
100
AcDbArc
 50
-1.4688034057617188
 51
178.53119659423828
  0
LWPOLYLINE
  5
3B5
330
17
100
AcDbEntity
  8
04_MILL_SLOTS
100
AcDbPolyline
 90
4
 70
1
 10
99.31484220921136
 20
125.21435224381032
 10
145.6604527357415
 20
150.24098283878425
 10
148.69575779078863
 20
144.6200477561897
 10
102.35014726425851
 20
119.59341716121577
  0
ARC
  5
3B6
330
17
100
AcDbEntity
  8
04_MILL_SLOTS
100
AcDbCircle
 10
100.83249473673494
 20
122.40388470251304
 30
0.0
 40
3.194056510925293
100
AcDbArc
 50
118.36904716491699
 51
298.369047164917
  0
ARC
  5
3B7
330
17
100
AcDbEntity
  8
04_MILL_SLOTS
100
AcDbCircle
 10
147.17810526326508
 20
147.43051529748698
 30
0.0
 40
3.194056510925293
100
AcDbArc
 50
-61.63095283508301
 51
118.36904716491699
  0
LWPOLYLINE
  5
3B8
330
17
100
AcDbEntity
  8
04_MILL_SLOTS
100
AcDbPolyline
 90
4
 70
1
 10
105.50000190734863
 20
205.49999809265137
 10
138.49999809265137
 20
205.49999809265137
 10
138.49999809265137
 20
183.50000190734863
 10
105.50000190734863
 20
183.50000190734863
  0
ARC
  5
3B9
330
17
100
AcDbEntity
  8
04_MILL_SLOTS
100
AcDbCircle
 10
105.50000190734863
 20
194.5
 30
0.0
 40
10.999998092651367
100
AcDbArc
 50
90.0
 51
270.0
  0
ARC
  5
3BA
330
17
100
AcDbEntity
  8
04_MILL_SLOTS
100
AcDbCircle
 10
138.49999809265137
 20
194.5
 30
0.0
 40
10.999998092651367
100
AcDbArc
 50
-90.0
 51
90.0
  0
LWPOLYLINE
  5
3BB
330
17
100
AcDbEntity
  8
04_MILL_SLOTS
100
AcDbPolyline
 90
4
 70
1
 10
216.17645354654783
 20
248.35291199415647
 10
265.29409949584164
 20
277.82349959778315
 10
267.4117464534521
 20
274.29408800584355
 10
218.29410050415834
 20
244.82350040221687
  0
ARC
  5
3BC
330
17
100
AcDbEntity
  8
04_MILL_SLOTS
100
AcDbCircle
 10
217.2352770253531
 20
246.58820619818667
 30
0.0
 40
2.057982921600342
100
AcDbArc
 50
120.9637565612793
 51
300.9637565612793
  0
ARC
  5
3BD
330
17
100
AcDbEntity
  8
04_MILL_SLOTS
100
AcDbCircle
 10
266.3529229746469
 20
276.05879380181335
 30
0.0
 40
2.057982921600342
100
AcDbArc
 50
-59.0362434387207
 51
120.9637565612793
  0
LWPOLYLINE
  5
3BE
330
17
100
AcDbEntity
  8
04_MILL_SLOTS
100
AcDbPolyline
 90
4
 70
1
 10
214.0
 20
375.5
 10
214.0
 20
391.5
 10
221.0
 20
391.5
 10
221.0
 20
375.5
  0
ARC
  5
3BF
330
17
100
AcDbEntity
  8
04_MILL_SLOTS
100
AcDbCircle
 10
217.5
 20
375.5
 30
0.0
 40
3.5
100
AcDbArc
 50
180.0
 51
360.0
  0
ARC
  5
3C0
330
17
100
AcDbEntity
  8
04_MILL_SLOTS
100
AcDbCircle
 10
217.5
 20
391.5
 30
0.0
 40
3.5
100
AcDbArc
 50
0.0
 51
180.0
  0
LWPOLYLINE
  5
3C1
330
17
100
AcDbEntity
  8
04_MILL_SLOTS
100
AcDbPolyline
 90
4
 70
1
 10
164.0
 20
417.0
 10
190.0
 20
417.0
 10
190.0
 20
409.0
 10
164.0
 20
409.0
  0
ARC
  5
3C2
330
17
100
AcDbEntity
  8
04_MILL_SLOTS
100
AcDbCircle
 10
164.0
 20
413.0
 30
0.0
 40
4.0
100
AcDbArc
 50
90.0
 51
270.0
  0
ARC
  5
3C3
330
17
100
AcDbEntity
  8
04_MILL_SLOTS
100
AcDbCircle
 10
190.0
 20
413.0
 30
0.0
 40
4.0
100
AcDbArc
 50
-90.0
 51
90.0
  0
LWPOLYLINE
  5
3C4
330
17
100
AcDbEntity
  8
04_MILL_SLOTS
100
AcDbPolyline
 90
4
 70
1
 10
95.0
 20
352.5
 10
224.0
 20
352.5
 10
224.0
 20
281.5
 10
95.0
 20
281.5
  0
ARC
  5
3C5
330
17
100
AcDbEntity
  8
04_MILL_SLOTS
100
AcDbCircle
 10
95.0
 20
317.0
 30
0.0
 40
35.5
100
AcDbArc
 50
90.0
 51
270.0
  0
ARC
  5
3C6
330
17
100
AcDbEntity
  8
04_MILL_SLOTS
100
AcDbCircle
 10
224.0
 20
317.0
 30
0.0
 40
35.5
100
AcDbArc
 50
-90.0
 51
90.0
  0
ENDSEC
  0
SECTION
  2
OBJECTS
  0
DICTIONARY
  5
A
330
0
100
AcDbDictionary
280
0
281
1
  3
ACAD_COLOR
350
B
  3
ACAD_GROUP
350
C
  3
ACAD_LAYOUT
350
D
  3
ACAD_MATERIAL
350
E
  3
ACAD_MLEADERSTYLE
350
F
  3
ACAD_MLINESTYLE
350
10
  3
ACAD_PLOTSETTINGS
350
11
  3
ACAD_PLOTSTYLENAME
350
12
  3
ACAD_SCALELIST
350
14
  3
ACAD_TABLESTYLE
350
15
  3
ACAD_VISUALSTYLE
350
16
  3
EZDXF_META
350
2D
  0
DICTIONARY
  5
B
330
A
100
AcDbDictionary
280
0
281
1
  0
DICTIONARY
  5
C
330
A
100
AcDbDictionary
280
0
281
1
  0
DICTIONARY
  5
D
330
A
100
AcDbDictionary
280
0
281
1
  3
Model
350
1A
  3
Layout1
350
1E
  0
DICTIONARY
  5
E
330
A
100
AcDbDictionary
280
0
281
1
  3
ByBlock
350
1F
  3
ByLayer
350
20
  3
Global
350
21
  0
DICTIONARY
  5
F
330
A
100
AcDbDictionary
280
0
281
1
  3
Standard
350
2C
  0
DICTIONARY
  5
10
330
A
100
AcDbDictionary
280
0
281
1
  3
Standard
350
22
  0
DICTIONARY
  5
11
330
A
100
AcDbDictionary
280
0
281
1
  0
ACDBDICTIONARYWDFLT
  5
12
330
A
100
AcDbDictionary
280
0
281
1
  3
Normal
350
13
100
AcDbDictionaryWithDefault
340
13
  0
ACDBPLACEHOLDER
  5
13
330
12
  0
DICTIONARY
  5
14
330
A
100
AcDbDictionary
280
0
281
1
  0
DICTIONARY
  5
15
330
A
100
AcDbDictionary
280
0
281
1
  0
DICTIONARY
  5
16
330
A
100
AcDbDictionary
280
0
281
1
  0
LAYOUT
  5
1A
330
D
100
AcDbPlotSettings
  1

  4
A3
  6

 40
7.5
 41
20.0
 42
7.5
 43
20.0
 44
420.0
 45
297.0
 46
0.0
 47
0.0
 48
0.0
 49
0.0
140
0.0
141
0.0
142
1.0
143
1.0
 70
1024
 72
1
 73
0
 74
5
  7

 75
16
 76
0
 77
2
 78
300
147
1.0
148
0.0
149
0.0
100
AcDbLayout
  1
Model
 70
1
 71
0
 10
0.0
 20
0.0
 11
420.0
 21
297.0
 12
0.0
 22
0.0
 32
0.0
 14
1e+20
 24
1e+20
 34
1e+20
 15
-1e+20
 25
-1e+20
 35
-1e+20
146
0.0
 13
0.0
 23
0.0
 33
0.0
 16
1.0
 26
0.0
 36
0.0
 17
0.0
 27
1.0
 37
0.0
 76
1
330
17
  0
LAYOUT
  5
1E
330
D
100
AcDbPlotSettings
  1

  4
A3
  6

 40
7.5
 41
20.0
 42
7.5
 43
20.0
 44
420.0
 45
297.0
 46
0.0
 47
0.0
 48
0.0
 49
0.0
140
0.0
141
0.0
142
1.0
143
1.0
 70
0
 72
1
 73
0
 74
5
  7

 75
16
 76
0
 77
2
 78
300
147
1.0
148
0.0
149
0.0
100
AcDbLayout
  1
Layout1
 70
1
 71
1
 10
0.0
 20
0.0
 11
420.0
 21
297.0
 12
0.0
 22
0.0
 32
0.0
 14
1e+20
 24
1e+20
 34
1e+20
 15
-1e+20
 25
-1e+20
 35
-1e+20
146
0.0
 13
0.0
 23
0.0
 33
0.0
 16
1.0
 26
0.0
 36
0.0
 17
0.0
 27
1.0
 37
0.0
 76
1
330
1B
  0
MATERIAL
  5
1F
102
{ACAD_REACTORS
330
E
102
}
330
E
100
AcDbMaterial
  1
ByBlock
  2

 70
0
 40
1.0
 71
1
 41
1.0
 91
-1023410177
 42
1.0
 72
1
  3

 73
1
 74
1
 75
1
 44
0.5
 73
0
 45
1.0
 46
1.0
 77
1
  4

 78
1
 79
1
170
1
 48
1.0
171
1
  6

172
1
173
1
174
1
140
1.0
141
1.0
175
1
  7

176
1
177
1
178
1
143
1.0
179
1
  8

270
1
271
1
272
1
145
1.0
146
1.0
273
1
  9

274
1
275
1
276
1
 42
1.0
 72
1
  3

 73
1
 74
1
 75
1
 94
63
  0
MATERIAL
  5
20
102
{ACAD_REACTORS
330
E
102
}
330
E
100
AcDbMaterial
  1
ByLayer
  2

 70
0
 40
1.0
 71
1
 41
1.0
 91
-1023410177
 42
1.0
 72
1
  3

 73
1
 74
1
 75
1
 44
0.5
 73
0
 45
1.0
 46
1.0
 77
1
  4

 78
1
 79
1
170
1
 48
1.0
171
1
  6

172
1
173
1
174
1
140
1.0
141
1.0
175
1
  7

176
1
177
1
178
1
143
1.0
179
1
  8

270
1
271
1
272
1
145
1.0
146
1.0
273
1
  9

274
1
275
1
276
1
 42
1.0
 72
1
  3

 73
1
 74
1
 75
1
 94
63
  0
MATERIAL
  5
21
102
{ACAD_REACTORS
330
E
102
}
330
E
100
AcDbMaterial
  1
Global
  2

 70
0
 40
1.0
 71
1
 41
1.0
 91
-1023410177
 42
1.0
 72
1
  3

 73
1
 74
1
 75
1
 44
0.5
 73
0
 45
1.0
 46
1.0
 77
1
  4

 78
1
 79
1
170
1
 48
1.0
171
1
  6

172
1
173
1
174
1
140
1.0
141
1.0
175
1
  7

176
1
177
1
178
1
143
1.0
179
1
  8

270
1
271
1
272
1
145
1.0
146
1.0
273
1
  9

274
1
275
1
276
1
 42
1.0
 72
1
  3

 73
1
 74
1
 75
1
 94
63
  0
MLINESTYLE
  5
22
102
{ACAD_REACTORS
330
10
102
}
330
10
100
AcDbMlineStyle
  2
Standard
 70
0
  3

 62
256
 51
90.0
 52
90.0
 71
2
 49
0.5
 62
256
  6
BYLAYER
 49
-0.5
 62
256
  6
BYLAYER
  0
MLEADERSTYLE
  5
2C
102
{ACAD_REACTORS
330
F
102
}
330
F
100
AcDbMLeaderStyle
179
2
170
2
171
1
172
0
 90
2
 40
0.0
 41
0.0
173
1
 91
-1056964608
 92
-2
290
1
 42
2.0
291
1
 43
8.0
  3
Standard
 44
4.0
300

342
29
174
1
175
1
176
0
178
1
 93
-1056964608
 45
4.0
292
0
297
0
 46
4.0
 94
-1056964608
 47
1.0
 49
1.0
140
1.0
294
1
141
0.0
177
0
142
1.0
295
0
296
0
143
3.75
271
0
272
9
273
9
  0
DICTIONARY
  5
2D
330
A
100
AcDbDictionary
281
1
  3
CREATED_BY_EZDXF
350
2E
  3
WRITTEN_BY_EZDXF
350
3C9
  0
DICTIONARYVAR
  5
2E
330
2D
100
DictionaryVariables
280
0
  1
1.3.3 @ 2026-05-19T08:38:42.679266+00:00
  0
DICTIONARYVAR
  5
3C9
330
2D
100
DictionaryVariables
280
0
  1
1.3.3 @ 2026-05-19T08:38:42.800001+00:00
  0
ENDSEC
  0
EOF
